%TF.GenerationSoftware,KiCad,Pcbnew,9.0.4*%
%TF.CreationDate,2026-01-07T10:44:37-05:00*%
%TF.ProjectId,DAN-F10N_test_board,44414e2d-4631-4304-9e5f-746573745f62,rev?*%
%TF.SameCoordinates,Original*%
%TF.FileFunction,Copper,L2,Inr*%
%TF.FilePolarity,Positive*%
%FSLAX46Y46*%
G04 Gerber Fmt 4.6, Leading zero omitted, Abs format (unit mm)*
G04 Created by KiCad (PCBNEW 9.0.4) date 2026-01-07 10:44:37*
%MOMM*%
%LPD*%
G01*
G04 APERTURE LIST*
%TA.AperFunction,ComponentPad*%
%ADD10R,1.700000X1.700000*%
%TD*%
%TA.AperFunction,ComponentPad*%
%ADD11C,1.700000*%
%TD*%
%TA.AperFunction,ViaPad*%
%ADD12C,0.600000*%
%TD*%
G04 APERTURE END LIST*
D10*
%TO.N,/RXD*%
%TO.C,J5*%
X114300000Y-165100000D03*
D11*
%TO.N,/TXD*%
X116840000Y-165100000D03*
%TO.N,/RESET_N*%
X119380000Y-165100000D03*
%TO.N,/EXTINT*%
X121920000Y-165100000D03*
%TO.N,/SAFEBOOT_N*%
X124460000Y-165100000D03*
%TO.N,/TIMEPULSE*%
X127000000Y-165100000D03*
%TO.N,+3V3*%
X129540000Y-165100000D03*
%TO.N,GND*%
X132080000Y-165100000D03*
%TD*%
D10*
%TO.N,unconnected-(J3-Pin_1-Pad1)*%
%TO.C,J3*%
X132080000Y-139700000D03*
D11*
%TO.N,unconnected-(J3-Pin_2-Pad2)*%
X129540000Y-139700000D03*
%TO.N,unconnected-(J3-Pin_3-Pad3)*%
X132080000Y-142240000D03*
%TO.N,unconnected-(J3-Pin_4-Pad4)*%
X129540000Y-142240000D03*
%TO.N,unconnected-(J3-Pin_5-Pad5)*%
X132080000Y-144780000D03*
%TO.N,unconnected-(J3-Pin_6-Pad6)*%
X129540000Y-144780000D03*
%TO.N,unconnected-(J3-Pin_7-Pad7)*%
X132080000Y-147320000D03*
%TO.N,unconnected-(J3-Pin_8-Pad8)*%
X129540000Y-147320000D03*
%TO.N,unconnected-(J3-Pin_9-Pad9)*%
X132080000Y-149860000D03*
%TO.N,unconnected-(J3-Pin_10-Pad10)*%
X129540000Y-149860000D03*
%TD*%
D10*
%TO.N,unconnected-(J2-Pin_1-Pad1)*%
%TO.C,J2*%
X71120000Y-157480000D03*
D11*
%TO.N,unconnected-(J2-Pin_2-Pad2)*%
X68580000Y-157480000D03*
%TO.N,unconnected-(J2-Pin_3-Pad3)*%
X71120000Y-160020000D03*
%TO.N,unconnected-(J2-Pin_4-Pad4)*%
X68580000Y-160020000D03*
%TO.N,unconnected-(J2-Pin_5-Pad5)*%
X71120000Y-162560000D03*
%TO.N,unconnected-(J2-Pin_6-Pad6)*%
X68580000Y-162560000D03*
%TO.N,unconnected-(J2-Pin_7-Pad7)*%
X71120000Y-165100000D03*
%TO.N,unconnected-(J2-Pin_8-Pad8)*%
X68580000Y-165100000D03*
%TO.N,unconnected-(J2-Pin_9-Pad9)*%
X71120000Y-167640000D03*
%TO.N,unconnected-(J2-Pin_10-Pad10)*%
X68580000Y-167640000D03*
%TD*%
D10*
%TO.N,unconnected-(J1-Pin_1-Pad1)*%
%TO.C,J1*%
X71120000Y-139700000D03*
D11*
%TO.N,unconnected-(J1-Pin_2-Pad2)*%
X68580000Y-139700000D03*
%TO.N,unconnected-(J1-Pin_3-Pad3)*%
X71120000Y-142240000D03*
%TO.N,unconnected-(J1-Pin_4-Pad4)*%
X68580000Y-142240000D03*
%TO.N,unconnected-(J1-Pin_5-Pad5)*%
X71120000Y-144780000D03*
%TO.N,unconnected-(J1-Pin_6-Pad6)*%
X68580000Y-144780000D03*
%TO.N,unconnected-(J1-Pin_7-Pad7)*%
X71120000Y-147320000D03*
%TO.N,unconnected-(J1-Pin_8-Pad8)*%
X68580000Y-147320000D03*
%TO.N,unconnected-(J1-Pin_9-Pad9)*%
X71120000Y-149860000D03*
%TO.N,unconnected-(J1-Pin_10-Pad10)*%
X68580000Y-149860000D03*
%TD*%
D12*
%TO.N,GND*%
X130000000Y-162000000D03*
X123000000Y-162000000D03*
X121000000Y-162000000D03*
X118000000Y-162000000D03*
X116000000Y-162000000D03*
X126000000Y-145000000D03*
X123000000Y-145000000D03*
X121000000Y-145000000D03*
X118000000Y-145000000D03*
X115000000Y-145000000D03*
X123000000Y-120000000D03*
X126000000Y-120000000D03*
X126000000Y-130000000D03*
X126000000Y-125000000D03*
X123000000Y-130000000D03*
X123000000Y-125000000D03*
X103400000Y-112100000D03*
X75000000Y-165000000D03*
X80000000Y-165000000D03*
X85000000Y-165000000D03*
X90000000Y-165000000D03*
X95000000Y-165000000D03*
X100000000Y-165000000D03*
X110000000Y-165000000D03*
X105000000Y-165000000D03*
X105000000Y-160000000D03*
X100000000Y-160000000D03*
X95000000Y-160000000D03*
X90000000Y-160000000D03*
X85000000Y-160000000D03*
X80000000Y-160000000D03*
X75000000Y-160000000D03*
X75000000Y-155000000D03*
X80000000Y-155000000D03*
X85000000Y-155000000D03*
X90000000Y-155000000D03*
X95000000Y-155000000D03*
X100000000Y-155000000D03*
X105000000Y-155000000D03*
X105000000Y-150000000D03*
X100000000Y-150000000D03*
X95000000Y-150000000D03*
X90000000Y-150000000D03*
X85000000Y-150000000D03*
X80000000Y-150000000D03*
X75000000Y-150000000D03*
X75000000Y-145000000D03*
X75000000Y-140000000D03*
X80000000Y-140000000D03*
X80000000Y-145000000D03*
X85000000Y-145000000D03*
X90000000Y-145000000D03*
X90000000Y-140000000D03*
X85000000Y-140000000D03*
X95000000Y-140000000D03*
X100000000Y-140000000D03*
X100000000Y-145000000D03*
X95000000Y-145000000D03*
X105000000Y-145000000D03*
X110000000Y-140000000D03*
X110000000Y-150000000D03*
X110000000Y-155000000D03*
X110000000Y-160000000D03*
X130000000Y-155000000D03*
X130000000Y-160000000D03*
X115000000Y-125000000D03*
X115000000Y-130000000D03*
X120000000Y-130000000D03*
X120000000Y-125000000D03*
X120000000Y-120000000D03*
X125000000Y-115000000D03*
X120000000Y-110000000D03*
X115000000Y-105000000D03*
X130000000Y-130000000D03*
X130000000Y-125000000D03*
X130000000Y-120000000D03*
X130000000Y-115000000D03*
X125000000Y-110000000D03*
X130000000Y-110000000D03*
X130000000Y-105000000D03*
X125000000Y-105000000D03*
X120000000Y-105000000D03*
X110000000Y-115000000D03*
X115000000Y-115000000D03*
X115000000Y-120000000D03*
X110000000Y-130000000D03*
X110000000Y-125000000D03*
X105000000Y-120000000D03*
X105000000Y-125000000D03*
X105000000Y-130000000D03*
X100000000Y-130000000D03*
X100000000Y-125000000D03*
X95000000Y-125000000D03*
X100000000Y-120000000D03*
X95000000Y-120000000D03*
X90000000Y-120000000D03*
X100000000Y-115000000D03*
X95000000Y-115000000D03*
X90000000Y-115000000D03*
X90000000Y-130000000D03*
X85000000Y-130000000D03*
X80000000Y-130000000D03*
X75000000Y-130000000D03*
X70000000Y-130000000D03*
X85000000Y-125000000D03*
X80000000Y-125000000D03*
X75000000Y-125000000D03*
X70000000Y-125000000D03*
X70000000Y-120000000D03*
X75000000Y-120000000D03*
X80000000Y-120000000D03*
X85000000Y-120000000D03*
X85000000Y-115000000D03*
X80000000Y-115000000D03*
X75000000Y-115000000D03*
X70000000Y-115000000D03*
X85000000Y-110000000D03*
X80000000Y-110000000D03*
X75000000Y-110000000D03*
X70000000Y-110000000D03*
X85000000Y-105000000D03*
X80000000Y-105000000D03*
X75000000Y-105000000D03*
X70000000Y-105000000D03*
X70000000Y-100000000D03*
X75000000Y-100000000D03*
X80000000Y-100000000D03*
X85000000Y-100000000D03*
X115000000Y-100000000D03*
X120000000Y-100000000D03*
X125000000Y-100000000D03*
X130000000Y-100000000D03*
X125000000Y-95000000D03*
X130000000Y-95000000D03*
X120000000Y-95000000D03*
X115000000Y-95000000D03*
X85000000Y-95000000D03*
X80000000Y-95000000D03*
X75000000Y-95000000D03*
X70000000Y-95000000D03*
X70000000Y-90000000D03*
X75000000Y-90000000D03*
X80000000Y-90000000D03*
X85000000Y-90000000D03*
X115000000Y-90000000D03*
X120000000Y-90000000D03*
X125000000Y-90000000D03*
X130000000Y-90000000D03*
X130000000Y-85000000D03*
X125000000Y-85000000D03*
X120000000Y-85000000D03*
X115000000Y-85000000D03*
X110000000Y-85000000D03*
X105000000Y-85000000D03*
X100000000Y-85000000D03*
X95000000Y-85000000D03*
X90000000Y-85000000D03*
X85000000Y-85000000D03*
X80000000Y-85000000D03*
X75000000Y-85000000D03*
X70000000Y-85000000D03*
X70000000Y-80000000D03*
X75000000Y-80000000D03*
X80000000Y-80000000D03*
X85000000Y-80000000D03*
X90000000Y-80000000D03*
X95000000Y-80000000D03*
X100000000Y-80000000D03*
X105000000Y-80000000D03*
X110000000Y-80000000D03*
X115000000Y-80000000D03*
X120000000Y-80000000D03*
X125000000Y-80000000D03*
X130000000Y-80000000D03*
X130000000Y-75000000D03*
X130000000Y-70000000D03*
X125000000Y-70000000D03*
X125000000Y-75000000D03*
X120000000Y-75000000D03*
X120000000Y-70000000D03*
X115000000Y-70000000D03*
X115000000Y-75000000D03*
X110000000Y-75000000D03*
X110000000Y-70000000D03*
X105000000Y-70000000D03*
X105000000Y-75000000D03*
X100000000Y-75000000D03*
X100000000Y-70000000D03*
X95000000Y-70000000D03*
X95000000Y-75000000D03*
X90000000Y-75000000D03*
X90000000Y-70000000D03*
X85000000Y-70000000D03*
X85000000Y-75000000D03*
X80000000Y-75000000D03*
X80000000Y-70000000D03*
X75000000Y-75000000D03*
X70000000Y-75000000D03*
X75000000Y-70000000D03*
X70000000Y-70000000D03*
%TO.N,+3V3*%
X88364000Y-106050000D03*
%TO.N,/TIMEPULSE*%
X127000000Y-146200000D03*
X110500000Y-101650000D03*
%TO.N,/EXTINT*%
X121900000Y-146200000D03*
%TO.N,/RESET_N*%
X119350000Y-146200000D03*
%TO.N,/SAFEBOOT_N*%
X124450000Y-146200000D03*
X110500000Y-103850000D03*
%TO.N,/RXD*%
X114300000Y-146200000D03*
%TO.N,/TXD*%
X103200000Y-110500000D03*
%TO.N,/RXD*%
X101350000Y-110500000D03*
%TO.N,/EXTINT*%
X110500000Y-105000000D03*
%TO.N,+3V3*%
X89200000Y-103950000D03*
X89200000Y-102650000D03*
X88800000Y-103300000D03*
X89600000Y-103300000D03*
%TO.N,/RESET_N*%
X110500000Y-106050000D03*
%TO.N,GND*%
X110500000Y-95050000D03*
X110500000Y-93950000D03*
X110500000Y-92800000D03*
X107150000Y-89500000D03*
X106050000Y-89500000D03*
X103850000Y-89500000D03*
X102750000Y-89500000D03*
X100550000Y-89500000D03*
X98350000Y-89500000D03*
X97250000Y-89500000D03*
X95050000Y-89500000D03*
X93950000Y-89500000D03*
X92850000Y-89500000D03*
X89500000Y-92850000D03*
X89500000Y-93950000D03*
X89500000Y-97250000D03*
X89500000Y-98350000D03*
X89500000Y-99450000D03*
X89500000Y-100550000D03*
X89500000Y-101650000D03*
X89500000Y-104950000D03*
X89500000Y-107150000D03*
X92850000Y-110500000D03*
X93950000Y-110500000D03*
X95050000Y-110500000D03*
X96150000Y-110500000D03*
X97250000Y-110500000D03*
X98350000Y-110500000D03*
X99450000Y-110500000D03*
X100300000Y-110500000D03*
X106050000Y-110500000D03*
X107150000Y-110500000D03*
X110500000Y-107150000D03*
X110500000Y-102750000D03*
X110500000Y-100550000D03*
X110500000Y-99450000D03*
X110500000Y-98350000D03*
X97000000Y-99000000D03*
X97000000Y-101000000D03*
X97000000Y-103000000D03*
X99000000Y-103000000D03*
X101000000Y-103000000D03*
X103000000Y-103000000D03*
X103000000Y-101000000D03*
X103000000Y-99000000D03*
X101000000Y-99000000D03*
X101000000Y-101000000D03*
X99000000Y-101000000D03*
X99000000Y-99000000D03*
X103000000Y-97000000D03*
X101000000Y-97000000D03*
X99000000Y-97000000D03*
X97000000Y-97000000D03*
X90800000Y-90800000D03*
X93600000Y-92800000D03*
X93600000Y-93600000D03*
X92800000Y-93600000D03*
X92800000Y-92800000D03*
X92800000Y-107000000D03*
X92800000Y-106200000D03*
X93600000Y-106200000D03*
X93600000Y-107000000D03*
X106200000Y-107000000D03*
X106200000Y-106200000D03*
X107000000Y-106200000D03*
X107000000Y-107000000D03*
X106200000Y-93600000D03*
X106200000Y-92800000D03*
X107000000Y-92800000D03*
X107000000Y-93600000D03*
X108400000Y-91600000D03*
X109200000Y-91600000D03*
X108400000Y-90800000D03*
X109200000Y-90800000D03*
X90800000Y-108400000D03*
X91600000Y-109200000D03*
X91600000Y-108400000D03*
X109200000Y-109200000D03*
X109200000Y-108400000D03*
X108400000Y-108400000D03*
X108400000Y-109200000D03*
X90800000Y-91600000D03*
X91600000Y-91600000D03*
X91600000Y-90800000D03*
%TO.N,/TXD*%
X116900000Y-146200000D03*
%TD*%
%TA.AperFunction,Conductor*%
%TO.N,GND*%
G36*
X134978326Y-65021674D02*
G01*
X135000000Y-65074000D01*
X135000000Y-164261534D01*
X134978326Y-164313860D01*
X132814360Y-166477826D01*
X132762034Y-166499500D01*
X130070308Y-166499500D01*
X130017982Y-166477826D01*
X129996308Y-166425500D01*
X130017982Y-166373174D01*
X130047441Y-166355122D01*
X130058406Y-166351559D01*
X130058406Y-166351558D01*
X130058412Y-166351557D01*
X130247816Y-166255051D01*
X130419792Y-166130104D01*
X130570104Y-165979792D01*
X130695051Y-165807816D01*
X130791557Y-165618412D01*
X130791559Y-165618406D01*
X130857243Y-165416253D01*
X130857243Y-165416250D01*
X130857246Y-165416243D01*
X130887767Y-165223540D01*
X130917360Y-165175250D01*
X130972432Y-165162028D01*
X131020723Y-165191621D01*
X131033434Y-165220681D01*
X131070348Y-165406267D01*
X131070350Y-165406274D01*
X131149500Y-165597358D01*
X131264410Y-165769335D01*
X131266826Y-165771751D01*
X131662210Y-165376365D01*
X131679901Y-165407007D01*
X131772993Y-165500099D01*
X131803632Y-165517788D01*
X131408248Y-165913173D01*
X131410664Y-165915589D01*
X131582641Y-166030499D01*
X131773725Y-166109649D01*
X131773732Y-166109651D01*
X131976584Y-166150000D01*
X132183416Y-166150000D01*
X132386267Y-166109651D01*
X132386274Y-166109649D01*
X132577358Y-166030499D01*
X132749336Y-165915588D01*
X132751751Y-165913172D01*
X132356367Y-165517788D01*
X132387007Y-165500099D01*
X132480099Y-165407007D01*
X132497789Y-165376367D01*
X132893172Y-165771750D01*
X132895588Y-165769336D01*
X133010499Y-165597358D01*
X133089649Y-165406274D01*
X133089651Y-165406267D01*
X133130000Y-165203415D01*
X133130000Y-164996584D01*
X133089651Y-164793732D01*
X133089649Y-164793725D01*
X133010499Y-164602641D01*
X132895589Y-164430664D01*
X132893173Y-164428248D01*
X132497788Y-164823631D01*
X132480099Y-164792993D01*
X132387007Y-164699901D01*
X132356365Y-164682210D01*
X132751751Y-164286826D01*
X132749335Y-164284410D01*
X132577358Y-164169500D01*
X132386274Y-164090350D01*
X132386267Y-164090348D01*
X132183416Y-164050000D01*
X131976584Y-164050000D01*
X131773732Y-164090348D01*
X131773725Y-164090350D01*
X131582641Y-164169500D01*
X131410663Y-164284411D01*
X131408247Y-164286825D01*
X131803632Y-164682210D01*
X131772993Y-164699901D01*
X131679901Y-164792993D01*
X131662210Y-164823632D01*
X131266825Y-164428247D01*
X131264411Y-164430663D01*
X131149500Y-164602641D01*
X131070350Y-164793725D01*
X131070348Y-164793732D01*
X131033434Y-164979318D01*
X131001968Y-165026411D01*
X130946420Y-165037460D01*
X130899327Y-165005994D01*
X130887767Y-164976458D01*
X130858826Y-164793732D01*
X130857246Y-164783757D01*
X130857244Y-164783752D01*
X130857243Y-164783746D01*
X130791559Y-164581593D01*
X130791557Y-164581590D01*
X130791557Y-164581588D01*
X130695051Y-164392184D01*
X130672372Y-164360969D01*
X130672372Y-164360968D01*
X130607528Y-164271718D01*
X130570104Y-164220208D01*
X130419792Y-164069896D01*
X130334145Y-164007670D01*
X130247816Y-163944948D01*
X130058406Y-163848440D01*
X129856253Y-163782756D01*
X129856240Y-163782753D01*
X129646289Y-163749500D01*
X129646287Y-163749500D01*
X129433713Y-163749500D01*
X129433711Y-163749500D01*
X129223759Y-163782753D01*
X129223746Y-163782756D01*
X129021593Y-163848440D01*
X128832183Y-163944948D01*
X128665719Y-164065892D01*
X128660208Y-164069896D01*
X128509896Y-164220208D01*
X128509893Y-164220211D01*
X128509893Y-164220212D01*
X128384948Y-164392183D01*
X128335935Y-164488380D01*
X128292868Y-164525163D01*
X128236405Y-164520720D01*
X128204065Y-164488380D01*
X128155051Y-164392183D01*
X128078504Y-164286826D01*
X128030104Y-164220208D01*
X127879792Y-164069896D01*
X127794145Y-164007670D01*
X127707816Y-163944948D01*
X127518406Y-163848440D01*
X127316253Y-163782756D01*
X127316240Y-163782753D01*
X127106289Y-163749500D01*
X127106287Y-163749500D01*
X126893713Y-163749500D01*
X126893711Y-163749500D01*
X126683759Y-163782753D01*
X126683746Y-163782756D01*
X126481593Y-163848440D01*
X126292183Y-163944948D01*
X126125719Y-164065892D01*
X126120208Y-164069896D01*
X125969896Y-164220208D01*
X125969893Y-164220211D01*
X125969893Y-164220212D01*
X125844948Y-164392183D01*
X125795935Y-164488380D01*
X125752868Y-164525163D01*
X125696405Y-164520720D01*
X125664065Y-164488380D01*
X125615051Y-164392183D01*
X125538504Y-164286826D01*
X125490104Y-164220208D01*
X125339792Y-164069896D01*
X125254145Y-164007670D01*
X125167816Y-163944948D01*
X124978406Y-163848440D01*
X124776253Y-163782756D01*
X124776240Y-163782753D01*
X124566289Y-163749500D01*
X124566287Y-163749500D01*
X124353713Y-163749500D01*
X124353711Y-163749500D01*
X124143759Y-163782753D01*
X124143746Y-163782756D01*
X123941593Y-163848440D01*
X123752183Y-163944948D01*
X123585719Y-164065892D01*
X123580208Y-164069896D01*
X123429896Y-164220208D01*
X123429893Y-164220211D01*
X123429893Y-164220212D01*
X123304948Y-164392183D01*
X123255935Y-164488380D01*
X123212868Y-164525163D01*
X123156405Y-164520720D01*
X123124065Y-164488380D01*
X123075051Y-164392183D01*
X122998504Y-164286826D01*
X122950104Y-164220208D01*
X122799792Y-164069896D01*
X122714145Y-164007670D01*
X122627816Y-163944948D01*
X122438406Y-163848440D01*
X122236253Y-163782756D01*
X122236240Y-163782753D01*
X122026289Y-163749500D01*
X122026287Y-163749500D01*
X121813713Y-163749500D01*
X121813711Y-163749500D01*
X121603759Y-163782753D01*
X121603746Y-163782756D01*
X121401593Y-163848440D01*
X121212183Y-163944948D01*
X121045719Y-164065892D01*
X121040208Y-164069896D01*
X120889896Y-164220208D01*
X120889893Y-164220211D01*
X120889893Y-164220212D01*
X120764948Y-164392183D01*
X120715935Y-164488380D01*
X120672868Y-164525163D01*
X120616405Y-164520720D01*
X120584065Y-164488380D01*
X120535051Y-164392183D01*
X120458504Y-164286826D01*
X120410104Y-164220208D01*
X120259792Y-164069896D01*
X120174145Y-164007670D01*
X120087816Y-163944948D01*
X119898406Y-163848440D01*
X119696253Y-163782756D01*
X119696240Y-163782753D01*
X119486289Y-163749500D01*
X119486287Y-163749500D01*
X119273713Y-163749500D01*
X119273711Y-163749500D01*
X119063759Y-163782753D01*
X119063746Y-163782756D01*
X118861593Y-163848440D01*
X118672183Y-163944948D01*
X118505719Y-164065892D01*
X118500208Y-164069896D01*
X118349896Y-164220208D01*
X118349893Y-164220211D01*
X118349893Y-164220212D01*
X118224948Y-164392183D01*
X118175935Y-164488380D01*
X118132868Y-164525163D01*
X118076405Y-164520720D01*
X118044065Y-164488380D01*
X117995051Y-164392183D01*
X117918504Y-164286826D01*
X117870104Y-164220208D01*
X117719792Y-164069896D01*
X117634145Y-164007670D01*
X117547816Y-163944948D01*
X117358406Y-163848440D01*
X117156253Y-163782756D01*
X117156240Y-163782753D01*
X116946289Y-163749500D01*
X116946287Y-163749500D01*
X116733713Y-163749500D01*
X116733711Y-163749500D01*
X116523759Y-163782753D01*
X116523746Y-163782756D01*
X116321593Y-163848440D01*
X116132183Y-163944948D01*
X115965719Y-164065892D01*
X115960208Y-164069896D01*
X115960203Y-164069901D01*
X115809892Y-164220212D01*
X115784366Y-164255347D01*
X115736075Y-164284940D01*
X115681003Y-164271718D01*
X115651410Y-164223427D01*
X115650499Y-164211851D01*
X115650499Y-164202126D01*
X115648955Y-164187766D01*
X115644091Y-164142517D01*
X115624634Y-164090350D01*
X115593797Y-164007670D01*
X115593796Y-164007669D01*
X115507546Y-163892454D01*
X115392331Y-163806204D01*
X115392330Y-163806203D01*
X115392329Y-163806202D01*
X115257487Y-163755910D01*
X115257484Y-163755909D01*
X115257483Y-163755909D01*
X115197873Y-163749500D01*
X113402126Y-163749500D01*
X113342514Y-163755909D01*
X113207670Y-163806202D01*
X113207669Y-163806203D01*
X113092454Y-163892454D01*
X113006203Y-164007669D01*
X113006202Y-164007670D01*
X112955910Y-164142512D01*
X112955909Y-164142517D01*
X112949500Y-164202126D01*
X112949500Y-165997873D01*
X112955909Y-166057485D01*
X113006202Y-166192329D01*
X113006203Y-166192330D01*
X113006204Y-166192331D01*
X113092454Y-166307546D01*
X113170886Y-166366260D01*
X113199786Y-166414969D01*
X113185779Y-166469847D01*
X113137070Y-166498747D01*
X113126539Y-166499500D01*
X111815317Y-166499500D01*
X111804999Y-166497191D01*
X111749580Y-166499500D01*
X111694108Y-166499500D01*
X111694105Y-166499500D01*
X111694102Y-166499501D01*
X111691788Y-166500121D01*
X111675735Y-166502576D01*
X111673335Y-166502676D01*
X111673329Y-166502676D01*
X111673329Y-166502677D01*
X111673328Y-166502677D01*
X111673324Y-166502678D01*
X111621856Y-166518790D01*
X111621857Y-166518791D01*
X111620367Y-166519257D01*
X111566814Y-166533608D01*
X111557660Y-166538891D01*
X111549867Y-166541332D01*
X111549864Y-166541334D01*
X111547565Y-166542054D01*
X111502008Y-166570948D01*
X111500699Y-166571778D01*
X111452686Y-166599500D01*
X111445211Y-166606973D01*
X111438313Y-166611349D01*
X111438309Y-166611353D01*
X111436279Y-166612640D01*
X111399765Y-166652328D01*
X111397635Y-166654549D01*
X111359499Y-166692685D01*
X111358298Y-166694767D01*
X111348676Y-166707860D01*
X108802355Y-169475602D01*
X108750977Y-169499436D01*
X108747896Y-169499500D01*
X67237966Y-169499500D01*
X67185640Y-169477826D01*
X65021674Y-167313860D01*
X65000000Y-167261534D01*
X65000000Y-157373711D01*
X67229500Y-157373711D01*
X67229500Y-157586288D01*
X67262753Y-157796240D01*
X67262756Y-157796253D01*
X67328440Y-157998406D01*
X67424948Y-158187816D01*
X67501475Y-158293146D01*
X67549896Y-158359792D01*
X67700208Y-158510104D01*
X67785854Y-158572329D01*
X67872183Y-158635051D01*
X67968380Y-158684065D01*
X68005163Y-158727132D01*
X68000720Y-158783595D01*
X67968380Y-158815935D01*
X67872183Y-158864948D01*
X67700212Y-158989893D01*
X67700208Y-158989896D01*
X67549896Y-159140208D01*
X67549893Y-159140211D01*
X67549893Y-159140212D01*
X67424948Y-159312183D01*
X67328440Y-159501593D01*
X67262756Y-159703746D01*
X67262753Y-159703759D01*
X67229500Y-159913711D01*
X67229500Y-160126288D01*
X67262753Y-160336240D01*
X67262756Y-160336253D01*
X67328440Y-160538406D01*
X67424948Y-160727816D01*
X67501475Y-160833146D01*
X67549896Y-160899792D01*
X67700208Y-161050104D01*
X67795656Y-161119451D01*
X67872183Y-161175051D01*
X67968380Y-161224065D01*
X68005163Y-161267132D01*
X68000720Y-161323595D01*
X67968380Y-161355935D01*
X67872183Y-161404948D01*
X67700212Y-161529893D01*
X67700208Y-161529896D01*
X67549896Y-161680208D01*
X67549893Y-161680211D01*
X67549893Y-161680212D01*
X67424948Y-161852183D01*
X67328440Y-162041593D01*
X67262756Y-162243746D01*
X67262753Y-162243759D01*
X67229500Y-162453711D01*
X67229500Y-162666288D01*
X67262753Y-162876240D01*
X67262756Y-162876253D01*
X67328440Y-163078406D01*
X67424948Y-163267816D01*
X67501475Y-163373146D01*
X67549896Y-163439792D01*
X67700208Y-163590104D01*
X67795656Y-163659451D01*
X67872183Y-163715051D01*
X67938482Y-163748831D01*
X67952374Y-163755910D01*
X67968380Y-163764065D01*
X68005163Y-163807132D01*
X68000720Y-163863595D01*
X67968380Y-163895935D01*
X67872183Y-163944948D01*
X67705719Y-164065892D01*
X67700208Y-164069896D01*
X67549896Y-164220208D01*
X67549893Y-164220211D01*
X67549893Y-164220212D01*
X67424948Y-164392183D01*
X67328440Y-164581593D01*
X67262756Y-164783746D01*
X67262753Y-164783759D01*
X67229500Y-164993711D01*
X67229500Y-165206288D01*
X67262753Y-165416240D01*
X67262756Y-165416253D01*
X67328440Y-165618406D01*
X67424948Y-165807816D01*
X67501475Y-165913146D01*
X67549896Y-165979792D01*
X67700208Y-166130104D01*
X67785854Y-166192329D01*
X67872183Y-166255051D01*
X67968380Y-166304065D01*
X68005163Y-166347132D01*
X68000720Y-166403595D01*
X67968380Y-166435935D01*
X67872183Y-166484948D01*
X67714517Y-166599500D01*
X67700208Y-166609896D01*
X67549896Y-166760208D01*
X67549893Y-166760211D01*
X67549893Y-166760212D01*
X67424948Y-166932183D01*
X67328440Y-167121593D01*
X67262756Y-167323746D01*
X67262753Y-167323759D01*
X67229500Y-167533711D01*
X67229500Y-167746288D01*
X67262753Y-167956240D01*
X67262756Y-167956253D01*
X67328440Y-168158406D01*
X67424948Y-168347816D01*
X67501475Y-168453146D01*
X67549896Y-168519792D01*
X67700208Y-168670104D01*
X67795656Y-168739451D01*
X67872183Y-168795051D01*
X67963474Y-168841565D01*
X68061588Y-168891557D01*
X68061590Y-168891557D01*
X68061593Y-168891559D01*
X68263746Y-168957243D01*
X68263752Y-168957244D01*
X68263757Y-168957246D01*
X68368735Y-168973873D01*
X68473711Y-168990500D01*
X68473713Y-168990500D01*
X68686289Y-168990500D01*
X68770269Y-168977198D01*
X68896243Y-168957246D01*
X68896250Y-168957243D01*
X68896253Y-168957243D01*
X69098406Y-168891559D01*
X69098406Y-168891558D01*
X69098412Y-168891557D01*
X69287816Y-168795051D01*
X69459792Y-168670104D01*
X69610104Y-168519792D01*
X69735051Y-168347816D01*
X69784066Y-168251617D01*
X69827132Y-168214836D01*
X69883595Y-168219279D01*
X69915933Y-168251617D01*
X69936768Y-168292508D01*
X69964948Y-168347816D01*
X70041475Y-168453146D01*
X70089896Y-168519792D01*
X70240208Y-168670104D01*
X70335656Y-168739451D01*
X70412183Y-168795051D01*
X70503474Y-168841565D01*
X70601588Y-168891557D01*
X70601590Y-168891557D01*
X70601593Y-168891559D01*
X70803746Y-168957243D01*
X70803752Y-168957244D01*
X70803757Y-168957246D01*
X70908735Y-168973873D01*
X71013711Y-168990500D01*
X71013713Y-168990500D01*
X71226289Y-168990500D01*
X71310269Y-168977198D01*
X71436243Y-168957246D01*
X71436250Y-168957243D01*
X71436253Y-168957243D01*
X71638406Y-168891559D01*
X71638406Y-168891558D01*
X71638412Y-168891557D01*
X71827816Y-168795051D01*
X71999792Y-168670104D01*
X72150104Y-168519792D01*
X72275051Y-168347816D01*
X72371557Y-168158412D01*
X72437246Y-167956243D01*
X72470500Y-167746287D01*
X72470500Y-167533713D01*
X72437246Y-167323757D01*
X72437244Y-167323752D01*
X72437243Y-167323746D01*
X72371559Y-167121593D01*
X72371557Y-167121590D01*
X72371557Y-167121588D01*
X72321565Y-167023474D01*
X72275051Y-166932183D01*
X72183965Y-166806814D01*
X72150104Y-166760208D01*
X71999792Y-166609896D01*
X71933146Y-166561475D01*
X71827816Y-166484948D01*
X71772508Y-166456768D01*
X71731617Y-166435933D01*
X71694836Y-166392868D01*
X71699279Y-166336405D01*
X71731617Y-166304066D01*
X71827816Y-166255051D01*
X71999792Y-166130104D01*
X72150104Y-165979792D01*
X72275051Y-165807816D01*
X72371557Y-165618412D01*
X72371559Y-165618406D01*
X72437243Y-165416253D01*
X72437243Y-165416250D01*
X72437246Y-165416243D01*
X72470500Y-165206287D01*
X72470500Y-164993713D01*
X72437246Y-164783757D01*
X72437244Y-164783752D01*
X72437243Y-164783746D01*
X72371559Y-164581593D01*
X72371557Y-164581590D01*
X72371557Y-164581588D01*
X72321565Y-164483474D01*
X72275051Y-164392183D01*
X72198504Y-164286826D01*
X72150104Y-164220208D01*
X71999792Y-164069896D01*
X71914145Y-164007670D01*
X71827816Y-163944948D01*
X71772508Y-163916768D01*
X71731617Y-163895933D01*
X71694836Y-163852868D01*
X71699279Y-163796405D01*
X71731617Y-163764066D01*
X71827816Y-163715051D01*
X71999792Y-163590104D01*
X72150104Y-163439792D01*
X72275051Y-163267816D01*
X72371557Y-163078412D01*
X72437246Y-162876243D01*
X72470500Y-162666287D01*
X72470500Y-162453713D01*
X72437246Y-162243757D01*
X72437244Y-162243752D01*
X72437243Y-162243746D01*
X72371559Y-162041593D01*
X72371557Y-162041590D01*
X72371557Y-162041588D01*
X72321565Y-161943474D01*
X72275051Y-161852183D01*
X72219451Y-161775656D01*
X72150104Y-161680208D01*
X71999792Y-161529896D01*
X71933146Y-161481475D01*
X71827816Y-161404948D01*
X71772508Y-161376768D01*
X71731617Y-161355933D01*
X71694836Y-161312868D01*
X71699279Y-161256405D01*
X71731617Y-161224066D01*
X71827816Y-161175051D01*
X71999792Y-161050104D01*
X72150104Y-160899792D01*
X72275051Y-160727816D01*
X72371557Y-160538412D01*
X72437246Y-160336243D01*
X72470500Y-160126287D01*
X72470500Y-159913713D01*
X72437246Y-159703757D01*
X72437244Y-159703752D01*
X72437243Y-159703746D01*
X72371559Y-159501593D01*
X72371557Y-159501590D01*
X72371557Y-159501588D01*
X72321565Y-159403474D01*
X72275051Y-159312183D01*
X72219451Y-159235656D01*
X72150104Y-159140208D01*
X71999792Y-158989896D01*
X71999789Y-158989893D01*
X71999787Y-158989892D01*
X71964653Y-158964366D01*
X71935060Y-158916075D01*
X71948282Y-158861003D01*
X71996573Y-158831410D01*
X72008149Y-158830499D01*
X72017872Y-158830499D01*
X72077483Y-158824091D01*
X72144907Y-158798943D01*
X72212329Y-158773797D01*
X72212329Y-158773796D01*
X72212331Y-158773796D01*
X72327546Y-158687546D01*
X72413796Y-158572331D01*
X72464091Y-158437483D01*
X72470500Y-158377873D01*
X72470499Y-156582128D01*
X72464091Y-156522517D01*
X72437007Y-156449901D01*
X72413797Y-156387670D01*
X72413796Y-156387669D01*
X72327546Y-156272454D01*
X72212331Y-156186204D01*
X72212330Y-156186203D01*
X72212329Y-156186202D01*
X72077487Y-156135910D01*
X72077484Y-156135909D01*
X72077483Y-156135909D01*
X72017873Y-156129500D01*
X70222126Y-156129500D01*
X70162514Y-156135909D01*
X70027670Y-156186202D01*
X70027669Y-156186203D01*
X69912454Y-156272454D01*
X69826203Y-156387669D01*
X69826202Y-156387670D01*
X69775910Y-156522512D01*
X69775909Y-156522517D01*
X69769500Y-156582126D01*
X69769500Y-156591850D01*
X69747826Y-156644176D01*
X69695500Y-156665850D01*
X69643174Y-156644176D01*
X69635633Y-156635346D01*
X69610104Y-156600208D01*
X69459792Y-156449896D01*
X69374145Y-156387670D01*
X69287816Y-156324948D01*
X69098406Y-156228440D01*
X68896253Y-156162756D01*
X68896240Y-156162753D01*
X68686289Y-156129500D01*
X68686287Y-156129500D01*
X68473713Y-156129500D01*
X68473711Y-156129500D01*
X68263759Y-156162753D01*
X68263746Y-156162756D01*
X68061593Y-156228440D01*
X67872183Y-156324948D01*
X67700212Y-156449893D01*
X67700208Y-156449896D01*
X67549896Y-156600208D01*
X67549893Y-156600211D01*
X67549893Y-156600212D01*
X67424948Y-156772183D01*
X67328440Y-156961593D01*
X67262756Y-157163746D01*
X67262753Y-157163759D01*
X67229500Y-157373711D01*
X65000000Y-157373711D01*
X65000000Y-139593711D01*
X67229500Y-139593711D01*
X67229500Y-139806288D01*
X67262753Y-140016240D01*
X67262756Y-140016253D01*
X67328440Y-140218406D01*
X67424948Y-140407816D01*
X67501475Y-140513146D01*
X67549896Y-140579792D01*
X67700208Y-140730104D01*
X67785854Y-140792329D01*
X67872183Y-140855051D01*
X67968380Y-140904065D01*
X68005163Y-140947132D01*
X68000720Y-141003595D01*
X67968380Y-141035935D01*
X67872183Y-141084948D01*
X67700212Y-141209893D01*
X67700208Y-141209896D01*
X67549896Y-141360208D01*
X67549893Y-141360211D01*
X67549893Y-141360212D01*
X67424948Y-141532183D01*
X67328440Y-141721593D01*
X67262756Y-141923746D01*
X67262753Y-141923759D01*
X67229500Y-142133711D01*
X67229500Y-142346288D01*
X67262753Y-142556240D01*
X67262756Y-142556253D01*
X67328440Y-142758406D01*
X67424948Y-142947816D01*
X67501475Y-143053146D01*
X67549896Y-143119792D01*
X67700208Y-143270104D01*
X67795656Y-143339451D01*
X67872183Y-143395051D01*
X67968380Y-143444065D01*
X68005163Y-143487132D01*
X68000720Y-143543595D01*
X67968380Y-143575935D01*
X67872183Y-143624948D01*
X67700212Y-143749893D01*
X67700208Y-143749896D01*
X67549896Y-143900208D01*
X67549893Y-143900211D01*
X67549893Y-143900212D01*
X67424948Y-144072183D01*
X67328440Y-144261593D01*
X67262756Y-144463746D01*
X67262753Y-144463759D01*
X67229500Y-144673711D01*
X67229500Y-144886288D01*
X67262753Y-145096240D01*
X67262756Y-145096253D01*
X67328440Y-145298406D01*
X67424948Y-145487816D01*
X67490624Y-145578211D01*
X67549896Y-145659792D01*
X67700208Y-145810104D01*
X67795656Y-145879451D01*
X67872183Y-145935051D01*
X67968380Y-145984065D01*
X68005163Y-146027132D01*
X68000720Y-146083595D01*
X67968380Y-146115935D01*
X67872183Y-146164948D01*
X67700212Y-146289893D01*
X67700208Y-146289896D01*
X67549896Y-146440208D01*
X67549893Y-146440211D01*
X67549893Y-146440212D01*
X67424948Y-146612183D01*
X67328440Y-146801593D01*
X67262756Y-147003746D01*
X67262753Y-147003759D01*
X67229500Y-147213711D01*
X67229500Y-147426288D01*
X67262753Y-147636240D01*
X67262756Y-147636253D01*
X67328440Y-147838406D01*
X67424948Y-148027816D01*
X67501475Y-148133146D01*
X67549896Y-148199792D01*
X67700208Y-148350104D01*
X67795656Y-148419451D01*
X67872183Y-148475051D01*
X67968380Y-148524065D01*
X68005163Y-148567132D01*
X68000720Y-148623595D01*
X67968380Y-148655935D01*
X67872183Y-148704948D01*
X67700212Y-148829893D01*
X67700208Y-148829896D01*
X67549896Y-148980208D01*
X67549893Y-148980211D01*
X67549893Y-148980212D01*
X67424948Y-149152183D01*
X67328440Y-149341593D01*
X67262756Y-149543746D01*
X67262753Y-149543759D01*
X67229500Y-149753711D01*
X67229500Y-149966288D01*
X67262753Y-150176240D01*
X67262756Y-150176253D01*
X67328440Y-150378406D01*
X67424948Y-150567816D01*
X67501475Y-150673146D01*
X67549896Y-150739792D01*
X67700208Y-150890104D01*
X67795656Y-150959451D01*
X67872183Y-151015051D01*
X67963474Y-151061565D01*
X68061588Y-151111557D01*
X68061590Y-151111557D01*
X68061593Y-151111559D01*
X68263746Y-151177243D01*
X68263752Y-151177244D01*
X68263757Y-151177246D01*
X68368735Y-151193873D01*
X68473711Y-151210500D01*
X68473713Y-151210500D01*
X68686289Y-151210500D01*
X68770269Y-151197198D01*
X68896243Y-151177246D01*
X68896250Y-151177243D01*
X68896253Y-151177243D01*
X69098406Y-151111559D01*
X69098406Y-151111558D01*
X69098412Y-151111557D01*
X69287816Y-151015051D01*
X69459792Y-150890104D01*
X69610104Y-150739792D01*
X69735051Y-150567816D01*
X69784066Y-150471617D01*
X69827132Y-150434836D01*
X69883595Y-150439279D01*
X69915933Y-150471617D01*
X69936768Y-150512508D01*
X69964948Y-150567816D01*
X70041475Y-150673146D01*
X70089896Y-150739792D01*
X70240208Y-150890104D01*
X70335656Y-150959451D01*
X70412183Y-151015051D01*
X70503474Y-151061565D01*
X70601588Y-151111557D01*
X70601590Y-151111557D01*
X70601593Y-151111559D01*
X70803746Y-151177243D01*
X70803752Y-151177244D01*
X70803757Y-151177246D01*
X70908735Y-151193873D01*
X71013711Y-151210500D01*
X71013713Y-151210500D01*
X71226289Y-151210500D01*
X71310269Y-151197198D01*
X71436243Y-151177246D01*
X71436250Y-151177243D01*
X71436253Y-151177243D01*
X71638406Y-151111559D01*
X71638406Y-151111558D01*
X71638412Y-151111557D01*
X71827816Y-151015051D01*
X71999792Y-150890104D01*
X72150104Y-150739792D01*
X72275051Y-150567816D01*
X72371557Y-150378412D01*
X72437246Y-150176243D01*
X72470500Y-149966287D01*
X72470500Y-149753713D01*
X72437246Y-149543757D01*
X72437244Y-149543752D01*
X72437243Y-149543746D01*
X72371559Y-149341593D01*
X72371557Y-149341590D01*
X72371557Y-149341588D01*
X72321565Y-149243474D01*
X72275051Y-149152183D01*
X72219451Y-149075656D01*
X72150104Y-148980208D01*
X71999792Y-148829896D01*
X71933146Y-148781475D01*
X71827816Y-148704948D01*
X71772508Y-148676768D01*
X71731617Y-148655933D01*
X71694836Y-148612868D01*
X71699279Y-148556405D01*
X71731617Y-148524066D01*
X71827816Y-148475051D01*
X71999792Y-148350104D01*
X72150104Y-148199792D01*
X72275051Y-148027816D01*
X72371557Y-147838412D01*
X72437246Y-147636243D01*
X72470500Y-147426287D01*
X72470500Y-147213713D01*
X72437246Y-147003757D01*
X72437244Y-147003752D01*
X72437243Y-147003746D01*
X72371559Y-146801593D01*
X72371557Y-146801590D01*
X72371557Y-146801588D01*
X72321565Y-146703474D01*
X72275051Y-146612183D01*
X72219451Y-146535656D01*
X72150104Y-146440208D01*
X71999792Y-146289896D01*
X71946326Y-146251051D01*
X71848747Y-146180155D01*
X71848740Y-146180151D01*
X71827816Y-146164949D01*
X71741873Y-146121158D01*
X113499500Y-146121158D01*
X113499500Y-146278842D01*
X113501699Y-146289896D01*
X113530261Y-146433491D01*
X113530264Y-146433501D01*
X113590603Y-146579174D01*
X113590605Y-146579177D01*
X113590606Y-146579179D01*
X113678211Y-146710289D01*
X113789711Y-146821789D01*
X113920821Y-146909394D01*
X113920826Y-146909396D01*
X113920825Y-146909396D01*
X114066498Y-146969735D01*
X114066503Y-146969737D01*
X114221158Y-147000500D01*
X114221160Y-147000500D01*
X114378840Y-147000500D01*
X114378842Y-147000500D01*
X114533497Y-146969737D01*
X114679179Y-146909394D01*
X114810289Y-146821789D01*
X114921789Y-146710289D01*
X115009394Y-146579179D01*
X115069737Y-146433497D01*
X115100500Y-146278842D01*
X115100500Y-146121158D01*
X116099500Y-146121158D01*
X116099500Y-146278842D01*
X116101699Y-146289896D01*
X116130261Y-146433491D01*
X116130264Y-146433501D01*
X116190603Y-146579174D01*
X116190605Y-146579177D01*
X116190606Y-146579179D01*
X116278211Y-146710289D01*
X116389711Y-146821789D01*
X116520821Y-146909394D01*
X116520826Y-146909396D01*
X116520825Y-146909396D01*
X116666498Y-146969735D01*
X116666503Y-146969737D01*
X116821158Y-147000500D01*
X116821160Y-147000500D01*
X116978840Y-147000500D01*
X116978842Y-147000500D01*
X117133497Y-146969737D01*
X117279179Y-146909394D01*
X117410289Y-146821789D01*
X117521789Y-146710289D01*
X117609394Y-146579179D01*
X117669737Y-146433497D01*
X117700500Y-146278842D01*
X117700500Y-146121158D01*
X118549500Y-146121158D01*
X118549500Y-146278842D01*
X118551699Y-146289896D01*
X118580261Y-146433491D01*
X118580264Y-146433501D01*
X118640603Y-146579174D01*
X118640605Y-146579177D01*
X118640606Y-146579179D01*
X118728211Y-146710289D01*
X118839711Y-146821789D01*
X118970821Y-146909394D01*
X118970826Y-146909396D01*
X118970825Y-146909396D01*
X119116498Y-146969735D01*
X119116503Y-146969737D01*
X119271158Y-147000500D01*
X119271160Y-147000500D01*
X119428840Y-147000500D01*
X119428842Y-147000500D01*
X119583497Y-146969737D01*
X119729179Y-146909394D01*
X119860289Y-146821789D01*
X119971789Y-146710289D01*
X120059394Y-146579179D01*
X120119737Y-146433497D01*
X120150500Y-146278842D01*
X120150500Y-146121158D01*
X121099500Y-146121158D01*
X121099500Y-146278842D01*
X121101699Y-146289896D01*
X121130261Y-146433491D01*
X121130264Y-146433501D01*
X121190603Y-146579174D01*
X121190605Y-146579177D01*
X121190606Y-146579179D01*
X121278211Y-146710289D01*
X121389711Y-146821789D01*
X121520821Y-146909394D01*
X121520826Y-146909396D01*
X121520825Y-146909396D01*
X121666498Y-146969735D01*
X121666503Y-146969737D01*
X121821158Y-147000500D01*
X121821160Y-147000500D01*
X121978840Y-147000500D01*
X121978842Y-147000500D01*
X122133497Y-146969737D01*
X122279179Y-146909394D01*
X122410289Y-146821789D01*
X122521789Y-146710289D01*
X122609394Y-146579179D01*
X122669737Y-146433497D01*
X122700500Y-146278842D01*
X122700500Y-146121158D01*
X123649500Y-146121158D01*
X123649500Y-146278842D01*
X123651699Y-146289896D01*
X123680261Y-146433491D01*
X123680264Y-146433501D01*
X123740603Y-146579174D01*
X123740605Y-146579177D01*
X123740606Y-146579179D01*
X123828211Y-146710289D01*
X123939711Y-146821789D01*
X124070821Y-146909394D01*
X124070826Y-146909396D01*
X124070825Y-146909396D01*
X124216498Y-146969735D01*
X124216503Y-146969737D01*
X124371158Y-147000500D01*
X124371160Y-147000500D01*
X124528840Y-147000500D01*
X124528842Y-147000500D01*
X124683497Y-146969737D01*
X124829179Y-146909394D01*
X124960289Y-146821789D01*
X125071789Y-146710289D01*
X125159394Y-146579179D01*
X125219737Y-146433497D01*
X125250500Y-146278842D01*
X125250500Y-146121158D01*
X126199500Y-146121158D01*
X126199500Y-146278842D01*
X126201699Y-146289896D01*
X126230261Y-146433491D01*
X126230264Y-146433501D01*
X126290603Y-146579174D01*
X126290605Y-146579177D01*
X126290606Y-146579179D01*
X126378211Y-146710289D01*
X126489711Y-146821789D01*
X126620821Y-146909394D01*
X126620826Y-146909396D01*
X126620825Y-146909396D01*
X126766498Y-146969735D01*
X126766503Y-146969737D01*
X126921158Y-147000500D01*
X126921160Y-147000500D01*
X127078840Y-147000500D01*
X127078842Y-147000500D01*
X127233497Y-146969737D01*
X127379179Y-146909394D01*
X127510289Y-146821789D01*
X127621789Y-146710289D01*
X127709394Y-146579179D01*
X127769737Y-146433497D01*
X127800500Y-146278842D01*
X127800500Y-146121158D01*
X127769737Y-145966503D01*
X127709394Y-145820821D01*
X127621789Y-145689711D01*
X127510289Y-145578211D01*
X127379179Y-145490606D01*
X127379175Y-145490604D01*
X127379173Y-145490603D01*
X127379174Y-145490603D01*
X127233501Y-145430264D01*
X127233491Y-145430261D01*
X127129925Y-145409661D01*
X127078842Y-145399500D01*
X126921158Y-145399500D01*
X126877315Y-145408220D01*
X126766508Y-145430261D01*
X126766498Y-145430264D01*
X126620825Y-145490603D01*
X126489711Y-145578210D01*
X126489710Y-145578212D01*
X126378212Y-145689710D01*
X126378210Y-145689711D01*
X126290603Y-145820825D01*
X126230264Y-145966498D01*
X126230261Y-145966508D01*
X126206972Y-146083595D01*
X126199500Y-146121158D01*
X125250500Y-146121158D01*
X125219737Y-145966503D01*
X125159394Y-145820821D01*
X125071789Y-145689711D01*
X124960289Y-145578211D01*
X124829179Y-145490606D01*
X124829175Y-145490604D01*
X124829173Y-145490603D01*
X124829174Y-145490603D01*
X124683501Y-145430264D01*
X124683491Y-145430261D01*
X124579925Y-145409661D01*
X124528842Y-145399500D01*
X124371158Y-145399500D01*
X124327315Y-145408220D01*
X124216508Y-145430261D01*
X124216498Y-145430264D01*
X124070825Y-145490603D01*
X123939711Y-145578210D01*
X123939710Y-145578212D01*
X123828212Y-145689710D01*
X123828210Y-145689711D01*
X123740603Y-145820825D01*
X123680264Y-145966498D01*
X123680261Y-145966508D01*
X123656972Y-146083595D01*
X123649500Y-146121158D01*
X122700500Y-146121158D01*
X122669737Y-145966503D01*
X122609394Y-145820821D01*
X122521789Y-145689711D01*
X122410289Y-145578211D01*
X122279179Y-145490606D01*
X122279175Y-145490604D01*
X122279173Y-145490603D01*
X122279174Y-145490603D01*
X122133501Y-145430264D01*
X122133491Y-145430261D01*
X122029925Y-145409661D01*
X121978842Y-145399500D01*
X121821158Y-145399500D01*
X121777315Y-145408220D01*
X121666508Y-145430261D01*
X121666498Y-145430264D01*
X121520825Y-145490603D01*
X121389711Y-145578210D01*
X121389710Y-145578212D01*
X121278212Y-145689710D01*
X121278210Y-145689711D01*
X121190603Y-145820825D01*
X121130264Y-145966498D01*
X121130261Y-145966508D01*
X121106972Y-146083595D01*
X121099500Y-146121158D01*
X120150500Y-146121158D01*
X120119737Y-145966503D01*
X120059394Y-145820821D01*
X119971789Y-145689711D01*
X119860289Y-145578211D01*
X119729179Y-145490606D01*
X119729175Y-145490604D01*
X119729173Y-145490603D01*
X119729174Y-145490603D01*
X119583501Y-145430264D01*
X119583491Y-145430261D01*
X119479925Y-145409661D01*
X119428842Y-145399500D01*
X119271158Y-145399500D01*
X119227315Y-145408220D01*
X119116508Y-145430261D01*
X119116498Y-145430264D01*
X118970825Y-145490603D01*
X118839711Y-145578210D01*
X118839710Y-145578212D01*
X118728212Y-145689710D01*
X118728210Y-145689711D01*
X118640603Y-145820825D01*
X118580264Y-145966498D01*
X118580261Y-145966508D01*
X118556972Y-146083595D01*
X118549500Y-146121158D01*
X117700500Y-146121158D01*
X117669737Y-145966503D01*
X117609394Y-145820821D01*
X117521789Y-145689711D01*
X117410289Y-145578211D01*
X117279179Y-145490606D01*
X117279175Y-145490604D01*
X117279173Y-145490603D01*
X117279174Y-145490603D01*
X117133501Y-145430264D01*
X117133491Y-145430261D01*
X117029925Y-145409661D01*
X116978842Y-145399500D01*
X116821158Y-145399500D01*
X116777315Y-145408220D01*
X116666508Y-145430261D01*
X116666498Y-145430264D01*
X116520825Y-145490603D01*
X116389711Y-145578210D01*
X116389710Y-145578212D01*
X116278212Y-145689710D01*
X116278210Y-145689711D01*
X116190603Y-145820825D01*
X116130264Y-145966498D01*
X116130261Y-145966508D01*
X116106972Y-146083595D01*
X116099500Y-146121158D01*
X115100500Y-146121158D01*
X115069737Y-145966503D01*
X115009394Y-145820821D01*
X114921789Y-145689711D01*
X114810289Y-145578211D01*
X114679179Y-145490606D01*
X114679175Y-145490604D01*
X114679173Y-145490603D01*
X114679174Y-145490603D01*
X114533501Y-145430264D01*
X114533491Y-145430261D01*
X114429925Y-145409661D01*
X114378842Y-145399500D01*
X114221158Y-145399500D01*
X114177315Y-145408220D01*
X114066508Y-145430261D01*
X114066498Y-145430264D01*
X113920825Y-145490603D01*
X113789711Y-145578210D01*
X113789710Y-145578212D01*
X113678212Y-145689710D01*
X113678210Y-145689711D01*
X113590603Y-145820825D01*
X113530264Y-145966498D01*
X113530261Y-145966508D01*
X113506972Y-146083595D01*
X113499500Y-146121158D01*
X71741873Y-146121158D01*
X71730629Y-146115429D01*
X71729653Y-146114895D01*
X71712574Y-146093637D01*
X71694836Y-146072868D01*
X71694929Y-146071674D01*
X71694181Y-146070742D01*
X71697136Y-146043629D01*
X71699279Y-146016405D01*
X71700205Y-146015478D01*
X71700319Y-146014439D01*
X71705028Y-146010655D01*
X71731617Y-145984066D01*
X71827816Y-145935051D01*
X71999792Y-145810104D01*
X72150104Y-145659792D01*
X72275051Y-145487816D01*
X72371557Y-145298412D01*
X72437246Y-145096243D01*
X72470500Y-144886287D01*
X72470500Y-144673713D01*
X72437246Y-144463757D01*
X72437244Y-144463752D01*
X72437243Y-144463746D01*
X72371559Y-144261593D01*
X72371557Y-144261590D01*
X72371557Y-144261588D01*
X72321565Y-144163474D01*
X72275051Y-144072183D01*
X72219451Y-143995656D01*
X72150104Y-143900208D01*
X71999792Y-143749896D01*
X71933146Y-143701475D01*
X71827816Y-143624948D01*
X71772508Y-143596768D01*
X71731617Y-143575933D01*
X71694836Y-143532868D01*
X71699279Y-143476405D01*
X71731617Y-143444066D01*
X71827816Y-143395051D01*
X71999792Y-143270104D01*
X72150104Y-143119792D01*
X72275051Y-142947816D01*
X72371557Y-142758412D01*
X72437246Y-142556243D01*
X72470500Y-142346287D01*
X72470500Y-142133713D01*
X72437246Y-141923757D01*
X72437244Y-141923752D01*
X72437243Y-141923746D01*
X72371559Y-141721593D01*
X72371557Y-141721590D01*
X72371557Y-141721588D01*
X72321565Y-141623474D01*
X72275051Y-141532183D01*
X72219451Y-141455656D01*
X72150104Y-141360208D01*
X71999792Y-141209896D01*
X71999789Y-141209893D01*
X71999787Y-141209892D01*
X71964653Y-141184366D01*
X71935060Y-141136075D01*
X71948282Y-141081003D01*
X71996573Y-141051410D01*
X72008149Y-141050499D01*
X72017872Y-141050499D01*
X72077483Y-141044091D01*
X72144907Y-141018943D01*
X72212329Y-140993797D01*
X72212329Y-140993796D01*
X72212331Y-140993796D01*
X72327546Y-140907546D01*
X72413796Y-140792331D01*
X72464091Y-140657483D01*
X72470500Y-140597873D01*
X72470499Y-139593711D01*
X128189500Y-139593711D01*
X128189500Y-139806288D01*
X128222753Y-140016240D01*
X128222756Y-140016253D01*
X128288440Y-140218406D01*
X128384948Y-140407816D01*
X128461475Y-140513146D01*
X128509896Y-140579792D01*
X128660208Y-140730104D01*
X128745854Y-140792329D01*
X128832183Y-140855051D01*
X128928380Y-140904065D01*
X128965163Y-140947132D01*
X128960720Y-141003595D01*
X128928380Y-141035935D01*
X128832183Y-141084948D01*
X128660212Y-141209893D01*
X128660208Y-141209896D01*
X128509896Y-141360208D01*
X128509893Y-141360211D01*
X128509893Y-141360212D01*
X128384948Y-141532183D01*
X128288440Y-141721593D01*
X128222756Y-141923746D01*
X128222753Y-141923759D01*
X128189500Y-142133711D01*
X128189500Y-142346288D01*
X128222753Y-142556240D01*
X128222756Y-142556253D01*
X128288440Y-142758406D01*
X128384948Y-142947816D01*
X128461475Y-143053146D01*
X128509896Y-143119792D01*
X128660208Y-143270104D01*
X128755656Y-143339451D01*
X128832183Y-143395051D01*
X128928380Y-143444065D01*
X128965163Y-143487132D01*
X128960720Y-143543595D01*
X128928380Y-143575935D01*
X128832183Y-143624948D01*
X128660212Y-143749893D01*
X128660208Y-143749896D01*
X128509896Y-143900208D01*
X128509893Y-143900211D01*
X128509893Y-143900212D01*
X128384948Y-144072183D01*
X128288440Y-144261593D01*
X128222756Y-144463746D01*
X128222753Y-144463759D01*
X128189500Y-144673711D01*
X128189500Y-144886288D01*
X128222753Y-145096240D01*
X128222756Y-145096253D01*
X128288440Y-145298406D01*
X128384948Y-145487816D01*
X128450624Y-145578211D01*
X128509896Y-145659792D01*
X128660208Y-145810104D01*
X128755656Y-145879451D01*
X128832183Y-145935051D01*
X128928380Y-145984065D01*
X128965163Y-146027132D01*
X128960720Y-146083595D01*
X128928380Y-146115935D01*
X128832183Y-146164948D01*
X128660212Y-146289893D01*
X128660208Y-146289896D01*
X128509896Y-146440208D01*
X128509893Y-146440211D01*
X128509893Y-146440212D01*
X128384948Y-146612183D01*
X128288440Y-146801593D01*
X128222756Y-147003746D01*
X128222753Y-147003759D01*
X128189500Y-147213711D01*
X128189500Y-147426288D01*
X128222753Y-147636240D01*
X128222756Y-147636253D01*
X128288440Y-147838406D01*
X128384948Y-148027816D01*
X128461475Y-148133146D01*
X128509896Y-148199792D01*
X128660208Y-148350104D01*
X128755656Y-148419451D01*
X128832183Y-148475051D01*
X128928380Y-148524065D01*
X128965163Y-148567132D01*
X128960720Y-148623595D01*
X128928380Y-148655935D01*
X128832183Y-148704948D01*
X128660212Y-148829893D01*
X128660208Y-148829896D01*
X128509896Y-148980208D01*
X128509893Y-148980211D01*
X128509893Y-148980212D01*
X128384948Y-149152183D01*
X128288440Y-149341593D01*
X128222756Y-149543746D01*
X128222753Y-149543759D01*
X128189500Y-149753711D01*
X128189500Y-149966288D01*
X128222753Y-150176240D01*
X128222756Y-150176253D01*
X128288440Y-150378406D01*
X128384948Y-150567816D01*
X128461475Y-150673146D01*
X128509896Y-150739792D01*
X128660208Y-150890104D01*
X128755656Y-150959451D01*
X128832183Y-151015051D01*
X128923474Y-151061565D01*
X129021588Y-151111557D01*
X129021590Y-151111557D01*
X129021593Y-151111559D01*
X129223746Y-151177243D01*
X129223752Y-151177244D01*
X129223757Y-151177246D01*
X129328735Y-151193873D01*
X129433711Y-151210500D01*
X129433713Y-151210500D01*
X129646289Y-151210500D01*
X129730269Y-151197198D01*
X129856243Y-151177246D01*
X129856250Y-151177243D01*
X129856253Y-151177243D01*
X130058406Y-151111559D01*
X130058406Y-151111558D01*
X130058412Y-151111557D01*
X130247816Y-151015051D01*
X130419792Y-150890104D01*
X130570104Y-150739792D01*
X130695051Y-150567816D01*
X130744066Y-150471617D01*
X130787132Y-150434836D01*
X130843595Y-150439279D01*
X130875933Y-150471617D01*
X130896768Y-150512508D01*
X130924948Y-150567816D01*
X131001475Y-150673146D01*
X131049896Y-150739792D01*
X131200208Y-150890104D01*
X131295656Y-150959451D01*
X131372183Y-151015051D01*
X131463474Y-151061565D01*
X131561588Y-151111557D01*
X131561590Y-151111557D01*
X131561593Y-151111559D01*
X131763746Y-151177243D01*
X131763752Y-151177244D01*
X131763757Y-151177246D01*
X131868735Y-151193873D01*
X131973711Y-151210500D01*
X131973713Y-151210500D01*
X132186289Y-151210500D01*
X132270269Y-151197198D01*
X132396243Y-151177246D01*
X132396250Y-151177243D01*
X132396253Y-151177243D01*
X132598406Y-151111559D01*
X132598406Y-151111558D01*
X132598412Y-151111557D01*
X132787816Y-151015051D01*
X132959792Y-150890104D01*
X133110104Y-150739792D01*
X133235051Y-150567816D01*
X133331557Y-150378412D01*
X133397246Y-150176243D01*
X133430500Y-149966287D01*
X133430500Y-149753713D01*
X133397246Y-149543757D01*
X133397244Y-149543752D01*
X133397243Y-149543746D01*
X133331559Y-149341593D01*
X133331557Y-149341590D01*
X133331557Y-149341588D01*
X133281565Y-149243474D01*
X133235051Y-149152183D01*
X133179451Y-149075656D01*
X133110104Y-148980208D01*
X132959792Y-148829896D01*
X132893146Y-148781475D01*
X132787816Y-148704948D01*
X132732508Y-148676768D01*
X132691617Y-148655933D01*
X132654836Y-148612868D01*
X132659279Y-148556405D01*
X132691617Y-148524066D01*
X132787816Y-148475051D01*
X132959792Y-148350104D01*
X133110104Y-148199792D01*
X133235051Y-148027816D01*
X133331557Y-147838412D01*
X133397246Y-147636243D01*
X133430500Y-147426287D01*
X133430500Y-147213713D01*
X133397246Y-147003757D01*
X133397244Y-147003752D01*
X133397243Y-147003746D01*
X133331559Y-146801593D01*
X133331557Y-146801590D01*
X133331557Y-146801588D01*
X133281565Y-146703474D01*
X133235051Y-146612183D01*
X133179451Y-146535656D01*
X133110104Y-146440208D01*
X132959792Y-146289896D01*
X132893146Y-146241475D01*
X132787816Y-146164948D01*
X132732508Y-146136768D01*
X132691617Y-146115933D01*
X132654836Y-146072868D01*
X132659279Y-146016405D01*
X132691617Y-145984066D01*
X132787816Y-145935051D01*
X132959792Y-145810104D01*
X133110104Y-145659792D01*
X133235051Y-145487816D01*
X133331557Y-145298412D01*
X133397246Y-145096243D01*
X133430500Y-144886287D01*
X133430500Y-144673713D01*
X133397246Y-144463757D01*
X133397244Y-144463752D01*
X133397243Y-144463746D01*
X133331559Y-144261593D01*
X133331557Y-144261590D01*
X133331557Y-144261588D01*
X133281565Y-144163474D01*
X133235051Y-144072183D01*
X133179451Y-143995656D01*
X133110104Y-143900208D01*
X132959792Y-143749896D01*
X132893146Y-143701475D01*
X132787816Y-143624948D01*
X132732508Y-143596768D01*
X132691617Y-143575933D01*
X132654836Y-143532868D01*
X132659279Y-143476405D01*
X132691617Y-143444066D01*
X132787816Y-143395051D01*
X132959792Y-143270104D01*
X133110104Y-143119792D01*
X133235051Y-142947816D01*
X133331557Y-142758412D01*
X133397246Y-142556243D01*
X133430500Y-142346287D01*
X133430500Y-142133713D01*
X133397246Y-141923757D01*
X133397244Y-141923752D01*
X133397243Y-141923746D01*
X133331559Y-141721593D01*
X133331557Y-141721590D01*
X133331557Y-141721588D01*
X133281565Y-141623474D01*
X133235051Y-141532183D01*
X133179451Y-141455656D01*
X133110104Y-141360208D01*
X132959792Y-141209896D01*
X132959789Y-141209893D01*
X132959787Y-141209892D01*
X132924653Y-141184366D01*
X132895060Y-141136075D01*
X132908282Y-141081003D01*
X132956573Y-141051410D01*
X132968149Y-141050499D01*
X132977872Y-141050499D01*
X133037483Y-141044091D01*
X133104907Y-141018943D01*
X133172329Y-140993797D01*
X133172329Y-140993796D01*
X133172331Y-140993796D01*
X133287546Y-140907546D01*
X133373796Y-140792331D01*
X133424091Y-140657483D01*
X133430500Y-140597873D01*
X133430499Y-138802128D01*
X133424091Y-138742517D01*
X133397007Y-138669901D01*
X133373797Y-138607670D01*
X133373796Y-138607669D01*
X133287546Y-138492454D01*
X133172331Y-138406204D01*
X133172330Y-138406203D01*
X133172329Y-138406202D01*
X133037487Y-138355910D01*
X133037484Y-138355909D01*
X133037483Y-138355909D01*
X132977873Y-138349500D01*
X131182126Y-138349500D01*
X131122514Y-138355909D01*
X130987670Y-138406202D01*
X130987669Y-138406203D01*
X130872454Y-138492454D01*
X130786203Y-138607669D01*
X130786202Y-138607670D01*
X130735910Y-138742512D01*
X130735909Y-138742517D01*
X130729500Y-138802126D01*
X130729500Y-138811850D01*
X130707826Y-138864176D01*
X130655500Y-138885850D01*
X130603174Y-138864176D01*
X130595633Y-138855346D01*
X130570104Y-138820208D01*
X130419792Y-138669896D01*
X130334145Y-138607670D01*
X130247816Y-138544948D01*
X130058406Y-138448440D01*
X129856253Y-138382756D01*
X129856240Y-138382753D01*
X129646289Y-138349500D01*
X129646287Y-138349500D01*
X129433713Y-138349500D01*
X129433711Y-138349500D01*
X129223759Y-138382753D01*
X129223746Y-138382756D01*
X129021593Y-138448440D01*
X128832183Y-138544948D01*
X128660212Y-138669893D01*
X128660208Y-138669896D01*
X128509896Y-138820208D01*
X128509893Y-138820211D01*
X128509893Y-138820212D01*
X128384948Y-138992183D01*
X128288440Y-139181593D01*
X128222756Y-139383746D01*
X128222753Y-139383759D01*
X128189500Y-139593711D01*
X72470499Y-139593711D01*
X72470499Y-138802128D01*
X72464091Y-138742517D01*
X72437007Y-138669901D01*
X72413797Y-138607670D01*
X72413796Y-138607669D01*
X72327546Y-138492454D01*
X72212331Y-138406204D01*
X72212330Y-138406203D01*
X72212329Y-138406202D01*
X72077487Y-138355910D01*
X72077484Y-138355909D01*
X72077483Y-138355909D01*
X72017873Y-138349500D01*
X70222126Y-138349500D01*
X70162514Y-138355909D01*
X70027670Y-138406202D01*
X70027669Y-138406203D01*
X69912454Y-138492454D01*
X69826203Y-138607669D01*
X69826202Y-138607670D01*
X69775910Y-138742512D01*
X69775909Y-138742517D01*
X69769500Y-138802126D01*
X69769500Y-138811850D01*
X69747826Y-138864176D01*
X69695500Y-138885850D01*
X69643174Y-138864176D01*
X69635633Y-138855346D01*
X69610104Y-138820208D01*
X69459792Y-138669896D01*
X69374145Y-138607670D01*
X69287816Y-138544948D01*
X69098406Y-138448440D01*
X68896253Y-138382756D01*
X68896240Y-138382753D01*
X68686289Y-138349500D01*
X68686287Y-138349500D01*
X68473713Y-138349500D01*
X68473711Y-138349500D01*
X68263759Y-138382753D01*
X68263746Y-138382756D01*
X68061593Y-138448440D01*
X67872183Y-138544948D01*
X67700212Y-138669893D01*
X67700208Y-138669896D01*
X67549896Y-138820208D01*
X67549893Y-138820211D01*
X67549893Y-138820212D01*
X67424948Y-138992183D01*
X67328440Y-139181593D01*
X67262756Y-139383746D01*
X67262753Y-139383759D01*
X67229500Y-139593711D01*
X65000000Y-139593711D01*
X65000000Y-110421159D01*
X100549500Y-110421159D01*
X100549500Y-110578840D01*
X100580261Y-110733491D01*
X100580264Y-110733501D01*
X100640603Y-110879174D01*
X100640605Y-110879177D01*
X100640606Y-110879179D01*
X100728211Y-111010289D01*
X100839711Y-111121789D01*
X100970821Y-111209394D01*
X100970826Y-111209396D01*
X100970825Y-111209396D01*
X101116498Y-111269735D01*
X101116503Y-111269737D01*
X101271158Y-111300500D01*
X101271160Y-111300500D01*
X101428840Y-111300500D01*
X101428842Y-111300500D01*
X101583497Y-111269737D01*
X101729179Y-111209394D01*
X101860289Y-111121789D01*
X101971789Y-111010289D01*
X102059394Y-110879179D01*
X102119737Y-110733497D01*
X102150500Y-110578842D01*
X102150500Y-110421159D01*
X102399500Y-110421159D01*
X102399500Y-110578840D01*
X102430261Y-110733491D01*
X102430264Y-110733501D01*
X102490603Y-110879174D01*
X102490605Y-110879177D01*
X102490606Y-110879179D01*
X102578211Y-111010289D01*
X102689711Y-111121789D01*
X102820821Y-111209394D01*
X102820826Y-111209396D01*
X102820825Y-111209396D01*
X102966498Y-111269735D01*
X102966503Y-111269737D01*
X103121158Y-111300500D01*
X103121160Y-111300500D01*
X103278840Y-111300500D01*
X103278842Y-111300500D01*
X103433497Y-111269737D01*
X103579179Y-111209394D01*
X103710289Y-111121789D01*
X103821789Y-111010289D01*
X103909394Y-110879179D01*
X103969737Y-110733497D01*
X104000500Y-110578842D01*
X104000500Y-110421158D01*
X103969737Y-110266503D01*
X103909394Y-110120821D01*
X103821789Y-109989711D01*
X103710289Y-109878211D01*
X103579179Y-109790606D01*
X103579175Y-109790604D01*
X103579173Y-109790603D01*
X103579174Y-109790603D01*
X103433501Y-109730264D01*
X103433491Y-109730261D01*
X103329925Y-109709661D01*
X103278842Y-109699500D01*
X103121158Y-109699500D01*
X103077315Y-109708220D01*
X102966508Y-109730261D01*
X102966498Y-109730264D01*
X102820825Y-109790603D01*
X102689711Y-109878210D01*
X102689710Y-109878212D01*
X102578212Y-109989710D01*
X102578210Y-109989711D01*
X102490603Y-110120825D01*
X102430264Y-110266498D01*
X102430261Y-110266508D01*
X102399500Y-110421159D01*
X102150500Y-110421159D01*
X102150500Y-110421158D01*
X102119737Y-110266503D01*
X102059394Y-110120821D01*
X101971789Y-109989711D01*
X101860289Y-109878211D01*
X101729179Y-109790606D01*
X101729175Y-109790604D01*
X101729173Y-109790603D01*
X101729174Y-109790603D01*
X101583501Y-109730264D01*
X101583491Y-109730261D01*
X101479925Y-109709661D01*
X101428842Y-109699500D01*
X101271158Y-109699500D01*
X101227315Y-109708220D01*
X101116508Y-109730261D01*
X101116498Y-109730264D01*
X100970825Y-109790603D01*
X100839711Y-109878210D01*
X100839710Y-109878212D01*
X100728212Y-109989710D01*
X100728210Y-109989711D01*
X100640603Y-110120825D01*
X100580264Y-110266498D01*
X100580261Y-110266508D01*
X100549500Y-110421159D01*
X65000000Y-110421159D01*
X65000000Y-105971159D01*
X87563500Y-105971159D01*
X87563500Y-106128840D01*
X87594261Y-106283491D01*
X87594264Y-106283501D01*
X87654603Y-106429174D01*
X87654605Y-106429177D01*
X87654606Y-106429179D01*
X87742211Y-106560289D01*
X87853711Y-106671789D01*
X87984821Y-106759394D01*
X87984826Y-106759396D01*
X87984825Y-106759396D01*
X88130498Y-106819735D01*
X88130503Y-106819737D01*
X88285158Y-106850500D01*
X88285160Y-106850500D01*
X88442840Y-106850500D01*
X88442842Y-106850500D01*
X88597497Y-106819737D01*
X88743179Y-106759394D01*
X88874289Y-106671789D01*
X88985789Y-106560289D01*
X89073394Y-106429179D01*
X89133737Y-106283497D01*
X89164500Y-106128842D01*
X89164500Y-105971158D01*
X89133737Y-105816503D01*
X89073394Y-105670821D01*
X88985789Y-105539711D01*
X88874289Y-105428211D01*
X88743179Y-105340606D01*
X88743175Y-105340604D01*
X88743173Y-105340603D01*
X88743174Y-105340603D01*
X88597501Y-105280264D01*
X88597491Y-105280261D01*
X88493925Y-105259661D01*
X88442842Y-105249500D01*
X88285158Y-105249500D01*
X88241315Y-105258220D01*
X88130508Y-105280261D01*
X88130498Y-105280264D01*
X87984825Y-105340603D01*
X87853711Y-105428210D01*
X87853710Y-105428212D01*
X87742212Y-105539710D01*
X87742210Y-105539711D01*
X87654603Y-105670825D01*
X87594264Y-105816498D01*
X87594261Y-105816508D01*
X87563500Y-105971159D01*
X65000000Y-105971159D01*
X65000000Y-103221159D01*
X87999500Y-103221159D01*
X87999500Y-103378840D01*
X88030261Y-103533491D01*
X88030264Y-103533501D01*
X88090603Y-103679174D01*
X88090605Y-103679177D01*
X88090606Y-103679179D01*
X88178211Y-103810289D01*
X88289711Y-103921789D01*
X88366846Y-103973328D01*
X88398312Y-104020420D01*
X88399377Y-104027593D01*
X88399500Y-104028840D01*
X88399500Y-104028842D01*
X88409661Y-104079925D01*
X88430261Y-104183491D01*
X88430264Y-104183501D01*
X88490603Y-104329174D01*
X88490605Y-104329177D01*
X88490606Y-104329179D01*
X88534997Y-104395615D01*
X88554631Y-104425000D01*
X88578211Y-104460289D01*
X88689711Y-104571789D01*
X88820821Y-104659394D01*
X88820826Y-104659396D01*
X88820825Y-104659396D01*
X88966498Y-104719735D01*
X88966503Y-104719737D01*
X89121158Y-104750500D01*
X89121160Y-104750500D01*
X89278840Y-104750500D01*
X89278842Y-104750500D01*
X89433497Y-104719737D01*
X89579179Y-104659394D01*
X89710289Y-104571789D01*
X89821789Y-104460289D01*
X89909394Y-104329179D01*
X89969737Y-104183497D01*
X90000500Y-104028842D01*
X90000500Y-104028832D01*
X90000621Y-104027608D01*
X90000818Y-104027238D01*
X90001209Y-104025276D01*
X90001804Y-104025394D01*
X90027317Y-103977657D01*
X90033147Y-103973332D01*
X90110289Y-103921789D01*
X90221789Y-103810289D01*
X90247935Y-103771159D01*
X109699500Y-103771159D01*
X109699500Y-103928840D01*
X109730261Y-104083491D01*
X109730264Y-104083501D01*
X109790603Y-104229174D01*
X109878210Y-104360288D01*
X109890596Y-104372674D01*
X109912270Y-104425000D01*
X109890596Y-104477326D01*
X109878212Y-104489710D01*
X109878210Y-104489711D01*
X109790603Y-104620825D01*
X109730264Y-104766498D01*
X109730261Y-104766508D01*
X109699500Y-104921159D01*
X109699500Y-105078840D01*
X109730261Y-105233491D01*
X109730264Y-105233501D01*
X109790603Y-105379174D01*
X109860570Y-105483888D01*
X109871619Y-105539437D01*
X109860570Y-105566112D01*
X109790603Y-105670825D01*
X109730264Y-105816498D01*
X109730261Y-105816508D01*
X109699500Y-105971159D01*
X109699500Y-106128840D01*
X109730261Y-106283491D01*
X109730264Y-106283501D01*
X109790603Y-106429174D01*
X109790605Y-106429177D01*
X109790606Y-106429179D01*
X109878211Y-106560289D01*
X109989711Y-106671789D01*
X110120821Y-106759394D01*
X110120826Y-106759396D01*
X110120825Y-106759396D01*
X110266498Y-106819735D01*
X110266503Y-106819737D01*
X110421158Y-106850500D01*
X110421160Y-106850500D01*
X110578840Y-106850500D01*
X110578842Y-106850500D01*
X110733497Y-106819737D01*
X110879179Y-106759394D01*
X111010289Y-106671789D01*
X111121789Y-106560289D01*
X111209394Y-106429179D01*
X111269737Y-106283497D01*
X111300500Y-106128842D01*
X111300500Y-105971158D01*
X111269737Y-105816503D01*
X111209394Y-105670821D01*
X111139428Y-105566110D01*
X111128380Y-105510563D01*
X111139428Y-105483890D01*
X111209394Y-105379179D01*
X111269737Y-105233497D01*
X111300500Y-105078842D01*
X111300500Y-104921158D01*
X111269737Y-104766503D01*
X111263108Y-104750500D01*
X111209396Y-104620825D01*
X111209395Y-104620823D01*
X111209394Y-104620821D01*
X111121789Y-104489711D01*
X111109404Y-104477326D01*
X111087730Y-104425000D01*
X111109404Y-104372674D01*
X111121788Y-104360290D01*
X111121789Y-104360289D01*
X111209394Y-104229179D01*
X111269737Y-104083497D01*
X111300500Y-103928842D01*
X111300500Y-103771158D01*
X111269737Y-103616503D01*
X111209394Y-103470821D01*
X111121789Y-103339711D01*
X111010289Y-103228211D01*
X110999733Y-103221158D01*
X110977842Y-103206530D01*
X110879179Y-103140606D01*
X110879175Y-103140604D01*
X110879173Y-103140603D01*
X110879174Y-103140603D01*
X110733501Y-103080264D01*
X110733491Y-103080261D01*
X110629925Y-103059661D01*
X110578842Y-103049500D01*
X110421158Y-103049500D01*
X110377315Y-103058220D01*
X110266508Y-103080261D01*
X110266498Y-103080264D01*
X110120825Y-103140603D01*
X109989711Y-103228210D01*
X109989710Y-103228212D01*
X109878212Y-103339710D01*
X109878210Y-103339711D01*
X109790603Y-103470825D01*
X109730264Y-103616498D01*
X109730261Y-103616508D01*
X109699500Y-103771159D01*
X90247935Y-103771159D01*
X90309394Y-103679179D01*
X90369737Y-103533497D01*
X90400500Y-103378842D01*
X90400500Y-103221158D01*
X90369737Y-103066503D01*
X90309394Y-102920821D01*
X90221789Y-102789711D01*
X90110289Y-102678211D01*
X90033153Y-102626670D01*
X90001687Y-102579577D01*
X90000621Y-102572393D01*
X90000500Y-102571165D01*
X90000500Y-102571158D01*
X89969737Y-102416503D01*
X89909394Y-102270821D01*
X89821789Y-102139711D01*
X89710289Y-102028211D01*
X89579179Y-101940606D01*
X89579175Y-101940604D01*
X89579173Y-101940603D01*
X89579174Y-101940603D01*
X89433501Y-101880264D01*
X89433491Y-101880261D01*
X89329925Y-101859661D01*
X89278842Y-101849500D01*
X89121158Y-101849500D01*
X89077315Y-101858220D01*
X88966508Y-101880261D01*
X88966498Y-101880264D01*
X88820825Y-101940603D01*
X88689711Y-102028210D01*
X88689710Y-102028212D01*
X88578212Y-102139710D01*
X88578210Y-102139711D01*
X88490603Y-102270825D01*
X88430264Y-102416498D01*
X88430261Y-102416508D01*
X88399498Y-102571167D01*
X88399376Y-102572408D01*
X88399178Y-102572778D01*
X88398791Y-102574724D01*
X88398200Y-102574606D01*
X88372668Y-102622353D01*
X88366847Y-102626669D01*
X88289716Y-102678206D01*
X88289713Y-102678209D01*
X88178211Y-102789710D01*
X88178210Y-102789711D01*
X88090603Y-102920825D01*
X88030264Y-103066498D01*
X88030261Y-103066508D01*
X87999500Y-103221159D01*
X65000000Y-103221159D01*
X65000000Y-101571159D01*
X109699500Y-101571159D01*
X109699500Y-101728840D01*
X109730261Y-101883491D01*
X109730264Y-101883501D01*
X109790603Y-102029174D01*
X109864460Y-102139710D01*
X109878211Y-102160289D01*
X109989711Y-102271789D01*
X110120821Y-102359394D01*
X110120826Y-102359396D01*
X110120825Y-102359396D01*
X110258683Y-102416498D01*
X110266503Y-102419737D01*
X110421158Y-102450500D01*
X110421160Y-102450500D01*
X110578840Y-102450500D01*
X110578842Y-102450500D01*
X110733497Y-102419737D01*
X110879179Y-102359394D01*
X111010289Y-102271789D01*
X111121789Y-102160289D01*
X111209394Y-102029179D01*
X111269737Y-101883497D01*
X111300500Y-101728842D01*
X111300500Y-101571158D01*
X111269737Y-101416503D01*
X111209394Y-101270821D01*
X111121789Y-101139711D01*
X111010289Y-101028211D01*
X110879179Y-100940606D01*
X110879175Y-100940604D01*
X110879173Y-100940603D01*
X110879174Y-100940603D01*
X110733501Y-100880264D01*
X110733491Y-100880261D01*
X110629925Y-100859661D01*
X110578842Y-100849500D01*
X110421158Y-100849500D01*
X110377315Y-100858220D01*
X110266508Y-100880261D01*
X110266498Y-100880264D01*
X110120825Y-100940603D01*
X109989711Y-101028210D01*
X109989710Y-101028212D01*
X109878212Y-101139710D01*
X109878210Y-101139711D01*
X109790603Y-101270825D01*
X109730264Y-101416498D01*
X109730261Y-101416508D01*
X109699500Y-101571159D01*
X65000000Y-101571159D01*
X65000000Y-65074000D01*
X65021674Y-65021674D01*
X65074000Y-65000000D01*
X134926000Y-65000000D01*
X134978326Y-65021674D01*
G37*
%TD.AperFunction*%
%TD*%
M02*
