M48
; DRILL file {KiCad 9.0.4} date 2026-01-07T10:44:34-0500
; FORMAT={-:-/ absolute / metric / decimal}
; #@! TF.CreationDate,2026-01-07T10:44:34-05:00
; #@! TF.GenerationSoftware,Kicad,Pcbnew,9.0.4
; #@! TF.FileFunction,Plated,1,4,PTH
FMAT,2
METRIC
; #@! TA.AperFunction,Plated,PTH,ViaDrill
T1C0.300
; #@! TA.AperFunction,Plated,PTH,ComponentDrill
T2C1.000
%
G90
G05
T1
X70.0Y-70.0
X70.0Y-75.0
X70.0Y-80.0
X70.0Y-85.0
X70.0Y-90.0
X70.0Y-95.0
X70.0Y-100.0
X70.0Y-105.0
X70.0Y-110.0
X70.0Y-115.0
X70.0Y-120.0
X70.0Y-125.0
X70.0Y-130.0
X75.0Y-70.0
X75.0Y-75.0
X75.0Y-80.0
X75.0Y-85.0
X75.0Y-90.0
X75.0Y-95.0
X75.0Y-100.0
X75.0Y-105.0
X75.0Y-110.0
X75.0Y-115.0
X75.0Y-120.0
X75.0Y-125.0
X75.0Y-130.0
X75.0Y-140.0
X75.0Y-145.0
X75.0Y-150.0
X75.0Y-155.0
X75.0Y-160.0
X75.0Y-165.0
X80.0Y-70.0
X80.0Y-75.0
X80.0Y-80.0
X80.0Y-85.0
X80.0Y-90.0
X80.0Y-95.0
X80.0Y-100.0
X80.0Y-105.0
X80.0Y-110.0
X80.0Y-115.0
X80.0Y-120.0
X80.0Y-125.0
X80.0Y-130.0
X80.0Y-140.0
X80.0Y-145.0
X80.0Y-150.0
X80.0Y-155.0
X80.0Y-160.0
X80.0Y-165.0
X85.0Y-70.0
X85.0Y-75.0
X85.0Y-80.0
X85.0Y-85.0
X85.0Y-90.0
X85.0Y-95.0
X85.0Y-100.0
X85.0Y-105.0
X85.0Y-110.0
X85.0Y-115.0
X85.0Y-120.0
X85.0Y-125.0
X85.0Y-130.0
X85.0Y-140.0
X85.0Y-145.0
X85.0Y-150.0
X85.0Y-155.0
X85.0Y-160.0
X85.0Y-165.0
X88.364Y-106.05
X88.8Y-103.3
X89.2Y-102.65
X89.2Y-103.95
X89.5Y-92.85
X89.5Y-93.95
X89.5Y-97.25
X89.5Y-98.35
X89.5Y-99.45
X89.5Y-100.55
X89.5Y-101.65
X89.5Y-104.95
X89.5Y-107.15
X89.6Y-103.3
X90.0Y-70.0
X90.0Y-75.0
X90.0Y-80.0
X90.0Y-85.0
X90.0Y-115.0
X90.0Y-120.0
X90.0Y-130.0
X90.0Y-140.0
X90.0Y-145.0
X90.0Y-150.0
X90.0Y-155.0
X90.0Y-160.0
X90.0Y-165.0
X90.8Y-90.8
X90.8Y-91.6
X90.8Y-108.4
X91.6Y-90.8
X91.6Y-91.6
X91.6Y-108.4
X91.6Y-109.2
X92.8Y-92.8
X92.8Y-93.6
X92.8Y-106.2
X92.8Y-107.0
X92.85Y-89.5
X92.85Y-110.5
X93.6Y-92.8
X93.6Y-93.6
X93.6Y-106.2
X93.6Y-107.0
X93.95Y-89.5
X93.95Y-110.5
X95.0Y-70.0
X95.0Y-75.0
X95.0Y-80.0
X95.0Y-85.0
X95.0Y-115.0
X95.0Y-120.0
X95.0Y-125.0
X95.0Y-140.0
X95.0Y-145.0
X95.0Y-150.0
X95.0Y-155.0
X95.0Y-160.0
X95.0Y-165.0
X95.05Y-89.5
X95.05Y-110.5
X96.15Y-110.5
X97.0Y-97.0
X97.0Y-99.0
X97.0Y-101.0
X97.0Y-103.0
X97.25Y-89.5
X97.25Y-110.5
X98.35Y-89.5
X98.35Y-110.5
X99.0Y-97.0
X99.0Y-99.0
X99.0Y-101.0
X99.0Y-103.0
X99.45Y-110.5
X100.0Y-70.0
X100.0Y-75.0
X100.0Y-80.0
X100.0Y-85.0
X100.0Y-115.0
X100.0Y-120.0
X100.0Y-125.0
X100.0Y-130.0
X100.0Y-140.0
X100.0Y-145.0
X100.0Y-150.0
X100.0Y-155.0
X100.0Y-160.0
X100.0Y-165.0
X100.3Y-110.5
X100.55Y-89.5
X101.0Y-97.0
X101.0Y-99.0
X101.0Y-101.0
X101.0Y-103.0
X101.35Y-110.5
X102.75Y-89.5
X103.0Y-97.0
X103.0Y-99.0
X103.0Y-101.0
X103.0Y-103.0
X103.2Y-110.5
X103.4Y-112.1
X103.85Y-89.5
X105.0Y-70.0
X105.0Y-75.0
X105.0Y-80.0
X105.0Y-85.0
X105.0Y-120.0
X105.0Y-125.0
X105.0Y-130.0
X105.0Y-145.0
X105.0Y-150.0
X105.0Y-155.0
X105.0Y-160.0
X105.0Y-165.0
X106.05Y-89.5
X106.05Y-110.5
X106.2Y-92.8
X106.2Y-93.6
X106.2Y-106.2
X106.2Y-107.0
X107.0Y-92.8
X107.0Y-93.6
X107.0Y-106.2
X107.0Y-107.0
X107.15Y-89.5
X107.15Y-110.5
X108.4Y-90.8
X108.4Y-91.6
X108.4Y-108.4
X108.4Y-109.2
X109.2Y-90.8
X109.2Y-91.6
X109.2Y-108.4
X109.2Y-109.2
X110.0Y-70.0
X110.0Y-75.0
X110.0Y-80.0
X110.0Y-85.0
X110.0Y-115.0
X110.0Y-125.0
X110.0Y-130.0
X110.0Y-140.0
X110.0Y-150.0
X110.0Y-155.0
X110.0Y-160.0
X110.0Y-165.0
X110.5Y-92.8
X110.5Y-93.95
X110.5Y-95.05
X110.5Y-98.35
X110.5Y-99.45
X110.5Y-100.55
X110.5Y-101.65
X110.5Y-102.75
X110.5Y-103.85
X110.5Y-105.0
X110.5Y-106.05
X110.5Y-107.15
X114.3Y-146.2
X115.0Y-70.0
X115.0Y-75.0
X115.0Y-80.0
X115.0Y-85.0
X115.0Y-90.0
X115.0Y-95.0
X115.0Y-100.0
X115.0Y-105.0
X115.0Y-115.0
X115.0Y-120.0
X115.0Y-125.0
X115.0Y-130.0
X115.0Y-145.0
X116.0Y-162.0
X116.9Y-146.2
X118.0Y-145.0
X118.0Y-162.0
X119.35Y-146.2
X120.0Y-70.0
X120.0Y-75.0
X120.0Y-80.0
X120.0Y-85.0
X120.0Y-90.0
X120.0Y-95.0
X120.0Y-100.0
X120.0Y-105.0
X120.0Y-110.0
X120.0Y-120.0
X120.0Y-125.0
X120.0Y-130.0
X121.0Y-145.0
X121.0Y-162.0
X121.9Y-146.2
X123.0Y-120.0
X123.0Y-125.0
X123.0Y-130.0
X123.0Y-145.0
X123.0Y-162.0
X124.45Y-146.2
X125.0Y-70.0
X125.0Y-75.0
X125.0Y-80.0
X125.0Y-85.0
X125.0Y-90.0
X125.0Y-95.0
X125.0Y-100.0
X125.0Y-105.0
X125.0Y-110.0
X125.0Y-115.0
X126.0Y-120.0
X126.0Y-125.0
X126.0Y-130.0
X126.0Y-145.0
X127.0Y-146.2
X130.0Y-70.0
X130.0Y-75.0
X130.0Y-80.0
X130.0Y-85.0
X130.0Y-90.0
X130.0Y-95.0
X130.0Y-100.0
X130.0Y-105.0
X130.0Y-110.0
X130.0Y-115.0
X130.0Y-120.0
X130.0Y-125.0
X130.0Y-130.0
X130.0Y-155.0
X130.0Y-160.0
X130.0Y-162.0
T2
X68.58Y-139.7
X68.58Y-142.24
X68.58Y-144.78
X68.58Y-147.32
X68.58Y-149.86
X68.58Y-157.48
X68.58Y-160.02
X68.58Y-162.56
X68.58Y-165.1
X68.58Y-167.64
X71.12Y-139.7
X71.12Y-142.24
X71.12Y-144.78
X71.12Y-147.32
X71.12Y-149.86
X71.12Y-157.48
X71.12Y-160.02
X71.12Y-162.56
X71.12Y-165.1
X71.12Y-167.64
X114.3Y-165.1
X116.84Y-165.1
X119.38Y-165.1
X121.92Y-165.1
X124.46Y-165.1
X127.0Y-165.1
X129.54Y-139.7
X129.54Y-142.24
X129.54Y-144.78
X129.54Y-147.32
X129.54Y-149.86
X129.54Y-165.1
X132.08Y-139.7
X132.08Y-142.24
X132.08Y-144.78
X132.08Y-147.32
X132.08Y-149.86
X132.08Y-165.1
M30
