%TF.GenerationSoftware,KiCad,Pcbnew,9.0.4*%
%TF.CreationDate,2026-01-07T10:44:37-05:00*%
%TF.ProjectId,DAN-F10N_test_board,44414e2d-4631-4304-9e5f-746573745f62,rev?*%
%TF.SameCoordinates,Original*%
%TF.FileFunction,Copper,L1,Top*%
%TF.FilePolarity,Positive*%
%FSLAX46Y46*%
G04 Gerber Fmt 4.6, Leading zero omitted, Abs format (unit mm)*
G04 Created by KiCad (PCBNEW 9.0.4) date 2026-01-07 10:44:37*
%MOMM*%
%LPD*%
G01*
G04 APERTURE LIST*
G04 Aperture macros list*
%AMRoundRect*
0 Rectangle with rounded corners*
0 $1 Rounding radius*
0 $2 $3 $4 $5 $6 $7 $8 $9 X,Y pos of 4 corners*
0 Add a 4 corners polygon primitive as box body*
4,1,4,$2,$3,$4,$5,$6,$7,$8,$9,$2,$3,0*
0 Add four circle primitives for the rounded corners*
1,1,$1+$1,$2,$3*
1,1,$1+$1,$4,$5*
1,1,$1+$1,$6,$7*
1,1,$1+$1,$8,$9*
0 Add four rect primitives between the rounded corners*
20,1,$1+$1,$2,$3,$4,$5,0*
20,1,$1+$1,$4,$5,$6,$7,0*
20,1,$1+$1,$6,$7,$8,$9,0*
20,1,$1+$1,$8,$9,$2,$3,0*%
G04 Aperture macros list end*
%TA.AperFunction,ConnectorPad*%
%ADD10RoundRect,0.120000X0.280000X-0.630000X0.280000X0.630000X-0.280000X0.630000X-0.280000X-0.630000X0*%
%TD*%
%TA.AperFunction,ConnectorPad*%
%ADD11RoundRect,0.120000X-0.280000X0.630000X-0.280000X-0.630000X0.280000X-0.630000X0.280000X0.630000X0*%
%TD*%
%TA.AperFunction,ConnectorPad*%
%ADD12RoundRect,0.120000X0.630000X0.280000X-0.630000X0.280000X-0.630000X-0.280000X0.630000X-0.280000X0*%
%TD*%
%TA.AperFunction,ConnectorPad*%
%ADD13RoundRect,0.120000X-0.630000X-0.280000X0.630000X-0.280000X0.630000X0.280000X-0.630000X0.280000X0*%
%TD*%
%TA.AperFunction,ConnectorPad*%
%ADD14RoundRect,0.165000X-0.385000X0.385000X-0.385000X-0.385000X0.385000X-0.385000X0.385000X0.385000X0*%
%TD*%
%TA.AperFunction,ConnectorPad*%
%ADD15RoundRect,0.165000X0.385000X0.385000X-0.385000X0.385000X-0.385000X-0.385000X0.385000X-0.385000X0*%
%TD*%
%TA.AperFunction,ConnectorPad*%
%ADD16RoundRect,0.165000X0.385000X-0.385000X0.385000X0.385000X-0.385000X0.385000X-0.385000X-0.385000X0*%
%TD*%
%TA.AperFunction,ComponentPad*%
%ADD17R,1.700000X1.700000*%
%TD*%
%TA.AperFunction,ComponentPad*%
%ADD18C,1.700000*%
%TD*%
%TA.AperFunction,ViaPad*%
%ADD19C,0.600000*%
%TD*%
%TA.AperFunction,Conductor*%
%ADD20C,0.200000*%
%TD*%
G04 APERTURE END LIST*
D10*
%TO.P,U1,1,GND*%
%TO.N,GND*%
X92850000Y-108950000D03*
%TO.P,U1,2,GND*%
X93950000Y-108950000D03*
%TO.P,U1,3,GND*%
X95050000Y-108950000D03*
%TO.P,U1,4,GND*%
X96150000Y-108950000D03*
%TO.P,U1,5,GND*%
X97250000Y-108950000D03*
D11*
%TO.P,U1,6,GND*%
X98350000Y-108950000D03*
D10*
%TO.P,U1,7,GND*%
X99450000Y-108950000D03*
%TO.P,U1,8,GND*%
X100550000Y-108950000D03*
%TO.P,U1,9,RXD*%
%TO.N,/RXD*%
X101650000Y-108950000D03*
%TO.P,U1,10,TXD*%
%TO.N,/TXD*%
X102750000Y-108950000D03*
%TO.P,U1,11,NC*%
%TO.N,unconnected-(U1-NC-Pad11)*%
X103850000Y-108950000D03*
%TO.P,U1,12,NC*%
%TO.N,unconnected-(U1-NC-Pad12)*%
X104950000Y-108950000D03*
%TO.P,U1,13,GND*%
%TO.N,GND*%
X106050000Y-108950000D03*
%TO.P,U1,14,GND*%
X107150000Y-108950000D03*
D12*
%TO.P,U1,15,GND*%
X108950000Y-107150000D03*
%TO.P,U1,16,RESET_N*%
%TO.N,/RESET_N*%
X108950000Y-106050000D03*
%TO.P,U1,17,EXTINT*%
%TO.N,/EXTINT*%
X108950000Y-104950000D03*
%TO.P,U1,18,SAFEBOOT_N*%
%TO.N,/SAFEBOOT_N*%
X108950000Y-103850000D03*
%TO.P,U1,19,GND*%
%TO.N,GND*%
X108950000Y-102750000D03*
D13*
%TO.P,U1,20,TIMEPULSE*%
%TO.N,/TIMEPULSE*%
X108950000Y-101650000D03*
D12*
%TO.P,U1,21,GND*%
%TO.N,GND*%
X108950000Y-100550000D03*
%TO.P,U1,22,GND*%
X108950000Y-99450000D03*
%TO.P,U1,23,GND*%
X108950000Y-98350000D03*
%TO.P,U1,24,NC*%
%TO.N,unconnected-(U1-NC-Pad24)*%
X108950000Y-97250000D03*
%TO.P,U1,25,NC*%
%TO.N,unconnected-(U1-NC-Pad25)*%
X108950000Y-96150000D03*
%TO.P,U1,26,GND*%
%TO.N,GND*%
X108950000Y-95050000D03*
%TO.P,U1,27,GND*%
X108950000Y-93950000D03*
%TO.P,U1,28,GND*%
X108950000Y-92850000D03*
D10*
%TO.P,U1,29,GND*%
X107150000Y-91050000D03*
%TO.P,U1,30,GND*%
X106050000Y-91050000D03*
%TO.P,U1,31,VCC_RF*%
%TO.N,unconnected-(U1-VCC_RF-Pad31)*%
X104950000Y-91050000D03*
%TO.P,U1,32,ANT_CTRL*%
%TO.N,GND*%
X103850000Y-91050000D03*
%TO.P,U1,33,GND*%
X102750000Y-91050000D03*
%TO.P,U1,34,EXT_RF_IN*%
%TO.N,unconnected-(U1-EXT_RF_IN-Pad34)*%
X101650000Y-91050000D03*
%TO.P,U1,35,GND*%
%TO.N,GND*%
X100550000Y-91050000D03*
%TO.P,U1,36,NC*%
%TO.N,unconnected-(U1-NC-Pad36)*%
X99450000Y-91050000D03*
D11*
%TO.P,U1,37,GND*%
%TO.N,GND*%
X98350000Y-91050000D03*
D10*
%TO.P,U1,38,GND*%
X97250000Y-91050000D03*
%TO.P,U1,39,LNA_EN*%
%TO.N,unconnected-(U1-LNA_EN-Pad39)*%
X96150000Y-91050000D03*
%TO.P,U1,40,GND*%
%TO.N,GND*%
X95050000Y-91050000D03*
%TO.P,U1,41,GND*%
X93950000Y-91050000D03*
%TO.P,U1,42,GND*%
X92850000Y-91050000D03*
D12*
%TO.P,U1,43,GND*%
X91050000Y-92850000D03*
%TO.P,U1,44,GND*%
X91050000Y-93950000D03*
%TO.P,U1,45,NC*%
%TO.N,unconnected-(U1-NC-Pad45)*%
X91050000Y-95050000D03*
%TO.P,U1,46,NC*%
%TO.N,unconnected-(U1-NC-Pad46)*%
X91050000Y-96150000D03*
%TO.P,U1,47,GND*%
%TO.N,GND*%
X91050000Y-97250000D03*
%TO.P,U1,48,GND*%
X91050000Y-98350000D03*
%TO.P,U1,49,GND*%
X91050000Y-99450000D03*
%TO.P,U1,50,GND*%
X91050000Y-100550000D03*
D13*
%TO.P,U1,51,GND*%
X91050000Y-101650000D03*
D12*
%TO.P,U1,52,VCC*%
%TO.N,+3V3*%
X91050000Y-102750000D03*
%TO.P,U1,53,VCC*%
X91050000Y-103850000D03*
%TO.P,U1,54,GND*%
%TO.N,GND*%
X91050000Y-104950000D03*
%TO.P,U1,55,V_BCKP*%
%TO.N,+3V3*%
X91050000Y-106050000D03*
%TO.P,U1,56,GND*%
%TO.N,GND*%
X91050000Y-107150000D03*
D14*
%TO.P,U1,EP,EP*%
X93350000Y-95200000D03*
X93350000Y-97100000D03*
X93350000Y-99000000D03*
X93350000Y-100900000D03*
X93350000Y-102800000D03*
X93350000Y-104700000D03*
D15*
X95250000Y-93300000D03*
X95250000Y-95200000D03*
D14*
X95250000Y-97100000D03*
X95250000Y-99000000D03*
X95250000Y-100900000D03*
X95250000Y-102800000D03*
X95250000Y-104700000D03*
X95250000Y-106600000D03*
D15*
X97150000Y-93300000D03*
X97150000Y-95200000D03*
X97150000Y-104700000D03*
X97150000Y-106600000D03*
X99050000Y-93300000D03*
X99050000Y-95200000D03*
X99050000Y-104700000D03*
X99050000Y-106600000D03*
X100950000Y-93300000D03*
X100950000Y-95200000D03*
X100950000Y-104700000D03*
X100950000Y-106600000D03*
X102850000Y-93300000D03*
X102850000Y-95200000D03*
X102850000Y-104700000D03*
X102850000Y-106600000D03*
X104750000Y-93300000D03*
X104750000Y-95200000D03*
D16*
X104750000Y-97100000D03*
X104750000Y-99000000D03*
X104750000Y-100900000D03*
X104750000Y-102800000D03*
X104750000Y-104700000D03*
X104750000Y-106600000D03*
D14*
X106650000Y-95200000D03*
X106650000Y-97100000D03*
X106650000Y-99000000D03*
X106650000Y-100900000D03*
X106650000Y-102800000D03*
X106650000Y-104700000D03*
%TD*%
D17*
%TO.P,J5,1,Pin_1*%
%TO.N,/RXD*%
X114300000Y-165100000D03*
D18*
%TO.P,J5,2,Pin_2*%
%TO.N,/TXD*%
X116840000Y-165100000D03*
%TO.P,J5,3,Pin_3*%
%TO.N,/RESET_N*%
X119380000Y-165100000D03*
%TO.P,J5,4,Pin_4*%
%TO.N,/EXTINT*%
X121920000Y-165100000D03*
%TO.P,J5,5,Pin_5*%
%TO.N,/SAFEBOOT_N*%
X124460000Y-165100000D03*
%TO.P,J5,6,Pin_6*%
%TO.N,/TIMEPULSE*%
X127000000Y-165100000D03*
%TO.P,J5,7,Pin_7*%
%TO.N,+3V3*%
X129540000Y-165100000D03*
%TO.P,J5,8,Pin_8*%
%TO.N,GND*%
X132080000Y-165100000D03*
%TD*%
D17*
%TO.P,J3,1,Pin_1*%
%TO.N,unconnected-(J3-Pin_1-Pad1)*%
X132080000Y-139700000D03*
D18*
%TO.P,J3,2,Pin_2*%
%TO.N,unconnected-(J3-Pin_2-Pad2)*%
X129540000Y-139700000D03*
%TO.P,J3,3,Pin_3*%
%TO.N,unconnected-(J3-Pin_3-Pad3)*%
X132080000Y-142240000D03*
%TO.P,J3,4,Pin_4*%
%TO.N,unconnected-(J3-Pin_4-Pad4)*%
X129540000Y-142240000D03*
%TO.P,J3,5,Pin_5*%
%TO.N,unconnected-(J3-Pin_5-Pad5)*%
X132080000Y-144780000D03*
%TO.P,J3,6,Pin_6*%
%TO.N,unconnected-(J3-Pin_6-Pad6)*%
X129540000Y-144780000D03*
%TO.P,J3,7,Pin_7*%
%TO.N,unconnected-(J3-Pin_7-Pad7)*%
X132080000Y-147320000D03*
%TO.P,J3,8,Pin_8*%
%TO.N,unconnected-(J3-Pin_8-Pad8)*%
X129540000Y-147320000D03*
%TO.P,J3,9,Pin_9*%
%TO.N,unconnected-(J3-Pin_9-Pad9)*%
X132080000Y-149860000D03*
%TO.P,J3,10,Pin_10*%
%TO.N,unconnected-(J3-Pin_10-Pad10)*%
X129540000Y-149860000D03*
%TD*%
D17*
%TO.P,J2,1,Pin_1*%
%TO.N,unconnected-(J2-Pin_1-Pad1)*%
X71120000Y-157480000D03*
D18*
%TO.P,J2,2,Pin_2*%
%TO.N,unconnected-(J2-Pin_2-Pad2)*%
X68580000Y-157480000D03*
%TO.P,J2,3,Pin_3*%
%TO.N,unconnected-(J2-Pin_3-Pad3)*%
X71120000Y-160020000D03*
%TO.P,J2,4,Pin_4*%
%TO.N,unconnected-(J2-Pin_4-Pad4)*%
X68580000Y-160020000D03*
%TO.P,J2,5,Pin_5*%
%TO.N,unconnected-(J2-Pin_5-Pad5)*%
X71120000Y-162560000D03*
%TO.P,J2,6,Pin_6*%
%TO.N,unconnected-(J2-Pin_6-Pad6)*%
X68580000Y-162560000D03*
%TO.P,J2,7,Pin_7*%
%TO.N,unconnected-(J2-Pin_7-Pad7)*%
X71120000Y-165100000D03*
%TO.P,J2,8,Pin_8*%
%TO.N,unconnected-(J2-Pin_8-Pad8)*%
X68580000Y-165100000D03*
%TO.P,J2,9,Pin_9*%
%TO.N,unconnected-(J2-Pin_9-Pad9)*%
X71120000Y-167640000D03*
%TO.P,J2,10,Pin_10*%
%TO.N,unconnected-(J2-Pin_10-Pad10)*%
X68580000Y-167640000D03*
%TD*%
D17*
%TO.P,J1,1,Pin_1*%
%TO.N,unconnected-(J1-Pin_1-Pad1)*%
X71120000Y-139700000D03*
D18*
%TO.P,J1,2,Pin_2*%
%TO.N,unconnected-(J1-Pin_2-Pad2)*%
X68580000Y-139700000D03*
%TO.P,J1,3,Pin_3*%
%TO.N,unconnected-(J1-Pin_3-Pad3)*%
X71120000Y-142240000D03*
%TO.P,J1,4,Pin_4*%
%TO.N,unconnected-(J1-Pin_4-Pad4)*%
X68580000Y-142240000D03*
%TO.P,J1,5,Pin_5*%
%TO.N,unconnected-(J1-Pin_5-Pad5)*%
X71120000Y-144780000D03*
%TO.P,J1,6,Pin_6*%
%TO.N,unconnected-(J1-Pin_6-Pad6)*%
X68580000Y-144780000D03*
%TO.P,J1,7,Pin_7*%
%TO.N,unconnected-(J1-Pin_7-Pad7)*%
X71120000Y-147320000D03*
%TO.P,J1,8,Pin_8*%
%TO.N,unconnected-(J1-Pin_8-Pad8)*%
X68580000Y-147320000D03*
%TO.P,J1,9,Pin_9*%
%TO.N,unconnected-(J1-Pin_9-Pad9)*%
X71120000Y-149860000D03*
%TO.P,J1,10,Pin_10*%
%TO.N,unconnected-(J1-Pin_10-Pad10)*%
X68580000Y-149860000D03*
%TD*%
D19*
%TO.N,GND*%
X130000000Y-162000000D03*
X123000000Y-162000000D03*
X121000000Y-162000000D03*
X118000000Y-162000000D03*
X116000000Y-162000000D03*
X126000000Y-145000000D03*
X123000000Y-145000000D03*
X121000000Y-145000000D03*
X118000000Y-145000000D03*
X115000000Y-145000000D03*
X123000000Y-120000000D03*
X126000000Y-120000000D03*
X126000000Y-130000000D03*
X126000000Y-125000000D03*
X123000000Y-130000000D03*
X123000000Y-125000000D03*
X103400000Y-112100000D03*
X75000000Y-165000000D03*
X80000000Y-165000000D03*
X85000000Y-165000000D03*
X90000000Y-165000000D03*
X95000000Y-165000000D03*
X100000000Y-165000000D03*
X110000000Y-165000000D03*
X105000000Y-165000000D03*
X105000000Y-160000000D03*
X100000000Y-160000000D03*
X95000000Y-160000000D03*
X90000000Y-160000000D03*
X85000000Y-160000000D03*
X80000000Y-160000000D03*
X75000000Y-160000000D03*
X75000000Y-155000000D03*
X80000000Y-155000000D03*
X85000000Y-155000000D03*
X90000000Y-155000000D03*
X95000000Y-155000000D03*
X100000000Y-155000000D03*
X105000000Y-155000000D03*
X105000000Y-150000000D03*
X100000000Y-150000000D03*
X95000000Y-150000000D03*
X90000000Y-150000000D03*
X85000000Y-150000000D03*
X80000000Y-150000000D03*
X75000000Y-150000000D03*
X75000000Y-145000000D03*
X75000000Y-140000000D03*
X80000000Y-140000000D03*
X80000000Y-145000000D03*
X85000000Y-145000000D03*
X90000000Y-145000000D03*
X90000000Y-140000000D03*
X85000000Y-140000000D03*
X95000000Y-140000000D03*
X100000000Y-140000000D03*
X100000000Y-145000000D03*
X95000000Y-145000000D03*
X105000000Y-145000000D03*
X110000000Y-140000000D03*
X110000000Y-150000000D03*
X110000000Y-155000000D03*
X110000000Y-160000000D03*
X130000000Y-155000000D03*
X130000000Y-160000000D03*
X115000000Y-125000000D03*
X115000000Y-130000000D03*
X120000000Y-130000000D03*
X120000000Y-125000000D03*
X120000000Y-120000000D03*
X125000000Y-115000000D03*
X120000000Y-110000000D03*
X115000000Y-105000000D03*
X130000000Y-130000000D03*
X130000000Y-125000000D03*
X130000000Y-120000000D03*
X130000000Y-115000000D03*
X125000000Y-110000000D03*
X130000000Y-110000000D03*
X130000000Y-105000000D03*
X125000000Y-105000000D03*
X120000000Y-105000000D03*
X110000000Y-115000000D03*
X115000000Y-115000000D03*
X115000000Y-120000000D03*
X110000000Y-130000000D03*
X110000000Y-125000000D03*
X105000000Y-120000000D03*
X105000000Y-125000000D03*
X105000000Y-130000000D03*
X100000000Y-130000000D03*
X100000000Y-125000000D03*
X95000000Y-125000000D03*
X100000000Y-120000000D03*
X95000000Y-120000000D03*
X90000000Y-120000000D03*
X100000000Y-115000000D03*
X95000000Y-115000000D03*
X90000000Y-115000000D03*
X90000000Y-130000000D03*
X85000000Y-130000000D03*
X80000000Y-130000000D03*
X75000000Y-130000000D03*
X70000000Y-130000000D03*
X85000000Y-125000000D03*
X80000000Y-125000000D03*
X75000000Y-125000000D03*
X70000000Y-125000000D03*
X70000000Y-120000000D03*
X75000000Y-120000000D03*
X80000000Y-120000000D03*
X85000000Y-120000000D03*
X85000000Y-115000000D03*
X80000000Y-115000000D03*
X75000000Y-115000000D03*
X70000000Y-115000000D03*
X85000000Y-110000000D03*
X80000000Y-110000000D03*
X75000000Y-110000000D03*
X70000000Y-110000000D03*
X85000000Y-105000000D03*
X80000000Y-105000000D03*
X75000000Y-105000000D03*
X70000000Y-105000000D03*
X70000000Y-100000000D03*
X75000000Y-100000000D03*
X80000000Y-100000000D03*
X85000000Y-100000000D03*
X115000000Y-100000000D03*
X120000000Y-100000000D03*
X125000000Y-100000000D03*
X130000000Y-100000000D03*
X125000000Y-95000000D03*
X130000000Y-95000000D03*
X120000000Y-95000000D03*
X115000000Y-95000000D03*
X85000000Y-95000000D03*
X80000000Y-95000000D03*
X75000000Y-95000000D03*
X70000000Y-95000000D03*
X70000000Y-90000000D03*
X75000000Y-90000000D03*
X80000000Y-90000000D03*
X85000000Y-90000000D03*
X115000000Y-90000000D03*
X120000000Y-90000000D03*
X125000000Y-90000000D03*
X130000000Y-90000000D03*
X130000000Y-85000000D03*
X125000000Y-85000000D03*
X120000000Y-85000000D03*
X115000000Y-85000000D03*
X110000000Y-85000000D03*
X105000000Y-85000000D03*
X100000000Y-85000000D03*
X95000000Y-85000000D03*
X90000000Y-85000000D03*
X85000000Y-85000000D03*
X80000000Y-85000000D03*
X75000000Y-85000000D03*
X70000000Y-85000000D03*
X70000000Y-80000000D03*
X75000000Y-80000000D03*
X80000000Y-80000000D03*
X85000000Y-80000000D03*
X90000000Y-80000000D03*
X95000000Y-80000000D03*
X100000000Y-80000000D03*
X105000000Y-80000000D03*
X110000000Y-80000000D03*
X115000000Y-80000000D03*
X120000000Y-80000000D03*
X125000000Y-80000000D03*
X130000000Y-80000000D03*
X130000000Y-75000000D03*
X130000000Y-70000000D03*
X125000000Y-70000000D03*
X125000000Y-75000000D03*
X120000000Y-75000000D03*
X120000000Y-70000000D03*
X115000000Y-70000000D03*
X115000000Y-75000000D03*
X110000000Y-75000000D03*
X110000000Y-70000000D03*
X105000000Y-70000000D03*
X105000000Y-75000000D03*
X100000000Y-75000000D03*
X100000000Y-70000000D03*
X95000000Y-70000000D03*
X95000000Y-75000000D03*
X90000000Y-75000000D03*
X90000000Y-70000000D03*
X85000000Y-70000000D03*
X85000000Y-75000000D03*
X80000000Y-75000000D03*
X80000000Y-70000000D03*
X75000000Y-75000000D03*
X70000000Y-75000000D03*
X75000000Y-70000000D03*
X70000000Y-70000000D03*
%TO.N,+3V3*%
X88364000Y-106050000D03*
%TO.N,/TIMEPULSE*%
X127000000Y-146200000D03*
X110500000Y-101650000D03*
%TO.N,/EXTINT*%
X121900000Y-146200000D03*
%TO.N,/RESET_N*%
X119350000Y-146200000D03*
%TO.N,/SAFEBOOT_N*%
X124450000Y-146200000D03*
X110500000Y-103850000D03*
%TO.N,/RXD*%
X114300000Y-146200000D03*
%TO.N,/TXD*%
X103200000Y-110500000D03*
%TO.N,/RXD*%
X101350000Y-110500000D03*
%TO.N,/EXTINT*%
X110500000Y-105000000D03*
%TO.N,+3V3*%
X89200000Y-103950000D03*
X89200000Y-102650000D03*
X88800000Y-103300000D03*
X89600000Y-103300000D03*
%TO.N,/RESET_N*%
X110500000Y-106050000D03*
%TO.N,GND*%
X110500000Y-95050000D03*
X110500000Y-93950000D03*
X110500000Y-92800000D03*
X107150000Y-89500000D03*
X106050000Y-89500000D03*
X103850000Y-89500000D03*
X102750000Y-89500000D03*
X100550000Y-89500000D03*
X98350000Y-89500000D03*
X97250000Y-89500000D03*
X95050000Y-89500000D03*
X93950000Y-89500000D03*
X92850000Y-89500000D03*
X89500000Y-92850000D03*
X89500000Y-93950000D03*
X89500000Y-97250000D03*
X89500000Y-98350000D03*
X89500000Y-99450000D03*
X89500000Y-100550000D03*
X89500000Y-101650000D03*
X89500000Y-104950000D03*
X89500000Y-107150000D03*
X92850000Y-110500000D03*
X93950000Y-110500000D03*
X95050000Y-110500000D03*
X96150000Y-110500000D03*
X97250000Y-110500000D03*
X98350000Y-110500000D03*
X99450000Y-110500000D03*
X100300000Y-110500000D03*
X106050000Y-110500000D03*
X107150000Y-110500000D03*
X110500000Y-107150000D03*
X110500000Y-102750000D03*
X110500000Y-100550000D03*
X110500000Y-99450000D03*
X110500000Y-98350000D03*
X97000000Y-99000000D03*
X97000000Y-101000000D03*
X97000000Y-103000000D03*
X99000000Y-103000000D03*
X101000000Y-103000000D03*
X103000000Y-103000000D03*
X103000000Y-101000000D03*
X103000000Y-99000000D03*
X101000000Y-99000000D03*
X101000000Y-101000000D03*
X99000000Y-101000000D03*
X99000000Y-99000000D03*
X103000000Y-97000000D03*
X101000000Y-97000000D03*
X99000000Y-97000000D03*
X97000000Y-97000000D03*
X90800000Y-90800000D03*
X93600000Y-92800000D03*
X93600000Y-93600000D03*
X92800000Y-93600000D03*
X92800000Y-92800000D03*
X92800000Y-107000000D03*
X92800000Y-106200000D03*
X93600000Y-106200000D03*
X93600000Y-107000000D03*
X106200000Y-107000000D03*
X106200000Y-106200000D03*
X107000000Y-106200000D03*
X107000000Y-107000000D03*
X106200000Y-93600000D03*
X106200000Y-92800000D03*
X107000000Y-92800000D03*
X107000000Y-93600000D03*
X108400000Y-91600000D03*
X109200000Y-91600000D03*
X108400000Y-90800000D03*
X109200000Y-90800000D03*
X90800000Y-108400000D03*
X91600000Y-109200000D03*
X91600000Y-108400000D03*
X109200000Y-109200000D03*
X109200000Y-108400000D03*
X108400000Y-108400000D03*
X108400000Y-109200000D03*
X90800000Y-91600000D03*
X91600000Y-91600000D03*
X91600000Y-90800000D03*
%TO.N,/TXD*%
X116900000Y-146200000D03*
%TD*%
D20*
%TO.N,+3V3*%
X91050000Y-106050000D02*
X88364000Y-106050000D01*
%TO.N,/RXD*%
X101650000Y-110200000D02*
X101650000Y-108950000D01*
X101350000Y-110500000D02*
X101650000Y-110200000D01*
%TO.N,/TXD*%
X102750000Y-108950000D02*
X102750000Y-110050000D01*
X102750000Y-110050000D02*
X103200000Y-110500000D01*
%TO.N,/TIMEPULSE*%
X127000000Y-146200000D02*
X127000000Y-165100000D01*
X108950000Y-101650000D02*
X110500000Y-101650000D01*
%TO.N,/EXTINT*%
X121900000Y-165080000D02*
X121920000Y-165100000D01*
X121900000Y-146200000D02*
X121900000Y-165080000D01*
%TO.N,/RESET_N*%
X119350000Y-165070000D02*
X119380000Y-165100000D01*
X119350000Y-146200000D02*
X119350000Y-165070000D01*
%TO.N,/SAFEBOOT_N*%
X124450000Y-165090000D02*
X124460000Y-165100000D01*
X124450000Y-146200000D02*
X124450000Y-165090000D01*
X108950000Y-103850000D02*
X110500000Y-103850000D01*
%TO.N,/TXD*%
X116900000Y-146200000D02*
X116900000Y-165040000D01*
X116900000Y-165040000D02*
X116840000Y-165100000D01*
%TO.N,/EXTINT*%
X110450000Y-104950000D02*
X110500000Y-105000000D01*
X108950000Y-104950000D02*
X110450000Y-104950000D01*
%TO.N,+3V3*%
X90500000Y-103850000D02*
X90250000Y-104100000D01*
X89350000Y-104100000D02*
X89200000Y-103950000D01*
X91050000Y-103850000D02*
X90500000Y-103850000D01*
X90250000Y-104100000D02*
X89350000Y-104100000D01*
X91050000Y-103850000D02*
X90651000Y-104249000D01*
X90651000Y-104249000D02*
X88899000Y-104249000D01*
X88899000Y-104249000D02*
X88800000Y-104150000D01*
X88800000Y-104150000D02*
X88800000Y-103300000D01*
X90500000Y-102750000D02*
X90300000Y-102550000D01*
X91050000Y-102750000D02*
X90500000Y-102750000D01*
X90300000Y-102550000D02*
X90150000Y-102400000D01*
X91050000Y-102750000D02*
X90650000Y-102350000D01*
X90650000Y-102350000D02*
X89500000Y-102350000D01*
X88650000Y-102350000D02*
X88650000Y-103150000D01*
X88650000Y-103150000D02*
X88800000Y-103300000D01*
X89500000Y-102350000D02*
X88650000Y-102350000D01*
X89200000Y-102650000D02*
X89500000Y-102350000D01*
%TO.N,/RESET_N*%
X108950000Y-106050000D02*
X110500000Y-106050000D01*
%TO.N,/RXD*%
X114300000Y-165100000D02*
X114300000Y-146200000D01*
%TD*%
%TA.AperFunction,Conductor*%
%TO.N,GND*%
G36*
X134978326Y-65021674D02*
G01*
X135000000Y-65074000D01*
X135000000Y-164261534D01*
X134978326Y-164313860D01*
X132814360Y-166477826D01*
X132762034Y-166499500D01*
X130070308Y-166499500D01*
X130017982Y-166477826D01*
X129996308Y-166425500D01*
X130017982Y-166373174D01*
X130047441Y-166355122D01*
X130058406Y-166351559D01*
X130058406Y-166351558D01*
X130058412Y-166351557D01*
X130247816Y-166255051D01*
X130419792Y-166130104D01*
X130570104Y-165979792D01*
X130695051Y-165807816D01*
X130791557Y-165618412D01*
X130791559Y-165618406D01*
X130857243Y-165416253D01*
X130857243Y-165416250D01*
X130857246Y-165416243D01*
X130887767Y-165223540D01*
X130917360Y-165175250D01*
X130972432Y-165162028D01*
X131020723Y-165191621D01*
X131033434Y-165220681D01*
X131070348Y-165406267D01*
X131070350Y-165406274D01*
X131149500Y-165597358D01*
X131264410Y-165769335D01*
X131266826Y-165771751D01*
X131662210Y-165376365D01*
X131679901Y-165407007D01*
X131772993Y-165500099D01*
X131803632Y-165517788D01*
X131408248Y-165913173D01*
X131410664Y-165915589D01*
X131582641Y-166030499D01*
X131773725Y-166109649D01*
X131773732Y-166109651D01*
X131976584Y-166150000D01*
X132183416Y-166150000D01*
X132386267Y-166109651D01*
X132386274Y-166109649D01*
X132577358Y-166030499D01*
X132749336Y-165915588D01*
X132751751Y-165913172D01*
X132356367Y-165517788D01*
X132387007Y-165500099D01*
X132480099Y-165407007D01*
X132497789Y-165376367D01*
X132893172Y-165771750D01*
X132895588Y-165769336D01*
X133010499Y-165597358D01*
X133089649Y-165406274D01*
X133089651Y-165406267D01*
X133130000Y-165203415D01*
X133130000Y-164996584D01*
X133089651Y-164793732D01*
X133089649Y-164793725D01*
X133010499Y-164602641D01*
X132895589Y-164430664D01*
X132893173Y-164428248D01*
X132497788Y-164823631D01*
X132480099Y-164792993D01*
X132387007Y-164699901D01*
X132356365Y-164682210D01*
X132751751Y-164286826D01*
X132749335Y-164284410D01*
X132577358Y-164169500D01*
X132386274Y-164090350D01*
X132386267Y-164090348D01*
X132183416Y-164050000D01*
X131976584Y-164050000D01*
X131773732Y-164090348D01*
X131773725Y-164090350D01*
X131582641Y-164169500D01*
X131410663Y-164284411D01*
X131408247Y-164286825D01*
X131803632Y-164682210D01*
X131772993Y-164699901D01*
X131679901Y-164792993D01*
X131662210Y-164823632D01*
X131266825Y-164428247D01*
X131264411Y-164430663D01*
X131149500Y-164602641D01*
X131070350Y-164793725D01*
X131070348Y-164793732D01*
X131033434Y-164979318D01*
X131001968Y-165026411D01*
X130946420Y-165037460D01*
X130899327Y-165005994D01*
X130887767Y-164976458D01*
X130858826Y-164793732D01*
X130857246Y-164783757D01*
X130857244Y-164783752D01*
X130857243Y-164783746D01*
X130791559Y-164581593D01*
X130791557Y-164581590D01*
X130791557Y-164581588D01*
X130695051Y-164392184D01*
X130672372Y-164360969D01*
X130672372Y-164360968D01*
X130607528Y-164271718D01*
X130570104Y-164220208D01*
X130419792Y-164069896D01*
X130334145Y-164007670D01*
X130247816Y-163944948D01*
X130058406Y-163848440D01*
X129856253Y-163782756D01*
X129856240Y-163782753D01*
X129646289Y-163749500D01*
X129646287Y-163749500D01*
X129433713Y-163749500D01*
X129433711Y-163749500D01*
X129223759Y-163782753D01*
X129223746Y-163782756D01*
X129021593Y-163848440D01*
X128832183Y-163944948D01*
X128665719Y-164065892D01*
X128660208Y-164069896D01*
X128509896Y-164220208D01*
X128509893Y-164220211D01*
X128509893Y-164220212D01*
X128384948Y-164392183D01*
X128335935Y-164488380D01*
X128292868Y-164525163D01*
X128236405Y-164520720D01*
X128204065Y-164488380D01*
X128155051Y-164392183D01*
X128078504Y-164286826D01*
X128030104Y-164220208D01*
X127879792Y-164069896D01*
X127779578Y-163997087D01*
X127707818Y-163944950D01*
X127707817Y-163944949D01*
X127640904Y-163910855D01*
X127604122Y-163867787D01*
X127600500Y-163844921D01*
X127600500Y-146762230D01*
X127620503Y-146713937D01*
X127619482Y-146713100D01*
X127621784Y-146710293D01*
X127621789Y-146710289D01*
X127709394Y-146579179D01*
X127769737Y-146433497D01*
X127800500Y-146278842D01*
X127800500Y-146121158D01*
X127769737Y-145966503D01*
X127709394Y-145820821D01*
X127621789Y-145689711D01*
X127510289Y-145578211D01*
X127379179Y-145490606D01*
X127379175Y-145490604D01*
X127379173Y-145490603D01*
X127379174Y-145490603D01*
X127233501Y-145430264D01*
X127233491Y-145430261D01*
X127129925Y-145409661D01*
X127078842Y-145399500D01*
X126921158Y-145399500D01*
X126877315Y-145408220D01*
X126766508Y-145430261D01*
X126766498Y-145430264D01*
X126620825Y-145490603D01*
X126489711Y-145578210D01*
X126489710Y-145578212D01*
X126378212Y-145689710D01*
X126378210Y-145689711D01*
X126290603Y-145820825D01*
X126230264Y-145966498D01*
X126230261Y-145966508D01*
X126206972Y-146083595D01*
X126199500Y-146121158D01*
X126199500Y-146278842D01*
X126201699Y-146289896D01*
X126230261Y-146433491D01*
X126230264Y-146433501D01*
X126290603Y-146579174D01*
X126378210Y-146710288D01*
X126380518Y-146713100D01*
X126379496Y-146713937D01*
X126399500Y-146762230D01*
X126399500Y-163844921D01*
X126377826Y-163897247D01*
X126359096Y-163910855D01*
X126292182Y-163944949D01*
X126292181Y-163944950D01*
X126125719Y-164065892D01*
X126120208Y-164069896D01*
X125969896Y-164220208D01*
X125969893Y-164220211D01*
X125969893Y-164220212D01*
X125844948Y-164392183D01*
X125795935Y-164488380D01*
X125752868Y-164525163D01*
X125696405Y-164520720D01*
X125664065Y-164488380D01*
X125615051Y-164392183D01*
X125538504Y-164286826D01*
X125490104Y-164220208D01*
X125339792Y-164069896D01*
X125239578Y-163997087D01*
X125167818Y-163944950D01*
X125090904Y-163905760D01*
X125054122Y-163862693D01*
X125050500Y-163839826D01*
X125050500Y-146762230D01*
X125070503Y-146713937D01*
X125069482Y-146713100D01*
X125071784Y-146710293D01*
X125071789Y-146710289D01*
X125159394Y-146579179D01*
X125219737Y-146433497D01*
X125250500Y-146278842D01*
X125250500Y-146121158D01*
X125219737Y-145966503D01*
X125159394Y-145820821D01*
X125071789Y-145689711D01*
X124960289Y-145578211D01*
X124829179Y-145490606D01*
X124829175Y-145490604D01*
X124829173Y-145490603D01*
X124829174Y-145490603D01*
X124683501Y-145430264D01*
X124683491Y-145430261D01*
X124579925Y-145409661D01*
X124528842Y-145399500D01*
X124371158Y-145399500D01*
X124327315Y-145408220D01*
X124216508Y-145430261D01*
X124216498Y-145430264D01*
X124070825Y-145490603D01*
X123939711Y-145578210D01*
X123939710Y-145578212D01*
X123828212Y-145689710D01*
X123828210Y-145689711D01*
X123740603Y-145820825D01*
X123680264Y-145966498D01*
X123680261Y-145966508D01*
X123656972Y-146083595D01*
X123649500Y-146121158D01*
X123649500Y-146278842D01*
X123651699Y-146289896D01*
X123680261Y-146433491D01*
X123680264Y-146433501D01*
X123740603Y-146579174D01*
X123828210Y-146710288D01*
X123830518Y-146713100D01*
X123829496Y-146713937D01*
X123849500Y-146762230D01*
X123849500Y-163850016D01*
X123827826Y-163902342D01*
X123809095Y-163915950D01*
X123752193Y-163944942D01*
X123752184Y-163944948D01*
X123585719Y-164065892D01*
X123580208Y-164069896D01*
X123429896Y-164220208D01*
X123429893Y-164220211D01*
X123429893Y-164220212D01*
X123304948Y-164392183D01*
X123255935Y-164488380D01*
X123212868Y-164525163D01*
X123156405Y-164520720D01*
X123124065Y-164488380D01*
X123075051Y-164392183D01*
X122998504Y-164286826D01*
X122950104Y-164220208D01*
X122799792Y-164069896D01*
X122714145Y-164007670D01*
X122627816Y-163944948D01*
X122560903Y-163910855D01*
X122540904Y-163900665D01*
X122504122Y-163857599D01*
X122500500Y-163834731D01*
X122500500Y-146762230D01*
X122520503Y-146713937D01*
X122519482Y-146713100D01*
X122521784Y-146710293D01*
X122521789Y-146710289D01*
X122609394Y-146579179D01*
X122669737Y-146433497D01*
X122700500Y-146278842D01*
X122700500Y-146121158D01*
X122669737Y-145966503D01*
X122609394Y-145820821D01*
X122521789Y-145689711D01*
X122410289Y-145578211D01*
X122279179Y-145490606D01*
X122279175Y-145490604D01*
X122279173Y-145490603D01*
X122279174Y-145490603D01*
X122133501Y-145430264D01*
X122133491Y-145430261D01*
X122029925Y-145409661D01*
X121978842Y-145399500D01*
X121821158Y-145399500D01*
X121777315Y-145408220D01*
X121666508Y-145430261D01*
X121666498Y-145430264D01*
X121520825Y-145490603D01*
X121389711Y-145578210D01*
X121389710Y-145578212D01*
X121278212Y-145689710D01*
X121278210Y-145689711D01*
X121190603Y-145820825D01*
X121130264Y-145966498D01*
X121130261Y-145966508D01*
X121106972Y-146083595D01*
X121099500Y-146121158D01*
X121099500Y-146278842D01*
X121101699Y-146289896D01*
X121130261Y-146433491D01*
X121130264Y-146433501D01*
X121190603Y-146579174D01*
X121278210Y-146710288D01*
X121280518Y-146713100D01*
X121279496Y-146713937D01*
X121299500Y-146762230D01*
X121299500Y-163855112D01*
X121277826Y-163907438D01*
X121259096Y-163921046D01*
X121212182Y-163944950D01*
X121212181Y-163944950D01*
X121045719Y-164065892D01*
X121040208Y-164069896D01*
X120889896Y-164220208D01*
X120889893Y-164220211D01*
X120889893Y-164220212D01*
X120764948Y-164392183D01*
X120715935Y-164488380D01*
X120672868Y-164525163D01*
X120616405Y-164520720D01*
X120584065Y-164488380D01*
X120535051Y-164392183D01*
X120458504Y-164286826D01*
X120410104Y-164220208D01*
X120259792Y-164069896D01*
X120174145Y-164007670D01*
X120087816Y-163944948D01*
X120020903Y-163910855D01*
X119990904Y-163895569D01*
X119954122Y-163852504D01*
X119950500Y-163829636D01*
X119950500Y-146762230D01*
X119970503Y-146713937D01*
X119969482Y-146713100D01*
X119971784Y-146710293D01*
X119971789Y-146710289D01*
X120059394Y-146579179D01*
X120119737Y-146433497D01*
X120150500Y-146278842D01*
X120150500Y-146121158D01*
X120119737Y-145966503D01*
X120059394Y-145820821D01*
X119971789Y-145689711D01*
X119860289Y-145578211D01*
X119729179Y-145490606D01*
X119729175Y-145490604D01*
X119729173Y-145490603D01*
X119729174Y-145490603D01*
X119583501Y-145430264D01*
X119583491Y-145430261D01*
X119479925Y-145409661D01*
X119428842Y-145399500D01*
X119271158Y-145399500D01*
X119227315Y-145408220D01*
X119116508Y-145430261D01*
X119116498Y-145430264D01*
X118970825Y-145490603D01*
X118839711Y-145578210D01*
X118839710Y-145578212D01*
X118728212Y-145689710D01*
X118728210Y-145689711D01*
X118640603Y-145820825D01*
X118580264Y-145966498D01*
X118580261Y-145966508D01*
X118556972Y-146083595D01*
X118549500Y-146121158D01*
X118549500Y-146278842D01*
X118551699Y-146289896D01*
X118580261Y-146433491D01*
X118580264Y-146433501D01*
X118640603Y-146579174D01*
X118728210Y-146710288D01*
X118730518Y-146713100D01*
X118729496Y-146713937D01*
X118749500Y-146762230D01*
X118749500Y-163860207D01*
X118727826Y-163912533D01*
X118709096Y-163926141D01*
X118672182Y-163944949D01*
X118672181Y-163944950D01*
X118505719Y-164065892D01*
X118500208Y-164069896D01*
X118349896Y-164220208D01*
X118349893Y-164220211D01*
X118349893Y-164220212D01*
X118224948Y-164392183D01*
X118175935Y-164488380D01*
X118132868Y-164525163D01*
X118076405Y-164520720D01*
X118044065Y-164488380D01*
X117995051Y-164392183D01*
X117918504Y-164286826D01*
X117870104Y-164220208D01*
X117719792Y-164069896D01*
X117619578Y-163997087D01*
X117547818Y-163944950D01*
X117547816Y-163944949D01*
X117540902Y-163941426D01*
X117504121Y-163898357D01*
X117500500Y-163875493D01*
X117500500Y-146762230D01*
X117520503Y-146713937D01*
X117519482Y-146713100D01*
X117521784Y-146710293D01*
X117521789Y-146710289D01*
X117609394Y-146579179D01*
X117669737Y-146433497D01*
X117700500Y-146278842D01*
X117700500Y-146121158D01*
X117669737Y-145966503D01*
X117609394Y-145820821D01*
X117521789Y-145689711D01*
X117410289Y-145578211D01*
X117279179Y-145490606D01*
X117279175Y-145490604D01*
X117279173Y-145490603D01*
X117279174Y-145490603D01*
X117133501Y-145430264D01*
X117133491Y-145430261D01*
X117029925Y-145409661D01*
X116978842Y-145399500D01*
X116821158Y-145399500D01*
X116777315Y-145408220D01*
X116666508Y-145430261D01*
X116666498Y-145430264D01*
X116520825Y-145490603D01*
X116389711Y-145578210D01*
X116389710Y-145578212D01*
X116278212Y-145689710D01*
X116278210Y-145689711D01*
X116190603Y-145820825D01*
X116130264Y-145966498D01*
X116130261Y-145966508D01*
X116106972Y-146083595D01*
X116099500Y-146121158D01*
X116099500Y-146278842D01*
X116101699Y-146289896D01*
X116130261Y-146433491D01*
X116130264Y-146433501D01*
X116190603Y-146579174D01*
X116278210Y-146710288D01*
X116280518Y-146713100D01*
X116279496Y-146713937D01*
X116299500Y-146762230D01*
X116299500Y-163814350D01*
X116277826Y-163866676D01*
X116259097Y-163880283D01*
X116235211Y-163892454D01*
X116132183Y-163944948D01*
X115965719Y-164065892D01*
X115960208Y-164069896D01*
X115960203Y-164069901D01*
X115809892Y-164220212D01*
X115784366Y-164255347D01*
X115736075Y-164284940D01*
X115681003Y-164271718D01*
X115651410Y-164223427D01*
X115650499Y-164211851D01*
X115650499Y-164202126D01*
X115648955Y-164187766D01*
X115644091Y-164142517D01*
X115624634Y-164090350D01*
X115593797Y-164007670D01*
X115593796Y-164007669D01*
X115507546Y-163892454D01*
X115392331Y-163806204D01*
X115392330Y-163806203D01*
X115392329Y-163806202D01*
X115257487Y-163755910D01*
X115257484Y-163755909D01*
X115257483Y-163755909D01*
X115227678Y-163752704D01*
X115197874Y-163749500D01*
X115197873Y-163749500D01*
X114974500Y-163749500D01*
X114922174Y-163727826D01*
X114900500Y-163675500D01*
X114900500Y-146762230D01*
X114920503Y-146713937D01*
X114919482Y-146713100D01*
X114921784Y-146710293D01*
X114921789Y-146710289D01*
X115009394Y-146579179D01*
X115069737Y-146433497D01*
X115100500Y-146278842D01*
X115100500Y-146121158D01*
X115069737Y-145966503D01*
X115009394Y-145820821D01*
X114921789Y-145689711D01*
X114810289Y-145578211D01*
X114679179Y-145490606D01*
X114679175Y-145490604D01*
X114679173Y-145490603D01*
X114679174Y-145490603D01*
X114533501Y-145430264D01*
X114533491Y-145430261D01*
X114429925Y-145409661D01*
X114378842Y-145399500D01*
X114221158Y-145399500D01*
X114177315Y-145408220D01*
X114066508Y-145430261D01*
X114066498Y-145430264D01*
X113920825Y-145490603D01*
X113789711Y-145578210D01*
X113789710Y-145578212D01*
X113678212Y-145689710D01*
X113678210Y-145689711D01*
X113590603Y-145820825D01*
X113530264Y-145966498D01*
X113530261Y-145966508D01*
X113506972Y-146083595D01*
X113499500Y-146121158D01*
X113499500Y-146278842D01*
X113501699Y-146289896D01*
X113530261Y-146433491D01*
X113530264Y-146433501D01*
X113590603Y-146579174D01*
X113678210Y-146710288D01*
X113680518Y-146713100D01*
X113679496Y-146713937D01*
X113699500Y-146762230D01*
X113699500Y-163675500D01*
X113677826Y-163727826D01*
X113625500Y-163749500D01*
X113402127Y-163749500D01*
X113342514Y-163755909D01*
X113207670Y-163806202D01*
X113207669Y-163806203D01*
X113092454Y-163892454D01*
X113006203Y-164007669D01*
X113006202Y-164007670D01*
X112955910Y-164142512D01*
X112955909Y-164142517D01*
X112949500Y-164202126D01*
X112949500Y-165997873D01*
X112955909Y-166057485D01*
X113006202Y-166192329D01*
X113006203Y-166192330D01*
X113006204Y-166192331D01*
X113092454Y-166307546D01*
X113170886Y-166366260D01*
X113199786Y-166414969D01*
X113185779Y-166469847D01*
X113137070Y-166498747D01*
X113126539Y-166499500D01*
X111815317Y-166499500D01*
X111804999Y-166497191D01*
X111749580Y-166499500D01*
X111694108Y-166499500D01*
X111694105Y-166499500D01*
X111694102Y-166499501D01*
X111691788Y-166500121D01*
X111675735Y-166502576D01*
X111673335Y-166502676D01*
X111673329Y-166502676D01*
X111673329Y-166502677D01*
X111673328Y-166502677D01*
X111673324Y-166502678D01*
X111621856Y-166518790D01*
X111621857Y-166518791D01*
X111620367Y-166519257D01*
X111566814Y-166533608D01*
X111557660Y-166538891D01*
X111549867Y-166541332D01*
X111549864Y-166541334D01*
X111547565Y-166542054D01*
X111502008Y-166570948D01*
X111500699Y-166571778D01*
X111452686Y-166599500D01*
X111445211Y-166606973D01*
X111438313Y-166611349D01*
X111438309Y-166611353D01*
X111436279Y-166612640D01*
X111399765Y-166652328D01*
X111397635Y-166654549D01*
X111359499Y-166692685D01*
X111358298Y-166694767D01*
X111348676Y-166707860D01*
X108802355Y-169475602D01*
X108750977Y-169499436D01*
X108747896Y-169499500D01*
X67237966Y-169499500D01*
X67185640Y-169477826D01*
X65021674Y-167313860D01*
X65000000Y-167261534D01*
X65000000Y-157373711D01*
X67229500Y-157373711D01*
X67229500Y-157586288D01*
X67262753Y-157796240D01*
X67262756Y-157796253D01*
X67328440Y-157998406D01*
X67424948Y-158187816D01*
X67501475Y-158293146D01*
X67549896Y-158359792D01*
X67700208Y-158510104D01*
X67785854Y-158572329D01*
X67872183Y-158635051D01*
X67968380Y-158684065D01*
X68005163Y-158727132D01*
X68000720Y-158783595D01*
X67968380Y-158815935D01*
X67872183Y-158864948D01*
X67700212Y-158989893D01*
X67700208Y-158989896D01*
X67549896Y-159140208D01*
X67549893Y-159140211D01*
X67549893Y-159140212D01*
X67424948Y-159312183D01*
X67328440Y-159501593D01*
X67262756Y-159703746D01*
X67262753Y-159703759D01*
X67229500Y-159913711D01*
X67229500Y-160126288D01*
X67262753Y-160336240D01*
X67262756Y-160336253D01*
X67328440Y-160538406D01*
X67424948Y-160727816D01*
X67501475Y-160833146D01*
X67549896Y-160899792D01*
X67700208Y-161050104D01*
X67795656Y-161119451D01*
X67872183Y-161175051D01*
X67968380Y-161224065D01*
X68005163Y-161267132D01*
X68000720Y-161323595D01*
X67968380Y-161355935D01*
X67872183Y-161404948D01*
X67700212Y-161529893D01*
X67700208Y-161529896D01*
X67549896Y-161680208D01*
X67549893Y-161680211D01*
X67549893Y-161680212D01*
X67424948Y-161852183D01*
X67328440Y-162041593D01*
X67262756Y-162243746D01*
X67262753Y-162243759D01*
X67229500Y-162453711D01*
X67229500Y-162666288D01*
X67262753Y-162876240D01*
X67262756Y-162876253D01*
X67328440Y-163078406D01*
X67424948Y-163267816D01*
X67501475Y-163373146D01*
X67549896Y-163439792D01*
X67700208Y-163590104D01*
X67795656Y-163659451D01*
X67872183Y-163715051D01*
X67897256Y-163727826D01*
X67952374Y-163755910D01*
X67968380Y-163764065D01*
X68005163Y-163807132D01*
X68000720Y-163863595D01*
X67968380Y-163895934D01*
X67955805Y-163902342D01*
X67872183Y-163944948D01*
X67705719Y-164065892D01*
X67700208Y-164069896D01*
X67549896Y-164220208D01*
X67549893Y-164220211D01*
X67549893Y-164220212D01*
X67424948Y-164392183D01*
X67328440Y-164581593D01*
X67262756Y-164783746D01*
X67262753Y-164783759D01*
X67229500Y-164993711D01*
X67229500Y-165206288D01*
X67262753Y-165416240D01*
X67262756Y-165416253D01*
X67328440Y-165618406D01*
X67424948Y-165807816D01*
X67501475Y-165913146D01*
X67549896Y-165979792D01*
X67700208Y-166130104D01*
X67785854Y-166192329D01*
X67872183Y-166255051D01*
X67968380Y-166304065D01*
X68005163Y-166347132D01*
X68000720Y-166403595D01*
X67968380Y-166435935D01*
X67872183Y-166484948D01*
X67714517Y-166599500D01*
X67700208Y-166609896D01*
X67549896Y-166760208D01*
X67549893Y-166760211D01*
X67549893Y-166760212D01*
X67424948Y-166932183D01*
X67328440Y-167121593D01*
X67262756Y-167323746D01*
X67262753Y-167323759D01*
X67229500Y-167533711D01*
X67229500Y-167746288D01*
X67262753Y-167956240D01*
X67262756Y-167956253D01*
X67328440Y-168158406D01*
X67424948Y-168347816D01*
X67501475Y-168453146D01*
X67549896Y-168519792D01*
X67700208Y-168670104D01*
X67795656Y-168739451D01*
X67872183Y-168795051D01*
X67963474Y-168841565D01*
X68061588Y-168891557D01*
X68061590Y-168891557D01*
X68061593Y-168891559D01*
X68263746Y-168957243D01*
X68263752Y-168957244D01*
X68263757Y-168957246D01*
X68368735Y-168973873D01*
X68473711Y-168990500D01*
X68473713Y-168990500D01*
X68686289Y-168990500D01*
X68770269Y-168977198D01*
X68896243Y-168957246D01*
X68896250Y-168957243D01*
X68896253Y-168957243D01*
X69098406Y-168891559D01*
X69098406Y-168891558D01*
X69098412Y-168891557D01*
X69287816Y-168795051D01*
X69459792Y-168670104D01*
X69610104Y-168519792D01*
X69735051Y-168347816D01*
X69784066Y-168251617D01*
X69827132Y-168214836D01*
X69883595Y-168219279D01*
X69915933Y-168251617D01*
X69936768Y-168292508D01*
X69964948Y-168347816D01*
X70041475Y-168453146D01*
X70089896Y-168519792D01*
X70240208Y-168670104D01*
X70335656Y-168739451D01*
X70412183Y-168795051D01*
X70503474Y-168841565D01*
X70601588Y-168891557D01*
X70601590Y-168891557D01*
X70601593Y-168891559D01*
X70803746Y-168957243D01*
X70803752Y-168957244D01*
X70803757Y-168957246D01*
X70908735Y-168973873D01*
X71013711Y-168990500D01*
X71013713Y-168990500D01*
X71226289Y-168990500D01*
X71310269Y-168977198D01*
X71436243Y-168957246D01*
X71436250Y-168957243D01*
X71436253Y-168957243D01*
X71638406Y-168891559D01*
X71638406Y-168891558D01*
X71638412Y-168891557D01*
X71827816Y-168795051D01*
X71999792Y-168670104D01*
X72150104Y-168519792D01*
X72275051Y-168347816D01*
X72371557Y-168158412D01*
X72437246Y-167956243D01*
X72470500Y-167746287D01*
X72470500Y-167533713D01*
X72437246Y-167323757D01*
X72437244Y-167323752D01*
X72437243Y-167323746D01*
X72371559Y-167121593D01*
X72371557Y-167121590D01*
X72371557Y-167121588D01*
X72321565Y-167023474D01*
X72275051Y-166932183D01*
X72183965Y-166806814D01*
X72150104Y-166760208D01*
X71999792Y-166609896D01*
X71933146Y-166561475D01*
X71827816Y-166484948D01*
X71772508Y-166456768D01*
X71731617Y-166435933D01*
X71694836Y-166392868D01*
X71699279Y-166336405D01*
X71731617Y-166304066D01*
X71827816Y-166255051D01*
X71999792Y-166130104D01*
X72150104Y-165979792D01*
X72275051Y-165807816D01*
X72371557Y-165618412D01*
X72371559Y-165618406D01*
X72437243Y-165416253D01*
X72437243Y-165416250D01*
X72437246Y-165416243D01*
X72470500Y-165206287D01*
X72470500Y-164993713D01*
X72437246Y-164783757D01*
X72437244Y-164783752D01*
X72437243Y-164783746D01*
X72371559Y-164581593D01*
X72371557Y-164581590D01*
X72371557Y-164581588D01*
X72321565Y-164483474D01*
X72275051Y-164392183D01*
X72198504Y-164286826D01*
X72150104Y-164220208D01*
X71999792Y-164069896D01*
X71914145Y-164007670D01*
X71827816Y-163944948D01*
X71764196Y-163912533D01*
X71731617Y-163895933D01*
X71694836Y-163852868D01*
X71699279Y-163796405D01*
X71731617Y-163764066D01*
X71827816Y-163715051D01*
X71999792Y-163590104D01*
X72150104Y-163439792D01*
X72275051Y-163267816D01*
X72371557Y-163078412D01*
X72437246Y-162876243D01*
X72470500Y-162666287D01*
X72470500Y-162453713D01*
X72437246Y-162243757D01*
X72437244Y-162243752D01*
X72437243Y-162243746D01*
X72371559Y-162041593D01*
X72371557Y-162041590D01*
X72371557Y-162041588D01*
X72321565Y-161943474D01*
X72275051Y-161852183D01*
X72219451Y-161775656D01*
X72150104Y-161680208D01*
X71999792Y-161529896D01*
X71933146Y-161481475D01*
X71827816Y-161404948D01*
X71772508Y-161376768D01*
X71731617Y-161355933D01*
X71694836Y-161312868D01*
X71699279Y-161256405D01*
X71731617Y-161224066D01*
X71827816Y-161175051D01*
X71999792Y-161050104D01*
X72150104Y-160899792D01*
X72275051Y-160727816D01*
X72371557Y-160538412D01*
X72437246Y-160336243D01*
X72470500Y-160126287D01*
X72470500Y-159913713D01*
X72437246Y-159703757D01*
X72437244Y-159703752D01*
X72437243Y-159703746D01*
X72371559Y-159501593D01*
X72371557Y-159501590D01*
X72371557Y-159501588D01*
X72321565Y-159403474D01*
X72275051Y-159312183D01*
X72219451Y-159235656D01*
X72150104Y-159140208D01*
X71999792Y-158989896D01*
X71999789Y-158989893D01*
X71999787Y-158989892D01*
X71964653Y-158964366D01*
X71935060Y-158916075D01*
X71948282Y-158861003D01*
X71996573Y-158831410D01*
X72008149Y-158830499D01*
X72017872Y-158830499D01*
X72077483Y-158824091D01*
X72144907Y-158798943D01*
X72212329Y-158773797D01*
X72212329Y-158773796D01*
X72212331Y-158773796D01*
X72327546Y-158687546D01*
X72413796Y-158572331D01*
X72464091Y-158437483D01*
X72470500Y-158377873D01*
X72470499Y-156582128D01*
X72464091Y-156522517D01*
X72437007Y-156449901D01*
X72413797Y-156387670D01*
X72413796Y-156387669D01*
X72327546Y-156272454D01*
X72212331Y-156186204D01*
X72212330Y-156186203D01*
X72212329Y-156186202D01*
X72077487Y-156135910D01*
X72077484Y-156135909D01*
X72077483Y-156135909D01*
X72017873Y-156129500D01*
X70222126Y-156129500D01*
X70162514Y-156135909D01*
X70027670Y-156186202D01*
X70027669Y-156186203D01*
X69912454Y-156272454D01*
X69826203Y-156387669D01*
X69826202Y-156387670D01*
X69775910Y-156522512D01*
X69775909Y-156522517D01*
X69769500Y-156582126D01*
X69769500Y-156591850D01*
X69747826Y-156644176D01*
X69695500Y-156665850D01*
X69643174Y-156644176D01*
X69635633Y-156635346D01*
X69610104Y-156600208D01*
X69459792Y-156449896D01*
X69374145Y-156387670D01*
X69287816Y-156324948D01*
X69098406Y-156228440D01*
X68896253Y-156162756D01*
X68896240Y-156162753D01*
X68686289Y-156129500D01*
X68686287Y-156129500D01*
X68473713Y-156129500D01*
X68473711Y-156129500D01*
X68263759Y-156162753D01*
X68263746Y-156162756D01*
X68061593Y-156228440D01*
X67872183Y-156324948D01*
X67700212Y-156449893D01*
X67700208Y-156449896D01*
X67549896Y-156600208D01*
X67549893Y-156600211D01*
X67549893Y-156600212D01*
X67424948Y-156772183D01*
X67328440Y-156961593D01*
X67262756Y-157163746D01*
X67262753Y-157163759D01*
X67229500Y-157373711D01*
X65000000Y-157373711D01*
X65000000Y-139593711D01*
X67229500Y-139593711D01*
X67229500Y-139806288D01*
X67262753Y-140016240D01*
X67262756Y-140016253D01*
X67328440Y-140218406D01*
X67424948Y-140407816D01*
X67501475Y-140513146D01*
X67549896Y-140579792D01*
X67700208Y-140730104D01*
X67785854Y-140792329D01*
X67872183Y-140855051D01*
X67968380Y-140904065D01*
X68005163Y-140947132D01*
X68000720Y-141003595D01*
X67968380Y-141035935D01*
X67872183Y-141084948D01*
X67700212Y-141209893D01*
X67700208Y-141209896D01*
X67549896Y-141360208D01*
X67549893Y-141360211D01*
X67549893Y-141360212D01*
X67424948Y-141532183D01*
X67328440Y-141721593D01*
X67262756Y-141923746D01*
X67262753Y-141923759D01*
X67229500Y-142133711D01*
X67229500Y-142346288D01*
X67262753Y-142556240D01*
X67262756Y-142556253D01*
X67328440Y-142758406D01*
X67424948Y-142947816D01*
X67501475Y-143053146D01*
X67549896Y-143119792D01*
X67700208Y-143270104D01*
X67795656Y-143339451D01*
X67872183Y-143395051D01*
X67968380Y-143444065D01*
X68005163Y-143487132D01*
X68000720Y-143543595D01*
X67968380Y-143575935D01*
X67872183Y-143624948D01*
X67700212Y-143749893D01*
X67700208Y-143749896D01*
X67549896Y-143900208D01*
X67549893Y-143900211D01*
X67549893Y-143900212D01*
X67424948Y-144072183D01*
X67328440Y-144261593D01*
X67262756Y-144463746D01*
X67262753Y-144463759D01*
X67229500Y-144673711D01*
X67229500Y-144886288D01*
X67262753Y-145096240D01*
X67262756Y-145096253D01*
X67328440Y-145298406D01*
X67424948Y-145487816D01*
X67490624Y-145578211D01*
X67549896Y-145659792D01*
X67700208Y-145810104D01*
X67795656Y-145879451D01*
X67872183Y-145935051D01*
X67968380Y-145984065D01*
X68005163Y-146027132D01*
X68000720Y-146083595D01*
X67968380Y-146115935D01*
X67872183Y-146164948D01*
X67700212Y-146289893D01*
X67700208Y-146289896D01*
X67549896Y-146440208D01*
X67549893Y-146440211D01*
X67549893Y-146440212D01*
X67424948Y-146612183D01*
X67328440Y-146801593D01*
X67262756Y-147003746D01*
X67262753Y-147003759D01*
X67229500Y-147213711D01*
X67229500Y-147426288D01*
X67262753Y-147636240D01*
X67262756Y-147636253D01*
X67328440Y-147838406D01*
X67424948Y-148027816D01*
X67501475Y-148133146D01*
X67549896Y-148199792D01*
X67700208Y-148350104D01*
X67795656Y-148419451D01*
X67872183Y-148475051D01*
X67968380Y-148524065D01*
X68005163Y-148567132D01*
X68000720Y-148623595D01*
X67968380Y-148655935D01*
X67872183Y-148704948D01*
X67700212Y-148829893D01*
X67700208Y-148829896D01*
X67549896Y-148980208D01*
X67549893Y-148980211D01*
X67549893Y-148980212D01*
X67424948Y-149152183D01*
X67328440Y-149341593D01*
X67262756Y-149543746D01*
X67262753Y-149543759D01*
X67229500Y-149753711D01*
X67229500Y-149966288D01*
X67262753Y-150176240D01*
X67262756Y-150176253D01*
X67328440Y-150378406D01*
X67424948Y-150567816D01*
X67501475Y-150673146D01*
X67549896Y-150739792D01*
X67700208Y-150890104D01*
X67795656Y-150959451D01*
X67872183Y-151015051D01*
X67963474Y-151061565D01*
X68061588Y-151111557D01*
X68061590Y-151111557D01*
X68061593Y-151111559D01*
X68263746Y-151177243D01*
X68263752Y-151177244D01*
X68263757Y-151177246D01*
X68368735Y-151193873D01*
X68473711Y-151210500D01*
X68473713Y-151210500D01*
X68686289Y-151210500D01*
X68770269Y-151197198D01*
X68896243Y-151177246D01*
X68896250Y-151177243D01*
X68896253Y-151177243D01*
X69098406Y-151111559D01*
X69098406Y-151111558D01*
X69098412Y-151111557D01*
X69287816Y-151015051D01*
X69459792Y-150890104D01*
X69610104Y-150739792D01*
X69735051Y-150567816D01*
X69784066Y-150471617D01*
X69827132Y-150434836D01*
X69883595Y-150439279D01*
X69915933Y-150471617D01*
X69936768Y-150512508D01*
X69964948Y-150567816D01*
X70041475Y-150673146D01*
X70089896Y-150739792D01*
X70240208Y-150890104D01*
X70335656Y-150959451D01*
X70412183Y-151015051D01*
X70503474Y-151061565D01*
X70601588Y-151111557D01*
X70601590Y-151111557D01*
X70601593Y-151111559D01*
X70803746Y-151177243D01*
X70803752Y-151177244D01*
X70803757Y-151177246D01*
X70908735Y-151193873D01*
X71013711Y-151210500D01*
X71013713Y-151210500D01*
X71226289Y-151210500D01*
X71310269Y-151197198D01*
X71436243Y-151177246D01*
X71436250Y-151177243D01*
X71436253Y-151177243D01*
X71638406Y-151111559D01*
X71638406Y-151111558D01*
X71638412Y-151111557D01*
X71827816Y-151015051D01*
X71999792Y-150890104D01*
X72150104Y-150739792D01*
X72275051Y-150567816D01*
X72371557Y-150378412D01*
X72437246Y-150176243D01*
X72470500Y-149966287D01*
X72470500Y-149753713D01*
X72437246Y-149543757D01*
X72437244Y-149543752D01*
X72437243Y-149543746D01*
X72371559Y-149341593D01*
X72371557Y-149341590D01*
X72371557Y-149341588D01*
X72321565Y-149243474D01*
X72275051Y-149152183D01*
X72219451Y-149075656D01*
X72150104Y-148980208D01*
X71999792Y-148829896D01*
X71933146Y-148781475D01*
X71827816Y-148704948D01*
X71772508Y-148676768D01*
X71731617Y-148655933D01*
X71694836Y-148612868D01*
X71699279Y-148556405D01*
X71731617Y-148524066D01*
X71827816Y-148475051D01*
X71999792Y-148350104D01*
X72150104Y-148199792D01*
X72275051Y-148027816D01*
X72371557Y-147838412D01*
X72437246Y-147636243D01*
X72470500Y-147426287D01*
X72470500Y-147213713D01*
X72437246Y-147003757D01*
X72437244Y-147003752D01*
X72437243Y-147003746D01*
X72371559Y-146801593D01*
X72371557Y-146801590D01*
X72371557Y-146801588D01*
X72321565Y-146703474D01*
X72275051Y-146612183D01*
X72219451Y-146535656D01*
X72150104Y-146440208D01*
X71999792Y-146289896D01*
X71933146Y-146241475D01*
X71827816Y-146164948D01*
X71772508Y-146136768D01*
X71731617Y-146115933D01*
X71694836Y-146072868D01*
X71699279Y-146016405D01*
X71731617Y-145984066D01*
X71827816Y-145935051D01*
X71999792Y-145810104D01*
X72150104Y-145659792D01*
X72275051Y-145487816D01*
X72371557Y-145298412D01*
X72437246Y-145096243D01*
X72470500Y-144886287D01*
X72470500Y-144673713D01*
X72437246Y-144463757D01*
X72437244Y-144463752D01*
X72437243Y-144463746D01*
X72371559Y-144261593D01*
X72371557Y-144261590D01*
X72371557Y-144261588D01*
X72321565Y-144163474D01*
X72275051Y-144072183D01*
X72219451Y-143995656D01*
X72150104Y-143900208D01*
X71999792Y-143749896D01*
X71933146Y-143701475D01*
X71827816Y-143624948D01*
X71772508Y-143596768D01*
X71731617Y-143575933D01*
X71694836Y-143532868D01*
X71699279Y-143476405D01*
X71731617Y-143444066D01*
X71827816Y-143395051D01*
X71999792Y-143270104D01*
X72150104Y-143119792D01*
X72275051Y-142947816D01*
X72371557Y-142758412D01*
X72437246Y-142556243D01*
X72470500Y-142346287D01*
X72470500Y-142133713D01*
X72437246Y-141923757D01*
X72437244Y-141923752D01*
X72437243Y-141923746D01*
X72371559Y-141721593D01*
X72371557Y-141721590D01*
X72371557Y-141721588D01*
X72321565Y-141623474D01*
X72275051Y-141532183D01*
X72219451Y-141455656D01*
X72150104Y-141360208D01*
X71999792Y-141209896D01*
X71999789Y-141209893D01*
X71999787Y-141209892D01*
X71964653Y-141184366D01*
X71935060Y-141136075D01*
X71948282Y-141081003D01*
X71996573Y-141051410D01*
X72008149Y-141050499D01*
X72017872Y-141050499D01*
X72077483Y-141044091D01*
X72144907Y-141018943D01*
X72212329Y-140993797D01*
X72212329Y-140993796D01*
X72212331Y-140993796D01*
X72327546Y-140907546D01*
X72413796Y-140792331D01*
X72464091Y-140657483D01*
X72470500Y-140597873D01*
X72470499Y-139593711D01*
X128189500Y-139593711D01*
X128189500Y-139806288D01*
X128222753Y-140016240D01*
X128222756Y-140016253D01*
X128288440Y-140218406D01*
X128384948Y-140407816D01*
X128461475Y-140513146D01*
X128509896Y-140579792D01*
X128660208Y-140730104D01*
X128745854Y-140792329D01*
X128832183Y-140855051D01*
X128928380Y-140904065D01*
X128965163Y-140947132D01*
X128960720Y-141003595D01*
X128928380Y-141035935D01*
X128832183Y-141084948D01*
X128660212Y-141209893D01*
X128660208Y-141209896D01*
X128509896Y-141360208D01*
X128509893Y-141360211D01*
X128509893Y-141360212D01*
X128384948Y-141532183D01*
X128288440Y-141721593D01*
X128222756Y-141923746D01*
X128222753Y-141923759D01*
X128189500Y-142133711D01*
X128189500Y-142346288D01*
X128222753Y-142556240D01*
X128222756Y-142556253D01*
X128288440Y-142758406D01*
X128384948Y-142947816D01*
X128461475Y-143053146D01*
X128509896Y-143119792D01*
X128660208Y-143270104D01*
X128755656Y-143339451D01*
X128832183Y-143395051D01*
X128928380Y-143444065D01*
X128965163Y-143487132D01*
X128960720Y-143543595D01*
X128928380Y-143575935D01*
X128832183Y-143624948D01*
X128660212Y-143749893D01*
X128660208Y-143749896D01*
X128509896Y-143900208D01*
X128509893Y-143900211D01*
X128509893Y-143900212D01*
X128384948Y-144072183D01*
X128288440Y-144261593D01*
X128222756Y-144463746D01*
X128222753Y-144463759D01*
X128189500Y-144673711D01*
X128189500Y-144886288D01*
X128222753Y-145096240D01*
X128222756Y-145096253D01*
X128288440Y-145298406D01*
X128384948Y-145487816D01*
X128450624Y-145578211D01*
X128509896Y-145659792D01*
X128660208Y-145810104D01*
X128755656Y-145879451D01*
X128832183Y-145935051D01*
X128928380Y-145984065D01*
X128965163Y-146027132D01*
X128960720Y-146083595D01*
X128928380Y-146115935D01*
X128832183Y-146164948D01*
X128660212Y-146289893D01*
X128660208Y-146289896D01*
X128509896Y-146440208D01*
X128509893Y-146440211D01*
X128509893Y-146440212D01*
X128384948Y-146612183D01*
X128288440Y-146801593D01*
X128222756Y-147003746D01*
X128222753Y-147003759D01*
X128189500Y-147213711D01*
X128189500Y-147426288D01*
X128222753Y-147636240D01*
X128222756Y-147636253D01*
X128288440Y-147838406D01*
X128384948Y-148027816D01*
X128461475Y-148133146D01*
X128509896Y-148199792D01*
X128660208Y-148350104D01*
X128755656Y-148419451D01*
X128832183Y-148475051D01*
X128928380Y-148524065D01*
X128965163Y-148567132D01*
X128960720Y-148623595D01*
X128928380Y-148655935D01*
X128832183Y-148704948D01*
X128660212Y-148829893D01*
X128660208Y-148829896D01*
X128509896Y-148980208D01*
X128509893Y-148980211D01*
X128509893Y-148980212D01*
X128384948Y-149152183D01*
X128288440Y-149341593D01*
X128222756Y-149543746D01*
X128222753Y-149543759D01*
X128189500Y-149753711D01*
X128189500Y-149966288D01*
X128222753Y-150176240D01*
X128222756Y-150176253D01*
X128288440Y-150378406D01*
X128384948Y-150567816D01*
X128461475Y-150673146D01*
X128509896Y-150739792D01*
X128660208Y-150890104D01*
X128755656Y-150959451D01*
X128832183Y-151015051D01*
X128923474Y-151061565D01*
X129021588Y-151111557D01*
X129021590Y-151111557D01*
X129021593Y-151111559D01*
X129223746Y-151177243D01*
X129223752Y-151177244D01*
X129223757Y-151177246D01*
X129328735Y-151193873D01*
X129433711Y-151210500D01*
X129433713Y-151210500D01*
X129646289Y-151210500D01*
X129730269Y-151197198D01*
X129856243Y-151177246D01*
X129856250Y-151177243D01*
X129856253Y-151177243D01*
X130058406Y-151111559D01*
X130058406Y-151111558D01*
X130058412Y-151111557D01*
X130247816Y-151015051D01*
X130419792Y-150890104D01*
X130570104Y-150739792D01*
X130695051Y-150567816D01*
X130744066Y-150471617D01*
X130787132Y-150434836D01*
X130843595Y-150439279D01*
X130875933Y-150471617D01*
X130896768Y-150512508D01*
X130924948Y-150567816D01*
X131001475Y-150673146D01*
X131049896Y-150739792D01*
X131200208Y-150890104D01*
X131295656Y-150959451D01*
X131372183Y-151015051D01*
X131463474Y-151061565D01*
X131561588Y-151111557D01*
X131561590Y-151111557D01*
X131561593Y-151111559D01*
X131763746Y-151177243D01*
X131763752Y-151177244D01*
X131763757Y-151177246D01*
X131868735Y-151193873D01*
X131973711Y-151210500D01*
X131973713Y-151210500D01*
X132186289Y-151210500D01*
X132270269Y-151197198D01*
X132396243Y-151177246D01*
X132396250Y-151177243D01*
X132396253Y-151177243D01*
X132598406Y-151111559D01*
X132598406Y-151111558D01*
X132598412Y-151111557D01*
X132787816Y-151015051D01*
X132959792Y-150890104D01*
X133110104Y-150739792D01*
X133235051Y-150567816D01*
X133331557Y-150378412D01*
X133397246Y-150176243D01*
X133430500Y-149966287D01*
X133430500Y-149753713D01*
X133397246Y-149543757D01*
X133397244Y-149543752D01*
X133397243Y-149543746D01*
X133331559Y-149341593D01*
X133331557Y-149341590D01*
X133331557Y-149341588D01*
X133281565Y-149243474D01*
X133235051Y-149152183D01*
X133179451Y-149075656D01*
X133110104Y-148980208D01*
X132959792Y-148829896D01*
X132893146Y-148781475D01*
X132787816Y-148704948D01*
X132732508Y-148676768D01*
X132691617Y-148655933D01*
X132654836Y-148612868D01*
X132659279Y-148556405D01*
X132691617Y-148524066D01*
X132787816Y-148475051D01*
X132959792Y-148350104D01*
X133110104Y-148199792D01*
X133235051Y-148027816D01*
X133331557Y-147838412D01*
X133397246Y-147636243D01*
X133430500Y-147426287D01*
X133430500Y-147213713D01*
X133397246Y-147003757D01*
X133397244Y-147003752D01*
X133397243Y-147003746D01*
X133331559Y-146801593D01*
X133331557Y-146801590D01*
X133331557Y-146801588D01*
X133281565Y-146703474D01*
X133235051Y-146612183D01*
X133179451Y-146535656D01*
X133110104Y-146440208D01*
X132959792Y-146289896D01*
X132893146Y-146241475D01*
X132787816Y-146164948D01*
X132732508Y-146136768D01*
X132691617Y-146115933D01*
X132654836Y-146072868D01*
X132659279Y-146016405D01*
X132691617Y-145984066D01*
X132787816Y-145935051D01*
X132959792Y-145810104D01*
X133110104Y-145659792D01*
X133235051Y-145487816D01*
X133331557Y-145298412D01*
X133397246Y-145096243D01*
X133430500Y-144886287D01*
X133430500Y-144673713D01*
X133397246Y-144463757D01*
X133397244Y-144463752D01*
X133397243Y-144463746D01*
X133331559Y-144261593D01*
X133331557Y-144261590D01*
X133331557Y-144261588D01*
X133281565Y-144163474D01*
X133235051Y-144072183D01*
X133179451Y-143995656D01*
X133110104Y-143900208D01*
X132959792Y-143749896D01*
X132893146Y-143701475D01*
X132787816Y-143624948D01*
X132732508Y-143596768D01*
X132691617Y-143575933D01*
X132654836Y-143532868D01*
X132659279Y-143476405D01*
X132691617Y-143444066D01*
X132787816Y-143395051D01*
X132959792Y-143270104D01*
X133110104Y-143119792D01*
X133235051Y-142947816D01*
X133331557Y-142758412D01*
X133397246Y-142556243D01*
X133430500Y-142346287D01*
X133430500Y-142133713D01*
X133397246Y-141923757D01*
X133397244Y-141923752D01*
X133397243Y-141923746D01*
X133331559Y-141721593D01*
X133331557Y-141721590D01*
X133331557Y-141721588D01*
X133281565Y-141623474D01*
X133235051Y-141532183D01*
X133179451Y-141455656D01*
X133110104Y-141360208D01*
X132959792Y-141209896D01*
X132959789Y-141209893D01*
X132959787Y-141209892D01*
X132924653Y-141184366D01*
X132895060Y-141136075D01*
X132908282Y-141081003D01*
X132956573Y-141051410D01*
X132968149Y-141050499D01*
X132977872Y-141050499D01*
X133037483Y-141044091D01*
X133104907Y-141018943D01*
X133172329Y-140993797D01*
X133172329Y-140993796D01*
X133172331Y-140993796D01*
X133287546Y-140907546D01*
X133373796Y-140792331D01*
X133424091Y-140657483D01*
X133430500Y-140597873D01*
X133430499Y-138802128D01*
X133424091Y-138742517D01*
X133397007Y-138669901D01*
X133373797Y-138607670D01*
X133373796Y-138607669D01*
X133287546Y-138492454D01*
X133172331Y-138406204D01*
X133172330Y-138406203D01*
X133172329Y-138406202D01*
X133037487Y-138355910D01*
X133037484Y-138355909D01*
X133037483Y-138355909D01*
X132977873Y-138349500D01*
X131182126Y-138349500D01*
X131122514Y-138355909D01*
X130987670Y-138406202D01*
X130987669Y-138406203D01*
X130872454Y-138492454D01*
X130786203Y-138607669D01*
X130786202Y-138607670D01*
X130735910Y-138742512D01*
X130735909Y-138742517D01*
X130729500Y-138802126D01*
X130729500Y-138811850D01*
X130707826Y-138864176D01*
X130655500Y-138885850D01*
X130603174Y-138864176D01*
X130595633Y-138855346D01*
X130570104Y-138820208D01*
X130419792Y-138669896D01*
X130334145Y-138607670D01*
X130247816Y-138544948D01*
X130058406Y-138448440D01*
X129856253Y-138382756D01*
X129856240Y-138382753D01*
X129646289Y-138349500D01*
X129646287Y-138349500D01*
X129433713Y-138349500D01*
X129433711Y-138349500D01*
X129223759Y-138382753D01*
X129223746Y-138382756D01*
X129021593Y-138448440D01*
X128832183Y-138544948D01*
X128660212Y-138669893D01*
X128660208Y-138669896D01*
X128509896Y-138820208D01*
X128509893Y-138820211D01*
X128509893Y-138820212D01*
X128384948Y-138992183D01*
X128288440Y-139181593D01*
X128222756Y-139383746D01*
X128222753Y-139383759D01*
X128189500Y-139593711D01*
X72470499Y-139593711D01*
X72470499Y-138802128D01*
X72464091Y-138742517D01*
X72437007Y-138669901D01*
X72413797Y-138607670D01*
X72413796Y-138607669D01*
X72327546Y-138492454D01*
X72212331Y-138406204D01*
X72212330Y-138406203D01*
X72212329Y-138406202D01*
X72077487Y-138355910D01*
X72077484Y-138355909D01*
X72077483Y-138355909D01*
X72017873Y-138349500D01*
X70222126Y-138349500D01*
X70162514Y-138355909D01*
X70027670Y-138406202D01*
X70027669Y-138406203D01*
X69912454Y-138492454D01*
X69826203Y-138607669D01*
X69826202Y-138607670D01*
X69775910Y-138742512D01*
X69775909Y-138742517D01*
X69769500Y-138802126D01*
X69769500Y-138811850D01*
X69747826Y-138864176D01*
X69695500Y-138885850D01*
X69643174Y-138864176D01*
X69635633Y-138855346D01*
X69610104Y-138820208D01*
X69459792Y-138669896D01*
X69374145Y-138607670D01*
X69287816Y-138544948D01*
X69098406Y-138448440D01*
X68896253Y-138382756D01*
X68896240Y-138382753D01*
X68686289Y-138349500D01*
X68686287Y-138349500D01*
X68473713Y-138349500D01*
X68473711Y-138349500D01*
X68263759Y-138382753D01*
X68263746Y-138382756D01*
X68061593Y-138448440D01*
X67872183Y-138544948D01*
X67700212Y-138669893D01*
X67700208Y-138669896D01*
X67549896Y-138820208D01*
X67549893Y-138820211D01*
X67549893Y-138820212D01*
X67424948Y-138992183D01*
X67328440Y-139181593D01*
X67262756Y-139383746D01*
X67262753Y-139383759D01*
X67229500Y-139593711D01*
X65000000Y-139593711D01*
X65000000Y-110421159D01*
X100549500Y-110421159D01*
X100549500Y-110578840D01*
X100580261Y-110733491D01*
X100580264Y-110733501D01*
X100640603Y-110879174D01*
X100640605Y-110879177D01*
X100640606Y-110879179D01*
X100728211Y-111010289D01*
X100839711Y-111121789D01*
X100970821Y-111209394D01*
X100970826Y-111209396D01*
X100970825Y-111209396D01*
X101116498Y-111269735D01*
X101116503Y-111269737D01*
X101271158Y-111300500D01*
X101271160Y-111300500D01*
X101428840Y-111300500D01*
X101428842Y-111300500D01*
X101583497Y-111269737D01*
X101729179Y-111209394D01*
X101860289Y-111121789D01*
X101971789Y-111010289D01*
X102059394Y-110879179D01*
X102119737Y-110733497D01*
X102150500Y-110578842D01*
X102150500Y-110553937D01*
X102160412Y-110516940D01*
X102188068Y-110469038D01*
X102232998Y-110434562D01*
X102289151Y-110441953D01*
X102304478Y-110453714D01*
X102377826Y-110527062D01*
X102397827Y-110575350D01*
X102399143Y-110575221D01*
X102399499Y-110578836D01*
X102430261Y-110733491D01*
X102430264Y-110733501D01*
X102490603Y-110879174D01*
X102490605Y-110879177D01*
X102490606Y-110879179D01*
X102578211Y-111010289D01*
X102689711Y-111121789D01*
X102820821Y-111209394D01*
X102820826Y-111209396D01*
X102820825Y-111209396D01*
X102966498Y-111269735D01*
X102966503Y-111269737D01*
X103121158Y-111300500D01*
X103121160Y-111300500D01*
X103278840Y-111300500D01*
X103278842Y-111300500D01*
X103433497Y-111269737D01*
X103579179Y-111209394D01*
X103710289Y-111121789D01*
X103821789Y-111010289D01*
X103909394Y-110879179D01*
X103969737Y-110733497D01*
X104000500Y-110578842D01*
X104000500Y-110421158D01*
X103974199Y-110288935D01*
X103985248Y-110233388D01*
X104032340Y-110201922D01*
X104046777Y-110200500D01*
X104192666Y-110200500D01*
X104192668Y-110200500D01*
X104227839Y-110197732D01*
X104378389Y-110153993D01*
X104378391Y-110153991D01*
X104379354Y-110153712D01*
X104420646Y-110153712D01*
X104421608Y-110153991D01*
X104421611Y-110153993D01*
X104572161Y-110197732D01*
X104607332Y-110200500D01*
X104607334Y-110200500D01*
X105292666Y-110200500D01*
X105292668Y-110200500D01*
X105327839Y-110197732D01*
X105478389Y-110153993D01*
X105613332Y-110074188D01*
X105724188Y-109963332D01*
X105740156Y-109936330D01*
X105785448Y-109902325D01*
X105803851Y-109900000D01*
X105950000Y-109900000D01*
X106150000Y-109900000D01*
X106367498Y-109900000D01*
X106414098Y-109893865D01*
X106414100Y-109893864D01*
X106516374Y-109846174D01*
X106547673Y-109814875D01*
X106599999Y-109793200D01*
X106652325Y-109814873D01*
X106652327Y-109814875D01*
X106683623Y-109846172D01*
X106683625Y-109846174D01*
X106785899Y-109893864D01*
X106785901Y-109893865D01*
X106832502Y-109900000D01*
X107050000Y-109900000D01*
X107250000Y-109900000D01*
X107467498Y-109900000D01*
X107514098Y-109893865D01*
X107514100Y-109893864D01*
X107616374Y-109846174D01*
X107696174Y-109766374D01*
X107743864Y-109664100D01*
X107743865Y-109664098D01*
X107750000Y-109617498D01*
X107750000Y-109050000D01*
X107250000Y-109050000D01*
X107250000Y-109900000D01*
X107050000Y-109900000D01*
X107050000Y-109050000D01*
X106150000Y-109050000D01*
X106150000Y-109900000D01*
X105950000Y-109900000D01*
X105950000Y-108850000D01*
X106150000Y-108850000D01*
X107050000Y-108850000D01*
X107250000Y-108850000D01*
X107750000Y-108850000D01*
X107750000Y-108282501D01*
X107743865Y-108235901D01*
X107743864Y-108235899D01*
X107696174Y-108133625D01*
X107616374Y-108053825D01*
X107514100Y-108006135D01*
X107514098Y-108006134D01*
X107467498Y-108000000D01*
X107250000Y-108000000D01*
X107250000Y-108850000D01*
X107050000Y-108850000D01*
X107050000Y-108000000D01*
X106832502Y-108000000D01*
X106785901Y-108006134D01*
X106785899Y-108006135D01*
X106683625Y-108053825D01*
X106683623Y-108053827D01*
X106652326Y-108085125D01*
X106600000Y-108106799D01*
X106547674Y-108085125D01*
X106516374Y-108053825D01*
X106414100Y-108006135D01*
X106414098Y-108006134D01*
X106367498Y-108000000D01*
X106150000Y-108000000D01*
X106150000Y-108850000D01*
X105950000Y-108850000D01*
X105950000Y-108000000D01*
X105803851Y-108000000D01*
X105751525Y-107978326D01*
X105740156Y-107963669D01*
X105724187Y-107936667D01*
X105613332Y-107825812D01*
X105478389Y-107746007D01*
X105327839Y-107702268D01*
X105327843Y-107702268D01*
X105304391Y-107700422D01*
X105292668Y-107699500D01*
X104607332Y-107699500D01*
X104593263Y-107700607D01*
X104572158Y-107702268D01*
X104420645Y-107746287D01*
X104379355Y-107746287D01*
X104227839Y-107702268D01*
X104227843Y-107702268D01*
X104204391Y-107700422D01*
X104192668Y-107699500D01*
X103507332Y-107699500D01*
X103493263Y-107700607D01*
X103472158Y-107702268D01*
X103320645Y-107746287D01*
X103279355Y-107746287D01*
X103127839Y-107702268D01*
X103127843Y-107702268D01*
X103104391Y-107700422D01*
X103092668Y-107699500D01*
X102407332Y-107699500D01*
X102393263Y-107700607D01*
X102372158Y-107702268D01*
X102220645Y-107746287D01*
X102179355Y-107746287D01*
X102027839Y-107702268D01*
X102027843Y-107702268D01*
X102004391Y-107700422D01*
X101992668Y-107699500D01*
X101307332Y-107699500D01*
X101293263Y-107700607D01*
X101272158Y-107702268D01*
X101121610Y-107746007D01*
X100986667Y-107825812D01*
X100875812Y-107936667D01*
X100859844Y-107963669D01*
X100814552Y-107997675D01*
X100796149Y-108000000D01*
X100650000Y-108000000D01*
X100650000Y-109900000D01*
X100650205Y-109900205D01*
X100702036Y-109921674D01*
X100723710Y-109974000D01*
X100711239Y-110015112D01*
X100640603Y-110120825D01*
X100580264Y-110266498D01*
X100580261Y-110266508D01*
X100549500Y-110421159D01*
X65000000Y-110421159D01*
X65000000Y-109617498D01*
X92250000Y-109617498D01*
X92256134Y-109664098D01*
X92256135Y-109664100D01*
X92303825Y-109766374D01*
X92383625Y-109846174D01*
X92485899Y-109893864D01*
X92485901Y-109893865D01*
X92532502Y-109900000D01*
X92750000Y-109900000D01*
X92950000Y-109900000D01*
X93167498Y-109900000D01*
X93214098Y-109893865D01*
X93214100Y-109893864D01*
X93316374Y-109846174D01*
X93347673Y-109814875D01*
X93399999Y-109793200D01*
X93452325Y-109814873D01*
X93452327Y-109814875D01*
X93483623Y-109846172D01*
X93483625Y-109846174D01*
X93585899Y-109893864D01*
X93585901Y-109893865D01*
X93632502Y-109900000D01*
X93850000Y-109900000D01*
X94050000Y-109900000D01*
X94267498Y-109900000D01*
X94314098Y-109893865D01*
X94314100Y-109893864D01*
X94416374Y-109846174D01*
X94447673Y-109814875D01*
X94499999Y-109793200D01*
X94552325Y-109814873D01*
X94552327Y-109814875D01*
X94583623Y-109846172D01*
X94583625Y-109846174D01*
X94685899Y-109893864D01*
X94685901Y-109893865D01*
X94732502Y-109900000D01*
X94950000Y-109900000D01*
X95150000Y-109900000D01*
X95367498Y-109900000D01*
X95414098Y-109893865D01*
X95414100Y-109893864D01*
X95516374Y-109846174D01*
X95547673Y-109814875D01*
X95599999Y-109793200D01*
X95652325Y-109814873D01*
X95652327Y-109814875D01*
X95683623Y-109846172D01*
X95683625Y-109846174D01*
X95785899Y-109893864D01*
X95785901Y-109893865D01*
X95832502Y-109900000D01*
X96050000Y-109900000D01*
X96250000Y-109900000D01*
X96467498Y-109900000D01*
X96514098Y-109893865D01*
X96514100Y-109893864D01*
X96616374Y-109846174D01*
X96647673Y-109814875D01*
X96699999Y-109793200D01*
X96752325Y-109814873D01*
X96752327Y-109814875D01*
X96783623Y-109846172D01*
X96783625Y-109846174D01*
X96885899Y-109893864D01*
X96885901Y-109893865D01*
X96932502Y-109900000D01*
X97150000Y-109900000D01*
X97350000Y-109900000D01*
X97567498Y-109900000D01*
X97614098Y-109893865D01*
X97614100Y-109893864D01*
X97716374Y-109846174D01*
X97747673Y-109814875D01*
X97799999Y-109793200D01*
X97852325Y-109814873D01*
X97852327Y-109814875D01*
X97883623Y-109846172D01*
X97883625Y-109846174D01*
X97985899Y-109893864D01*
X97985901Y-109893865D01*
X98032502Y-109900000D01*
X98250000Y-109900000D01*
X98450000Y-109900000D01*
X98667498Y-109900000D01*
X98714098Y-109893865D01*
X98714100Y-109893864D01*
X98816374Y-109846174D01*
X98847673Y-109814875D01*
X98899999Y-109793200D01*
X98952325Y-109814873D01*
X98952327Y-109814875D01*
X98983623Y-109846172D01*
X98983625Y-109846174D01*
X99085899Y-109893864D01*
X99085901Y-109893865D01*
X99132502Y-109900000D01*
X99350000Y-109900000D01*
X99550000Y-109900000D01*
X99767498Y-109900000D01*
X99814098Y-109893865D01*
X99814100Y-109893864D01*
X99916374Y-109846174D01*
X99947673Y-109814875D01*
X99999999Y-109793200D01*
X100052325Y-109814873D01*
X100052327Y-109814875D01*
X100083623Y-109846172D01*
X100083625Y-109846174D01*
X100185899Y-109893864D01*
X100185901Y-109893865D01*
X100232502Y-109900000D01*
X100450000Y-109900000D01*
X100450000Y-109050000D01*
X99550000Y-109050000D01*
X99550000Y-109900000D01*
X99350000Y-109900000D01*
X99350000Y-109050000D01*
X98450000Y-109050000D01*
X98450000Y-109900000D01*
X98250000Y-109900000D01*
X98250000Y-109050000D01*
X97350000Y-109050000D01*
X97350000Y-109900000D01*
X97150000Y-109900000D01*
X97150000Y-109050000D01*
X96250000Y-109050000D01*
X96250000Y-109900000D01*
X96050000Y-109900000D01*
X96050000Y-109050000D01*
X95150000Y-109050000D01*
X95150000Y-109900000D01*
X94950000Y-109900000D01*
X94950000Y-109050000D01*
X94050000Y-109050000D01*
X94050000Y-109900000D01*
X93850000Y-109900000D01*
X93850000Y-109050000D01*
X92950000Y-109050000D01*
X92950000Y-109900000D01*
X92750000Y-109900000D01*
X92750000Y-109050000D01*
X92250000Y-109050000D01*
X92250000Y-109617498D01*
X65000000Y-109617498D01*
X65000000Y-108282501D01*
X92250000Y-108282501D01*
X92250000Y-108850000D01*
X92750000Y-108850000D01*
X92950000Y-108850000D01*
X93850000Y-108850000D01*
X94050000Y-108850000D01*
X94950000Y-108850000D01*
X95150000Y-108850000D01*
X96050000Y-108850000D01*
X96250000Y-108850000D01*
X97150000Y-108850000D01*
X97350000Y-108850000D01*
X98250000Y-108850000D01*
X98450000Y-108850000D01*
X99350000Y-108850000D01*
X99550000Y-108850000D01*
X100450000Y-108850000D01*
X100450000Y-108000000D01*
X100232502Y-108000000D01*
X100185901Y-108006134D01*
X100185899Y-108006135D01*
X100083625Y-108053825D01*
X100083623Y-108053827D01*
X100052326Y-108085125D01*
X100000000Y-108106799D01*
X99947674Y-108085125D01*
X99916374Y-108053825D01*
X99814100Y-108006135D01*
X99814098Y-108006134D01*
X99767498Y-108000000D01*
X99550000Y-108000000D01*
X99550000Y-108850000D01*
X99350000Y-108850000D01*
X99350000Y-108000000D01*
X99132502Y-108000000D01*
X99085901Y-108006134D01*
X99085899Y-108006135D01*
X98983625Y-108053825D01*
X98983623Y-108053827D01*
X98952326Y-108085125D01*
X98900000Y-108106799D01*
X98847674Y-108085125D01*
X98816374Y-108053825D01*
X98714100Y-108006135D01*
X98714098Y-108006134D01*
X98667498Y-108000000D01*
X98450000Y-108000000D01*
X98450000Y-108850000D01*
X98250000Y-108850000D01*
X98250000Y-108000000D01*
X98032502Y-108000000D01*
X97985901Y-108006134D01*
X97985899Y-108006135D01*
X97883625Y-108053825D01*
X97883623Y-108053827D01*
X97852326Y-108085125D01*
X97800000Y-108106799D01*
X97747674Y-108085125D01*
X97716374Y-108053825D01*
X97614100Y-108006135D01*
X97614098Y-108006134D01*
X97567498Y-108000000D01*
X97350000Y-108000000D01*
X97350000Y-108850000D01*
X97150000Y-108850000D01*
X97150000Y-108000000D01*
X96932502Y-108000000D01*
X96885901Y-108006134D01*
X96885899Y-108006135D01*
X96783625Y-108053825D01*
X96783623Y-108053827D01*
X96752326Y-108085125D01*
X96700000Y-108106799D01*
X96647674Y-108085125D01*
X96616374Y-108053825D01*
X96514100Y-108006135D01*
X96514098Y-108006134D01*
X96467498Y-108000000D01*
X96250000Y-108000000D01*
X96250000Y-108850000D01*
X96050000Y-108850000D01*
X96050000Y-108000000D01*
X95832502Y-108000000D01*
X95785901Y-108006134D01*
X95785899Y-108006135D01*
X95683625Y-108053825D01*
X95683623Y-108053827D01*
X95652326Y-108085125D01*
X95600000Y-108106799D01*
X95547674Y-108085125D01*
X95516374Y-108053825D01*
X95414100Y-108006135D01*
X95414098Y-108006134D01*
X95367498Y-108000000D01*
X95150000Y-108000000D01*
X95150000Y-108850000D01*
X94950000Y-108850000D01*
X94950000Y-108000000D01*
X94732502Y-108000000D01*
X94685901Y-108006134D01*
X94685899Y-108006135D01*
X94583625Y-108053825D01*
X94583623Y-108053827D01*
X94552326Y-108085125D01*
X94500000Y-108106799D01*
X94447674Y-108085125D01*
X94416374Y-108053825D01*
X94314100Y-108006135D01*
X94314098Y-108006134D01*
X94267498Y-108000000D01*
X94050000Y-108000000D01*
X94050000Y-108850000D01*
X93850000Y-108850000D01*
X93850000Y-108000000D01*
X93632502Y-108000000D01*
X93585901Y-108006134D01*
X93585899Y-108006135D01*
X93483625Y-108053825D01*
X93483623Y-108053827D01*
X93452326Y-108085125D01*
X93400000Y-108106799D01*
X93347674Y-108085125D01*
X93316374Y-108053825D01*
X93214100Y-108006135D01*
X93214098Y-108006134D01*
X93167498Y-108000000D01*
X92950000Y-108000000D01*
X92950000Y-108850000D01*
X92750000Y-108850000D01*
X92750000Y-108000000D01*
X92532502Y-108000000D01*
X92485901Y-108006134D01*
X92485899Y-108006135D01*
X92383625Y-108053825D01*
X92303825Y-108133625D01*
X92256135Y-108235899D01*
X92256134Y-108235901D01*
X92250000Y-108282501D01*
X65000000Y-108282501D01*
X65000000Y-107467498D01*
X90100000Y-107467498D01*
X90106134Y-107514098D01*
X90106135Y-107514100D01*
X90153825Y-107616374D01*
X90233625Y-107696174D01*
X90335899Y-107743864D01*
X90335901Y-107743865D01*
X90382502Y-107750000D01*
X90950000Y-107750000D01*
X91150000Y-107750000D01*
X91717498Y-107750000D01*
X91764098Y-107743865D01*
X91764100Y-107743864D01*
X91866374Y-107696174D01*
X91946174Y-107616374D01*
X91993864Y-107514100D01*
X91993865Y-107514098D01*
X92000000Y-107467498D01*
X108000000Y-107467498D01*
X108006134Y-107514098D01*
X108006135Y-107514100D01*
X108053825Y-107616374D01*
X108133625Y-107696174D01*
X108235899Y-107743864D01*
X108235901Y-107743865D01*
X108282502Y-107750000D01*
X108850000Y-107750000D01*
X109050000Y-107750000D01*
X109617498Y-107750000D01*
X109664098Y-107743865D01*
X109664100Y-107743864D01*
X109766374Y-107696174D01*
X109846174Y-107616374D01*
X109893864Y-107514100D01*
X109893865Y-107514098D01*
X109900000Y-107467498D01*
X109900000Y-107250000D01*
X109050000Y-107250000D01*
X109050000Y-107750000D01*
X108850000Y-107750000D01*
X108850000Y-107250000D01*
X108000000Y-107250000D01*
X108000000Y-107467498D01*
X92000000Y-107467498D01*
X92000000Y-107250000D01*
X91150000Y-107250000D01*
X91150000Y-107750000D01*
X90950000Y-107750000D01*
X90950000Y-107250000D01*
X90100000Y-107250000D01*
X90100000Y-107467498D01*
X65000000Y-107467498D01*
X65000000Y-105971159D01*
X87563500Y-105971159D01*
X87563500Y-106128840D01*
X87594261Y-106283491D01*
X87594264Y-106283501D01*
X87654603Y-106429174D01*
X87654605Y-106429177D01*
X87654606Y-106429179D01*
X87742211Y-106560289D01*
X87853711Y-106671789D01*
X87984821Y-106759394D01*
X87984826Y-106759396D01*
X87984825Y-106759396D01*
X87989579Y-106761365D01*
X88130503Y-106819737D01*
X88285158Y-106850500D01*
X88285160Y-106850500D01*
X88442840Y-106850500D01*
X88442842Y-106850500D01*
X88597497Y-106819737D01*
X88743179Y-106759394D01*
X88874289Y-106671789D01*
X88874293Y-106671784D01*
X88877100Y-106669482D01*
X88877937Y-106670503D01*
X88926230Y-106650500D01*
X89846444Y-106650500D01*
X89898770Y-106672174D01*
X89910139Y-106686831D01*
X89925812Y-106713332D01*
X90036668Y-106824188D01*
X90063669Y-106840156D01*
X90097675Y-106885448D01*
X90100000Y-106903851D01*
X90100000Y-107050000D01*
X92000000Y-107050000D01*
X92000000Y-107019644D01*
X94500000Y-107019644D01*
X94510337Y-107090588D01*
X94563838Y-107200026D01*
X94649973Y-107286161D01*
X94759411Y-107339662D01*
X94830355Y-107349999D01*
X94830366Y-107350000D01*
X95150000Y-107350000D01*
X95350000Y-107350000D01*
X95669634Y-107350000D01*
X95669644Y-107349999D01*
X95740588Y-107339662D01*
X95850026Y-107286161D01*
X95936161Y-107200026D01*
X95989662Y-107090588D01*
X95999999Y-107019644D01*
X96400000Y-107019644D01*
X96410337Y-107090588D01*
X96463838Y-107200026D01*
X96549973Y-107286161D01*
X96659411Y-107339662D01*
X96730355Y-107349999D01*
X96730366Y-107350000D01*
X97050000Y-107350000D01*
X97250000Y-107350000D01*
X97569634Y-107350000D01*
X97569644Y-107349999D01*
X97640588Y-107339662D01*
X97750026Y-107286161D01*
X97836161Y-107200026D01*
X97889662Y-107090588D01*
X97899999Y-107019644D01*
X98300000Y-107019644D01*
X98310337Y-107090588D01*
X98363838Y-107200026D01*
X98449973Y-107286161D01*
X98559411Y-107339662D01*
X98630355Y-107349999D01*
X98630366Y-107350000D01*
X98950000Y-107350000D01*
X99150000Y-107350000D01*
X99469634Y-107350000D01*
X99469644Y-107349999D01*
X99540588Y-107339662D01*
X99650026Y-107286161D01*
X99736161Y-107200026D01*
X99789662Y-107090588D01*
X99799999Y-107019644D01*
X100200000Y-107019644D01*
X100210337Y-107090588D01*
X100263838Y-107200026D01*
X100349973Y-107286161D01*
X100459411Y-107339662D01*
X100530355Y-107349999D01*
X100530366Y-107350000D01*
X100850000Y-107350000D01*
X101050000Y-107350000D01*
X101369634Y-107350000D01*
X101369644Y-107349999D01*
X101440588Y-107339662D01*
X101550026Y-107286161D01*
X101636161Y-107200026D01*
X101689662Y-107090588D01*
X101699999Y-107019644D01*
X102100000Y-107019644D01*
X102110337Y-107090588D01*
X102163838Y-107200026D01*
X102249973Y-107286161D01*
X102359411Y-107339662D01*
X102430355Y-107349999D01*
X102430366Y-107350000D01*
X102750000Y-107350000D01*
X102950000Y-107350000D01*
X103269634Y-107350000D01*
X103269644Y-107349999D01*
X103340588Y-107339662D01*
X103450026Y-107286161D01*
X103536161Y-107200026D01*
X103589662Y-107090588D01*
X103599999Y-107019644D01*
X104000000Y-107019644D01*
X104010337Y-107090588D01*
X104063838Y-107200026D01*
X104149973Y-107286161D01*
X104259411Y-107339662D01*
X104330355Y-107349999D01*
X104330366Y-107350000D01*
X104650000Y-107350000D01*
X104850000Y-107350000D01*
X105169634Y-107350000D01*
X105169644Y-107349999D01*
X105240588Y-107339662D01*
X105350026Y-107286161D01*
X105436162Y-107200025D01*
X105436162Y-107200024D01*
X105442606Y-107186846D01*
X105489662Y-107090590D01*
X105499999Y-107019644D01*
X105500000Y-107019633D01*
X105500000Y-106700000D01*
X104850000Y-106700000D01*
X104850000Y-107350000D01*
X104650000Y-107350000D01*
X104650000Y-106700000D01*
X104000000Y-106700000D01*
X104000000Y-107019644D01*
X103599999Y-107019644D01*
X103600000Y-107019633D01*
X103600000Y-106700000D01*
X102950000Y-106700000D01*
X102950000Y-107350000D01*
X102750000Y-107350000D01*
X102750000Y-106700000D01*
X102100000Y-106700000D01*
X102100000Y-107019644D01*
X101699999Y-107019644D01*
X101700000Y-107019633D01*
X101700000Y-106700000D01*
X101050000Y-106700000D01*
X101050000Y-107350000D01*
X100850000Y-107350000D01*
X100850000Y-106700000D01*
X100200000Y-106700000D01*
X100200000Y-107019644D01*
X99799999Y-107019644D01*
X99800000Y-107019633D01*
X99800000Y-106700000D01*
X99150000Y-106700000D01*
X99150000Y-107350000D01*
X98950000Y-107350000D01*
X98950000Y-106700000D01*
X98300000Y-106700000D01*
X98300000Y-107019644D01*
X97899999Y-107019644D01*
X97900000Y-107019633D01*
X97900000Y-106700000D01*
X97250000Y-106700000D01*
X97250000Y-107350000D01*
X97050000Y-107350000D01*
X97050000Y-106700000D01*
X96400000Y-106700000D01*
X96400000Y-107019644D01*
X95999999Y-107019644D01*
X96000000Y-107019633D01*
X96000000Y-106700000D01*
X95350000Y-106700000D01*
X95350000Y-107350000D01*
X95150000Y-107350000D01*
X95150000Y-106700000D01*
X94500000Y-106700000D01*
X94500000Y-107019644D01*
X92000000Y-107019644D01*
X92000000Y-106903851D01*
X92021674Y-106851525D01*
X92036329Y-106840157D01*
X92063332Y-106824188D01*
X92174188Y-106713332D01*
X92253993Y-106578389D01*
X92297732Y-106427839D01*
X92300500Y-106392668D01*
X92300500Y-106180355D01*
X94500000Y-106180355D01*
X94500000Y-106500000D01*
X95150000Y-106500000D01*
X95350000Y-106500000D01*
X96000000Y-106500000D01*
X96000000Y-106180366D01*
X95999999Y-106180355D01*
X96400000Y-106180355D01*
X96400000Y-106500000D01*
X97050000Y-106500000D01*
X97250000Y-106500000D01*
X97900000Y-106500000D01*
X97900000Y-106180366D01*
X97899999Y-106180355D01*
X98300000Y-106180355D01*
X98300000Y-106500000D01*
X98950000Y-106500000D01*
X99150000Y-106500000D01*
X99800000Y-106500000D01*
X99800000Y-106180366D01*
X99799999Y-106180355D01*
X100200000Y-106180355D01*
X100200000Y-106500000D01*
X100850000Y-106500000D01*
X101050000Y-106500000D01*
X101700000Y-106500000D01*
X101700000Y-106180366D01*
X101699999Y-106180355D01*
X102100000Y-106180355D01*
X102100000Y-106500000D01*
X102750000Y-106500000D01*
X102950000Y-106500000D01*
X103600000Y-106500000D01*
X103600000Y-106180366D01*
X103599999Y-106180355D01*
X104000000Y-106180355D01*
X104000000Y-106500000D01*
X104650000Y-106500000D01*
X104850000Y-106500000D01*
X105500000Y-106500000D01*
X105500000Y-106180366D01*
X105499999Y-106180355D01*
X105489662Y-106109411D01*
X105436161Y-105999973D01*
X105350026Y-105913838D01*
X105240588Y-105860337D01*
X105169644Y-105850000D01*
X104850000Y-105850000D01*
X104850000Y-106500000D01*
X104650000Y-106500000D01*
X104650000Y-105850000D01*
X104330355Y-105850000D01*
X104259411Y-105860337D01*
X104149973Y-105913838D01*
X104063838Y-105999973D01*
X104010337Y-106109411D01*
X104000000Y-106180355D01*
X103599999Y-106180355D01*
X103589662Y-106109411D01*
X103536161Y-105999973D01*
X103450026Y-105913838D01*
X103340588Y-105860337D01*
X103269644Y-105850000D01*
X102950000Y-105850000D01*
X102950000Y-106500000D01*
X102750000Y-106500000D01*
X102750000Y-105850000D01*
X102430355Y-105850000D01*
X102359411Y-105860337D01*
X102249973Y-105913838D01*
X102163838Y-105999973D01*
X102110337Y-106109411D01*
X102100000Y-106180355D01*
X101699999Y-106180355D01*
X101689662Y-106109411D01*
X101636161Y-105999973D01*
X101550026Y-105913838D01*
X101440588Y-105860337D01*
X101369644Y-105850000D01*
X101050000Y-105850000D01*
X101050000Y-106500000D01*
X100850000Y-106500000D01*
X100850000Y-105850000D01*
X100530355Y-105850000D01*
X100459411Y-105860337D01*
X100349973Y-105913838D01*
X100263838Y-105999973D01*
X100210337Y-106109411D01*
X100200000Y-106180355D01*
X99799999Y-106180355D01*
X99789662Y-106109411D01*
X99736161Y-105999973D01*
X99650026Y-105913838D01*
X99540588Y-105860337D01*
X99469644Y-105850000D01*
X99150000Y-105850000D01*
X99150000Y-106500000D01*
X98950000Y-106500000D01*
X98950000Y-105850000D01*
X98630355Y-105850000D01*
X98559411Y-105860337D01*
X98449973Y-105913838D01*
X98363838Y-105999973D01*
X98310337Y-106109411D01*
X98300000Y-106180355D01*
X97899999Y-106180355D01*
X97889662Y-106109411D01*
X97836161Y-105999973D01*
X97750026Y-105913838D01*
X97640588Y-105860337D01*
X97569644Y-105850000D01*
X97250000Y-105850000D01*
X97250000Y-106500000D01*
X97050000Y-106500000D01*
X97050000Y-105850000D01*
X96730355Y-105850000D01*
X96659411Y-105860337D01*
X96549973Y-105913838D01*
X96463838Y-105999973D01*
X96410337Y-106109411D01*
X96400000Y-106180355D01*
X95999999Y-106180355D01*
X95989662Y-106109411D01*
X95936161Y-105999973D01*
X95850026Y-105913838D01*
X95740588Y-105860337D01*
X95669644Y-105850000D01*
X95350000Y-105850000D01*
X95350000Y-106500000D01*
X95150000Y-106500000D01*
X95150000Y-105850000D01*
X94830355Y-105850000D01*
X94759411Y-105860337D01*
X94649973Y-105913838D01*
X94563838Y-105999973D01*
X94510337Y-106109411D01*
X94500000Y-106180355D01*
X92300500Y-106180355D01*
X92300500Y-105707332D01*
X92297732Y-105672161D01*
X92253993Y-105521611D01*
X92174188Y-105386668D01*
X92063332Y-105275812D01*
X92036330Y-105259843D01*
X92002325Y-105214550D01*
X92000000Y-105196148D01*
X92000000Y-105119644D01*
X92600000Y-105119644D01*
X92610337Y-105190588D01*
X92663838Y-105300026D01*
X92749973Y-105386161D01*
X92859411Y-105439662D01*
X92930355Y-105449999D01*
X92930366Y-105450000D01*
X93250000Y-105450000D01*
X93450000Y-105450000D01*
X93769634Y-105450000D01*
X93769644Y-105449999D01*
X93840588Y-105439662D01*
X93950026Y-105386161D01*
X94036161Y-105300026D01*
X94089662Y-105190588D01*
X94099999Y-105119644D01*
X94500000Y-105119644D01*
X94510337Y-105190588D01*
X94563838Y-105300026D01*
X94649973Y-105386161D01*
X94759411Y-105439662D01*
X94830355Y-105449999D01*
X94830366Y-105450000D01*
X95150000Y-105450000D01*
X95350000Y-105450000D01*
X95669634Y-105450000D01*
X95669644Y-105449999D01*
X95740588Y-105439662D01*
X95850026Y-105386161D01*
X95936161Y-105300026D01*
X95989662Y-105190588D01*
X95999999Y-105119644D01*
X96400000Y-105119644D01*
X96410337Y-105190588D01*
X96463838Y-105300026D01*
X96549973Y-105386161D01*
X96659411Y-105439662D01*
X96730355Y-105449999D01*
X96730366Y-105450000D01*
X97050000Y-105450000D01*
X97250000Y-105450000D01*
X97569634Y-105450000D01*
X97569644Y-105449999D01*
X97640588Y-105439662D01*
X97750026Y-105386161D01*
X97836161Y-105300026D01*
X97889662Y-105190588D01*
X97899999Y-105119644D01*
X98300000Y-105119644D01*
X98310337Y-105190588D01*
X98363838Y-105300026D01*
X98449973Y-105386161D01*
X98559411Y-105439662D01*
X98630355Y-105449999D01*
X98630366Y-105450000D01*
X98950000Y-105450000D01*
X99150000Y-105450000D01*
X99469634Y-105450000D01*
X99469644Y-105449999D01*
X99540588Y-105439662D01*
X99650026Y-105386161D01*
X99736161Y-105300026D01*
X99789662Y-105190588D01*
X99799999Y-105119644D01*
X100200000Y-105119644D01*
X100210337Y-105190588D01*
X100263838Y-105300026D01*
X100349973Y-105386161D01*
X100459411Y-105439662D01*
X100530355Y-105449999D01*
X100530366Y-105450000D01*
X100850000Y-105450000D01*
X101050000Y-105450000D01*
X101369634Y-105450000D01*
X101369644Y-105449999D01*
X101440588Y-105439662D01*
X101550026Y-105386161D01*
X101636161Y-105300026D01*
X101689662Y-105190588D01*
X101699999Y-105119644D01*
X102100000Y-105119644D01*
X102110337Y-105190588D01*
X102163838Y-105300026D01*
X102249973Y-105386161D01*
X102359411Y-105439662D01*
X102430355Y-105449999D01*
X102430366Y-105450000D01*
X102750000Y-105450000D01*
X102950000Y-105450000D01*
X103269634Y-105450000D01*
X103269644Y-105449999D01*
X103340588Y-105439662D01*
X103450026Y-105386161D01*
X103536161Y-105300026D01*
X103589662Y-105190588D01*
X103599999Y-105119644D01*
X104000000Y-105119644D01*
X104010337Y-105190588D01*
X104063838Y-105300026D01*
X104149973Y-105386161D01*
X104259411Y-105439662D01*
X104330355Y-105449999D01*
X104330366Y-105450000D01*
X104650000Y-105450000D01*
X104850000Y-105450000D01*
X105169634Y-105450000D01*
X105169644Y-105449999D01*
X105240588Y-105439662D01*
X105350026Y-105386161D01*
X105436161Y-105300026D01*
X105489662Y-105190588D01*
X105499999Y-105119644D01*
X105900000Y-105119644D01*
X105910337Y-105190588D01*
X105963838Y-105300026D01*
X106049973Y-105386161D01*
X106159411Y-105439662D01*
X106230355Y-105449999D01*
X106230366Y-105450000D01*
X106550000Y-105450000D01*
X106750000Y-105450000D01*
X107069634Y-105450000D01*
X107069644Y-105449999D01*
X107140588Y-105439662D01*
X107250026Y-105386161D01*
X107336161Y-105300026D01*
X107389662Y-105190588D01*
X107399999Y-105119644D01*
X107400000Y-105119633D01*
X107400000Y-104800000D01*
X106750000Y-104800000D01*
X106750000Y-105450000D01*
X106550000Y-105450000D01*
X106550000Y-104800000D01*
X105900000Y-104800000D01*
X105900000Y-105119644D01*
X105499999Y-105119644D01*
X105500000Y-105119633D01*
X105500000Y-104800000D01*
X104850000Y-104800000D01*
X104850000Y-105450000D01*
X104650000Y-105450000D01*
X104650000Y-104800000D01*
X104000000Y-104800000D01*
X104000000Y-105119644D01*
X103599999Y-105119644D01*
X103600000Y-105119633D01*
X103600000Y-104800000D01*
X102950000Y-104800000D01*
X102950000Y-105450000D01*
X102750000Y-105450000D01*
X102750000Y-104800000D01*
X102100000Y-104800000D01*
X102100000Y-105119644D01*
X101699999Y-105119644D01*
X101700000Y-105119633D01*
X101700000Y-104800000D01*
X101050000Y-104800000D01*
X101050000Y-105450000D01*
X100850000Y-105450000D01*
X100850000Y-104800000D01*
X100200000Y-104800000D01*
X100200000Y-105119644D01*
X99799999Y-105119644D01*
X99800000Y-105119633D01*
X99800000Y-104800000D01*
X99150000Y-104800000D01*
X99150000Y-105450000D01*
X98950000Y-105450000D01*
X98950000Y-104800000D01*
X98300000Y-104800000D01*
X98300000Y-105119644D01*
X97899999Y-105119644D01*
X97900000Y-105119633D01*
X97900000Y-104800000D01*
X97250000Y-104800000D01*
X97250000Y-105450000D01*
X97050000Y-105450000D01*
X97050000Y-104800000D01*
X96400000Y-104800000D01*
X96400000Y-105119644D01*
X95999999Y-105119644D01*
X96000000Y-105119633D01*
X96000000Y-104800000D01*
X95350000Y-104800000D01*
X95350000Y-105450000D01*
X95150000Y-105450000D01*
X95150000Y-104800000D01*
X94500000Y-104800000D01*
X94500000Y-105119644D01*
X94099999Y-105119644D01*
X94100000Y-105119633D01*
X94100000Y-104800000D01*
X93450000Y-104800000D01*
X93450000Y-105450000D01*
X93250000Y-105450000D01*
X93250000Y-104800000D01*
X92600000Y-104800000D01*
X92600000Y-105119644D01*
X92000000Y-105119644D01*
X92000000Y-105050000D01*
X90100000Y-105050000D01*
X90100000Y-105196148D01*
X90078326Y-105248474D01*
X90063670Y-105259843D01*
X90036667Y-105275812D01*
X89925811Y-105386668D01*
X89910139Y-105413169D01*
X89864847Y-105447175D01*
X89846444Y-105449500D01*
X88926230Y-105449500D01*
X88877937Y-105429496D01*
X88877100Y-105430518D01*
X88874288Y-105428210D01*
X88841842Y-105406530D01*
X88743179Y-105340606D01*
X88743175Y-105340604D01*
X88743173Y-105340603D01*
X88743174Y-105340603D01*
X88597501Y-105280264D01*
X88597491Y-105280261D01*
X88493925Y-105259661D01*
X88442842Y-105249500D01*
X88285158Y-105249500D01*
X88241315Y-105258220D01*
X88130508Y-105280261D01*
X88130498Y-105280264D01*
X87984825Y-105340603D01*
X87853711Y-105428210D01*
X87853710Y-105428212D01*
X87742212Y-105539710D01*
X87742210Y-105539711D01*
X87654603Y-105670825D01*
X87594264Y-105816498D01*
X87594261Y-105816508D01*
X87563500Y-105971159D01*
X65000000Y-105971159D01*
X65000000Y-102323995D01*
X87844500Y-102323995D01*
X87844500Y-104276015D01*
X87847396Y-104330030D01*
X87847397Y-104330042D01*
X87882976Y-104469443D01*
X87882977Y-104469444D01*
X87904648Y-104521763D01*
X87904658Y-104521784D01*
X87956443Y-104616621D01*
X87956448Y-104616628D01*
X88054486Y-104721928D01*
X88054488Y-104721929D01*
X88054489Y-104721930D01*
X88178229Y-104795348D01*
X88230555Y-104817022D01*
X88281584Y-104835024D01*
X88424000Y-104855500D01*
X88424006Y-104855500D01*
X88937254Y-104855500D01*
X88937270Y-104855500D01*
X88991310Y-104852603D01*
X88994460Y-104851799D01*
X89012761Y-104849500D01*
X90068848Y-104849500D01*
X90070055Y-104850000D01*
X92000000Y-104850000D01*
X92000000Y-104703851D01*
X92021674Y-104651525D01*
X92036329Y-104640157D01*
X92063332Y-104624188D01*
X92174188Y-104513332D01*
X92253993Y-104378389D01*
X92282475Y-104280355D01*
X92600000Y-104280355D01*
X92600000Y-104600000D01*
X93250000Y-104600000D01*
X93450000Y-104600000D01*
X94100000Y-104600000D01*
X94100000Y-104280366D01*
X94099999Y-104280355D01*
X94500000Y-104280355D01*
X94500000Y-104600000D01*
X95150000Y-104600000D01*
X95350000Y-104600000D01*
X96000000Y-104600000D01*
X96000000Y-104280366D01*
X95999999Y-104280355D01*
X96400000Y-104280355D01*
X96400000Y-104600000D01*
X97050000Y-104600000D01*
X97250000Y-104600000D01*
X97900000Y-104600000D01*
X97900000Y-104280366D01*
X97899999Y-104280355D01*
X98300000Y-104280355D01*
X98300000Y-104600000D01*
X98950000Y-104600000D01*
X99150000Y-104600000D01*
X99800000Y-104600000D01*
X99800000Y-104280366D01*
X99799999Y-104280355D01*
X100200000Y-104280355D01*
X100200000Y-104600000D01*
X100850000Y-104600000D01*
X101050000Y-104600000D01*
X101700000Y-104600000D01*
X101700000Y-104280366D01*
X101699999Y-104280355D01*
X102100000Y-104280355D01*
X102100000Y-104600000D01*
X102750000Y-104600000D01*
X102950000Y-104600000D01*
X103600000Y-104600000D01*
X103600000Y-104280366D01*
X103599999Y-104280355D01*
X104000000Y-104280355D01*
X104000000Y-104600000D01*
X104650000Y-104600000D01*
X104850000Y-104600000D01*
X105500000Y-104600000D01*
X105500000Y-104280366D01*
X105499999Y-104280355D01*
X105900000Y-104280355D01*
X105900000Y-104600000D01*
X106550000Y-104600000D01*
X106750000Y-104600000D01*
X107400000Y-104600000D01*
X107400000Y-104280366D01*
X107399999Y-104280355D01*
X107389662Y-104209411D01*
X107336161Y-104099973D01*
X107250026Y-104013838D01*
X107140588Y-103960337D01*
X107069644Y-103950000D01*
X106750000Y-103950000D01*
X106750000Y-104600000D01*
X106550000Y-104600000D01*
X106550000Y-103950000D01*
X106230355Y-103950000D01*
X106159411Y-103960337D01*
X106049973Y-104013838D01*
X105963838Y-104099973D01*
X105910337Y-104209411D01*
X105900000Y-104280355D01*
X105499999Y-104280355D01*
X105489662Y-104209411D01*
X105436161Y-104099973D01*
X105350026Y-104013838D01*
X105240588Y-103960337D01*
X105169644Y-103950000D01*
X104850000Y-103950000D01*
X104850000Y-104600000D01*
X104650000Y-104600000D01*
X104650000Y-103950000D01*
X104330355Y-103950000D01*
X104259411Y-103960337D01*
X104149973Y-104013838D01*
X104063838Y-104099973D01*
X104010337Y-104209411D01*
X104000000Y-104280355D01*
X103599999Y-104280355D01*
X103589662Y-104209411D01*
X103536161Y-104099973D01*
X103450026Y-104013838D01*
X103340588Y-103960337D01*
X103269644Y-103950000D01*
X102950000Y-103950000D01*
X102950000Y-104600000D01*
X102750000Y-104600000D01*
X102750000Y-103950000D01*
X102430355Y-103950000D01*
X102359411Y-103960337D01*
X102249973Y-104013838D01*
X102163838Y-104099973D01*
X102110337Y-104209411D01*
X102100000Y-104280355D01*
X101699999Y-104280355D01*
X101689662Y-104209411D01*
X101636161Y-104099973D01*
X101550026Y-104013838D01*
X101440588Y-103960337D01*
X101369644Y-103950000D01*
X101050000Y-103950000D01*
X101050000Y-104600000D01*
X100850000Y-104600000D01*
X100850000Y-103950000D01*
X100530355Y-103950000D01*
X100459411Y-103960337D01*
X100349973Y-104013838D01*
X100263838Y-104099973D01*
X100210337Y-104209411D01*
X100200000Y-104280355D01*
X99799999Y-104280355D01*
X99789662Y-104209411D01*
X99736161Y-104099973D01*
X99650026Y-104013838D01*
X99540588Y-103960337D01*
X99469644Y-103950000D01*
X99150000Y-103950000D01*
X99150000Y-104600000D01*
X98950000Y-104600000D01*
X98950000Y-103950000D01*
X98630355Y-103950000D01*
X98559411Y-103960337D01*
X98449973Y-104013838D01*
X98363838Y-104099973D01*
X98310337Y-104209411D01*
X98300000Y-104280355D01*
X97899999Y-104280355D01*
X97889662Y-104209411D01*
X97836161Y-104099973D01*
X97750026Y-104013838D01*
X97640588Y-103960337D01*
X97569644Y-103950000D01*
X97250000Y-103950000D01*
X97250000Y-104600000D01*
X97050000Y-104600000D01*
X97050000Y-103950000D01*
X96730355Y-103950000D01*
X96659411Y-103960337D01*
X96549973Y-104013838D01*
X96463838Y-104099973D01*
X96410337Y-104209411D01*
X96400000Y-104280355D01*
X95999999Y-104280355D01*
X95989662Y-104209411D01*
X95936161Y-104099973D01*
X95850026Y-104013838D01*
X95740588Y-103960337D01*
X95669644Y-103950000D01*
X95350000Y-103950000D01*
X95350000Y-104600000D01*
X95150000Y-104600000D01*
X95150000Y-103950000D01*
X94830355Y-103950000D01*
X94759411Y-103960337D01*
X94649973Y-104013838D01*
X94563838Y-104099973D01*
X94510337Y-104209411D01*
X94500000Y-104280355D01*
X94099999Y-104280355D01*
X94089662Y-104209411D01*
X94036161Y-104099973D01*
X93950026Y-104013838D01*
X93840588Y-103960337D01*
X93769644Y-103950000D01*
X93450000Y-103950000D01*
X93450000Y-104600000D01*
X93250000Y-104600000D01*
X93250000Y-103950000D01*
X92930355Y-103950000D01*
X92859411Y-103960337D01*
X92749973Y-104013838D01*
X92663838Y-104099973D01*
X92610337Y-104209411D01*
X92600000Y-104280355D01*
X92282475Y-104280355D01*
X92297732Y-104227839D01*
X92300500Y-104192668D01*
X92300500Y-104015569D01*
X92301253Y-104005038D01*
X92305499Y-103975504D01*
X92305500Y-103975500D01*
X92305500Y-103219644D01*
X92600000Y-103219644D01*
X92610337Y-103290588D01*
X92663838Y-103400026D01*
X92749973Y-103486161D01*
X92859411Y-103539662D01*
X92930355Y-103549999D01*
X92930366Y-103550000D01*
X93250000Y-103550000D01*
X93450000Y-103550000D01*
X93769634Y-103550000D01*
X93769644Y-103549999D01*
X93840588Y-103539662D01*
X93950026Y-103486161D01*
X94036161Y-103400026D01*
X94089662Y-103290588D01*
X94099999Y-103219644D01*
X94500000Y-103219644D01*
X94510337Y-103290588D01*
X94563838Y-103400026D01*
X94649973Y-103486161D01*
X94759411Y-103539662D01*
X94830355Y-103549999D01*
X94830366Y-103550000D01*
X95150000Y-103550000D01*
X95350000Y-103550000D01*
X95669634Y-103550000D01*
X95669644Y-103549999D01*
X95740588Y-103539662D01*
X95850026Y-103486161D01*
X95936161Y-103400026D01*
X95989662Y-103290588D01*
X95999999Y-103219644D01*
X104000000Y-103219644D01*
X104010337Y-103290588D01*
X104063838Y-103400026D01*
X104149973Y-103486161D01*
X104259411Y-103539662D01*
X104330355Y-103549999D01*
X104330366Y-103550000D01*
X104650000Y-103550000D01*
X104850000Y-103550000D01*
X105169634Y-103550000D01*
X105169644Y-103549999D01*
X105240588Y-103539662D01*
X105350026Y-103486161D01*
X105436161Y-103400026D01*
X105489662Y-103290588D01*
X105499999Y-103219644D01*
X105900000Y-103219644D01*
X105910337Y-103290588D01*
X105963838Y-103400026D01*
X106049973Y-103486161D01*
X106159411Y-103539662D01*
X106230355Y-103549999D01*
X106230366Y-103550000D01*
X106550000Y-103550000D01*
X106750000Y-103550000D01*
X107069634Y-103550000D01*
X107069644Y-103549999D01*
X107140588Y-103539662D01*
X107206718Y-103507333D01*
X107699500Y-103507333D01*
X107699500Y-104192666D01*
X107702268Y-104227841D01*
X107746287Y-104379355D01*
X107746287Y-104420645D01*
X107702268Y-104572158D01*
X107699500Y-104607333D01*
X107699500Y-105292666D01*
X107702268Y-105327841D01*
X107746287Y-105479355D01*
X107746287Y-105520645D01*
X107702268Y-105672158D01*
X107699500Y-105707333D01*
X107699500Y-106392666D01*
X107702268Y-106427841D01*
X107740748Y-106560288D01*
X107746007Y-106578389D01*
X107825812Y-106713332D01*
X107936668Y-106824188D01*
X107963669Y-106840156D01*
X107997675Y-106885448D01*
X108000000Y-106903851D01*
X108000000Y-107050000D01*
X109900000Y-107050000D01*
X109900000Y-106903851D01*
X109921674Y-106851525D01*
X109925823Y-106847682D01*
X109930746Y-106843458D01*
X109963332Y-106824188D01*
X110024312Y-106763207D01*
X110026460Y-106761365D01*
X110050889Y-106753370D01*
X110074636Y-106743534D01*
X110077912Y-106744527D01*
X110080289Y-106743750D01*
X110087650Y-106747481D01*
X110115747Y-106756003D01*
X110120821Y-106759394D01*
X110266503Y-106819737D01*
X110421158Y-106850500D01*
X110421160Y-106850500D01*
X110578840Y-106850500D01*
X110578842Y-106850500D01*
X110733497Y-106819737D01*
X110879179Y-106759394D01*
X111010289Y-106671789D01*
X111121789Y-106560289D01*
X111209394Y-106429179D01*
X111269737Y-106283497D01*
X111300500Y-106128842D01*
X111300500Y-105971158D01*
X111269737Y-105816503D01*
X111224518Y-105707333D01*
X111209396Y-105670825D01*
X111209395Y-105670823D01*
X111209394Y-105670821D01*
X111139428Y-105566110D01*
X111128380Y-105510563D01*
X111139428Y-105483890D01*
X111209394Y-105379179D01*
X111269737Y-105233497D01*
X111300500Y-105078842D01*
X111300500Y-104921158D01*
X111269737Y-104766503D01*
X111261962Y-104747732D01*
X111209396Y-104620825D01*
X111209395Y-104620823D01*
X111209394Y-104620821D01*
X111121789Y-104489711D01*
X111109404Y-104477326D01*
X111087730Y-104425000D01*
X111109404Y-104372674D01*
X111121788Y-104360290D01*
X111121789Y-104360289D01*
X111209394Y-104229179D01*
X111269737Y-104083497D01*
X111300500Y-103928842D01*
X111300500Y-103771158D01*
X111269737Y-103616503D01*
X111242191Y-103550000D01*
X111209396Y-103470825D01*
X111209395Y-103470823D01*
X111209394Y-103470821D01*
X111121789Y-103339711D01*
X111010289Y-103228211D01*
X110879179Y-103140606D01*
X110879175Y-103140604D01*
X110879173Y-103140603D01*
X110879174Y-103140603D01*
X110733501Y-103080264D01*
X110733491Y-103080261D01*
X110629925Y-103059661D01*
X110578842Y-103049500D01*
X110421158Y-103049500D01*
X110377315Y-103058220D01*
X110266508Y-103080261D01*
X110266498Y-103080264D01*
X110120819Y-103140606D01*
X110115744Y-103143997D01*
X110097176Y-103147688D01*
X110080289Y-103156249D01*
X110071145Y-103152864D01*
X110060195Y-103155042D01*
X110026460Y-103138634D01*
X110024309Y-103136789D01*
X109963332Y-103075812D01*
X109930750Y-103056543D01*
X109925823Y-103052317D01*
X109915728Y-103032402D01*
X109902325Y-103014550D01*
X109900879Y-103003108D01*
X109900216Y-103001800D01*
X109900575Y-103000701D01*
X109900000Y-102996148D01*
X109900000Y-102850000D01*
X108000000Y-102850000D01*
X108000000Y-102996148D01*
X107978326Y-103048474D01*
X107963670Y-103059843D01*
X107936667Y-103075812D01*
X107825812Y-103186667D01*
X107746007Y-103321610D01*
X107702268Y-103472158D01*
X107699500Y-103507333D01*
X107206718Y-103507333D01*
X107250026Y-103486161D01*
X107282635Y-103453553D01*
X107336161Y-103400026D01*
X107389662Y-103290588D01*
X107399999Y-103219644D01*
X107400000Y-103219633D01*
X107400000Y-102900000D01*
X106750000Y-102900000D01*
X106750000Y-103550000D01*
X106550000Y-103550000D01*
X106550000Y-102900000D01*
X105900000Y-102900000D01*
X105900000Y-103219644D01*
X105499999Y-103219644D01*
X105500000Y-103219633D01*
X105500000Y-102900000D01*
X104850000Y-102900000D01*
X104850000Y-103550000D01*
X104650000Y-103550000D01*
X104650000Y-102900000D01*
X104000000Y-102900000D01*
X104000000Y-103219644D01*
X95999999Y-103219644D01*
X96000000Y-103219633D01*
X96000000Y-102900000D01*
X95350000Y-102900000D01*
X95350000Y-103550000D01*
X95150000Y-103550000D01*
X95150000Y-102900000D01*
X94500000Y-102900000D01*
X94500000Y-103219644D01*
X94099999Y-103219644D01*
X94100000Y-103219633D01*
X94100000Y-102900000D01*
X93450000Y-102900000D01*
X93450000Y-103550000D01*
X93250000Y-103550000D01*
X93250000Y-102900000D01*
X92600000Y-102900000D01*
X92600000Y-103219644D01*
X92305500Y-103219644D01*
X92305500Y-102624500D01*
X92302604Y-102570466D01*
X92302603Y-102570462D01*
X92302603Y-102570459D01*
X92302054Y-102566865D01*
X92302246Y-102566835D01*
X92300500Y-102552926D01*
X92300500Y-102407333D01*
X92300500Y-102407332D01*
X92298377Y-102380355D01*
X92600000Y-102380355D01*
X92600000Y-102700000D01*
X93250000Y-102700000D01*
X93450000Y-102700000D01*
X94100000Y-102700000D01*
X94100000Y-102380366D01*
X94099999Y-102380355D01*
X94500000Y-102380355D01*
X94500000Y-102700000D01*
X95150000Y-102700000D01*
X95350000Y-102700000D01*
X96000000Y-102700000D01*
X96000000Y-102380366D01*
X95999999Y-102380355D01*
X104000000Y-102380355D01*
X104000000Y-102700000D01*
X104650000Y-102700000D01*
X104850000Y-102700000D01*
X105500000Y-102700000D01*
X105500000Y-102380366D01*
X105499999Y-102380355D01*
X105900000Y-102380355D01*
X105900000Y-102700000D01*
X106550000Y-102700000D01*
X106750000Y-102700000D01*
X107400000Y-102700000D01*
X107400000Y-102380366D01*
X107399999Y-102380355D01*
X107389662Y-102309411D01*
X107336161Y-102199973D01*
X107250026Y-102113838D01*
X107140588Y-102060337D01*
X107069644Y-102050000D01*
X106750000Y-102050000D01*
X106750000Y-102700000D01*
X106550000Y-102700000D01*
X106550000Y-102050000D01*
X106230355Y-102050000D01*
X106159411Y-102060337D01*
X106049973Y-102113838D01*
X105963838Y-102199973D01*
X105910337Y-102309411D01*
X105900000Y-102380355D01*
X105499999Y-102380355D01*
X105489662Y-102309411D01*
X105436161Y-102199973D01*
X105350026Y-102113838D01*
X105240588Y-102060337D01*
X105169644Y-102050000D01*
X104850000Y-102050000D01*
X104850000Y-102700000D01*
X104650000Y-102700000D01*
X104650000Y-102050000D01*
X104330355Y-102050000D01*
X104259411Y-102060337D01*
X104149973Y-102113838D01*
X104063838Y-102199973D01*
X104010337Y-102309411D01*
X104000000Y-102380355D01*
X95999999Y-102380355D01*
X95989662Y-102309411D01*
X95936161Y-102199973D01*
X95850026Y-102113838D01*
X95740588Y-102060337D01*
X95669644Y-102050000D01*
X95350000Y-102050000D01*
X95350000Y-102700000D01*
X95150000Y-102700000D01*
X95150000Y-102050000D01*
X94830355Y-102050000D01*
X94759411Y-102060337D01*
X94649973Y-102113838D01*
X94563838Y-102199973D01*
X94510337Y-102309411D01*
X94500000Y-102380355D01*
X94099999Y-102380355D01*
X94089662Y-102309411D01*
X94036161Y-102199973D01*
X93950026Y-102113838D01*
X93840588Y-102060337D01*
X93769644Y-102050000D01*
X93450000Y-102050000D01*
X93450000Y-102700000D01*
X93250000Y-102700000D01*
X93250000Y-102050000D01*
X92930355Y-102050000D01*
X92859411Y-102060337D01*
X92749973Y-102113838D01*
X92663838Y-102199973D01*
X92610337Y-102309411D01*
X92600000Y-102380355D01*
X92298377Y-102380355D01*
X92297732Y-102372161D01*
X92253993Y-102221611D01*
X92174188Y-102086668D01*
X92063332Y-101975812D01*
X92036330Y-101959843D01*
X92002325Y-101914550D01*
X92000000Y-101896148D01*
X92000000Y-101750000D01*
X90737712Y-101750000D01*
X90730066Y-101749499D01*
X90729057Y-101749499D01*
X90570943Y-101749499D01*
X90566413Y-101749499D01*
X90566397Y-101749500D01*
X88977340Y-101749500D01*
X88966809Y-101748747D01*
X88937274Y-101744500D01*
X88937270Y-101744500D01*
X88424000Y-101744500D01*
X88423984Y-101744500D01*
X88378497Y-101746938D01*
X88369966Y-101747396D01*
X88369964Y-101747396D01*
X88369957Y-101747397D01*
X88230556Y-101782976D01*
X88230555Y-101782977D01*
X88178236Y-101804648D01*
X88178215Y-101804658D01*
X88083378Y-101856443D01*
X88083371Y-101856448D01*
X87978071Y-101954486D01*
X87904655Y-102078222D01*
X87904648Y-102078237D01*
X87882979Y-102130552D01*
X87864976Y-102181582D01*
X87864976Y-102181583D01*
X87844500Y-102323995D01*
X65000000Y-102323995D01*
X65000000Y-100867498D01*
X90100000Y-100867498D01*
X90106134Y-100914098D01*
X90106135Y-100914100D01*
X90153825Y-101016374D01*
X90185125Y-101047674D01*
X90206799Y-101100000D01*
X90185125Y-101152326D01*
X90153827Y-101183623D01*
X90153825Y-101183625D01*
X90106135Y-101285899D01*
X90106134Y-101285901D01*
X90100000Y-101332501D01*
X90100000Y-101550000D01*
X90950000Y-101550000D01*
X91150000Y-101550000D01*
X92000000Y-101550000D01*
X92000000Y-101332501D01*
X91998307Y-101319644D01*
X92600000Y-101319644D01*
X92610337Y-101390588D01*
X92663838Y-101500026D01*
X92749973Y-101586161D01*
X92859411Y-101639662D01*
X92930355Y-101649999D01*
X92930366Y-101650000D01*
X93250000Y-101650000D01*
X93450000Y-101650000D01*
X93769634Y-101650000D01*
X93769644Y-101649999D01*
X93840588Y-101639662D01*
X93950026Y-101586161D01*
X94036161Y-101500026D01*
X94089662Y-101390588D01*
X94099999Y-101319644D01*
X94500000Y-101319644D01*
X94510337Y-101390588D01*
X94563838Y-101500026D01*
X94649973Y-101586161D01*
X94759411Y-101639662D01*
X94830355Y-101649999D01*
X94830366Y-101650000D01*
X95150000Y-101650000D01*
X95350000Y-101650000D01*
X95669634Y-101650000D01*
X95669644Y-101649999D01*
X95740588Y-101639662D01*
X95850026Y-101586161D01*
X95936161Y-101500026D01*
X95989662Y-101390588D01*
X95999999Y-101319644D01*
X104000000Y-101319644D01*
X104010337Y-101390588D01*
X104063838Y-101500026D01*
X104149973Y-101586161D01*
X104259411Y-101639662D01*
X104330355Y-101649999D01*
X104330366Y-101650000D01*
X104650000Y-101650000D01*
X104850000Y-101650000D01*
X105169634Y-101650000D01*
X105169644Y-101649999D01*
X105240588Y-101639662D01*
X105350026Y-101586161D01*
X105436161Y-101500026D01*
X105489662Y-101390588D01*
X105499999Y-101319644D01*
X105900000Y-101319644D01*
X105910337Y-101390588D01*
X105963838Y-101500026D01*
X106049973Y-101586161D01*
X106159411Y-101639662D01*
X106230355Y-101649999D01*
X106230366Y-101650000D01*
X106550000Y-101650000D01*
X106750000Y-101650000D01*
X107069634Y-101650000D01*
X107069644Y-101649999D01*
X107140588Y-101639662D01*
X107250026Y-101586161D01*
X107336161Y-101500026D01*
X107389662Y-101390588D01*
X107399999Y-101319644D01*
X107400000Y-101319633D01*
X107400000Y-101307333D01*
X107699500Y-101307333D01*
X107699500Y-101992666D01*
X107702268Y-102027841D01*
X107716910Y-102078237D01*
X107746007Y-102178389D01*
X107825812Y-102313332D01*
X107936668Y-102424188D01*
X107963669Y-102440156D01*
X107997675Y-102485448D01*
X108000000Y-102503851D01*
X108000000Y-102650000D01*
X109900000Y-102650000D01*
X109900000Y-102503851D01*
X109921674Y-102451525D01*
X109925823Y-102447682D01*
X109930746Y-102443458D01*
X109963332Y-102424188D01*
X110024312Y-102363207D01*
X110026460Y-102361365D01*
X110050889Y-102353370D01*
X110074636Y-102343534D01*
X110077912Y-102344527D01*
X110080289Y-102343750D01*
X110087650Y-102347481D01*
X110115747Y-102356003D01*
X110120821Y-102359394D01*
X110266503Y-102419737D01*
X110421158Y-102450500D01*
X110421160Y-102450500D01*
X110578840Y-102450500D01*
X110578842Y-102450500D01*
X110733497Y-102419737D01*
X110879179Y-102359394D01*
X111010289Y-102271789D01*
X111121789Y-102160289D01*
X111209394Y-102029179D01*
X111269737Y-101883497D01*
X111300500Y-101728842D01*
X111300500Y-101571158D01*
X111269737Y-101416503D01*
X111259003Y-101390588D01*
X111209396Y-101270825D01*
X111209395Y-101270823D01*
X111209394Y-101270821D01*
X111121789Y-101139711D01*
X111010289Y-101028211D01*
X110879179Y-100940606D01*
X110879175Y-100940604D01*
X110879173Y-100940603D01*
X110879174Y-100940603D01*
X110733501Y-100880264D01*
X110733491Y-100880261D01*
X110629925Y-100859661D01*
X110578842Y-100849500D01*
X110421158Y-100849500D01*
X110377315Y-100858220D01*
X110266508Y-100880261D01*
X110266498Y-100880264D01*
X110120819Y-100940606D01*
X110115744Y-100943997D01*
X110097176Y-100947688D01*
X110080289Y-100956249D01*
X110071145Y-100952864D01*
X110060195Y-100955042D01*
X110026460Y-100938634D01*
X110024309Y-100936789D01*
X109963332Y-100875812D01*
X109930750Y-100856543D01*
X109925823Y-100852317D01*
X109915728Y-100832402D01*
X109902325Y-100814550D01*
X109900879Y-100803108D01*
X109900216Y-100801800D01*
X109900575Y-100800701D01*
X109900000Y-100796148D01*
X109900000Y-100650000D01*
X108000000Y-100650000D01*
X108000000Y-100796148D01*
X107978326Y-100848474D01*
X107963670Y-100859843D01*
X107936667Y-100875812D01*
X107825812Y-100986667D01*
X107746007Y-101121610D01*
X107702268Y-101272158D01*
X107699500Y-101307333D01*
X107400000Y-101307333D01*
X107400000Y-101000000D01*
X106750000Y-101000000D01*
X106750000Y-101650000D01*
X106550000Y-101650000D01*
X106550000Y-101000000D01*
X105900000Y-101000000D01*
X105900000Y-101319644D01*
X105499999Y-101319644D01*
X105500000Y-101319633D01*
X105500000Y-101000000D01*
X104850000Y-101000000D01*
X104850000Y-101650000D01*
X104650000Y-101650000D01*
X104650000Y-101000000D01*
X104000000Y-101000000D01*
X104000000Y-101319644D01*
X95999999Y-101319644D01*
X96000000Y-101319633D01*
X96000000Y-101000000D01*
X95350000Y-101000000D01*
X95350000Y-101650000D01*
X95150000Y-101650000D01*
X95150000Y-101000000D01*
X94500000Y-101000000D01*
X94500000Y-101319644D01*
X94099999Y-101319644D01*
X94100000Y-101319633D01*
X94100000Y-101000000D01*
X93450000Y-101000000D01*
X93450000Y-101650000D01*
X93250000Y-101650000D01*
X93250000Y-101000000D01*
X92600000Y-101000000D01*
X92600000Y-101319644D01*
X91998307Y-101319644D01*
X91993865Y-101285901D01*
X91993864Y-101285899D01*
X91946174Y-101183625D01*
X91946172Y-101183623D01*
X91914875Y-101152327D01*
X91893200Y-101100001D01*
X91914873Y-101047675D01*
X91946174Y-101016374D01*
X91982685Y-100938075D01*
X91982685Y-100938074D01*
X91993865Y-100914098D01*
X92000000Y-100867498D01*
X92000000Y-100650000D01*
X91150000Y-100650000D01*
X91150000Y-101550000D01*
X90950000Y-101550000D01*
X90950000Y-100650000D01*
X90100000Y-100650000D01*
X90100000Y-100867498D01*
X65000000Y-100867498D01*
X65000000Y-100480355D01*
X92600000Y-100480355D01*
X92600000Y-100800000D01*
X93250000Y-100800000D01*
X93450000Y-100800000D01*
X94100000Y-100800000D01*
X94100000Y-100480366D01*
X94099999Y-100480355D01*
X94500000Y-100480355D01*
X94500000Y-100800000D01*
X95150000Y-100800000D01*
X95350000Y-100800000D01*
X96000000Y-100800000D01*
X96000000Y-100480366D01*
X95999999Y-100480355D01*
X104000000Y-100480355D01*
X104000000Y-100800000D01*
X104650000Y-100800000D01*
X104850000Y-100800000D01*
X105500000Y-100800000D01*
X105500000Y-100480366D01*
X105499999Y-100480355D01*
X105900000Y-100480355D01*
X105900000Y-100800000D01*
X106550000Y-100800000D01*
X106750000Y-100800000D01*
X107400000Y-100800000D01*
X107400000Y-100480366D01*
X107399999Y-100480355D01*
X107389662Y-100409411D01*
X107336161Y-100299973D01*
X107250026Y-100213838D01*
X107140588Y-100160337D01*
X107069644Y-100150000D01*
X106750000Y-100150000D01*
X106750000Y-100800000D01*
X106550000Y-100800000D01*
X106550000Y-100150000D01*
X106230355Y-100150000D01*
X106159411Y-100160337D01*
X106049973Y-100213838D01*
X105963838Y-100299973D01*
X105910337Y-100409411D01*
X105900000Y-100480355D01*
X105499999Y-100480355D01*
X105489662Y-100409411D01*
X105436161Y-100299973D01*
X105350026Y-100213838D01*
X105240588Y-100160337D01*
X105169644Y-100150000D01*
X104850000Y-100150000D01*
X104850000Y-100800000D01*
X104650000Y-100800000D01*
X104650000Y-100150000D01*
X104330355Y-100150000D01*
X104259411Y-100160337D01*
X104149973Y-100213838D01*
X104063838Y-100299973D01*
X104010337Y-100409411D01*
X104000000Y-100480355D01*
X95999999Y-100480355D01*
X95989662Y-100409411D01*
X95936161Y-100299973D01*
X95850026Y-100213838D01*
X95740588Y-100160337D01*
X95669644Y-100150000D01*
X95350000Y-100150000D01*
X95350000Y-100800000D01*
X95150000Y-100800000D01*
X95150000Y-100150000D01*
X94830355Y-100150000D01*
X94759411Y-100160337D01*
X94649973Y-100213838D01*
X94563838Y-100299973D01*
X94510337Y-100409411D01*
X94500000Y-100480355D01*
X94099999Y-100480355D01*
X94089662Y-100409411D01*
X94036161Y-100299973D01*
X93950026Y-100213838D01*
X93840588Y-100160337D01*
X93769644Y-100150000D01*
X93450000Y-100150000D01*
X93450000Y-100800000D01*
X93250000Y-100800000D01*
X93250000Y-100150000D01*
X92930355Y-100150000D01*
X92859411Y-100160337D01*
X92749973Y-100213838D01*
X92663838Y-100299973D01*
X92610337Y-100409411D01*
X92600000Y-100480355D01*
X65000000Y-100480355D01*
X65000000Y-99767498D01*
X90100000Y-99767498D01*
X90106134Y-99814098D01*
X90106135Y-99814100D01*
X90153825Y-99916374D01*
X90185125Y-99947674D01*
X90206799Y-100000000D01*
X90185125Y-100052326D01*
X90153827Y-100083623D01*
X90153825Y-100083625D01*
X90106135Y-100185899D01*
X90106134Y-100185901D01*
X90100000Y-100232501D01*
X90100000Y-100450000D01*
X90950000Y-100450000D01*
X91150000Y-100450000D01*
X92000000Y-100450000D01*
X92000000Y-100232501D01*
X91993865Y-100185901D01*
X91993864Y-100185899D01*
X91946174Y-100083625D01*
X91946172Y-100083623D01*
X91914875Y-100052327D01*
X91893200Y-100000001D01*
X91914873Y-99947675D01*
X91946174Y-99916374D01*
X91993864Y-99814100D01*
X91993865Y-99814098D01*
X92000000Y-99767498D01*
X108000000Y-99767498D01*
X108006134Y-99814098D01*
X108006135Y-99814100D01*
X108053825Y-99916374D01*
X108085125Y-99947674D01*
X108106799Y-100000000D01*
X108085125Y-100052326D01*
X108053827Y-100083623D01*
X108053825Y-100083625D01*
X108006135Y-100185899D01*
X108006134Y-100185901D01*
X108000000Y-100232501D01*
X108000000Y-100450000D01*
X108850000Y-100450000D01*
X109050000Y-100450000D01*
X109900000Y-100450000D01*
X109900000Y-100232501D01*
X109893865Y-100185901D01*
X109893864Y-100185899D01*
X109846174Y-100083625D01*
X109846172Y-100083623D01*
X109814875Y-100052327D01*
X109793200Y-100000001D01*
X109814873Y-99947675D01*
X109846174Y-99916374D01*
X109893864Y-99814100D01*
X109893865Y-99814098D01*
X109900000Y-99767498D01*
X109900000Y-99550000D01*
X109050000Y-99550000D01*
X109050000Y-100450000D01*
X108850000Y-100450000D01*
X108850000Y-99550000D01*
X108000000Y-99550000D01*
X108000000Y-99767498D01*
X92000000Y-99767498D01*
X92000000Y-99550000D01*
X91150000Y-99550000D01*
X91150000Y-100450000D01*
X90950000Y-100450000D01*
X90950000Y-99550000D01*
X90100000Y-99550000D01*
X90100000Y-99767498D01*
X65000000Y-99767498D01*
X65000000Y-99419644D01*
X92600000Y-99419644D01*
X92610337Y-99490588D01*
X92663838Y-99600026D01*
X92749973Y-99686161D01*
X92859411Y-99739662D01*
X92930355Y-99749999D01*
X92930366Y-99750000D01*
X93250000Y-99750000D01*
X93450000Y-99750000D01*
X93769634Y-99750000D01*
X93769644Y-99749999D01*
X93840588Y-99739662D01*
X93950026Y-99686161D01*
X94036161Y-99600026D01*
X94089662Y-99490588D01*
X94099999Y-99419644D01*
X94500000Y-99419644D01*
X94510337Y-99490588D01*
X94563838Y-99600026D01*
X94649973Y-99686161D01*
X94759411Y-99739662D01*
X94830355Y-99749999D01*
X94830366Y-99750000D01*
X95150000Y-99750000D01*
X95350000Y-99750000D01*
X95669634Y-99750000D01*
X95669644Y-99749999D01*
X95740588Y-99739662D01*
X95850026Y-99686161D01*
X95936161Y-99600026D01*
X95989662Y-99490588D01*
X95999999Y-99419644D01*
X104000000Y-99419644D01*
X104010337Y-99490588D01*
X104063838Y-99600026D01*
X104149973Y-99686161D01*
X104259411Y-99739662D01*
X104330355Y-99749999D01*
X104330366Y-99750000D01*
X104650000Y-99750000D01*
X104850000Y-99750000D01*
X105169634Y-99750000D01*
X105169644Y-99749999D01*
X105240588Y-99739662D01*
X105350026Y-99686161D01*
X105436161Y-99600026D01*
X105489662Y-99490588D01*
X105499999Y-99419644D01*
X105900000Y-99419644D01*
X105910337Y-99490588D01*
X105963838Y-99600026D01*
X106049973Y-99686161D01*
X106159411Y-99739662D01*
X106230355Y-99749999D01*
X106230366Y-99750000D01*
X106550000Y-99750000D01*
X106750000Y-99750000D01*
X107069634Y-99750000D01*
X107069644Y-99749999D01*
X107140588Y-99739662D01*
X107250026Y-99686161D01*
X107336161Y-99600026D01*
X107389662Y-99490589D01*
X107399999Y-99419644D01*
X107400000Y-99419633D01*
X107400000Y-99100000D01*
X106750000Y-99100000D01*
X106750000Y-99750000D01*
X106550000Y-99750000D01*
X106550000Y-99100000D01*
X105900000Y-99100000D01*
X105900000Y-99419644D01*
X105499999Y-99419644D01*
X105500000Y-99419633D01*
X105500000Y-99100000D01*
X104850000Y-99100000D01*
X104850000Y-99750000D01*
X104650000Y-99750000D01*
X104650000Y-99100000D01*
X104000000Y-99100000D01*
X104000000Y-99419644D01*
X95999999Y-99419644D01*
X96000000Y-99419633D01*
X96000000Y-99100000D01*
X95350000Y-99100000D01*
X95350000Y-99750000D01*
X95150000Y-99750000D01*
X95150000Y-99100000D01*
X94500000Y-99100000D01*
X94500000Y-99419644D01*
X94099999Y-99419644D01*
X94100000Y-99419633D01*
X94100000Y-99100000D01*
X93450000Y-99100000D01*
X93450000Y-99750000D01*
X93250000Y-99750000D01*
X93250000Y-99100000D01*
X92600000Y-99100000D01*
X92600000Y-99419644D01*
X65000000Y-99419644D01*
X65000000Y-98667498D01*
X90100000Y-98667498D01*
X90106134Y-98714098D01*
X90106135Y-98714100D01*
X90153825Y-98816374D01*
X90185125Y-98847674D01*
X90206799Y-98900000D01*
X90185125Y-98952326D01*
X90153827Y-98983623D01*
X90153825Y-98983625D01*
X90106135Y-99085899D01*
X90106134Y-99085901D01*
X90100000Y-99132501D01*
X90100000Y-99350000D01*
X90950000Y-99350000D01*
X91150000Y-99350000D01*
X92000000Y-99350000D01*
X92000000Y-99132501D01*
X91993865Y-99085902D01*
X91993864Y-99085898D01*
X91946174Y-98983625D01*
X91946172Y-98983623D01*
X91914875Y-98952327D01*
X91893200Y-98900001D01*
X91914873Y-98847675D01*
X91946174Y-98816374D01*
X91993864Y-98714100D01*
X91993865Y-98714098D01*
X92000000Y-98667498D01*
X92000000Y-98580355D01*
X92600000Y-98580355D01*
X92600000Y-98900000D01*
X93250000Y-98900000D01*
X93450000Y-98900000D01*
X94100000Y-98900000D01*
X94100000Y-98580366D01*
X94099999Y-98580355D01*
X94500000Y-98580355D01*
X94500000Y-98900000D01*
X95150000Y-98900000D01*
X95350000Y-98900000D01*
X96000000Y-98900000D01*
X96000000Y-98580366D01*
X95999999Y-98580355D01*
X104000000Y-98580355D01*
X104000000Y-98900000D01*
X104650000Y-98900000D01*
X104850000Y-98900000D01*
X105500000Y-98900000D01*
X105500000Y-98580366D01*
X105499999Y-98580355D01*
X105900000Y-98580355D01*
X105900000Y-98900000D01*
X106550000Y-98900000D01*
X106750000Y-98900000D01*
X107400000Y-98900000D01*
X107400000Y-98667498D01*
X108000000Y-98667498D01*
X108006134Y-98714098D01*
X108006135Y-98714100D01*
X108053825Y-98816374D01*
X108085125Y-98847674D01*
X108106799Y-98900000D01*
X108085125Y-98952326D01*
X108053827Y-98983623D01*
X108053825Y-98983625D01*
X108006135Y-99085899D01*
X108006134Y-99085901D01*
X108000000Y-99132501D01*
X108000000Y-99350000D01*
X108850000Y-99350000D01*
X109050000Y-99350000D01*
X109900000Y-99350000D01*
X109900000Y-99132501D01*
X109893865Y-99085901D01*
X109893864Y-99085899D01*
X109846174Y-98983625D01*
X109846172Y-98983623D01*
X109814875Y-98952327D01*
X109793200Y-98900001D01*
X109814873Y-98847675D01*
X109846174Y-98816374D01*
X109893864Y-98714100D01*
X109893865Y-98714098D01*
X109900000Y-98667498D01*
X109900000Y-98450000D01*
X109050000Y-98450000D01*
X109050000Y-99350000D01*
X108850000Y-99350000D01*
X108850000Y-98450000D01*
X108000000Y-98450000D01*
X108000000Y-98667498D01*
X107400000Y-98667498D01*
X107400000Y-98580366D01*
X107399999Y-98580355D01*
X107389662Y-98509410D01*
X107361522Y-98451849D01*
X107336161Y-98399973D01*
X107250026Y-98313838D01*
X107140588Y-98260337D01*
X107069644Y-98250000D01*
X106750000Y-98250000D01*
X106750000Y-98900000D01*
X106550000Y-98900000D01*
X106550000Y-98250000D01*
X106230355Y-98250000D01*
X106159411Y-98260337D01*
X106049973Y-98313838D01*
X105963838Y-98399973D01*
X105910337Y-98509411D01*
X105900000Y-98580355D01*
X105499999Y-98580355D01*
X105489662Y-98509411D01*
X105436161Y-98399973D01*
X105350026Y-98313838D01*
X105240588Y-98260337D01*
X105169644Y-98250000D01*
X104850000Y-98250000D01*
X104850000Y-98900000D01*
X104650000Y-98900000D01*
X104650000Y-98250000D01*
X104330355Y-98250000D01*
X104259411Y-98260337D01*
X104149973Y-98313838D01*
X104063838Y-98399973D01*
X104010337Y-98509411D01*
X104000000Y-98580355D01*
X95999999Y-98580355D01*
X95989662Y-98509411D01*
X95936161Y-98399973D01*
X95850026Y-98313838D01*
X95740588Y-98260337D01*
X95669644Y-98250000D01*
X95350000Y-98250000D01*
X95350000Y-98900000D01*
X95150000Y-98900000D01*
X95150000Y-98250000D01*
X94830355Y-98250000D01*
X94759411Y-98260337D01*
X94649973Y-98313838D01*
X94563838Y-98399973D01*
X94510337Y-98509411D01*
X94500000Y-98580355D01*
X94099999Y-98580355D01*
X94089662Y-98509411D01*
X94036161Y-98399973D01*
X93950026Y-98313838D01*
X93840588Y-98260337D01*
X93769644Y-98250000D01*
X93450000Y-98250000D01*
X93450000Y-98900000D01*
X93250000Y-98900000D01*
X93250000Y-98250000D01*
X92930355Y-98250000D01*
X92859411Y-98260337D01*
X92749973Y-98313838D01*
X92663838Y-98399973D01*
X92610337Y-98509411D01*
X92600000Y-98580355D01*
X92000000Y-98580355D01*
X92000000Y-98450000D01*
X91150000Y-98450000D01*
X91150000Y-99350000D01*
X90950000Y-99350000D01*
X90950000Y-98450000D01*
X90100000Y-98450000D01*
X90100000Y-98667498D01*
X65000000Y-98667498D01*
X65000000Y-97567498D01*
X90100000Y-97567498D01*
X90106134Y-97614098D01*
X90106135Y-97614100D01*
X90153825Y-97716374D01*
X90185125Y-97747674D01*
X90206799Y-97800000D01*
X90185125Y-97852326D01*
X90153827Y-97883623D01*
X90153825Y-97883625D01*
X90106135Y-97985899D01*
X90106134Y-97985901D01*
X90100000Y-98032501D01*
X90100000Y-98250000D01*
X90950000Y-98250000D01*
X91150000Y-98250000D01*
X92000000Y-98250000D01*
X92000000Y-98032501D01*
X91993865Y-97985901D01*
X91993864Y-97985899D01*
X91946174Y-97883625D01*
X91946172Y-97883623D01*
X91914875Y-97852327D01*
X91893200Y-97800001D01*
X91914873Y-97747675D01*
X91946174Y-97716374D01*
X91993864Y-97614100D01*
X91993865Y-97614098D01*
X92000000Y-97567498D01*
X92000000Y-97519644D01*
X92600000Y-97519644D01*
X92610337Y-97590588D01*
X92663838Y-97700026D01*
X92749973Y-97786161D01*
X92859411Y-97839662D01*
X92930355Y-97849999D01*
X92930366Y-97850000D01*
X93250000Y-97850000D01*
X93450000Y-97850000D01*
X93769634Y-97850000D01*
X93769644Y-97849999D01*
X93840588Y-97839662D01*
X93950026Y-97786161D01*
X94036161Y-97700026D01*
X94089662Y-97590588D01*
X94099999Y-97519644D01*
X94500000Y-97519644D01*
X94510337Y-97590588D01*
X94563838Y-97700026D01*
X94649973Y-97786161D01*
X94759411Y-97839662D01*
X94830355Y-97849999D01*
X94830366Y-97850000D01*
X95150000Y-97850000D01*
X95350000Y-97850000D01*
X95669634Y-97850000D01*
X95669644Y-97849999D01*
X95740588Y-97839662D01*
X95850026Y-97786161D01*
X95936161Y-97700026D01*
X95989662Y-97590588D01*
X95999999Y-97519644D01*
X104000000Y-97519644D01*
X104010337Y-97590588D01*
X104063838Y-97700026D01*
X104149973Y-97786161D01*
X104259411Y-97839662D01*
X104330355Y-97849999D01*
X104330366Y-97850000D01*
X104650000Y-97850000D01*
X104850000Y-97850000D01*
X105169634Y-97850000D01*
X105169644Y-97849999D01*
X105240588Y-97839662D01*
X105350026Y-97786161D01*
X105436161Y-97700026D01*
X105489662Y-97590588D01*
X105499999Y-97519644D01*
X105900000Y-97519644D01*
X105910337Y-97590588D01*
X105963838Y-97700026D01*
X106049973Y-97786161D01*
X106159411Y-97839662D01*
X106230355Y-97849999D01*
X106230366Y-97850000D01*
X106550000Y-97850000D01*
X106750000Y-97850000D01*
X107069634Y-97850000D01*
X107069644Y-97849999D01*
X107140588Y-97839662D01*
X107250026Y-97786161D01*
X107336161Y-97700026D01*
X107389662Y-97590588D01*
X107399999Y-97519644D01*
X107400000Y-97519633D01*
X107400000Y-97200000D01*
X106750000Y-97200000D01*
X106750000Y-97850000D01*
X106550000Y-97850000D01*
X106550000Y-97200000D01*
X105900000Y-97200000D01*
X105900000Y-97519644D01*
X105499999Y-97519644D01*
X105500000Y-97519633D01*
X105500000Y-97200000D01*
X104850000Y-97200000D01*
X104850000Y-97850000D01*
X104650000Y-97850000D01*
X104650000Y-97200000D01*
X104000000Y-97200000D01*
X104000000Y-97519644D01*
X95999999Y-97519644D01*
X96000000Y-97519633D01*
X96000000Y-97200000D01*
X95350000Y-97200000D01*
X95350000Y-97850000D01*
X95150000Y-97850000D01*
X95150000Y-97200000D01*
X94500000Y-97200000D01*
X94500000Y-97519644D01*
X94099999Y-97519644D01*
X94100000Y-97519633D01*
X94100000Y-97200000D01*
X93450000Y-97200000D01*
X93450000Y-97850000D01*
X93250000Y-97850000D01*
X93250000Y-97200000D01*
X92600000Y-97200000D01*
X92600000Y-97519644D01*
X92000000Y-97519644D01*
X92000000Y-97350000D01*
X91150000Y-97350000D01*
X91150000Y-98250000D01*
X90950000Y-98250000D01*
X90950000Y-97350000D01*
X90100000Y-97350000D01*
X90100000Y-97567498D01*
X65000000Y-97567498D01*
X65000000Y-94707333D01*
X89799500Y-94707333D01*
X89799500Y-95392666D01*
X89802268Y-95427841D01*
X89846287Y-95579355D01*
X89846287Y-95620645D01*
X89802268Y-95772158D01*
X89799500Y-95807333D01*
X89799500Y-96492666D01*
X89802268Y-96527841D01*
X89825967Y-96609411D01*
X89846007Y-96678389D01*
X89925812Y-96813332D01*
X90036668Y-96924188D01*
X90063669Y-96940156D01*
X90097675Y-96985448D01*
X90100000Y-97003851D01*
X90100000Y-97150000D01*
X92000000Y-97150000D01*
X92000000Y-97003851D01*
X92021674Y-96951525D01*
X92036329Y-96940157D01*
X92063332Y-96924188D01*
X92174188Y-96813332D01*
X92252830Y-96680355D01*
X92600000Y-96680355D01*
X92600000Y-97000000D01*
X93250000Y-97000000D01*
X93450000Y-97000000D01*
X94100000Y-97000000D01*
X94100000Y-96680366D01*
X94099999Y-96680355D01*
X94500000Y-96680355D01*
X94500000Y-97000000D01*
X95150000Y-97000000D01*
X95350000Y-97000000D01*
X96000000Y-97000000D01*
X96000000Y-96680366D01*
X95999999Y-96680355D01*
X104000000Y-96680355D01*
X104000000Y-97000000D01*
X104650000Y-97000000D01*
X104850000Y-97000000D01*
X105500000Y-97000000D01*
X105500000Y-96680366D01*
X105499999Y-96680355D01*
X105900000Y-96680355D01*
X105900000Y-97000000D01*
X106550000Y-97000000D01*
X106750000Y-97000000D01*
X107400000Y-97000000D01*
X107400000Y-96680366D01*
X107399999Y-96680355D01*
X107389662Y-96609411D01*
X107336161Y-96499973D01*
X107250026Y-96413838D01*
X107140588Y-96360337D01*
X107069644Y-96350000D01*
X106750000Y-96350000D01*
X106750000Y-97000000D01*
X106550000Y-97000000D01*
X106550000Y-96350000D01*
X106230355Y-96350000D01*
X106159411Y-96360337D01*
X106049973Y-96413838D01*
X105963838Y-96499973D01*
X105910337Y-96609411D01*
X105900000Y-96680355D01*
X105499999Y-96680355D01*
X105489662Y-96609411D01*
X105436161Y-96499973D01*
X105350026Y-96413838D01*
X105240588Y-96360337D01*
X105169644Y-96350000D01*
X104850000Y-96350000D01*
X104850000Y-97000000D01*
X104650000Y-97000000D01*
X104650000Y-96350000D01*
X104330355Y-96350000D01*
X104259411Y-96360337D01*
X104149973Y-96413838D01*
X104063838Y-96499973D01*
X104010337Y-96609411D01*
X104000000Y-96680355D01*
X95999999Y-96680355D01*
X95989662Y-96609411D01*
X95936161Y-96499973D01*
X95850026Y-96413838D01*
X95740588Y-96360337D01*
X95669644Y-96350000D01*
X95350000Y-96350000D01*
X95350000Y-97000000D01*
X95150000Y-97000000D01*
X95150000Y-96350000D01*
X94830355Y-96350000D01*
X94759411Y-96360337D01*
X94649973Y-96413838D01*
X94563838Y-96499973D01*
X94510337Y-96609411D01*
X94500000Y-96680355D01*
X94099999Y-96680355D01*
X94089662Y-96609411D01*
X94036161Y-96499973D01*
X93950026Y-96413838D01*
X93840588Y-96360337D01*
X93769644Y-96350000D01*
X93450000Y-96350000D01*
X93450000Y-97000000D01*
X93250000Y-97000000D01*
X93250000Y-96350000D01*
X92930355Y-96350000D01*
X92859411Y-96360337D01*
X92749973Y-96413838D01*
X92663838Y-96499973D01*
X92610337Y-96609411D01*
X92600000Y-96680355D01*
X92252830Y-96680355D01*
X92253993Y-96678389D01*
X92297732Y-96527839D01*
X92300500Y-96492668D01*
X92300500Y-95807332D01*
X92297732Y-95772161D01*
X92253993Y-95621611D01*
X92253991Y-95621608D01*
X92253712Y-95620646D01*
X92253712Y-95619644D01*
X92600000Y-95619644D01*
X92610337Y-95690588D01*
X92663838Y-95800026D01*
X92749973Y-95886161D01*
X92859411Y-95939662D01*
X92930355Y-95949999D01*
X92930366Y-95950000D01*
X93250000Y-95950000D01*
X93450000Y-95950000D01*
X93769634Y-95950000D01*
X93769644Y-95949999D01*
X93840588Y-95939662D01*
X93950026Y-95886161D01*
X94036161Y-95800026D01*
X94089662Y-95690588D01*
X94099999Y-95619644D01*
X94500000Y-95619644D01*
X94510337Y-95690588D01*
X94563838Y-95800026D01*
X94649973Y-95886161D01*
X94759411Y-95939662D01*
X94830355Y-95949999D01*
X94830366Y-95950000D01*
X95150000Y-95950000D01*
X95350000Y-95950000D01*
X95669634Y-95950000D01*
X95669644Y-95949999D01*
X95740588Y-95939662D01*
X95850026Y-95886161D01*
X95936161Y-95800026D01*
X95989662Y-95690588D01*
X95999999Y-95619644D01*
X96400000Y-95619644D01*
X96410337Y-95690588D01*
X96463838Y-95800026D01*
X96549973Y-95886161D01*
X96659411Y-95939662D01*
X96730355Y-95949999D01*
X96730366Y-95950000D01*
X97050000Y-95950000D01*
X97250000Y-95950000D01*
X97569634Y-95950000D01*
X97569644Y-95949999D01*
X97640588Y-95939662D01*
X97750026Y-95886161D01*
X97836161Y-95800026D01*
X97889662Y-95690588D01*
X97899999Y-95619644D01*
X98300000Y-95619644D01*
X98310337Y-95690588D01*
X98363838Y-95800026D01*
X98449973Y-95886161D01*
X98559411Y-95939662D01*
X98630355Y-95949999D01*
X98630366Y-95950000D01*
X98950000Y-95950000D01*
X99150000Y-95950000D01*
X99469634Y-95950000D01*
X99469644Y-95949999D01*
X99540588Y-95939662D01*
X99650026Y-95886161D01*
X99736161Y-95800026D01*
X99789662Y-95690588D01*
X99799999Y-95619644D01*
X100200000Y-95619644D01*
X100210337Y-95690588D01*
X100263838Y-95800026D01*
X100349973Y-95886161D01*
X100459411Y-95939662D01*
X100530355Y-95949999D01*
X100530366Y-95950000D01*
X100850000Y-95950000D01*
X101050000Y-95950000D01*
X101369634Y-95950000D01*
X101369644Y-95949999D01*
X101440588Y-95939662D01*
X101550026Y-95886161D01*
X101636161Y-95800026D01*
X101689662Y-95690588D01*
X101699999Y-95619644D01*
X102100000Y-95619644D01*
X102110337Y-95690588D01*
X102163838Y-95800026D01*
X102249973Y-95886161D01*
X102359411Y-95939662D01*
X102430355Y-95949999D01*
X102430366Y-95950000D01*
X102750000Y-95950000D01*
X102950000Y-95950000D01*
X103269634Y-95950000D01*
X103269644Y-95949999D01*
X103340588Y-95939662D01*
X103450026Y-95886161D01*
X103536161Y-95800026D01*
X103589662Y-95690588D01*
X103599999Y-95619644D01*
X104000000Y-95619644D01*
X104010337Y-95690588D01*
X104063838Y-95800026D01*
X104149973Y-95886161D01*
X104259411Y-95939662D01*
X104330355Y-95949999D01*
X104330366Y-95950000D01*
X104650000Y-95950000D01*
X104850000Y-95950000D01*
X105169634Y-95950000D01*
X105169644Y-95949999D01*
X105240588Y-95939662D01*
X105350026Y-95886161D01*
X105436161Y-95800026D01*
X105489662Y-95690588D01*
X105499999Y-95619644D01*
X105900000Y-95619644D01*
X105910337Y-95690588D01*
X105963838Y-95800026D01*
X106049973Y-95886161D01*
X106159411Y-95939662D01*
X106230355Y-95949999D01*
X106230366Y-95950000D01*
X106550000Y-95950000D01*
X106750000Y-95950000D01*
X107069634Y-95950000D01*
X107069644Y-95949999D01*
X107140588Y-95939662D01*
X107250026Y-95886161D01*
X107328854Y-95807333D01*
X107699500Y-95807333D01*
X107699500Y-96492666D01*
X107702268Y-96527841D01*
X107746287Y-96679355D01*
X107746287Y-96720645D01*
X107702268Y-96872158D01*
X107699500Y-96907333D01*
X107699500Y-97592666D01*
X107702268Y-97627841D01*
X107723240Y-97700026D01*
X107746007Y-97778389D01*
X107825812Y-97913332D01*
X107936668Y-98024188D01*
X107963669Y-98040156D01*
X107997675Y-98085448D01*
X108000000Y-98103851D01*
X108000000Y-98250000D01*
X109900000Y-98250000D01*
X109900000Y-98103851D01*
X109921674Y-98051525D01*
X109936329Y-98040157D01*
X109963332Y-98024188D01*
X110074188Y-97913332D01*
X110153993Y-97778389D01*
X110197732Y-97627839D01*
X110200500Y-97592668D01*
X110200500Y-96907332D01*
X110197732Y-96872161D01*
X110153993Y-96721611D01*
X110153991Y-96721608D01*
X110153712Y-96720646D01*
X110153712Y-96679354D01*
X110153992Y-96678390D01*
X110153993Y-96678389D01*
X110197732Y-96527839D01*
X110200500Y-96492668D01*
X110200500Y-95807332D01*
X110197732Y-95772161D01*
X110153993Y-95621611D01*
X110074188Y-95486668D01*
X109963332Y-95375812D01*
X109936330Y-95359843D01*
X109902325Y-95314550D01*
X109900000Y-95296148D01*
X109900000Y-95150000D01*
X108000000Y-95150000D01*
X108000000Y-95296148D01*
X107978326Y-95348474D01*
X107963670Y-95359843D01*
X107936667Y-95375812D01*
X107825812Y-95486667D01*
X107746007Y-95621610D01*
X107702268Y-95772158D01*
X107699500Y-95807333D01*
X107328854Y-95807333D01*
X107336162Y-95800025D01*
X107349189Y-95773379D01*
X107349189Y-95773378D01*
X107389662Y-95690588D01*
X107399999Y-95619644D01*
X107400000Y-95619633D01*
X107400000Y-95300000D01*
X106750000Y-95300000D01*
X106750000Y-95950000D01*
X106550000Y-95950000D01*
X106550000Y-95300000D01*
X105900000Y-95300000D01*
X105900000Y-95619644D01*
X105499999Y-95619644D01*
X105500000Y-95619633D01*
X105500000Y-95300000D01*
X104850000Y-95300000D01*
X104850000Y-95950000D01*
X104650000Y-95950000D01*
X104650000Y-95300000D01*
X104000000Y-95300000D01*
X104000000Y-95619644D01*
X103599999Y-95619644D01*
X103600000Y-95619633D01*
X103600000Y-95300000D01*
X102950000Y-95300000D01*
X102950000Y-95950000D01*
X102750000Y-95950000D01*
X102750000Y-95300000D01*
X102100000Y-95300000D01*
X102100000Y-95619644D01*
X101699999Y-95619644D01*
X101700000Y-95619633D01*
X101700000Y-95300000D01*
X101050000Y-95300000D01*
X101050000Y-95950000D01*
X100850000Y-95950000D01*
X100850000Y-95300000D01*
X100200000Y-95300000D01*
X100200000Y-95619644D01*
X99799999Y-95619644D01*
X99800000Y-95619633D01*
X99800000Y-95300000D01*
X99150000Y-95300000D01*
X99150000Y-95950000D01*
X98950000Y-95950000D01*
X98950000Y-95300000D01*
X98300000Y-95300000D01*
X98300000Y-95619644D01*
X97899999Y-95619644D01*
X97900000Y-95619633D01*
X97900000Y-95300000D01*
X97250000Y-95300000D01*
X97250000Y-95950000D01*
X97050000Y-95950000D01*
X97050000Y-95300000D01*
X96400000Y-95300000D01*
X96400000Y-95619644D01*
X95999999Y-95619644D01*
X96000000Y-95619633D01*
X96000000Y-95300000D01*
X95350000Y-95300000D01*
X95350000Y-95950000D01*
X95150000Y-95950000D01*
X95150000Y-95300000D01*
X94500000Y-95300000D01*
X94500000Y-95619644D01*
X94099999Y-95619644D01*
X94100000Y-95619633D01*
X94100000Y-95300000D01*
X93450000Y-95300000D01*
X93450000Y-95950000D01*
X93250000Y-95950000D01*
X93250000Y-95300000D01*
X92600000Y-95300000D01*
X92600000Y-95619644D01*
X92253712Y-95619644D01*
X92253712Y-95579354D01*
X92253991Y-95578391D01*
X92253993Y-95578389D01*
X92297732Y-95427839D01*
X92300500Y-95392668D01*
X92300500Y-94780355D01*
X92600000Y-94780355D01*
X92600000Y-95100000D01*
X93250000Y-95100000D01*
X93450000Y-95100000D01*
X94100000Y-95100000D01*
X94100000Y-94780366D01*
X94099999Y-94780355D01*
X94500000Y-94780355D01*
X94500000Y-95100000D01*
X95150000Y-95100000D01*
X95350000Y-95100000D01*
X96000000Y-95100000D01*
X96000000Y-94780366D01*
X95999999Y-94780355D01*
X96400000Y-94780355D01*
X96400000Y-95100000D01*
X97050000Y-95100000D01*
X97250000Y-95100000D01*
X97900000Y-95100000D01*
X97900000Y-94780366D01*
X97899999Y-94780355D01*
X98300000Y-94780355D01*
X98300000Y-95100000D01*
X98950000Y-95100000D01*
X99150000Y-95100000D01*
X99800000Y-95100000D01*
X99800000Y-94780366D01*
X99799999Y-94780355D01*
X100200000Y-94780355D01*
X100200000Y-95100000D01*
X100850000Y-95100000D01*
X101050000Y-95100000D01*
X101700000Y-95100000D01*
X101700000Y-94780366D01*
X101699999Y-94780355D01*
X102100000Y-94780355D01*
X102100000Y-95100000D01*
X102750000Y-95100000D01*
X102950000Y-95100000D01*
X103600000Y-95100000D01*
X103600000Y-94780366D01*
X103599999Y-94780355D01*
X104000000Y-94780355D01*
X104000000Y-95100000D01*
X104650000Y-95100000D01*
X104850000Y-95100000D01*
X105500000Y-95100000D01*
X105500000Y-94780366D01*
X105499999Y-94780355D01*
X105900000Y-94780355D01*
X105900000Y-95100000D01*
X106550000Y-95100000D01*
X106750000Y-95100000D01*
X107400000Y-95100000D01*
X107400000Y-94780366D01*
X107399999Y-94780355D01*
X107389662Y-94709411D01*
X107336161Y-94599973D01*
X107250026Y-94513838D01*
X107140588Y-94460337D01*
X107069644Y-94450000D01*
X106750000Y-94450000D01*
X106750000Y-95100000D01*
X106550000Y-95100000D01*
X106550000Y-94450000D01*
X106230355Y-94450000D01*
X106159411Y-94460337D01*
X106049973Y-94513838D01*
X105963838Y-94599973D01*
X105910337Y-94709411D01*
X105900000Y-94780355D01*
X105499999Y-94780355D01*
X105489662Y-94709411D01*
X105436161Y-94599973D01*
X105350026Y-94513838D01*
X105240588Y-94460337D01*
X105169644Y-94450000D01*
X104850000Y-94450000D01*
X104850000Y-95100000D01*
X104650000Y-95100000D01*
X104650000Y-94450000D01*
X104330355Y-94450000D01*
X104259411Y-94460337D01*
X104149973Y-94513838D01*
X104063838Y-94599973D01*
X104010337Y-94709411D01*
X104000000Y-94780355D01*
X103599999Y-94780355D01*
X103589662Y-94709411D01*
X103536161Y-94599973D01*
X103450026Y-94513838D01*
X103340588Y-94460337D01*
X103269644Y-94450000D01*
X102950000Y-94450000D01*
X102950000Y-95100000D01*
X102750000Y-95100000D01*
X102750000Y-94450000D01*
X102430355Y-94450000D01*
X102359411Y-94460337D01*
X102249973Y-94513838D01*
X102163838Y-94599973D01*
X102110337Y-94709411D01*
X102100000Y-94780355D01*
X101699999Y-94780355D01*
X101689662Y-94709411D01*
X101636161Y-94599973D01*
X101550026Y-94513838D01*
X101440588Y-94460337D01*
X101369644Y-94450000D01*
X101050000Y-94450000D01*
X101050000Y-95100000D01*
X100850000Y-95100000D01*
X100850000Y-94450000D01*
X100530355Y-94450000D01*
X100459411Y-94460337D01*
X100349973Y-94513838D01*
X100263838Y-94599973D01*
X100210337Y-94709411D01*
X100200000Y-94780355D01*
X99799999Y-94780355D01*
X99789662Y-94709411D01*
X99736161Y-94599973D01*
X99650026Y-94513838D01*
X99540588Y-94460337D01*
X99469644Y-94450000D01*
X99150000Y-94450000D01*
X99150000Y-95100000D01*
X98950000Y-95100000D01*
X98950000Y-94450000D01*
X98630355Y-94450000D01*
X98559411Y-94460337D01*
X98449973Y-94513838D01*
X98363838Y-94599973D01*
X98310337Y-94709411D01*
X98300000Y-94780355D01*
X97899999Y-94780355D01*
X97889662Y-94709411D01*
X97836161Y-94599973D01*
X97750026Y-94513838D01*
X97640588Y-94460337D01*
X97569644Y-94450000D01*
X97250000Y-94450000D01*
X97250000Y-95100000D01*
X97050000Y-95100000D01*
X97050000Y-94450000D01*
X96730355Y-94450000D01*
X96659411Y-94460337D01*
X96549973Y-94513838D01*
X96463838Y-94599973D01*
X96410337Y-94709411D01*
X96400000Y-94780355D01*
X95999999Y-94780355D01*
X95989662Y-94709411D01*
X95936161Y-94599973D01*
X95850026Y-94513838D01*
X95740588Y-94460337D01*
X95669644Y-94450000D01*
X95350000Y-94450000D01*
X95350000Y-95100000D01*
X95150000Y-95100000D01*
X95150000Y-94450000D01*
X94830355Y-94450000D01*
X94759411Y-94460337D01*
X94649973Y-94513838D01*
X94563838Y-94599973D01*
X94510337Y-94709411D01*
X94500000Y-94780355D01*
X94099999Y-94780355D01*
X94089662Y-94709411D01*
X94036161Y-94599973D01*
X93950026Y-94513838D01*
X93840588Y-94460337D01*
X93769644Y-94450000D01*
X93450000Y-94450000D01*
X93450000Y-95100000D01*
X93250000Y-95100000D01*
X93250000Y-94450000D01*
X92930355Y-94450000D01*
X92859411Y-94460337D01*
X92749973Y-94513838D01*
X92663838Y-94599973D01*
X92610337Y-94709411D01*
X92600000Y-94780355D01*
X92300500Y-94780355D01*
X92300500Y-94707332D01*
X92297732Y-94672161D01*
X92253993Y-94521611D01*
X92174188Y-94386668D01*
X92063332Y-94275812D01*
X92049274Y-94267498D01*
X108000000Y-94267498D01*
X108006134Y-94314098D01*
X108006135Y-94314100D01*
X108053825Y-94416374D01*
X108085125Y-94447674D01*
X108106799Y-94500000D01*
X108085125Y-94552326D01*
X108053827Y-94583623D01*
X108053825Y-94583625D01*
X108006135Y-94685899D01*
X108006134Y-94685901D01*
X108000000Y-94732501D01*
X108000000Y-94950000D01*
X108850000Y-94950000D01*
X109050000Y-94950000D01*
X109900000Y-94950000D01*
X109900000Y-94732501D01*
X109893865Y-94685901D01*
X109893864Y-94685899D01*
X109846174Y-94583625D01*
X109846172Y-94583623D01*
X109814875Y-94552327D01*
X109793200Y-94500001D01*
X109814873Y-94447675D01*
X109846174Y-94416374D01*
X109893864Y-94314100D01*
X109893865Y-94314098D01*
X109900000Y-94267498D01*
X109900000Y-94050000D01*
X109050000Y-94050000D01*
X109050000Y-94950000D01*
X108850000Y-94950000D01*
X108850000Y-94050000D01*
X108000000Y-94050000D01*
X108000000Y-94267498D01*
X92049274Y-94267498D01*
X92036330Y-94259843D01*
X92002325Y-94214550D01*
X92000000Y-94196148D01*
X92000000Y-94050000D01*
X90100000Y-94050000D01*
X90100000Y-94196148D01*
X90078326Y-94248474D01*
X90063670Y-94259843D01*
X90036667Y-94275812D01*
X89925812Y-94386667D01*
X89846007Y-94521610D01*
X89802268Y-94672158D01*
X89799500Y-94707333D01*
X65000000Y-94707333D01*
X65000000Y-93167498D01*
X90100000Y-93167498D01*
X90106134Y-93214098D01*
X90106135Y-93214100D01*
X90153825Y-93316374D01*
X90185125Y-93347674D01*
X90206799Y-93400000D01*
X90185125Y-93452326D01*
X90153827Y-93483623D01*
X90153825Y-93483625D01*
X90106135Y-93585899D01*
X90106134Y-93585901D01*
X90100000Y-93632501D01*
X90100000Y-93850000D01*
X90950000Y-93850000D01*
X91150000Y-93850000D01*
X92000000Y-93850000D01*
X92000000Y-93719644D01*
X94500000Y-93719644D01*
X94510337Y-93790588D01*
X94563838Y-93900026D01*
X94649973Y-93986161D01*
X94759411Y-94039662D01*
X94830355Y-94049999D01*
X94830366Y-94050000D01*
X95150000Y-94050000D01*
X95350000Y-94050000D01*
X95669634Y-94050000D01*
X95669644Y-94049999D01*
X95740588Y-94039662D01*
X95850026Y-93986161D01*
X95936161Y-93900026D01*
X95989662Y-93790588D01*
X95999999Y-93719644D01*
X96400000Y-93719644D01*
X96410337Y-93790588D01*
X96463838Y-93900026D01*
X96549973Y-93986161D01*
X96659411Y-94039662D01*
X96730355Y-94049999D01*
X96730366Y-94050000D01*
X97050000Y-94050000D01*
X97250000Y-94050000D01*
X97569634Y-94050000D01*
X97569644Y-94049999D01*
X97640588Y-94039662D01*
X97750026Y-93986161D01*
X97836161Y-93900026D01*
X97889662Y-93790588D01*
X97899999Y-93719644D01*
X98300000Y-93719644D01*
X98310337Y-93790588D01*
X98363838Y-93900026D01*
X98449973Y-93986161D01*
X98559411Y-94039662D01*
X98630355Y-94049999D01*
X98630366Y-94050000D01*
X98950000Y-94050000D01*
X99150000Y-94050000D01*
X99469634Y-94050000D01*
X99469644Y-94049999D01*
X99540588Y-94039662D01*
X99650026Y-93986161D01*
X99736161Y-93900026D01*
X99789662Y-93790588D01*
X99799999Y-93719644D01*
X100200000Y-93719644D01*
X100210337Y-93790588D01*
X100263838Y-93900026D01*
X100349973Y-93986161D01*
X100459411Y-94039662D01*
X100530355Y-94049999D01*
X100530366Y-94050000D01*
X100850000Y-94050000D01*
X101050000Y-94050000D01*
X101369634Y-94050000D01*
X101369644Y-94049999D01*
X101440588Y-94039662D01*
X101550026Y-93986161D01*
X101636161Y-93900026D01*
X101689662Y-93790588D01*
X101699999Y-93719644D01*
X102100000Y-93719644D01*
X102110337Y-93790588D01*
X102163838Y-93900026D01*
X102249973Y-93986161D01*
X102359411Y-94039662D01*
X102430355Y-94049999D01*
X102430366Y-94050000D01*
X102750000Y-94050000D01*
X102950000Y-94050000D01*
X103269634Y-94050000D01*
X103269644Y-94049999D01*
X103340588Y-94039662D01*
X103450026Y-93986161D01*
X103536161Y-93900026D01*
X103589662Y-93790588D01*
X103599999Y-93719644D01*
X104000000Y-93719644D01*
X104010337Y-93790588D01*
X104063838Y-93900026D01*
X104149973Y-93986161D01*
X104259411Y-94039662D01*
X104330355Y-94049999D01*
X104330366Y-94050000D01*
X104650000Y-94050000D01*
X104850000Y-94050000D01*
X105169634Y-94050000D01*
X105169644Y-94049999D01*
X105240588Y-94039662D01*
X105350026Y-93986161D01*
X105369166Y-93967022D01*
X105436161Y-93900026D01*
X105489662Y-93790588D01*
X105499999Y-93719644D01*
X105500000Y-93719633D01*
X105500000Y-93400000D01*
X104850000Y-93400000D01*
X104850000Y-94050000D01*
X104650000Y-94050000D01*
X104650000Y-93400000D01*
X104000000Y-93400000D01*
X104000000Y-93719644D01*
X103599999Y-93719644D01*
X103600000Y-93719633D01*
X103600000Y-93400000D01*
X102950000Y-93400000D01*
X102950000Y-94050000D01*
X102750000Y-94050000D01*
X102750000Y-93400000D01*
X102100000Y-93400000D01*
X102100000Y-93719644D01*
X101699999Y-93719644D01*
X101700000Y-93719633D01*
X101700000Y-93400000D01*
X101050000Y-93400000D01*
X101050000Y-94050000D01*
X100850000Y-94050000D01*
X100850000Y-93400000D01*
X100200000Y-93400000D01*
X100200000Y-93719644D01*
X99799999Y-93719644D01*
X99800000Y-93719633D01*
X99800000Y-93400000D01*
X99150000Y-93400000D01*
X99150000Y-94050000D01*
X98950000Y-94050000D01*
X98950000Y-93400000D01*
X98300000Y-93400000D01*
X98300000Y-93719644D01*
X97899999Y-93719644D01*
X97900000Y-93719633D01*
X97900000Y-93400000D01*
X97250000Y-93400000D01*
X97250000Y-94050000D01*
X97050000Y-94050000D01*
X97050000Y-93400000D01*
X96400000Y-93400000D01*
X96400000Y-93719644D01*
X95999999Y-93719644D01*
X96000000Y-93719633D01*
X96000000Y-93400000D01*
X95350000Y-93400000D01*
X95350000Y-94050000D01*
X95150000Y-94050000D01*
X95150000Y-93400000D01*
X94500000Y-93400000D01*
X94500000Y-93719644D01*
X92000000Y-93719644D01*
X92000000Y-93632501D01*
X91993865Y-93585901D01*
X91993864Y-93585899D01*
X91946174Y-93483625D01*
X91946172Y-93483623D01*
X91914875Y-93452327D01*
X91914874Y-93452325D01*
X91914873Y-93452325D01*
X91902177Y-93421674D01*
X91893200Y-93400001D01*
X91893200Y-93399999D01*
X91905896Y-93369349D01*
X91914873Y-93347675D01*
X91914875Y-93347673D01*
X91945528Y-93317021D01*
X91946172Y-93316376D01*
X91946174Y-93316374D01*
X91993864Y-93214100D01*
X91993865Y-93214098D01*
X92000000Y-93167498D01*
X92000000Y-92950000D01*
X91150000Y-92950000D01*
X91150000Y-93850000D01*
X90950000Y-93850000D01*
X90950000Y-92950000D01*
X90100000Y-92950000D01*
X90100000Y-93167498D01*
X65000000Y-93167498D01*
X65000000Y-92880355D01*
X94500000Y-92880355D01*
X94500000Y-93200000D01*
X95150000Y-93200000D01*
X95350000Y-93200000D01*
X96000000Y-93200000D01*
X96000000Y-92880366D01*
X95999999Y-92880355D01*
X96400000Y-92880355D01*
X96400000Y-93200000D01*
X97050000Y-93200000D01*
X97250000Y-93200000D01*
X97900000Y-93200000D01*
X97900000Y-92880366D01*
X97899999Y-92880355D01*
X98300000Y-92880355D01*
X98300000Y-93200000D01*
X98950000Y-93200000D01*
X99150000Y-93200000D01*
X99800000Y-93200000D01*
X99800000Y-92880366D01*
X99799999Y-92880355D01*
X100200000Y-92880355D01*
X100200000Y-93200000D01*
X100850000Y-93200000D01*
X101050000Y-93200000D01*
X101700000Y-93200000D01*
X101700000Y-92880366D01*
X101699999Y-92880355D01*
X102100000Y-92880355D01*
X102100000Y-93200000D01*
X102750000Y-93200000D01*
X102950000Y-93200000D01*
X103600000Y-93200000D01*
X103600000Y-92880366D01*
X103599999Y-92880355D01*
X104000000Y-92880355D01*
X104000000Y-93200000D01*
X104650000Y-93200000D01*
X104850000Y-93200000D01*
X105500000Y-93200000D01*
X105500000Y-93167498D01*
X108000000Y-93167498D01*
X108006134Y-93214098D01*
X108006135Y-93214100D01*
X108053825Y-93316374D01*
X108085125Y-93347674D01*
X108106799Y-93400000D01*
X108085125Y-93452326D01*
X108053827Y-93483623D01*
X108053825Y-93483625D01*
X108006135Y-93585899D01*
X108006134Y-93585901D01*
X108000000Y-93632501D01*
X108000000Y-93850000D01*
X108850000Y-93850000D01*
X109050000Y-93850000D01*
X109900000Y-93850000D01*
X109900000Y-93632501D01*
X109893865Y-93585901D01*
X109893864Y-93585899D01*
X109846174Y-93483625D01*
X109846172Y-93483623D01*
X109814875Y-93452327D01*
X109793200Y-93400001D01*
X109814873Y-93347675D01*
X109846174Y-93316374D01*
X109893864Y-93214100D01*
X109893865Y-93214098D01*
X109900000Y-93167498D01*
X109900000Y-92950000D01*
X109050000Y-92950000D01*
X109050000Y-93850000D01*
X108850000Y-93850000D01*
X108850000Y-92950000D01*
X108000000Y-92950000D01*
X108000000Y-93167498D01*
X105500000Y-93167498D01*
X105500000Y-92880366D01*
X105499999Y-92880355D01*
X105489662Y-92809411D01*
X105436161Y-92699973D01*
X105350026Y-92613838D01*
X105314679Y-92596558D01*
X105240589Y-92560337D01*
X105169644Y-92550000D01*
X104850000Y-92550000D01*
X104850000Y-93200000D01*
X104650000Y-93200000D01*
X104650000Y-92550000D01*
X104330355Y-92550000D01*
X104259411Y-92560337D01*
X104149973Y-92613838D01*
X104063838Y-92699973D01*
X104010337Y-92809411D01*
X104000000Y-92880355D01*
X103599999Y-92880355D01*
X103589662Y-92809411D01*
X103536161Y-92699973D01*
X103450026Y-92613838D01*
X103340588Y-92560337D01*
X103269644Y-92550000D01*
X102950000Y-92550000D01*
X102950000Y-93200000D01*
X102750000Y-93200000D01*
X102750000Y-92550000D01*
X102430355Y-92550000D01*
X102359411Y-92560337D01*
X102249973Y-92613838D01*
X102163838Y-92699973D01*
X102110337Y-92809411D01*
X102100000Y-92880355D01*
X101699999Y-92880355D01*
X101689662Y-92809411D01*
X101636161Y-92699973D01*
X101550026Y-92613838D01*
X101440588Y-92560337D01*
X101369644Y-92550000D01*
X101050000Y-92550000D01*
X101050000Y-93200000D01*
X100850000Y-93200000D01*
X100850000Y-92550000D01*
X100530355Y-92550000D01*
X100459411Y-92560337D01*
X100349973Y-92613838D01*
X100263838Y-92699973D01*
X100210337Y-92809411D01*
X100200000Y-92880355D01*
X99799999Y-92880355D01*
X99789662Y-92809411D01*
X99736161Y-92699973D01*
X99650026Y-92613838D01*
X99540588Y-92560337D01*
X99469644Y-92550000D01*
X99150000Y-92550000D01*
X99150000Y-93200000D01*
X98950000Y-93200000D01*
X98950000Y-92550000D01*
X98630355Y-92550000D01*
X98559411Y-92560337D01*
X98449973Y-92613838D01*
X98363838Y-92699973D01*
X98310337Y-92809411D01*
X98300000Y-92880355D01*
X97899999Y-92880355D01*
X97889662Y-92809411D01*
X97836161Y-92699973D01*
X97750026Y-92613838D01*
X97640588Y-92560337D01*
X97569644Y-92550000D01*
X97250000Y-92550000D01*
X97250000Y-93200000D01*
X97050000Y-93200000D01*
X97050000Y-92550000D01*
X96730355Y-92550000D01*
X96659411Y-92560337D01*
X96549973Y-92613838D01*
X96463838Y-92699973D01*
X96410337Y-92809411D01*
X96400000Y-92880355D01*
X95999999Y-92880355D01*
X95989662Y-92809411D01*
X95936161Y-92699973D01*
X95850026Y-92613838D01*
X95740588Y-92560337D01*
X95669644Y-92550000D01*
X95350000Y-92550000D01*
X95350000Y-93200000D01*
X95150000Y-93200000D01*
X95150000Y-92550000D01*
X94830355Y-92550000D01*
X94759411Y-92560337D01*
X94649973Y-92613838D01*
X94563838Y-92699973D01*
X94510337Y-92809411D01*
X94500000Y-92880355D01*
X65000000Y-92880355D01*
X65000000Y-92532501D01*
X90100000Y-92532501D01*
X90100000Y-92750000D01*
X90950000Y-92750000D01*
X91150000Y-92750000D01*
X92000000Y-92750000D01*
X92000000Y-92532501D01*
X108000000Y-92532501D01*
X108000000Y-92750000D01*
X108850000Y-92750000D01*
X109050000Y-92750000D01*
X109900000Y-92750000D01*
X109900000Y-92532501D01*
X109893865Y-92485901D01*
X109893864Y-92485899D01*
X109846174Y-92383625D01*
X109766374Y-92303825D01*
X109664100Y-92256135D01*
X109664098Y-92256134D01*
X109617498Y-92250000D01*
X109050000Y-92250000D01*
X109050000Y-92750000D01*
X108850000Y-92750000D01*
X108850000Y-92250000D01*
X108282502Y-92250000D01*
X108235901Y-92256134D01*
X108235899Y-92256135D01*
X108133625Y-92303825D01*
X108053825Y-92383625D01*
X108006135Y-92485899D01*
X108006134Y-92485901D01*
X108000000Y-92532501D01*
X92000000Y-92532501D01*
X91993865Y-92485901D01*
X91993864Y-92485899D01*
X91946174Y-92383625D01*
X91866374Y-92303825D01*
X91764100Y-92256135D01*
X91764098Y-92256134D01*
X91717498Y-92250000D01*
X91150000Y-92250000D01*
X91150000Y-92750000D01*
X90950000Y-92750000D01*
X90950000Y-92250000D01*
X90382502Y-92250000D01*
X90335901Y-92256134D01*
X90335899Y-92256135D01*
X90233625Y-92303825D01*
X90153825Y-92383625D01*
X90106135Y-92485899D01*
X90106134Y-92485901D01*
X90100000Y-92532501D01*
X65000000Y-92532501D01*
X65000000Y-91717498D01*
X92250000Y-91717498D01*
X92256134Y-91764098D01*
X92256135Y-91764100D01*
X92303825Y-91866374D01*
X92383625Y-91946174D01*
X92485899Y-91993864D01*
X92485901Y-91993865D01*
X92532502Y-92000000D01*
X92750000Y-92000000D01*
X92950000Y-92000000D01*
X93167498Y-92000000D01*
X93214098Y-91993865D01*
X93214100Y-91993864D01*
X93316374Y-91946174D01*
X93347673Y-91914875D01*
X93399999Y-91893200D01*
X93452325Y-91914873D01*
X93452327Y-91914875D01*
X93483623Y-91946172D01*
X93483625Y-91946174D01*
X93585899Y-91993864D01*
X93585901Y-91993865D01*
X93632502Y-92000000D01*
X93850000Y-92000000D01*
X94050000Y-92000000D01*
X94267498Y-92000000D01*
X94314098Y-91993865D01*
X94314100Y-91993864D01*
X94416374Y-91946174D01*
X94447673Y-91914875D01*
X94499999Y-91893200D01*
X94552325Y-91914873D01*
X94552327Y-91914875D01*
X94583623Y-91946172D01*
X94583625Y-91946174D01*
X94685899Y-91993864D01*
X94685901Y-91993865D01*
X94732502Y-92000000D01*
X94950000Y-92000000D01*
X94950000Y-91150000D01*
X94050000Y-91150000D01*
X94050000Y-92000000D01*
X93850000Y-92000000D01*
X93850000Y-91150000D01*
X92950000Y-91150000D01*
X92950000Y-92000000D01*
X92750000Y-92000000D01*
X92750000Y-91150000D01*
X92250000Y-91150000D01*
X92250000Y-91717498D01*
X65000000Y-91717498D01*
X65000000Y-90382501D01*
X92250000Y-90382501D01*
X92250000Y-90950000D01*
X92750000Y-90950000D01*
X92950000Y-90950000D01*
X93850000Y-90950000D01*
X94050000Y-90950000D01*
X94950000Y-90950000D01*
X94950000Y-90100000D01*
X95150000Y-90100000D01*
X95150000Y-92000000D01*
X95296149Y-92000000D01*
X95348475Y-92021674D01*
X95359842Y-92036329D01*
X95375812Y-92063332D01*
X95486668Y-92174188D01*
X95621611Y-92253993D01*
X95772158Y-92297731D01*
X95772161Y-92297732D01*
X95807332Y-92300500D01*
X95807334Y-92300500D01*
X96492666Y-92300500D01*
X96492668Y-92300500D01*
X96527839Y-92297732D01*
X96678389Y-92253993D01*
X96813332Y-92174188D01*
X96924188Y-92063332D01*
X96940156Y-92036330D01*
X96985448Y-92002325D01*
X97003851Y-92000000D01*
X97150000Y-92000000D01*
X97350000Y-92000000D01*
X97567498Y-92000000D01*
X97614098Y-91993865D01*
X97614100Y-91993864D01*
X97716374Y-91946174D01*
X97747673Y-91914875D01*
X97799999Y-91893200D01*
X97852325Y-91914873D01*
X97852327Y-91914875D01*
X97883623Y-91946172D01*
X97883625Y-91946174D01*
X97985899Y-91993864D01*
X97985901Y-91993865D01*
X98032502Y-92000000D01*
X98250000Y-92000000D01*
X98250000Y-91150000D01*
X97350000Y-91150000D01*
X97350000Y-92000000D01*
X97150000Y-92000000D01*
X97150000Y-90950000D01*
X97350000Y-90950000D01*
X98250000Y-90950000D01*
X98250000Y-90100000D01*
X98450000Y-90100000D01*
X98450000Y-92000000D01*
X98596149Y-92000000D01*
X98648475Y-92021674D01*
X98659842Y-92036329D01*
X98675812Y-92063332D01*
X98786668Y-92174188D01*
X98921611Y-92253993D01*
X99072158Y-92297731D01*
X99072161Y-92297732D01*
X99107332Y-92300500D01*
X99107334Y-92300500D01*
X99792666Y-92300500D01*
X99792668Y-92300500D01*
X99827839Y-92297732D01*
X99978389Y-92253993D01*
X100113332Y-92174188D01*
X100224188Y-92063332D01*
X100240156Y-92036330D01*
X100285448Y-92002325D01*
X100303851Y-92000000D01*
X100450000Y-92000000D01*
X100450000Y-90100000D01*
X100650000Y-90100000D01*
X100650000Y-92000000D01*
X100796149Y-92000000D01*
X100848475Y-92021674D01*
X100859842Y-92036329D01*
X100875812Y-92063332D01*
X100986668Y-92174188D01*
X101121611Y-92253993D01*
X101272158Y-92297731D01*
X101272161Y-92297732D01*
X101307332Y-92300500D01*
X101307334Y-92300500D01*
X101992666Y-92300500D01*
X101992668Y-92300500D01*
X102027839Y-92297732D01*
X102178389Y-92253993D01*
X102313332Y-92174188D01*
X102424188Y-92063332D01*
X102440156Y-92036330D01*
X102485448Y-92002325D01*
X102503851Y-92000000D01*
X102650000Y-92000000D01*
X102850000Y-92000000D01*
X103067498Y-92000000D01*
X103114098Y-91993865D01*
X103114100Y-91993864D01*
X103216374Y-91946174D01*
X103247673Y-91914875D01*
X103299999Y-91893200D01*
X103352325Y-91914873D01*
X103352327Y-91914875D01*
X103383623Y-91946172D01*
X103383625Y-91946174D01*
X103485899Y-91993864D01*
X103485901Y-91993865D01*
X103532502Y-92000000D01*
X103750000Y-92000000D01*
X103750000Y-91150000D01*
X102850000Y-91150000D01*
X102850000Y-92000000D01*
X102650000Y-92000000D01*
X102650000Y-90950000D01*
X102850000Y-90950000D01*
X103750000Y-90950000D01*
X103750000Y-90100000D01*
X103950000Y-90100000D01*
X103950000Y-92000000D01*
X104096149Y-92000000D01*
X104148475Y-92021674D01*
X104159842Y-92036329D01*
X104175812Y-92063332D01*
X104286668Y-92174188D01*
X104421611Y-92253993D01*
X104572158Y-92297731D01*
X104572161Y-92297732D01*
X104607332Y-92300500D01*
X104607334Y-92300500D01*
X105292666Y-92300500D01*
X105292668Y-92300500D01*
X105327839Y-92297732D01*
X105478389Y-92253993D01*
X105613332Y-92174188D01*
X105724188Y-92063332D01*
X105740156Y-92036330D01*
X105785448Y-92002325D01*
X105803851Y-92000000D01*
X105950000Y-92000000D01*
X106150000Y-92000000D01*
X106367498Y-92000000D01*
X106414098Y-91993865D01*
X106414100Y-91993864D01*
X106516374Y-91946174D01*
X106547673Y-91914875D01*
X106599999Y-91893200D01*
X106652325Y-91914873D01*
X106652327Y-91914875D01*
X106683623Y-91946172D01*
X106683625Y-91946174D01*
X106785899Y-91993864D01*
X106785901Y-91993865D01*
X106832502Y-92000000D01*
X107050000Y-92000000D01*
X107250000Y-92000000D01*
X107467498Y-92000000D01*
X107514098Y-91993865D01*
X107514100Y-91993864D01*
X107616374Y-91946174D01*
X107696174Y-91866374D01*
X107743864Y-91764100D01*
X107743865Y-91764098D01*
X107750000Y-91717498D01*
X107750000Y-91150000D01*
X107250000Y-91150000D01*
X107250000Y-92000000D01*
X107050000Y-92000000D01*
X107050000Y-91150000D01*
X106150000Y-91150000D01*
X106150000Y-92000000D01*
X105950000Y-92000000D01*
X105950000Y-90950000D01*
X106150000Y-90950000D01*
X107050000Y-90950000D01*
X107250000Y-90950000D01*
X107750000Y-90950000D01*
X107750000Y-90382501D01*
X107743865Y-90335901D01*
X107743864Y-90335899D01*
X107696174Y-90233625D01*
X107616374Y-90153825D01*
X107514100Y-90106135D01*
X107514098Y-90106134D01*
X107467498Y-90100000D01*
X107250000Y-90100000D01*
X107250000Y-90950000D01*
X107050000Y-90950000D01*
X107050000Y-90100000D01*
X106832502Y-90100000D01*
X106785901Y-90106134D01*
X106785899Y-90106135D01*
X106683625Y-90153825D01*
X106683623Y-90153827D01*
X106652326Y-90185125D01*
X106600000Y-90206799D01*
X106547674Y-90185125D01*
X106516374Y-90153825D01*
X106414100Y-90106135D01*
X106414098Y-90106134D01*
X106367498Y-90100000D01*
X106150000Y-90100000D01*
X106150000Y-90950000D01*
X105950000Y-90950000D01*
X105950000Y-90100000D01*
X105803851Y-90100000D01*
X105751525Y-90078326D01*
X105740156Y-90063669D01*
X105724187Y-90036667D01*
X105613332Y-89925812D01*
X105478389Y-89846007D01*
X105327839Y-89802268D01*
X105327843Y-89802268D01*
X105304391Y-89800422D01*
X105292668Y-89799500D01*
X104607332Y-89799500D01*
X104593263Y-89800607D01*
X104572158Y-89802268D01*
X104421610Y-89846007D01*
X104286667Y-89925812D01*
X104175812Y-90036667D01*
X104159844Y-90063669D01*
X104114552Y-90097675D01*
X104096149Y-90100000D01*
X103950000Y-90100000D01*
X103750000Y-90100000D01*
X103532502Y-90100000D01*
X103485901Y-90106134D01*
X103485899Y-90106135D01*
X103383625Y-90153825D01*
X103383623Y-90153827D01*
X103352326Y-90185125D01*
X103300000Y-90206799D01*
X103247674Y-90185125D01*
X103216374Y-90153825D01*
X103114100Y-90106135D01*
X103114098Y-90106134D01*
X103067498Y-90100000D01*
X102850000Y-90100000D01*
X102850000Y-90950000D01*
X102650000Y-90950000D01*
X102650000Y-90100000D01*
X102503851Y-90100000D01*
X102451525Y-90078326D01*
X102440156Y-90063669D01*
X102424187Y-90036667D01*
X102313332Y-89925812D01*
X102178389Y-89846007D01*
X102027839Y-89802268D01*
X102027843Y-89802268D01*
X102004391Y-89800422D01*
X101992668Y-89799500D01*
X101307332Y-89799500D01*
X101293263Y-89800607D01*
X101272158Y-89802268D01*
X101121610Y-89846007D01*
X100986667Y-89925812D01*
X100875812Y-90036667D01*
X100859844Y-90063669D01*
X100814552Y-90097675D01*
X100796149Y-90100000D01*
X100650000Y-90100000D01*
X100450000Y-90100000D01*
X100303851Y-90100000D01*
X100251525Y-90078326D01*
X100240156Y-90063669D01*
X100224187Y-90036667D01*
X100113332Y-89925812D01*
X99978389Y-89846007D01*
X99827839Y-89802268D01*
X99827843Y-89802268D01*
X99804391Y-89800422D01*
X99792668Y-89799500D01*
X99107332Y-89799500D01*
X99093263Y-89800607D01*
X99072158Y-89802268D01*
X98921610Y-89846007D01*
X98786667Y-89925812D01*
X98675812Y-90036667D01*
X98659844Y-90063669D01*
X98614552Y-90097675D01*
X98596149Y-90100000D01*
X98450000Y-90100000D01*
X98250000Y-90100000D01*
X98032502Y-90100000D01*
X97985901Y-90106134D01*
X97985899Y-90106135D01*
X97883625Y-90153825D01*
X97883623Y-90153827D01*
X97852326Y-90185125D01*
X97800000Y-90206799D01*
X97747674Y-90185125D01*
X97716374Y-90153825D01*
X97614100Y-90106135D01*
X97614098Y-90106134D01*
X97567498Y-90100000D01*
X97350000Y-90100000D01*
X97350000Y-90950000D01*
X97150000Y-90950000D01*
X97150000Y-90100000D01*
X97003851Y-90100000D01*
X96951525Y-90078326D01*
X96940156Y-90063669D01*
X96924187Y-90036667D01*
X96813332Y-89925812D01*
X96678389Y-89846007D01*
X96527839Y-89802268D01*
X96527843Y-89802268D01*
X96504391Y-89800422D01*
X96492668Y-89799500D01*
X95807332Y-89799500D01*
X95793263Y-89800607D01*
X95772158Y-89802268D01*
X95621610Y-89846007D01*
X95486667Y-89925812D01*
X95375812Y-90036667D01*
X95359844Y-90063669D01*
X95314552Y-90097675D01*
X95296149Y-90100000D01*
X95150000Y-90100000D01*
X94950000Y-90100000D01*
X94732502Y-90100000D01*
X94685901Y-90106134D01*
X94685899Y-90106135D01*
X94583625Y-90153825D01*
X94583623Y-90153827D01*
X94552326Y-90185125D01*
X94500000Y-90206799D01*
X94447674Y-90185125D01*
X94416374Y-90153825D01*
X94314100Y-90106135D01*
X94314098Y-90106134D01*
X94267498Y-90100000D01*
X94050000Y-90100000D01*
X94050000Y-90950000D01*
X93850000Y-90950000D01*
X93850000Y-90100000D01*
X93632502Y-90100000D01*
X93585901Y-90106134D01*
X93585899Y-90106135D01*
X93483625Y-90153825D01*
X93483623Y-90153827D01*
X93452326Y-90185125D01*
X93400000Y-90206799D01*
X93347674Y-90185125D01*
X93316374Y-90153825D01*
X93214100Y-90106135D01*
X93214098Y-90106134D01*
X93167498Y-90100000D01*
X92950000Y-90100000D01*
X92950000Y-90950000D01*
X92750000Y-90950000D01*
X92750000Y-90100000D01*
X92532502Y-90100000D01*
X92485901Y-90106134D01*
X92485899Y-90106135D01*
X92383625Y-90153825D01*
X92303825Y-90233625D01*
X92256135Y-90335899D01*
X92256134Y-90335901D01*
X92250000Y-90382501D01*
X65000000Y-90382501D01*
X65000000Y-65074000D01*
X65021674Y-65021674D01*
X65074000Y-65000000D01*
X134926000Y-65000000D01*
X134978326Y-65021674D01*
G37*
%TD.AperFunction*%
%TD*%
%TA.AperFunction,Conductor*%
%TO.N,+3V3*%
G36*
X88986241Y-102270284D02*
G01*
X88986900Y-102269482D01*
X88989545Y-102271653D01*
X88989596Y-102271674D01*
X88989711Y-102271789D01*
X89120821Y-102359394D01*
X89120826Y-102359396D01*
X89120825Y-102359396D01*
X89134857Y-102365208D01*
X89266503Y-102419737D01*
X89421158Y-102450500D01*
X89421160Y-102450500D01*
X89578840Y-102450500D01*
X89578842Y-102450500D01*
X89733497Y-102419737D01*
X89879179Y-102359394D01*
X89884248Y-102356007D01*
X89939796Y-102344955D01*
X89977688Y-102365208D01*
X90036668Y-102424188D01*
X90171611Y-102503993D01*
X90322158Y-102547731D01*
X90322161Y-102547732D01*
X90357332Y-102550500D01*
X90357334Y-102550500D01*
X91726000Y-102550500D01*
X91778326Y-102572174D01*
X91800000Y-102624500D01*
X91800000Y-103975500D01*
X91778326Y-104027826D01*
X91726000Y-104049500D01*
X90357332Y-104049500D01*
X90343263Y-104050607D01*
X90322158Y-104052268D01*
X90171610Y-104096007D01*
X90036667Y-104175812D01*
X89977686Y-104234792D01*
X89925360Y-104256465D01*
X89884252Y-104243996D01*
X89879179Y-104240606D01*
X89879176Y-104240604D01*
X89879175Y-104240604D01*
X89879174Y-104240603D01*
X89733501Y-104180264D01*
X89733491Y-104180261D01*
X89629925Y-104159661D01*
X89578842Y-104149500D01*
X89421158Y-104149500D01*
X89377315Y-104158220D01*
X89266508Y-104180261D01*
X89266498Y-104180264D01*
X89120825Y-104240603D01*
X88989711Y-104328210D01*
X88989710Y-104328212D01*
X88989596Y-104328326D01*
X88989545Y-104328346D01*
X88986900Y-104330518D01*
X88986241Y-104329715D01*
X88937270Y-104350000D01*
X88424000Y-104350000D01*
X88371674Y-104328326D01*
X88350000Y-104276000D01*
X88350000Y-102324000D01*
X88371674Y-102271674D01*
X88424000Y-102250000D01*
X88937270Y-102250000D01*
X88986241Y-102270284D01*
G37*
%TD.AperFunction*%
%TD*%
M02*
