%TF.GenerationSoftware,KiCad,Pcbnew,9.0.4*%
%TF.CreationDate,2026-02-18T13:45:44-05:00*%
%TF.ProjectId,Digital_test_board,44696769-7461-46c5-9f74-6573745f626f,rev?*%
%TF.SameCoordinates,Original*%
%TF.FileFunction,Paste,Top*%
%TF.FilePolarity,Positive*%
%FSLAX46Y46*%
G04 Gerber Fmt 4.6, Leading zero omitted, Abs format (unit mm)*
G04 Created by KiCad (PCBNEW 9.0.4) date 2026-02-18 13:45:44*
%MOMM*%
%LPD*%
G01*
G04 APERTURE LIST*
G04 Aperture macros list*
%AMRoundRect*
0 Rectangle with rounded corners*
0 $1 Rounding radius*
0 $2 $3 $4 $5 $6 $7 $8 $9 X,Y pos of 4 corners*
0 Add a 4 corners polygon primitive as box body*
4,1,4,$2,$3,$4,$5,$6,$7,$8,$9,$2,$3,0*
0 Add four circle primitives for the rounded corners*
1,1,$1+$1,$2,$3*
1,1,$1+$1,$4,$5*
1,1,$1+$1,$6,$7*
1,1,$1+$1,$8,$9*
0 Add four rect primitives between the rounded corners*
20,1,$1+$1,$2,$3,$4,$5,0*
20,1,$1+$1,$4,$5,$6,$7,0*
20,1,$1+$1,$6,$7,$8,$9,0*
20,1,$1+$1,$8,$9,$2,$3,0*%
%AMFreePoly0*
4,1,8,0.150000,-0.150000,0.000000,-0.150000,0.000000,-0.300000,-0.250000,-0.300000,-0.250000,0.050000,-0.150000,0.150000,0.150000,0.150000,0.150000,-0.150000,0.150000,-0.150000,$1*%
%AMFreePoly1*
4,1,17,0.200035,0.150035,0.200050,0.150000,0.200050,-0.300000,0.200035,-0.300035,0.200000,-0.300050,-0.050000,-0.300050,-0.050035,-0.300035,-0.050050,-0.300000,-0.050050,-0.150050,-0.200000,-0.150050,-0.200035,-0.150035,-0.200050,-0.150000,-0.200050,0.150000,-0.200035,0.150035,-0.200000,0.150050,0.200000,0.150050,0.200035,0.150035,0.200035,0.150035,$1*%
%AMFreePoly2*
4,1,17,0.200035,0.300035,0.200050,0.300000,0.200050,-0.150000,0.200035,-0.150035,0.200000,-0.150050,-0.200000,-0.150050,-0.200035,-0.150035,-0.200050,-0.150000,-0.200050,0.150000,-0.200035,0.150035,-0.200000,0.150050,-0.050050,0.150050,-0.050050,0.300000,-0.050035,0.300035,-0.050000,0.300050,0.200000,0.300050,0.200035,0.300035,0.200035,0.300035,$1*%
%AMFreePoly3*
4,1,14,0.212832,0.095167,0.370167,-0.062168,0.375000,-0.073835,0.375000,-0.083500,0.370167,-0.095167,0.358500,-0.100000,-0.358500,-0.100000,-0.370167,-0.095167,-0.375000,-0.083500,-0.375000,0.083500,-0.370167,0.095167,-0.358500,0.100000,0.201165,0.100000,0.212832,0.095167,0.212832,0.095167,$1*%
%AMFreePoly4*
4,1,14,0.370167,0.095167,0.375000,0.083500,0.375000,0.073835,0.370167,0.062168,0.212832,-0.095167,0.201165,-0.100000,-0.358500,-0.100000,-0.370167,-0.095167,-0.375000,-0.083500,-0.375000,0.083500,-0.370167,0.095167,-0.358500,0.100000,0.358500,0.100000,0.370167,0.095167,0.370167,0.095167,$1*%
%AMFreePoly5*
4,1,14,0.095167,0.370167,0.100000,0.358500,0.100000,-0.358500,0.095167,-0.370167,0.083500,-0.375000,-0.083500,-0.375000,-0.095167,-0.370167,-0.100000,-0.358500,-0.100000,0.201165,-0.095167,0.212832,0.062168,0.370167,0.073835,0.375000,0.083500,0.375000,0.095167,0.370167,0.095167,0.370167,$1*%
%AMFreePoly6*
4,1,14,-0.062168,0.370167,0.095167,0.212832,0.100000,0.201165,0.100000,-0.358500,0.095167,-0.370167,0.083500,-0.375000,-0.083500,-0.375000,-0.095167,-0.370167,-0.100000,-0.358500,-0.100000,0.358500,-0.095167,0.370167,-0.083500,0.375000,-0.073835,0.375000,-0.062168,0.370167,-0.062168,0.370167,$1*%
%AMFreePoly7*
4,1,14,0.370167,0.095167,0.375000,0.083500,0.375000,-0.083500,0.370167,-0.095167,0.358500,-0.100000,-0.201165,-0.100000,-0.212832,-0.095167,-0.370167,0.062168,-0.375000,0.073835,-0.375000,0.083500,-0.370167,0.095167,-0.358500,0.100000,0.358500,0.100000,0.370167,0.095167,0.370167,0.095167,$1*%
%AMFreePoly8*
4,1,14,0.370167,0.095167,0.375000,0.083500,0.375000,-0.083500,0.370167,-0.095167,0.358500,-0.100000,-0.358500,-0.100000,-0.370167,-0.095167,-0.375000,-0.083500,-0.375000,-0.073835,-0.370167,-0.062168,-0.212832,0.095167,-0.201165,0.100000,0.358500,0.100000,0.370167,0.095167,0.370167,0.095167,$1*%
%AMFreePoly9*
4,1,14,0.095167,0.370167,0.100000,0.358500,0.100000,-0.201165,0.095167,-0.212832,-0.062168,-0.370167,-0.073835,-0.375000,-0.083500,-0.375000,-0.095167,-0.370167,-0.100000,-0.358500,-0.100000,0.358500,-0.095167,0.370167,-0.083500,0.375000,0.083500,0.375000,0.095167,0.370167,0.095167,0.370167,$1*%
%AMFreePoly10*
4,1,14,0.095167,0.370167,0.100000,0.358500,0.100000,-0.358500,0.095167,-0.370167,0.083500,-0.375000,0.073835,-0.375000,0.062168,-0.370167,-0.095167,-0.212832,-0.100000,-0.201165,-0.100000,0.358500,-0.095167,0.370167,-0.083500,0.375000,0.083500,0.375000,0.095167,0.370167,0.095167,0.370167,$1*%
G04 Aperture macros list end*
%ADD10RoundRect,0.200000X-0.200000X-0.275000X0.200000X-0.275000X0.200000X0.275000X-0.200000X0.275000X0*%
%ADD11RoundRect,0.200000X-0.275000X0.200000X-0.275000X-0.200000X0.275000X-0.200000X0.275000X0.200000X0*%
%ADD12RoundRect,0.200000X0.275000X-0.200000X0.275000X0.200000X-0.275000X0.200000X-0.275000X-0.200000X0*%
%ADD13RoundRect,0.225000X0.225000X0.250000X-0.225000X0.250000X-0.225000X-0.250000X0.225000X-0.250000X0*%
%ADD14RoundRect,0.225000X0.250000X-0.225000X0.250000X0.225000X-0.250000X0.225000X-0.250000X-0.225000X0*%
%ADD15RoundRect,0.250000X-0.250000X-0.475000X0.250000X-0.475000X0.250000X0.475000X-0.250000X0.475000X0*%
%ADD16RoundRect,0.150000X0.150000X-0.825000X0.150000X0.825000X-0.150000X0.825000X-0.150000X-0.825000X0*%
%ADD17RoundRect,0.225000X-0.250000X0.225000X-0.250000X-0.225000X0.250000X-0.225000X0.250000X0.225000X0*%
%ADD18RoundRect,0.150000X-0.512500X-0.150000X0.512500X-0.150000X0.512500X0.150000X-0.512500X0.150000X0*%
%ADD19RoundRect,0.250000X-1.000000X-0.650000X1.000000X-0.650000X1.000000X0.650000X-1.000000X0.650000X0*%
%ADD20RoundRect,0.250000X1.000000X-0.700000X1.000000X0.700000X-1.000000X0.700000X-1.000000X-0.700000X0*%
%ADD21RoundRect,0.250000X-0.625000X0.312500X-0.625000X-0.312500X0.625000X-0.312500X0.625000X0.312500X0*%
%ADD22RoundRect,0.250000X-0.312500X-0.625000X0.312500X-0.625000X0.312500X0.625000X-0.312500X0.625000X0*%
%ADD23RoundRect,0.200000X0.200000X0.275000X-0.200000X0.275000X-0.200000X-0.275000X0.200000X-0.275000X0*%
%ADD24RoundRect,0.150000X-0.150000X-0.200000X0.150000X-0.200000X0.150000X0.200000X-0.150000X0.200000X0*%
%ADD25RoundRect,0.250000X0.700000X1.000000X-0.700000X1.000000X-0.700000X-1.000000X0.700000X-1.000000X0*%
%ADD26RoundRect,0.150000X0.200000X-0.150000X0.200000X0.150000X-0.200000X0.150000X-0.200000X-0.150000X0*%
%ADD27RoundRect,0.250000X-0.650000X0.325000X-0.650000X-0.325000X0.650000X-0.325000X0.650000X0.325000X0*%
%ADD28RoundRect,0.225000X-0.225000X-0.250000X0.225000X-0.250000X0.225000X0.250000X-0.225000X0.250000X0*%
%ADD29RoundRect,0.157500X-0.157500X-0.222500X0.157500X-0.222500X0.157500X0.222500X-0.157500X0.222500X0*%
%ADD30RoundRect,0.125000X-0.600000X-0.125000X0.600000X-0.125000X0.600000X0.125000X-0.600000X0.125000X0*%
%ADD31RoundRect,0.250000X-0.325000X-0.650000X0.325000X-0.650000X0.325000X0.650000X-0.325000X0.650000X0*%
%ADD32RoundRect,0.150000X-0.200000X0.150000X-0.200000X-0.150000X0.200000X-0.150000X0.200000X0.150000X0*%
%ADD33RoundRect,0.250000X0.450000X0.350000X-0.450000X0.350000X-0.450000X-0.350000X0.450000X-0.350000X0*%
%ADD34RoundRect,0.250000X0.475000X-0.250000X0.475000X0.250000X-0.475000X0.250000X-0.475000X-0.250000X0*%
%ADD35RoundRect,0.250000X0.250000X0.475000X-0.250000X0.475000X-0.250000X-0.475000X0.250000X-0.475000X0*%
%ADD36RoundRect,0.087500X-0.225000X-0.087500X0.225000X-0.087500X0.225000X0.087500X-0.225000X0.087500X0*%
%ADD37RoundRect,0.087500X-0.087500X-0.225000X0.087500X-0.225000X0.087500X0.225000X-0.087500X0.225000X0*%
%ADD38RoundRect,0.150000X-0.587500X-0.150000X0.587500X-0.150000X0.587500X0.150000X-0.587500X0.150000X0*%
%ADD39FreePoly0,90.000000*%
%ADD40R,0.250000X0.400000*%
%ADD41FreePoly1,270.000000*%
%ADD42R,2.000000X0.300000*%
%ADD43FreePoly2,90.000000*%
%ADD44FreePoly1,90.000000*%
%ADD45RoundRect,0.250000X0.325000X0.650000X-0.325000X0.650000X-0.325000X-0.650000X0.325000X-0.650000X0*%
%ADD46RoundRect,0.243750X-0.243750X-0.456250X0.243750X-0.456250X0.243750X0.456250X-0.243750X0.456250X0*%
%ADD47RoundRect,0.150000X0.587500X0.150000X-0.587500X0.150000X-0.587500X-0.150000X0.587500X-0.150000X0*%
%ADD48RoundRect,0.250000X-0.295000X-0.475000X0.295000X-0.475000X0.295000X0.475000X-0.295000X0.475000X0*%
%ADD49FreePoly3,0.000000*%
%ADD50RoundRect,0.050000X-0.325000X-0.050000X0.325000X-0.050000X0.325000X0.050000X-0.325000X0.050000X0*%
%ADD51FreePoly4,0.000000*%
%ADD52FreePoly5,0.000000*%
%ADD53RoundRect,0.050000X-0.050000X-0.325000X0.050000X-0.325000X0.050000X0.325000X-0.050000X0.325000X0*%
%ADD54FreePoly6,0.000000*%
%ADD55FreePoly7,0.000000*%
%ADD56FreePoly8,0.000000*%
%ADD57FreePoly9,0.000000*%
%ADD58FreePoly10,0.000000*%
%ADD59FreePoly0,180.000000*%
%ADD60R,0.400000X0.250000*%
%ADD61FreePoly1,0.000000*%
%ADD62R,0.300000X2.000000*%
%ADD63FreePoly2,180.000000*%
%ADD64FreePoly1,180.000000*%
%ADD65RoundRect,0.250000X0.625000X-0.312500X0.625000X0.312500X-0.625000X0.312500X-0.625000X-0.312500X0*%
%ADD66RoundRect,0.150000X0.150000X0.200000X-0.150000X0.200000X-0.150000X-0.200000X0.150000X-0.200000X0*%
%ADD67RoundRect,0.250000X-0.650000X1.000000X-0.650000X-1.000000X0.650000X-1.000000X0.650000X1.000000X0*%
%ADD68RoundRect,0.250000X-0.475000X0.250000X-0.475000X-0.250000X0.475000X-0.250000X0.475000X0.250000X0*%
%ADD69RoundRect,0.120000X-0.120000X-0.285000X0.120000X-0.285000X0.120000X0.285000X-0.120000X0.285000X0*%
%ADD70RoundRect,0.062500X-0.375000X-0.062500X0.375000X-0.062500X0.375000X0.062500X-0.375000X0.062500X0*%
%ADD71RoundRect,0.218750X-0.256250X0.218750X-0.256250X-0.218750X0.256250X-0.218750X0.256250X0.218750X0*%
%ADD72R,1.100000X0.800000*%
%ADD73R,2.750000X1.200000*%
%ADD74RoundRect,0.250000X0.650000X-0.325000X0.650000X0.325000X-0.650000X0.325000X-0.650000X-0.325000X0*%
%ADD75R,0.900000X0.900000*%
%ADD76R,0.900000X1.500000*%
%ADD77R,1.500000X0.900000*%
%ADD78RoundRect,0.243750X0.243750X0.456250X-0.243750X0.456250X-0.243750X-0.456250X0.243750X-0.456250X0*%
%ADD79RoundRect,0.222500X0.222500X0.222500X-0.222500X0.222500X-0.222500X-0.222500X0.222500X-0.222500X0*%
%ADD80RoundRect,0.062500X0.387500X0.062500X-0.387500X0.062500X-0.387500X-0.062500X0.387500X-0.062500X0*%
%ADD81RoundRect,0.062500X0.062500X0.387500X-0.062500X0.387500X-0.062500X-0.387500X0.062500X-0.387500X0*%
%ADD82R,0.330200X0.762000*%
%ADD83R,0.939800X0.762000*%
%ADD84RoundRect,0.250000X0.312500X0.625000X-0.312500X0.625000X-0.312500X-0.625000X0.312500X-0.625000X0*%
%ADD85RoundRect,0.100000X0.637500X0.100000X-0.637500X0.100000X-0.637500X-0.100000X0.637500X-0.100000X0*%
%ADD86RoundRect,0.250000X0.900000X-1.000000X0.900000X1.000000X-0.900000X1.000000X-0.900000X-1.000000X0*%
%ADD87RoundRect,0.250000X-0.385000X-0.385000X0.385000X-0.385000X0.385000X0.385000X-0.385000X0.385000X0*%
%ADD88RoundRect,0.087500X-0.425000X-0.087500X0.425000X-0.087500X0.425000X0.087500X-0.425000X0.087500X0*%
%ADD89RoundRect,0.087500X-0.087500X-0.425000X0.087500X-0.425000X0.087500X0.425000X-0.087500X0.425000X0*%
%ADD90RoundRect,0.250000X0.650000X-1.000000X0.650000X1.000000X-0.650000X1.000000X-0.650000X-1.000000X0*%
%ADD91R,1.092200X0.711200*%
%ADD92R,0.939800X0.889000*%
%ADD93R,0.787400X1.041400*%
%ADD94R,1.828800X1.143000*%
%ADD95R,3.327400X0.711200*%
%ADD96R,2.794000X0.863600*%
%ADD97RoundRect,0.250000X-0.400000X-0.625000X0.400000X-0.625000X0.400000X0.625000X-0.400000X0.625000X0*%
%ADD98RoundRect,0.157500X0.842500X-0.367500X0.842500X0.367500X-0.842500X0.367500X-0.842500X-0.367500X0*%
%ADD99RoundRect,0.150000X-0.150000X0.587500X-0.150000X-0.587500X0.150000X-0.587500X0.150000X0.587500X0*%
%ADD100RoundRect,0.170000X-0.170000X-0.210000X0.170000X-0.210000X0.170000X0.210000X-0.170000X0.210000X0*%
%ADD101RoundRect,0.075000X-0.650000X-0.075000X0.650000X-0.075000X0.650000X0.075000X-0.650000X0.075000X0*%
%ADD102R,0.762000X0.330200*%
%ADD103R,0.762000X0.939800*%
%ADD104RoundRect,0.160000X-0.245000X-0.160000X0.245000X-0.160000X0.245000X0.160000X-0.245000X0.160000X0*%
%ADD105RoundRect,0.093750X-0.093750X-0.106250X0.093750X-0.106250X0.093750X0.106250X-0.093750X0.106250X0*%
%ADD106RoundRect,0.207500X-0.207500X0.207500X-0.207500X-0.207500X0.207500X-0.207500X0.207500X0.207500X0*%
%ADD107RoundRect,0.062500X-0.062500X0.375000X-0.062500X-0.375000X0.062500X-0.375000X0.062500X0.375000X0*%
%ADD108RoundRect,0.062500X-0.375000X0.062500X-0.375000X-0.062500X0.375000X-0.062500X0.375000X0.062500X0*%
%ADD109RoundRect,0.250000X-1.000000X0.700000X-1.000000X-0.700000X1.000000X-0.700000X1.000000X0.700000X0*%
%ADD110RoundRect,0.250000X1.000000X0.650000X-1.000000X0.650000X-1.000000X-0.650000X1.000000X-0.650000X0*%
%ADD111RoundRect,0.218750X-0.218750X-0.256250X0.218750X-0.256250X0.218750X0.256250X-0.218750X0.256250X0*%
%ADD112RoundRect,0.150000X-0.825000X-0.150000X0.825000X-0.150000X0.825000X0.150000X-0.825000X0.150000X0*%
G04 APERTURE END LIST*
D10*
%TO.C,R94*%
X222270000Y-61100000D03*
X223920000Y-61100000D03*
%TD*%
D11*
%TO.C,R93*%
X220060000Y-58170000D03*
X220060000Y-59820000D03*
%TD*%
D12*
%TO.C,R63*%
X177600000Y-90850000D03*
X177600000Y-89200000D03*
%TD*%
D11*
%TO.C,R45*%
X227700000Y-78200000D03*
X227700000Y-79850000D03*
%TD*%
D10*
%TO.C,R9*%
X67575000Y-97400000D03*
X69225000Y-97400000D03*
%TD*%
D13*
%TO.C,C35*%
X174215000Y-90535000D03*
X172665000Y-90535000D03*
%TD*%
D14*
%TO.C,C44*%
X177600000Y-94000000D03*
X177600000Y-92450000D03*
%TD*%
D15*
%TO.C,C36*%
X175322930Y-96272004D03*
X177222930Y-96272004D03*
%TD*%
D16*
%TO.C,U4*%
X227055000Y-147775000D03*
X228325000Y-147775000D03*
X229595000Y-147775000D03*
X230865000Y-147775000D03*
X232135000Y-147775000D03*
X233405000Y-147775000D03*
X234675000Y-147775000D03*
X235945000Y-147775000D03*
X235945000Y-142825000D03*
X234675000Y-142825000D03*
X233405000Y-142825000D03*
X232135000Y-142825000D03*
X230865000Y-142825000D03*
X229595000Y-142825000D03*
X228325000Y-142825000D03*
X227055000Y-142825000D03*
%TD*%
D17*
%TO.C,C82*%
X214250000Y-72725000D03*
X214250000Y-74275000D03*
%TD*%
D18*
%TO.C,U3*%
X121262500Y-115850000D03*
X121262500Y-116800000D03*
X121262500Y-117750000D03*
X123537500Y-117750000D03*
X123537500Y-115850000D03*
%TD*%
D19*
%TO.C,D2*%
X113200000Y-113400000D03*
X117200000Y-113400000D03*
%TD*%
D20*
%TO.C,L3*%
X188200000Y-117050000D03*
X188200000Y-112950000D03*
%TD*%
D17*
%TO.C,C23*%
X216500000Y-56050000D03*
X216500000Y-57600000D03*
%TD*%
D21*
%TO.C,R92*%
X207900000Y-71875000D03*
X207900000Y-74800000D03*
%TD*%
D22*
%TO.C,R83*%
X107975000Y-78160000D03*
X110900000Y-78160000D03*
%TD*%
D23*
%TO.C,R67*%
X181475000Y-52910583D03*
X179825000Y-52910583D03*
%TD*%
D24*
%TO.C,D10*%
X236200000Y-61300000D03*
X234800000Y-61300000D03*
%TD*%
D11*
%TO.C,R3*%
X76900000Y-139250000D03*
X76900000Y-140900000D03*
%TD*%
D25*
%TO.C,L2*%
X124250000Y-111700000D03*
X120150000Y-111700000D03*
%TD*%
D23*
%TO.C,R14*%
X219180000Y-112590000D03*
X217530000Y-112590000D03*
%TD*%
D26*
%TO.C,D20*%
X237250000Y-96750000D03*
X237250000Y-98150000D03*
%TD*%
D27*
%TO.C,C49*%
X172600000Y-136400000D03*
X172600000Y-139350000D03*
%TD*%
D22*
%TO.C,R79*%
X109075000Y-59400000D03*
X112000000Y-59400000D03*
%TD*%
D28*
%TO.C,C59*%
X123525000Y-83260000D03*
X125075000Y-83260000D03*
%TD*%
D24*
%TO.C,D8*%
X229600000Y-63800000D03*
X228200000Y-63800000D03*
%TD*%
D22*
%TO.C,R71*%
X157037500Y-132900000D03*
X159962500Y-132900000D03*
%TD*%
D28*
%TO.C,C73*%
X229740000Y-67350000D03*
X231290000Y-67350000D03*
%TD*%
D29*
%TO.C,U14*%
X119660000Y-137655000D03*
X119660000Y-138595000D03*
X120440000Y-137655000D03*
X120440000Y-138595000D03*
D30*
X117900000Y-137150000D03*
X117900000Y-137800000D03*
X117900000Y-138450000D03*
X117900000Y-139100000D03*
X122200000Y-139100000D03*
X122200000Y-138450000D03*
X122200000Y-137800000D03*
X122200000Y-137150000D03*
%TD*%
D31*
%TO.C,C66*%
X133925000Y-61700000D03*
X136875000Y-61700000D03*
%TD*%
D22*
%TO.C,R70*%
X178237500Y-59685583D03*
X181162500Y-59685583D03*
%TD*%
D31*
%TO.C,C37*%
X181425000Y-114900000D03*
X184375000Y-114900000D03*
%TD*%
D32*
%TO.C,D21*%
X237250000Y-100750000D03*
X237250000Y-99350000D03*
%TD*%
D33*
%TO.C,Y1*%
X214500000Y-61955000D03*
X212300000Y-61955000D03*
X212300000Y-63655000D03*
X214500000Y-63655000D03*
%TD*%
D32*
%TO.C,D14*%
X230470000Y-59327500D03*
X230470000Y-57927500D03*
%TD*%
D23*
%TO.C,R20*%
X221900000Y-140500000D03*
X220250000Y-140500000D03*
%TD*%
D31*
%TO.C,C65*%
X133925000Y-64200000D03*
X136875000Y-64200000D03*
%TD*%
D17*
%TO.C,C48*%
X170500000Y-136500000D03*
X170500000Y-138050000D03*
%TD*%
D22*
%TO.C,R72*%
X174837500Y-136100000D03*
X177762500Y-136100000D03*
%TD*%
D21*
%TO.C,R74*%
X130960000Y-128222500D03*
X130960000Y-131147500D03*
%TD*%
D34*
%TO.C,C20*%
X219750000Y-52700000D03*
X219750000Y-50800000D03*
%TD*%
D23*
%TO.C,R41*%
X151362500Y-49750000D03*
X149712500Y-49750000D03*
%TD*%
D28*
%TO.C,C62*%
X133825000Y-59600000D03*
X135375000Y-59600000D03*
%TD*%
D14*
%TO.C,C21*%
X217900000Y-52750000D03*
X217900000Y-51200000D03*
%TD*%
D35*
%TO.C,C27*%
X212350000Y-100700000D03*
X210450000Y-100700000D03*
%TD*%
D23*
%TO.C,R19*%
X207750000Y-53500000D03*
X206100000Y-53500000D03*
%TD*%
D10*
%TO.C,R10*%
X117175000Y-119700000D03*
X118825000Y-119700000D03*
%TD*%
D34*
%TO.C,C7*%
X67400000Y-91850000D03*
X67400000Y-89950000D03*
%TD*%
D36*
%TO.C,U7*%
X205037500Y-133550000D03*
X205037500Y-134050000D03*
X205037500Y-134550000D03*
X205037500Y-135050000D03*
D37*
X205700000Y-135212500D03*
X206200000Y-135212500D03*
X206700000Y-135212500D03*
D36*
X207362500Y-135050000D03*
X207362500Y-134550000D03*
X207362500Y-134050000D03*
X207362500Y-133550000D03*
D37*
X206700000Y-133387500D03*
X206200000Y-133387500D03*
X205700000Y-133387500D03*
%TD*%
D28*
%TO.C,C11*%
X239825000Y-117400000D03*
X241375000Y-117400000D03*
%TD*%
D11*
%TO.C,R21*%
X212700000Y-121800000D03*
X212700000Y-123450000D03*
%TD*%
D38*
%TO.C,Q1*%
X218600000Y-136900000D03*
X218600000Y-138800000D03*
X220475000Y-137850000D03*
%TD*%
D11*
%TO.C,R90*%
X206800000Y-67475000D03*
X206800000Y-69125000D03*
%TD*%
D12*
%TO.C,R27*%
X216000000Y-122350000D03*
X216000000Y-120700000D03*
%TD*%
D39*
%TO.C,U8*%
X215600000Y-52450000D03*
D40*
X215125000Y-52500000D03*
X214675000Y-52500000D03*
D41*
X214200000Y-52500000D03*
D42*
X214900000Y-53050000D03*
X214900000Y-53550000D03*
D43*
X214200000Y-54100000D03*
D40*
X214674999Y-54100000D03*
X215125000Y-54100000D03*
D44*
X215600000Y-54100000D03*
%TD*%
D45*
%TO.C,C4*%
X72375000Y-91400000D03*
X69425000Y-91400000D03*
%TD*%
D46*
%TO.C,D3*%
X202000000Y-53500000D03*
X203875000Y-53500000D03*
%TD*%
D10*
%TO.C,R80*%
X129675000Y-54200000D03*
X131325000Y-54200000D03*
%TD*%
D47*
%TO.C,Q2*%
X217100000Y-125800000D03*
X217100000Y-123900000D03*
X215225000Y-124850000D03*
%TD*%
D13*
%TO.C,C55*%
X128075000Y-53300000D03*
X126525000Y-53300000D03*
%TD*%
D23*
%TO.C,R37*%
X214100000Y-97200000D03*
X212450000Y-97200000D03*
%TD*%
D48*
%TO.C,U18*%
X231900000Y-70800000D03*
X231900000Y-72400000D03*
D49*
X230650000Y-69800000D03*
D50*
X230650000Y-70200000D03*
X230650000Y-70600000D03*
X230650000Y-71000000D03*
X230650000Y-71400000D03*
X230650000Y-71800000D03*
X230650000Y-72200000D03*
X230650000Y-72600000D03*
X230650000Y-73000000D03*
D51*
X230650000Y-73400000D03*
D52*
X231100000Y-73850000D03*
D53*
X231500000Y-73850000D03*
X231900000Y-73850000D03*
X232300000Y-73850000D03*
D54*
X232700000Y-73850000D03*
D55*
X233150000Y-73400000D03*
D50*
X233150000Y-73000000D03*
X233150000Y-72600000D03*
X233150000Y-72200000D03*
X233150000Y-71800000D03*
X233150000Y-71400000D03*
X233150000Y-71000000D03*
X233150000Y-70600000D03*
X233150000Y-70200000D03*
D56*
X233150000Y-69800000D03*
D57*
X232700000Y-69350000D03*
D53*
X232300000Y-69350000D03*
X231900000Y-69350000D03*
X231500000Y-69350000D03*
D58*
X231100000Y-69350000D03*
%TD*%
D14*
%TO.C,C86*%
X210300000Y-63680000D03*
X210300000Y-62130000D03*
%TD*%
D11*
%TO.C,R18*%
X238000000Y-142875000D03*
X238000000Y-144525000D03*
%TD*%
D59*
%TO.C,U11*%
X173900000Y-92625000D03*
D60*
X173950000Y-93100000D03*
X173950000Y-93550000D03*
D61*
X173950000Y-94025000D03*
D62*
X174500000Y-93325000D03*
X175000000Y-93325000D03*
D63*
X175550000Y-94025000D03*
D60*
X175550000Y-93550001D03*
X175550000Y-93100000D03*
D64*
X175550000Y-92625000D03*
%TD*%
D11*
%TO.C,R48*%
X231500000Y-106675000D03*
X231500000Y-108325000D03*
%TD*%
D28*
%TO.C,C18*%
X205400000Y-136900000D03*
X206950000Y-136900000D03*
%TD*%
D11*
%TO.C,R76*%
X114700000Y-137575000D03*
X114700000Y-139225000D03*
%TD*%
D10*
%TO.C,R16*%
X223425000Y-115500000D03*
X225075000Y-115500000D03*
%TD*%
D65*
%TO.C,R53*%
X180300000Y-96287500D03*
X180300000Y-93362500D03*
%TD*%
D10*
%TO.C,R29*%
X211700000Y-50500000D03*
X213350000Y-50500000D03*
%TD*%
D23*
%TO.C,R58*%
X170012930Y-93802004D03*
X168362930Y-93802004D03*
%TD*%
D28*
%TO.C,C40*%
X185995000Y-122770000D03*
X187545000Y-122770000D03*
%TD*%
D31*
%TO.C,C63*%
X133925000Y-66700000D03*
X136875000Y-66700000D03*
%TD*%
D10*
%TO.C,R77*%
X128075000Y-51500000D03*
X129725000Y-51500000D03*
%TD*%
D12*
%TO.C,R56*%
X173562930Y-97422004D03*
X173562930Y-95772004D03*
%TD*%
D10*
%TO.C,R15*%
X223425000Y-117100000D03*
X225075000Y-117100000D03*
%TD*%
D32*
%TO.C,D12*%
X243640000Y-57400000D03*
X243640000Y-56000000D03*
%TD*%
D14*
%TO.C,C16*%
X214300000Y-123400000D03*
X214300000Y-121850000D03*
%TD*%
D12*
%TO.C,R62*%
X189570000Y-121205000D03*
X189570000Y-119555000D03*
%TD*%
D11*
%TO.C,R33*%
X214900000Y-56000000D03*
X214900000Y-57650000D03*
%TD*%
D23*
%TO.C,R59*%
X172027930Y-95772004D03*
X170377930Y-95772004D03*
%TD*%
D11*
%TO.C,R25*%
X217600000Y-120650000D03*
X217600000Y-122300000D03*
%TD*%
D66*
%TO.C,D7*%
X225800000Y-60900000D03*
X227200000Y-60900000D03*
%TD*%
D11*
%TO.C,R51*%
X227500000Y-106675000D03*
X227500000Y-108325000D03*
%TD*%
D21*
%TO.C,R73*%
X127660000Y-133622500D03*
X127660000Y-136547500D03*
%TD*%
D35*
%TO.C,C1*%
X72000000Y-134550000D03*
X70100000Y-134550000D03*
%TD*%
D23*
%TO.C,R42*%
X241000000Y-105750000D03*
X239350000Y-105750000D03*
%TD*%
D17*
%TO.C,C75*%
X212500000Y-72725000D03*
X212500000Y-74275000D03*
%TD*%
D12*
%TO.C,R44*%
X225660000Y-92210000D03*
X225660000Y-90560000D03*
%TD*%
D10*
%TO.C,R17*%
X230550000Y-140500000D03*
X232200000Y-140500000D03*
%TD*%
D17*
%TO.C,C53*%
X124800000Y-138425000D03*
X124800000Y-139975000D03*
%TD*%
D45*
%TO.C,C61*%
X117075000Y-80360000D03*
X114125000Y-80360000D03*
%TD*%
D67*
%TO.C,D24*%
X175000000Y-59685583D03*
X175000000Y-63685583D03*
%TD*%
D68*
%TO.C,C31*%
X229800000Y-77900000D03*
X229800000Y-79800000D03*
%TD*%
D23*
%TO.C,R34*%
X218750000Y-96300000D03*
X217100000Y-96300000D03*
%TD*%
D66*
%TO.C,D9*%
X232200000Y-61300000D03*
X233600000Y-61300000D03*
%TD*%
D69*
%TO.C,U15*%
X125000000Y-56000000D03*
X125000000Y-57000000D03*
X125600000Y-56000000D03*
X125600000Y-57000000D03*
D70*
X123862500Y-55500000D03*
X123862500Y-56000000D03*
X123862500Y-56500000D03*
X123862500Y-57000000D03*
X123862500Y-57500000D03*
X126737500Y-57500000D03*
X126737500Y-57000000D03*
X126737500Y-56500000D03*
X126737500Y-56000000D03*
X126737500Y-55500000D03*
%TD*%
D12*
%TO.C,R36*%
X215600000Y-97850000D03*
X215600000Y-96200000D03*
%TD*%
D15*
%TO.C,C6*%
X117150000Y-117300000D03*
X119050000Y-117300000D03*
%TD*%
D71*
%TO.C,FB1*%
X163600000Y-133400000D03*
X163600000Y-134975000D03*
%TD*%
D72*
%TO.C,U26*%
X146150000Y-96945000D03*
X146150000Y-95675000D03*
X146150000Y-94405000D03*
X146150000Y-93135000D03*
X146150000Y-91865000D03*
X146150000Y-90595000D03*
X146150000Y-89325000D03*
X146150000Y-88055000D03*
X151650000Y-96945000D03*
X151650000Y-95675000D03*
X151650000Y-94405000D03*
X151650000Y-93135000D03*
X151650000Y-91865000D03*
X151650000Y-90595000D03*
X151650000Y-89325000D03*
X151650000Y-88055000D03*
D73*
X146475000Y-99455000D03*
X146475000Y-85545000D03*
X151325000Y-99455000D03*
X151325000Y-85545000D03*
%TD*%
D15*
%TO.C,C19*%
X209200000Y-133200000D03*
X211100000Y-133200000D03*
%TD*%
D12*
%TO.C,R26*%
X216700000Y-138750000D03*
X216700000Y-137100000D03*
%TD*%
D10*
%TO.C,R22*%
X218975000Y-134400000D03*
X220625000Y-134400000D03*
%TD*%
D11*
%TO.C,R43*%
X236750000Y-104100000D03*
X236750000Y-105750000D03*
%TD*%
D15*
%TO.C,C12*%
X239750000Y-115500000D03*
X241650000Y-115500000D03*
%TD*%
D23*
%TO.C,R87*%
X200925000Y-70000000D03*
X199275000Y-70000000D03*
%TD*%
D10*
%TO.C,R13*%
X120575000Y-119700000D03*
X122225000Y-119700000D03*
%TD*%
%TO.C,R23*%
X243950000Y-72800000D03*
X245600000Y-72800000D03*
%TD*%
D34*
%TO.C,C13*%
X221660000Y-112170000D03*
X221660000Y-110270000D03*
%TD*%
D13*
%TO.C,C84*%
X223375000Y-65300000D03*
X221825000Y-65300000D03*
%TD*%
D47*
%TO.C,Q7*%
X200600000Y-73600000D03*
X200600000Y-71700000D03*
X198725000Y-72650000D03*
%TD*%
D11*
%TO.C,R75*%
X112560000Y-134260000D03*
X112560000Y-135910000D03*
%TD*%
D74*
%TO.C,C38*%
X172900000Y-118800000D03*
X172900000Y-115850000D03*
%TD*%
D75*
%TO.C,U5*%
X234790000Y-126100000D03*
X233390000Y-126100000D03*
X231990000Y-126100000D03*
X234790000Y-127500000D03*
X233390000Y-127500000D03*
X231990000Y-127500000D03*
X234790000Y-128900000D03*
X233390000Y-128900000D03*
X231990000Y-128900000D03*
D76*
X241110000Y-120250000D03*
X239840000Y-120250000D03*
X238570000Y-120250000D03*
X237300000Y-120250000D03*
X236030000Y-120250000D03*
X234760000Y-120250000D03*
X233490000Y-120250000D03*
X232220000Y-120250000D03*
X230950000Y-120250000D03*
X229680000Y-120250000D03*
X228410000Y-120250000D03*
X227140000Y-120250000D03*
X225870000Y-120250000D03*
X224600000Y-120250000D03*
D77*
X223350000Y-122015000D03*
X223350000Y-123285000D03*
X223350000Y-124555000D03*
X223350000Y-125825000D03*
X223350000Y-127095000D03*
X223350000Y-128365000D03*
X223350000Y-129635000D03*
X223350000Y-130905000D03*
X223350000Y-132175000D03*
X223350000Y-133445000D03*
X223350000Y-134715000D03*
X223350000Y-135985000D03*
D76*
X224600000Y-137750000D03*
X225870000Y-137750000D03*
X227140000Y-137750000D03*
X228410000Y-137750000D03*
X229680000Y-137750000D03*
X230950000Y-137750000D03*
X232220000Y-137750000D03*
X233490000Y-137750000D03*
X234760000Y-137750000D03*
X236030000Y-137750000D03*
X237300000Y-137750000D03*
X238570000Y-137750000D03*
X239840000Y-137750000D03*
X241110000Y-137750000D03*
%TD*%
D13*
%TO.C,C29*%
X212300000Y-104300000D03*
X210750000Y-104300000D03*
%TD*%
D78*
%TO.C,D5*%
X245700000Y-74800000D03*
X243825000Y-74800000D03*
%TD*%
D10*
%TO.C,R2*%
X64150000Y-137950000D03*
X65800000Y-137950000D03*
%TD*%
D79*
%TO.C,U6*%
X219880000Y-117680000D03*
X219880000Y-116600000D03*
X219880000Y-115520000D03*
X218800000Y-117680000D03*
X218800000Y-116600000D03*
X218800000Y-115520000D03*
X217720000Y-117680000D03*
X217720000Y-116600000D03*
X217720000Y-115520000D03*
D80*
X221200000Y-118100000D03*
X221200000Y-117600000D03*
X221200000Y-117100000D03*
X221200000Y-116600000D03*
X221200000Y-116100000D03*
X221200000Y-115600000D03*
X221200000Y-115100000D03*
D81*
X220300000Y-114200000D03*
X219800000Y-114200000D03*
X219300000Y-114200000D03*
X218800000Y-114200000D03*
X218300000Y-114200000D03*
X217800000Y-114200000D03*
X217300000Y-114200000D03*
D80*
X216400000Y-115100000D03*
X216400000Y-115600000D03*
X216400000Y-116100000D03*
X216400000Y-116600000D03*
X216400000Y-117100000D03*
X216400000Y-117600000D03*
X216400000Y-118100000D03*
D81*
X217300000Y-119000000D03*
X217800000Y-119000000D03*
X218300000Y-119000000D03*
X218800000Y-119000000D03*
X219300000Y-119000000D03*
X219800000Y-119000000D03*
X220300000Y-119000000D03*
%TD*%
D15*
%TO.C,C33*%
X240800000Y-77350000D03*
X242700000Y-77350000D03*
%TD*%
D82*
%TO.C,J4*%
X239899999Y-58699814D03*
X239400000Y-58699814D03*
X238899999Y-58699814D03*
X238400000Y-58699814D03*
X237899998Y-58699814D03*
X237399999Y-58699814D03*
X236400001Y-58699900D03*
X235899999Y-58699900D03*
X235400000Y-58699900D03*
X234899999Y-58699900D03*
X234400000Y-58699900D03*
X233900001Y-58699900D03*
D83*
X233850001Y-57349901D03*
D82*
X234649999Y-57349901D03*
X235150001Y-57349901D03*
X235650000Y-57349901D03*
X236149999Y-57349901D03*
X236650000Y-57349901D03*
X237149999Y-57349901D03*
X237650001Y-57349901D03*
X238150000Y-57349901D03*
X238649999Y-57349901D03*
X239150001Y-57349901D03*
D83*
X239949999Y-57349901D03*
%TD*%
D23*
%TO.C,R39*%
X158962500Y-48950000D03*
X157312500Y-48950000D03*
%TD*%
D84*
%TO.C,R82*%
X128925000Y-69400000D03*
X126000000Y-69400000D03*
%TD*%
D10*
%TO.C,R40*%
X149712500Y-48050000D03*
X151362500Y-48050000D03*
%TD*%
D85*
%TO.C,U10*%
X230362500Y-89075000D03*
X230362500Y-88425000D03*
X230362500Y-87775000D03*
X230362500Y-87125000D03*
X230362500Y-86475000D03*
X230362500Y-85825000D03*
X230362500Y-85175000D03*
X230362500Y-84525000D03*
X230362500Y-83875000D03*
X230362500Y-83225000D03*
X230362500Y-82575000D03*
X230362500Y-81925000D03*
X224637500Y-81925000D03*
X224637500Y-82575000D03*
X224637500Y-83225000D03*
X224637500Y-83875000D03*
X224637500Y-84525000D03*
X224637500Y-85175000D03*
X224637500Y-85825000D03*
X224637500Y-86475000D03*
X224637500Y-87125000D03*
X224637500Y-87775000D03*
X224637500Y-88425000D03*
X224637500Y-89075000D03*
%TD*%
D19*
%TO.C,D1*%
X69500000Y-144450000D03*
X73500000Y-144450000D03*
%TD*%
D15*
%TO.C,C57*%
X122250000Y-59500000D03*
X124150000Y-59500000D03*
%TD*%
D23*
%TO.C,R60*%
X191215000Y-122765000D03*
X189565000Y-122765000D03*
%TD*%
D27*
%TO.C,C46*%
X161500000Y-136325000D03*
X161500000Y-139275000D03*
%TD*%
D19*
%TO.C,D25*%
X129500000Y-56900000D03*
X133500000Y-56900000D03*
%TD*%
D22*
%TO.C,R7*%
X61237500Y-91800000D03*
X64162500Y-91800000D03*
%TD*%
D13*
%TO.C,C85*%
X214575000Y-60105000D03*
X213025000Y-60105000D03*
%TD*%
D86*
%TO.C,D6*%
X223250000Y-57250000D03*
X223250000Y-52950000D03*
%TD*%
D17*
%TO.C,C60*%
X114400000Y-83685000D03*
X114400000Y-85235000D03*
%TD*%
D87*
%TO.C,U16*%
X118172500Y-84470000D03*
X118172500Y-86050000D03*
X119752500Y-84470000D03*
X119752500Y-86050000D03*
D88*
X116600000Y-83960000D03*
X116600000Y-84610000D03*
X116600000Y-85260000D03*
X116600000Y-85910000D03*
X116600000Y-86560000D03*
D89*
X117662500Y-87622500D03*
X118312500Y-87622500D03*
X118962500Y-87622500D03*
X119612500Y-87622500D03*
X120262500Y-87622500D03*
D88*
X121325000Y-86560000D03*
X121325000Y-85910000D03*
X121325000Y-85260000D03*
X121325000Y-84610000D03*
X121325000Y-83960000D03*
D89*
X120262500Y-82897500D03*
X119612500Y-82897500D03*
X118962500Y-82897500D03*
X118312500Y-82897500D03*
X117662500Y-82897500D03*
%TD*%
D66*
%TO.C,D15*%
X237600000Y-61300000D03*
X239000000Y-61300000D03*
%TD*%
D17*
%TO.C,C8*%
X65300000Y-94150000D03*
X65300000Y-95700000D03*
%TD*%
D90*
%TO.C,D23*%
X168200000Y-61485583D03*
X168200000Y-57485583D03*
%TD*%
D17*
%TO.C,C3*%
X64200000Y-141275000D03*
X64200000Y-142825000D03*
%TD*%
D10*
%TO.C,R5*%
X65875000Y-136250000D03*
X67525000Y-136250000D03*
%TD*%
D13*
%TO.C,C83*%
X223375000Y-63700000D03*
X221825000Y-63700000D03*
%TD*%
D45*
%TO.C,C39*%
X187975000Y-108500000D03*
X185025000Y-108500000D03*
%TD*%
D10*
%TO.C,R88*%
X199275000Y-68300000D03*
X200925000Y-68300000D03*
%TD*%
D17*
%TO.C,C5*%
X113600000Y-118125000D03*
X113600000Y-119675000D03*
%TD*%
D35*
%TO.C,C74*%
X231670000Y-65580000D03*
X229770000Y-65580000D03*
%TD*%
D11*
%TO.C,R50*%
X225500000Y-106675000D03*
X225500000Y-108325000D03*
%TD*%
D12*
%TO.C,R66*%
X171100000Y-54410583D03*
X171100000Y-52760583D03*
%TD*%
D22*
%TO.C,R11*%
X109437500Y-109000000D03*
X112362500Y-109000000D03*
%TD*%
D91*
%TO.C,J6*%
X245873100Y-83370000D03*
X245873100Y-84470000D03*
X245873100Y-85570000D03*
X245873100Y-86670001D03*
X245873100Y-87770001D03*
X245873100Y-88870001D03*
X245873100Y-89970002D03*
X245873100Y-91070000D03*
D92*
X233408101Y-81580000D03*
D93*
X233333101Y-85845000D03*
D94*
X245858101Y-79490000D03*
D95*
X234608101Y-79270000D03*
X234608101Y-92230000D03*
D96*
X245373101Y-92150000D03*
%TD*%
D97*
%TO.C,R32*%
X210650000Y-42000000D03*
X213750000Y-42000000D03*
%TD*%
D23*
%TO.C,R91*%
X200900000Y-75300000D03*
X199250000Y-75300000D03*
%TD*%
D18*
%TO.C,U13*%
X165862500Y-136650000D03*
X165862500Y-137600000D03*
X165862500Y-138550000D03*
X168137500Y-138550000D03*
X168137500Y-136650000D03*
%TD*%
D98*
%TO.C,SW1*%
X237000000Y-107450000D03*
X237000000Y-111900000D03*
%TD*%
D35*
%TO.C,C34*%
X174150000Y-88625000D03*
X172250000Y-88625000D03*
%TD*%
D17*
%TO.C,C51*%
X114700000Y-134325000D03*
X114700000Y-135875000D03*
%TD*%
D27*
%TO.C,C9*%
X76800000Y-95100000D03*
X76800000Y-98050000D03*
%TD*%
D99*
%TO.C,Q4*%
X169150000Y-52548083D03*
X167250000Y-52548083D03*
X168200000Y-54423083D03*
%TD*%
D34*
%TO.C,C50*%
X125060000Y-136585000D03*
X125060000Y-134685000D03*
%TD*%
D11*
%TO.C,R46*%
X233500000Y-106675000D03*
X233500000Y-108325000D03*
%TD*%
D23*
%TO.C,R28*%
X216500000Y-50500000D03*
X214850000Y-50500000D03*
%TD*%
D11*
%TO.C,R8*%
X115300000Y-118075000D03*
X115300000Y-119725000D03*
%TD*%
D14*
%TO.C,C30*%
X231600000Y-79800000D03*
X231600000Y-78250000D03*
%TD*%
D17*
%TO.C,C80*%
X225000000Y-68500000D03*
X225000000Y-70050000D03*
%TD*%
%TO.C,C26*%
X217300000Y-101500000D03*
X217300000Y-103050000D03*
%TD*%
D28*
%TO.C,C17*%
X209225000Y-135100000D03*
X210775000Y-135100000D03*
%TD*%
D100*
%TO.C,U2*%
X69180000Y-94205000D03*
X69180000Y-95145000D03*
X70020000Y-94205000D03*
X70020000Y-95145000D03*
D101*
X67450000Y-93675000D03*
X67450000Y-94175000D03*
X67450000Y-94675000D03*
X67450000Y-95175000D03*
X67450000Y-95675000D03*
X71750000Y-95675000D03*
X71750000Y-95175000D03*
X71750000Y-94675000D03*
X71750000Y-94175000D03*
X71750000Y-93675000D03*
%TD*%
D21*
%TO.C,R12*%
X74300000Y-95100000D03*
X74300000Y-98025000D03*
%TD*%
D26*
%TO.C,D13*%
X230470000Y-55327500D03*
X230470000Y-56727500D03*
%TD*%
D21*
%TO.C,R84*%
X127500000Y-82597500D03*
X127500000Y-85522500D03*
%TD*%
D24*
%TO.C,D16*%
X241600000Y-61300000D03*
X240200000Y-61300000D03*
%TD*%
D10*
%TO.C,R95*%
X233430000Y-77280000D03*
X235080000Y-77280000D03*
%TD*%
D15*
%TO.C,C52*%
X117850000Y-134900000D03*
X119750000Y-134900000D03*
%TD*%
D98*
%TO.C,SW2*%
X240800000Y-107450000D03*
X240800000Y-111900000D03*
%TD*%
D27*
%TO.C,C10*%
X126700000Y-114225000D03*
X126700000Y-117175000D03*
%TD*%
D10*
%TO.C,R30*%
X214850000Y-48900000D03*
X216500000Y-48900000D03*
%TD*%
D23*
%TO.C,R31*%
X213350000Y-48900000D03*
X211700000Y-48900000D03*
%TD*%
%TO.C,R4*%
X65800000Y-139650000D03*
X64150000Y-139650000D03*
%TD*%
D84*
%TO.C,R57*%
X181862500Y-108500000D03*
X178937500Y-108500000D03*
%TD*%
D26*
%TO.C,D11*%
X243640000Y-53400000D03*
X243640000Y-54800000D03*
%TD*%
D13*
%TO.C,C32*%
X239200000Y-77600000D03*
X237650000Y-77600000D03*
%TD*%
D34*
%TO.C,C69*%
X210700000Y-71100000D03*
X210700000Y-69200000D03*
%TD*%
D22*
%TO.C,R1*%
X61237500Y-132650000D03*
X64162500Y-132650000D03*
%TD*%
D11*
%TO.C,R47*%
X229500000Y-106675000D03*
X229500000Y-108325000D03*
%TD*%
D28*
%TO.C,C14*%
X222700000Y-113800000D03*
X224250000Y-113800000D03*
%TD*%
D22*
%TO.C,R6*%
X125337500Y-119600000D03*
X128262500Y-119600000D03*
%TD*%
D28*
%TO.C,C56*%
X131425000Y-52400000D03*
X132975000Y-52400000D03*
%TD*%
%TO.C,C68*%
X123525000Y-84960000D03*
X125075000Y-84960000D03*
%TD*%
D102*
%TO.C,J5*%
X239150186Y-101749999D03*
X239150186Y-101250000D03*
X239150186Y-100749999D03*
X239150186Y-100250000D03*
X239150186Y-99749998D03*
X239150186Y-99249999D03*
X239150100Y-98250001D03*
X239150100Y-97749999D03*
X239150100Y-97250000D03*
X239150100Y-96749999D03*
X239150100Y-96250000D03*
X239150100Y-95750001D03*
D103*
X240500099Y-95700001D03*
D102*
X240500099Y-96499999D03*
X240500099Y-97000001D03*
X240500099Y-97500000D03*
X240500099Y-97999999D03*
X240500099Y-98500000D03*
X240500099Y-98999999D03*
X240500099Y-99500001D03*
X240500099Y-100000000D03*
X240500099Y-100499999D03*
X240500099Y-101000001D03*
D103*
X240500099Y-101799999D03*
%TD*%
D104*
%TO.C,U1*%
X68300000Y-138750000D03*
X68300000Y-139550000D03*
D105*
X67412500Y-138500000D03*
X67412500Y-139150000D03*
X67412500Y-139800000D03*
X69187500Y-139800000D03*
X69187500Y-139150000D03*
X69187500Y-138500000D03*
%TD*%
D25*
%TO.C,L4*%
X131050000Y-61700000D03*
X126950000Y-61700000D03*
%TD*%
D11*
%TO.C,R85*%
X112600000Y-83635000D03*
X112600000Y-85285000D03*
%TD*%
%TO.C,R38*%
X214100000Y-103750000D03*
X214100000Y-105400000D03*
%TD*%
D14*
%TO.C,C54*%
X121800000Y-54375000D03*
X121800000Y-52825000D03*
%TD*%
D23*
%TO.C,R81*%
X134625000Y-54200000D03*
X132975000Y-54200000D03*
%TD*%
D99*
%TO.C,Q5*%
X178150000Y-53110583D03*
X176250000Y-53110583D03*
X177200000Y-54985583D03*
%TD*%
D10*
%TO.C,R35*%
X212450000Y-98800000D03*
X214100000Y-98800000D03*
%TD*%
D106*
%TO.C,U17*%
X218280000Y-67470000D03*
X217250000Y-67470000D03*
X216220000Y-67470000D03*
X218280000Y-68500000D03*
X217250000Y-68500000D03*
X216220000Y-68500000D03*
X218280000Y-69530000D03*
X217250000Y-69530000D03*
X216220000Y-69530000D03*
D107*
X219000000Y-66062500D03*
X218500000Y-66062500D03*
X218000000Y-66062500D03*
X217500000Y-66062500D03*
X217000000Y-66062500D03*
X216500000Y-66062500D03*
X216000000Y-66062500D03*
X215500000Y-66062500D03*
D108*
X214812500Y-66750000D03*
X214812500Y-67250000D03*
X214812500Y-67750000D03*
X214812500Y-68250000D03*
X214812500Y-68750000D03*
X214812500Y-69250000D03*
X214812500Y-69750000D03*
X214812500Y-70250000D03*
D107*
X215500000Y-70937500D03*
X216000000Y-70937500D03*
X216500000Y-70937500D03*
X217000000Y-70937500D03*
X217500000Y-70937500D03*
X218000000Y-70937500D03*
X218500000Y-70937500D03*
X219000000Y-70937500D03*
D108*
X219687500Y-70250000D03*
X219687500Y-69750000D03*
X219687500Y-69250000D03*
X219687500Y-68750000D03*
X219687500Y-68250000D03*
X219687500Y-67750000D03*
X219687500Y-67250000D03*
X219687500Y-66750000D03*
%TD*%
D109*
%TO.C,L1*%
X72900000Y-137100000D03*
X72900000Y-141200000D03*
%TD*%
D86*
%TO.C,D19*%
X221000000Y-103500000D03*
X221000000Y-99200000D03*
%TD*%
D11*
%TO.C,R49*%
X223500000Y-106675000D03*
X223500000Y-108325000D03*
%TD*%
D110*
%TO.C,D22*%
X183600000Y-111800000D03*
X179600000Y-111800000D03*
%TD*%
D10*
%TO.C,R96*%
X211475000Y-67200000D03*
X213125000Y-67200000D03*
%TD*%
D11*
%TO.C,R86*%
X110800000Y-85335000D03*
X110800000Y-86985000D03*
%TD*%
%TO.C,R89*%
X200800000Y-76975000D03*
X200800000Y-78625000D03*
%TD*%
D21*
%TO.C,R64*%
X167400000Y-47423083D03*
X167400000Y-50348083D03*
%TD*%
D11*
%TO.C,R78*%
X121800000Y-55975000D03*
X121800000Y-57625000D03*
%TD*%
D17*
%TO.C,C28*%
X215700000Y-103800000D03*
X215700000Y-105350000D03*
%TD*%
D38*
%TO.C,Q6*%
X202862500Y-68250000D03*
X202862500Y-70150000D03*
X204737500Y-69200000D03*
%TD*%
D34*
%TO.C,C25*%
X217500000Y-99900000D03*
X217500000Y-98000000D03*
%TD*%
D11*
%TO.C,R68*%
X179850000Y-54585583D03*
X179850000Y-56235583D03*
%TD*%
D28*
%TO.C,C67*%
X123425000Y-53300000D03*
X124975000Y-53300000D03*
%TD*%
D17*
%TO.C,C24*%
X213300000Y-56050000D03*
X213300000Y-57600000D03*
%TD*%
D15*
%TO.C,C58*%
X123150000Y-81360000D03*
X125050000Y-81360000D03*
%TD*%
D45*
%TO.C,C64*%
X131975000Y-66700000D03*
X129025000Y-66700000D03*
%TD*%
D111*
%TO.C,D4*%
X215825000Y-134400000D03*
X217400000Y-134400000D03*
%TD*%
D39*
%TO.C,U9*%
X215500000Y-100500000D03*
D40*
X215025000Y-100550000D03*
X214575000Y-100550000D03*
D41*
X214100000Y-100550000D03*
D42*
X214800000Y-101100000D03*
X214800000Y-101600000D03*
D43*
X214100000Y-102150000D03*
D40*
X214574999Y-102150000D03*
X215025000Y-102150000D03*
D44*
X215500000Y-102150000D03*
%TD*%
D112*
%TO.C,U12*%
X178125000Y-117595000D03*
X178125000Y-118865000D03*
X178125000Y-120135000D03*
X178125000Y-121405000D03*
X183075000Y-121405000D03*
X183075000Y-120135000D03*
X183075000Y-118865000D03*
X183075000Y-117595000D03*
%TD*%
D10*
%TO.C,R24*%
X217050000Y-140500000D03*
X218700000Y-140500000D03*
%TD*%
D17*
%TO.C,C42*%
X174900000Y-121385583D03*
X174900000Y-122935583D03*
%TD*%
D14*
%TO.C,C81*%
X218440000Y-62500000D03*
X218440000Y-60950000D03*
%TD*%
D17*
%TO.C,C47*%
X163600000Y-136500000D03*
X163600000Y-138050000D03*
%TD*%
D14*
%TO.C,C41*%
X186000000Y-121175000D03*
X186000000Y-119625000D03*
%TD*%
D74*
%TO.C,C2*%
X66400000Y-144825000D03*
X66400000Y-141875000D03*
%TD*%
D10*
%TO.C,R65*%
X172925000Y-52910583D03*
X174575000Y-52910583D03*
%TD*%
D11*
%TO.C,R55*%
X171502930Y-92147004D03*
X171502930Y-93797004D03*
%TD*%
D68*
%TO.C,C22*%
X211100000Y-53600000D03*
X211100000Y-55500000D03*
%TD*%
D14*
%TO.C,C43*%
X176000000Y-90800000D03*
X176000000Y-89250000D03*
%TD*%
D22*
%TO.C,R54*%
X164737500Y-119300000D03*
X167662500Y-119300000D03*
%TD*%
%TO.C,R52*%
X165537500Y-86625000D03*
X168462500Y-86625000D03*
%TD*%
D38*
%TO.C,Q3*%
X153300000Y-48000000D03*
X153300000Y-49900000D03*
X155175000Y-48950000D03*
%TD*%
D14*
%TO.C,C15*%
X225250000Y-142500000D03*
X225250000Y-140950000D03*
%TD*%
D12*
%TO.C,R61*%
X187550000Y-121225000D03*
X187550000Y-119575000D03*
%TD*%
D17*
%TO.C,C70*%
X212500000Y-69600000D03*
X212500000Y-71150000D03*
%TD*%
D13*
%TO.C,C79*%
X213075000Y-65500000D03*
X211525000Y-65500000D03*
%TD*%
D28*
%TO.C,C78*%
X221900000Y-68850000D03*
X223450000Y-68850000D03*
%TD*%
%TO.C,C76*%
X221825000Y-70400000D03*
X223375000Y-70400000D03*
%TD*%
%TO.C,C77*%
X221825000Y-72100000D03*
X223375000Y-72100000D03*
%TD*%
D13*
%TO.C,C72*%
X226740000Y-71770000D03*
X225190000Y-71770000D03*
%TD*%
D15*
%TO.C,C71*%
X224900000Y-73550000D03*
X226800000Y-73550000D03*
%TD*%
D26*
%TO.C,D17*%
X228330000Y-52385000D03*
X228330000Y-53785000D03*
%TD*%
D32*
%TO.C,D18*%
X228330000Y-56385000D03*
X228330000Y-54985000D03*
%TD*%
M02*
