ISO-10303-21;
HEADER;
FILE_DESCRIPTION(('FreeCAD Model'),'2;1');
FILE_NAME('Open CASCADE Shape Model','2026-02-11T09:39:49',(''),(''),
  'Open CASCADE STEP processor 7.8','FreeCAD','Unknown');
FILE_SCHEMA(('AUTOMOTIVE_DESIGN { 1 0 10303 214 1 1 1 1 }'));
ENDSEC;
DATA;
#1 = APPLICATION_PROTOCOL_DEFINITION('international standard',
  'automotive_design',2000,#2);
#2 = APPLICATION_CONTEXT(
  'core data for automotive mechanical design processes');
#3 = SHAPE_DEFINITION_REPRESENTATION(#4,#10);
#4 = PRODUCT_DEFINITION_SHAPE('','',#5);
#5 = PRODUCT_DEFINITION('design','',#6,#9);
#6 = PRODUCT_DEFINITION_FORMATION('','',#7);
#7 = PRODUCT('Unnamed','Unnamed','',(#8));
#8 = PRODUCT_CONTEXT('',#2,'mechanical');
#9 = PRODUCT_DEFINITION_CONTEXT('part definition',#2,'design');
#10 = SHAPE_REPRESENTATION('',(#11,#15,#19),#23);
#11 = AXIS2_PLACEMENT_3D('',#12,#13,#14);
#12 = CARTESIAN_POINT('',(0.,0.,0.));
#13 = DIRECTION('',(0.,0.,1.));
#14 = DIRECTION('',(1.,0.,-0.));
#15 = AXIS2_PLACEMENT_3D('',#16,#17,#18);
#16 = CARTESIAN_POINT('',(0.,0.,0.));
#17 = DIRECTION('',(0.,0.,1.));
#18 = DIRECTION('',(1.,0.,0.));
#19 = AXIS2_PLACEMENT_3D('',#20,#21,#22);
#20 = CARTESIAN_POINT('',(0.,0.,0.));
#21 = DIRECTION('',(0.,0.,1.));
#22 = DIRECTION('',(1.,0.,0.));
#23 = ( GEOMETRIC_REPRESENTATION_CONTEXT(3) 
GLOBAL_UNCERTAINTY_ASSIGNED_CONTEXT((#27)) GLOBAL_UNIT_ASSIGNED_CONTEXT(
(#24,#25,#26)) REPRESENTATION_CONTEXT('Context #1',
  '3D Context with UNIT and UNCERTAINTY') );
#24 = ( LENGTH_UNIT() NAMED_UNIT(*) SI_UNIT(.MILLI.,.METRE.) );
#25 = ( NAMED_UNIT(*) PLANE_ANGLE_UNIT() SI_UNIT($,.RADIAN.) );
#26 = ( NAMED_UNIT(*) SI_UNIT($,.STERADIAN.) SOLID_ANGLE_UNIT() );
#27 = UNCERTAINTY_MEASURE_WITH_UNIT(LENGTH_MEASURE(1.E-05),#24,
  'distance_accuracy_value','confusion accuracy');
#28 = PRODUCT_RELATED_PRODUCT_CATEGORY('part',$,(#7));
#29 = SHAPE_DEFINITION_REPRESENTATION(#30,#36);
#30 = PRODUCT_DEFINITION_SHAPE('','',#31);
#31 = PRODUCT_DEFINITION('design','',#32,#35);
#32 = PRODUCT_DEFINITION_FORMATION('','',#33);
#33 = PRODUCT('Pad','Pad','',(#34));
#34 = PRODUCT_CONTEXT('',#2,'mechanical');
#35 = PRODUCT_DEFINITION_CONTEXT('part definition',#2,'design');
#36 = ADVANCED_BREP_SHAPE_REPRESENTATION('',(#11,#37),#90);
#37 = MANIFOLD_SOLID_BREP('',#38);
#38 = CLOSED_SHELL('',(#39,#72,#81));
#39 = ADVANCED_FACE('',(#40),#67,.T.);
#40 = FACE_BOUND('',#41,.F.);
#41 = EDGE_LOOP('',(#42,#52,#59,#60));
#42 = ORIENTED_EDGE('',*,*,#43,.T.);
#43 = EDGE_CURVE('',#44,#46,#48,.T.);
#44 = VERTEX_POINT('',#45);
#45 = CARTESIAN_POINT('',(0.9,0.,2.007));
#46 = VERTEX_POINT('',#47);
#47 = CARTESIAN_POINT('',(0.9,0.,2.507));
#48 = LINE('',#49,#50);
#49 = CARTESIAN_POINT('',(0.9,0.,2.007));
#50 = VECTOR('',#51,1.);
#51 = DIRECTION('',(0.,0.,1.));
#52 = ORIENTED_EDGE('',*,*,#53,.T.);
#53 = EDGE_CURVE('',#46,#46,#54,.T.);
#54 = CIRCLE('',#55,0.9);
#55 = AXIS2_PLACEMENT_3D('',#56,#57,#58);
#56 = CARTESIAN_POINT('',(0.,0.,2.507));
#57 = DIRECTION('',(0.,0.,1.));
#58 = DIRECTION('',(1.,0.,0.));
#59 = ORIENTED_EDGE('',*,*,#43,.F.);
#60 = ORIENTED_EDGE('',*,*,#61,.F.);
#61 = EDGE_CURVE('',#44,#44,#62,.T.);
#62 = CIRCLE('',#63,0.9);
#63 = AXIS2_PLACEMENT_3D('',#64,#65,#66);
#64 = CARTESIAN_POINT('',(0.,0.,2.007));
#65 = DIRECTION('',(0.,0.,1.));
#66 = DIRECTION('',(1.,0.,0.));
#67 = CYLINDRICAL_SURFACE('',#68,0.9);
#68 = AXIS2_PLACEMENT_3D('',#69,#70,#71);
#69 = CARTESIAN_POINT('',(0.,0.,2.007));
#70 = DIRECTION('',(-0.,-0.,-1.));
#71 = DIRECTION('',(1.,0.,0.));
#72 = ADVANCED_FACE('',(#73),#76,.F.);
#73 = FACE_BOUND('',#74,.F.);
#74 = EDGE_LOOP('',(#75));
#75 = ORIENTED_EDGE('',*,*,#61,.T.);
#76 = PLANE('',#77);
#77 = AXIS2_PLACEMENT_3D('',#78,#79,#80);
#78 = CARTESIAN_POINT('',(-4.748056015762E-17,5.822171634082E-17,2.007)
  );
#79 = DIRECTION('',(0.,0.,1.));
#80 = DIRECTION('',(1.,0.,0.));
#81 = ADVANCED_FACE('',(#82),#85,.T.);
#82 = FACE_BOUND('',#83,.T.);
#83 = EDGE_LOOP('',(#84));
#84 = ORIENTED_EDGE('',*,*,#53,.T.);
#85 = PLANE('',#86);
#86 = AXIS2_PLACEMENT_3D('',#87,#88,#89);
#87 = CARTESIAN_POINT('',(-4.748056015762E-17,5.822171634082E-17,2.507)
  );
#88 = DIRECTION('',(0.,0.,1.));
#89 = DIRECTION('',(1.,0.,0.));
#90 = ( GEOMETRIC_REPRESENTATION_CONTEXT(3) 
GLOBAL_UNCERTAINTY_ASSIGNED_CONTEXT((#94)) GLOBAL_UNIT_ASSIGNED_CONTEXT(
(#91,#92,#93)) REPRESENTATION_CONTEXT('Context #1',
  '3D Context with UNIT and UNCERTAINTY') );
#91 = ( LENGTH_UNIT() NAMED_UNIT(*) SI_UNIT(.MILLI.,.METRE.) );
#92 = ( NAMED_UNIT(*) PLANE_ANGLE_UNIT() SI_UNIT($,.RADIAN.) );
#93 = ( NAMED_UNIT(*) SI_UNIT($,.STERADIAN.) SOLID_ANGLE_UNIT() );
#94 = UNCERTAINTY_MEASURE_WITH_UNIT(LENGTH_MEASURE(1.E-07),#91,
  'distance_accuracy_value','confusion accuracy');
#95 = CONTEXT_DEPENDENT_SHAPE_REPRESENTATION(#96,#98);
#96 = ( REPRESENTATION_RELATIONSHIP('','',#36,#10) 
REPRESENTATION_RELATIONSHIP_WITH_TRANSFORMATION(#97) 
SHAPE_REPRESENTATION_RELATIONSHIP() );
#97 = ITEM_DEFINED_TRANSFORMATION('','',#11,#15);
#98 = PRODUCT_DEFINITION_SHAPE('Placement','Placement of an item',#99);
#99 = NEXT_ASSEMBLY_USAGE_OCCURRENCE('1','Pad','',#5,#31,$);
#100 = PRODUCT_RELATED_PRODUCT_CATEGORY('part',$,(#33));
#101 = SHAPE_DEFINITION_REPRESENTATION(#102,#108);
#102 = PRODUCT_DEFINITION_SHAPE('','',#103);
#103 = PRODUCT_DEFINITION('design','',#104,#107);
#104 = PRODUCT_DEFINITION_FORMATION('','',#105);
#105 = PRODUCT('part004','part004','',(#106));
#106 = PRODUCT_CONTEXT('',#2,'mechanical');
#107 = PRODUCT_DEFINITION_CONTEXT('part definition',#2,'design');
#108 = SHAPE_REPRESENTATION('',(#11,#109,#113,#117,#121),#125);
#109 = AXIS2_PLACEMENT_3D('',#110,#111,#112);
#110 = CARTESIAN_POINT('',(0.,0.,0.));
#111 = DIRECTION('',(0.,0.,1.));
#112 = DIRECTION('',(1.,0.,0.));
#113 = AXIS2_PLACEMENT_3D('',#114,#115,#116);
#114 = CARTESIAN_POINT('',(0.,0.,0.));
#115 = DIRECTION('',(0.,0.,1.));
#116 = DIRECTION('',(1.,0.,0.));
#117 = AXIS2_PLACEMENT_3D('',#118,#119,#120);
#118 = CARTESIAN_POINT('',(0.,0.,0.));
#119 = DIRECTION('',(0.,0.,1.));
#120 = DIRECTION('',(1.,0.,0.));
#121 = AXIS2_PLACEMENT_3D('',#122,#123,#124);
#122 = CARTESIAN_POINT('',(0.,0.,0.));
#123 = DIRECTION('',(0.,0.,1.));
#124 = DIRECTION('',(1.,0.,0.));
#125 = ( GEOMETRIC_REPRESENTATION_CONTEXT(3) 
GLOBAL_UNCERTAINTY_ASSIGNED_CONTEXT((#129)) GLOBAL_UNIT_ASSIGNED_CONTEXT
((#126,#127,#128)) REPRESENTATION_CONTEXT('Context #1',
  '3D Context with UNIT and UNCERTAINTY') );
#126 = ( LENGTH_UNIT() NAMED_UNIT(*) SI_UNIT(.MILLI.,.METRE.) );
#127 = ( NAMED_UNIT(*) PLANE_ANGLE_UNIT() SI_UNIT($,.RADIAN.) );
#128 = ( NAMED_UNIT(*) SI_UNIT($,.STERADIAN.) SOLID_ANGLE_UNIT() );
#129 = UNCERTAINTY_MEASURE_WITH_UNIT(LENGTH_MEASURE(1.E-05),#126,
  'distance_accuracy_value','confusion accuracy');
#130 = CONTEXT_DEPENDENT_SHAPE_REPRESENTATION(#131,#133);
#131 = ( REPRESENTATION_RELATIONSHIP('','',#108,#10) 
REPRESENTATION_RELATIONSHIP_WITH_TRANSFORMATION(#132) 
SHAPE_REPRESENTATION_RELATIONSHIP() );
#132 = ITEM_DEFINED_TRANSFORMATION('','',#11,#19);
#133 = PRODUCT_DEFINITION_SHAPE('Placement','Placement of an item',#134
  );
#134 = NEXT_ASSEMBLY_USAGE_OCCURRENCE('6','part004','',#5,#103,$);
#135 = PRODUCT_RELATED_PRODUCT_CATEGORY('part',$,(#105));
#136 = SHAPE_DEFINITION_REPRESENTATION(#137,#143);
#137 = PRODUCT_DEFINITION_SHAPE('','',#138);
#138 = PRODUCT_DEFINITION('design','',#139,#142);
#139 = PRODUCT_DEFINITION_FORMATION('','',#140);
#140 = PRODUCT('part','part','',(#141));
#141 = PRODUCT_CONTEXT('',#2,'mechanical');
#142 = PRODUCT_DEFINITION_CONTEXT('part definition',#2,'design');
#143 = ADVANCED_BREP_SHAPE_REPRESENTATION('',(#11,#144),#196);
#144 = MANIFOLD_SOLID_BREP('',#145);
#145 = CLOSED_SHELL('',(#146,#178,#187));
#146 = ADVANCED_FACE('',(#147),#173,.T.);
#147 = FACE_BOUND('',#148,.T.);
#148 = EDGE_LOOP('',(#149,#158,#165,#172));
#149 = ORIENTED_EDGE('',*,*,#150,.F.);
#150 = EDGE_CURVE('',#151,#151,#153,.T.);
#151 = VERTEX_POINT('',#152);
#152 = CARTESIAN_POINT('',(-1.695,0.,2.009));
#153 = CIRCLE('',#154,9.9695E-02);
#154 = AXIS2_PLACEMENT_3D('',#155,#156,#157);
#155 = CARTESIAN_POINT('',(-1.595,0.,2.009));
#156 = DIRECTION('',(0.,0.,1.));
#157 = DIRECTION('',(1.,0.,-0.));
#158 = ORIENTED_EDGE('',*,*,#159,.F.);
#159 = EDGE_CURVE('',#160,#151,#162,.T.);
#160 = VERTEX_POINT('',#161);
#161 = CARTESIAN_POINT('',(-1.695,0.,2.007));
#162 = B_SPLINE_CURVE_WITH_KNOTS('',1,(#163,#164),.UNSPECIFIED.,.F.,.F.,
  (2,2),(0.,2.E-03),.PIECEWISE_BEZIER_KNOTS.);
#163 = CARTESIAN_POINT('',(-1.694695,3.66273487923E-17,2.007));
#164 = CARTESIAN_POINT('',(-1.694695,3.66273487923E-17,2.009));
#165 = ORIENTED_EDGE('',*,*,#166,.F.);
#166 = EDGE_CURVE('',#160,#160,#167,.T.);
#167 = CIRCLE('',#168,9.9695E-02);
#168 = AXIS2_PLACEMENT_3D('',#169,#170,#171);
#169 = CARTESIAN_POINT('',(-1.595,0.,2.007));
#170 = DIRECTION('',(0.,0.,-1.));
#171 = DIRECTION('',(1.,0.,0.));
#172 = ORIENTED_EDGE('',*,*,#159,.T.);
#173 = CYLINDRICAL_SURFACE('',#174,9.9695E-02);
#174 = AXIS2_PLACEMENT_3D('',#175,#176,#177);
#175 = CARTESIAN_POINT('',(-1.595,0.,2.007));
#176 = DIRECTION('',(0.,0.,1.));
#177 = DIRECTION('',(1.,0.,-0.));
#178 = ADVANCED_FACE('',(#179),#182,.F.);
#179 = FACE_BOUND('',#180,.T.);
#180 = EDGE_LOOP('',(#181));
#181 = ORIENTED_EDGE('',*,*,#166,.T.);
#182 = PLANE('',#183);
#183 = AXIS2_PLACEMENT_3D('',#184,#185,#186);
#184 = CARTESIAN_POINT('',(-1.595,0.,2.007));
#185 = DIRECTION('',(0.,0.,1.));
#186 = DIRECTION('',(0.,1.,0.));
#187 = ADVANCED_FACE('',(#188),#191,.T.);
#188 = FACE_BOUND('',#189,.T.);
#189 = EDGE_LOOP('',(#190));
#190 = ORIENTED_EDGE('',*,*,#150,.T.);
#191 = PLANE('',#192);
#192 = AXIS2_PLACEMENT_3D('',#193,#194,#195);
#193 = CARTESIAN_POINT('',(-1.595,0.,2.009));
#194 = DIRECTION('',(0.,0.,1.));
#195 = DIRECTION('',(0.,1.,0.));
#196 = ( GEOMETRIC_REPRESENTATION_CONTEXT(3) 
GLOBAL_UNCERTAINTY_ASSIGNED_CONTEXT((#200)) GLOBAL_UNIT_ASSIGNED_CONTEXT
((#197,#198,#199)) REPRESENTATION_CONTEXT('Context #1',
  '3D Context with UNIT and UNCERTAINTY') );
#197 = ( LENGTH_UNIT() NAMED_UNIT(*) SI_UNIT(.MILLI.,.METRE.) );
#198 = ( NAMED_UNIT(*) PLANE_ANGLE_UNIT() SI_UNIT($,.RADIAN.) );
#199 = ( NAMED_UNIT(*) SI_UNIT($,.STERADIAN.) SOLID_ANGLE_UNIT() );
#200 = UNCERTAINTY_MEASURE_WITH_UNIT(LENGTH_MEASURE(2.E-04),#197,
  'distance_accuracy_value','confusion accuracy');
#201 = CONTEXT_DEPENDENT_SHAPE_REPRESENTATION(#202,#204);
#202 = ( REPRESENTATION_RELATIONSHIP('','',#143,#108) 
REPRESENTATION_RELATIONSHIP_WITH_TRANSFORMATION(#203) 
SHAPE_REPRESENTATION_RELATIONSHIP() );
#203 = ITEM_DEFINED_TRANSFORMATION('','',#11,#109);
#204 = PRODUCT_DEFINITION_SHAPE('Placement','Placement of an item',#205
  );
#205 = NEXT_ASSEMBLY_USAGE_OCCURRENCE('2','part','',#103,#138,$);
#206 = PRODUCT_RELATED_PRODUCT_CATEGORY('part',$,(#140));
#207 = SHAPE_DEFINITION_REPRESENTATION(#208,#214);
#208 = PRODUCT_DEFINITION_SHAPE('','',#209);
#209 = PRODUCT_DEFINITION('design','',#210,#213);
#210 = PRODUCT_DEFINITION_FORMATION('','',#211);
#211 = PRODUCT('part001','part001','',(#212));
#212 = PRODUCT_CONTEXT('',#2,'mechanical');
#213 = PRODUCT_DEFINITION_CONTEXT('part definition',#2,'design');
#214 = ADVANCED_BREP_SHAPE_REPRESENTATION('',(#11,#215),#365);
#215 = MANIFOLD_SOLID_BREP('',#216);
#216 = CLOSED_SHELL('',(#217,#257,#288,#319,#341,#353));
#217 = ADVANCED_FACE('',(#218),#252,.T.);
#218 = FACE_BOUND('',#219,.T.);
#219 = EDGE_LOOP('',(#220,#230,#238,#246));
#220 = ORIENTED_EDGE('',*,*,#221,.F.);
#221 = EDGE_CURVE('',#222,#224,#226,.T.);
#222 = VERTEX_POINT('',#223);
#223 = CARTESIAN_POINT('',(1.994,-1.448,5.1E-02));
#224 = VERTEX_POINT('',#225);
#225 = CARTESIAN_POINT('',(-1.994,-1.448,5.1E-02));
#226 = LINE('',#227,#228);
#227 = CARTESIAN_POINT('',(1.994,-1.448,5.1E-02));
#228 = VECTOR('',#229,1.);
#229 = DIRECTION('',(-1.,0.,0.));
#230 = ORIENTED_EDGE('',*,*,#231,.F.);
#231 = EDGE_CURVE('',#232,#222,#234,.T.);
#232 = VERTEX_POINT('',#233);
#233 = CARTESIAN_POINT('',(1.994,-1.448,2.007));
#234 = LINE('',#235,#236);
#235 = CARTESIAN_POINT('',(1.994,-1.448,2.007));
#236 = VECTOR('',#237,1.);
#237 = DIRECTION('',(0.,0.,-1.));
#238 = ORIENTED_EDGE('',*,*,#239,.F.);
#239 = EDGE_CURVE('',#240,#232,#242,.T.);
#240 = VERTEX_POINT('',#241);
#241 = CARTESIAN_POINT('',(-1.994,-1.448,2.007));
#242 = LINE('',#243,#244);
#243 = CARTESIAN_POINT('',(-1.994,-1.448,2.007));
#244 = VECTOR('',#245,1.);
#245 = DIRECTION('',(1.,0.,0.));
#246 = ORIENTED_EDGE('',*,*,#247,.F.);
#247 = EDGE_CURVE('',#224,#240,#248,.T.);
#248 = LINE('',#249,#250);
#249 = CARTESIAN_POINT('',(-1.994,-1.448,5.1E-02));
#250 = VECTOR('',#251,1.);
#251 = DIRECTION('',(0.,0.,1.));
#252 = PLANE('',#253);
#253 = AXIS2_PLACEMENT_3D('',#254,#255,#256);
#254 = CARTESIAN_POINT('',(-1.994,-1.448,5.1E-02));
#255 = DIRECTION('',(0.,-1.,0.));
#256 = DIRECTION('',(0.,0.,1.));
#257 = ADVANCED_FACE('',(#258),#283,.T.);
#258 = FACE_BOUND('',#259,.T.);
#259 = EDGE_LOOP('',(#260,#268,#276,#282));
#260 = ORIENTED_EDGE('',*,*,#261,.F.);
#261 = EDGE_CURVE('',#262,#222,#264,.T.);
#262 = VERTEX_POINT('',#263);
#263 = CARTESIAN_POINT('',(1.994,1.448,5.1E-02));
#264 = LINE('',#265,#266);
#265 = CARTESIAN_POINT('',(1.994,1.448,5.1E-02));
#266 = VECTOR('',#267,1.);
#267 = DIRECTION('',(0.,-1.,0.));
#268 = ORIENTED_EDGE('',*,*,#269,.F.);
#269 = EDGE_CURVE('',#270,#262,#272,.T.);
#270 = VERTEX_POINT('',#271);
#271 = CARTESIAN_POINT('',(1.994,1.448,2.007));
#272 = LINE('',#273,#274);
#273 = CARTESIAN_POINT('',(1.994,1.448,2.007));
#274 = VECTOR('',#275,1.);
#275 = DIRECTION('',(0.,0.,-1.));
#276 = ORIENTED_EDGE('',*,*,#277,.F.);
#277 = EDGE_CURVE('',#232,#270,#278,.T.);
#278 = LINE('',#279,#280);
#279 = CARTESIAN_POINT('',(1.994,-1.448,2.007));
#280 = VECTOR('',#281,1.);
#281 = DIRECTION('',(0.,1.,0.));
#282 = ORIENTED_EDGE('',*,*,#231,.T.);
#283 = PLANE('',#284);
#284 = AXIS2_PLACEMENT_3D('',#285,#286,#287);
#285 = CARTESIAN_POINT('',(1.994,-1.448,5.1E-02));
#286 = DIRECTION('',(1.,0.,0.));
#287 = DIRECTION('',(0.,0.,1.));
#288 = ADVANCED_FACE('',(#289),#314,.T.);
#289 = FACE_BOUND('',#290,.T.);
#290 = EDGE_LOOP('',(#291,#299,#307,#313));
#291 = ORIENTED_EDGE('',*,*,#292,.F.);
#292 = EDGE_CURVE('',#293,#262,#295,.T.);
#293 = VERTEX_POINT('',#294);
#294 = CARTESIAN_POINT('',(-1.994,1.448,5.1E-02));
#295 = LINE('',#296,#297);
#296 = CARTESIAN_POINT('',(-1.994,1.448,5.1E-02));
#297 = VECTOR('',#298,1.);
#298 = DIRECTION('',(1.,0.,0.));
#299 = ORIENTED_EDGE('',*,*,#300,.F.);
#300 = EDGE_CURVE('',#301,#293,#303,.T.);
#301 = VERTEX_POINT('',#302);
#302 = CARTESIAN_POINT('',(-1.994,1.448,2.007));
#303 = LINE('',#304,#305);
#304 = CARTESIAN_POINT('',(-1.994,1.448,2.007));
#305 = VECTOR('',#306,1.);
#306 = DIRECTION('',(0.,0.,-1.));
#307 = ORIENTED_EDGE('',*,*,#308,.F.);
#308 = EDGE_CURVE('',#270,#301,#309,.T.);
#309 = LINE('',#310,#311);
#310 = CARTESIAN_POINT('',(1.994,1.448,2.007));
#311 = VECTOR('',#312,1.);
#312 = DIRECTION('',(-1.,0.,0.));
#313 = ORIENTED_EDGE('',*,*,#269,.T.);
#314 = PLANE('',#315);
#315 = AXIS2_PLACEMENT_3D('',#316,#317,#318);
#316 = CARTESIAN_POINT('',(1.994,1.448,5.1E-02));
#317 = DIRECTION('',(0.,1.,0.));
#318 = DIRECTION('',(0.,-0.,1.));
#319 = ADVANCED_FACE('',(#320),#336,.T.);
#320 = FACE_BOUND('',#321,.T.);
#321 = EDGE_LOOP('',(#322,#328,#329,#335));
#322 = ORIENTED_EDGE('',*,*,#323,.F.);
#323 = EDGE_CURVE('',#224,#293,#324,.T.);
#324 = LINE('',#325,#326);
#325 = CARTESIAN_POINT('',(-1.994,-1.448,5.1E-02));
#326 = VECTOR('',#327,1.);
#327 = DIRECTION('',(0.,1.,0.));
#328 = ORIENTED_EDGE('',*,*,#247,.T.);
#329 = ORIENTED_EDGE('',*,*,#330,.F.);
#330 = EDGE_CURVE('',#301,#240,#331,.T.);
#331 = LINE('',#332,#333);
#332 = CARTESIAN_POINT('',(-1.994,1.448,2.007));
#333 = VECTOR('',#334,1.);
#334 = DIRECTION('',(0.,-1.,0.));
#335 = ORIENTED_EDGE('',*,*,#300,.T.);
#336 = PLANE('',#337);
#337 = AXIS2_PLACEMENT_3D('',#338,#339,#340);
#338 = CARTESIAN_POINT('',(-1.994,1.448,5.1E-02));
#339 = DIRECTION('',(-1.,0.,0.));
#340 = DIRECTION('',(0.,0.,1.));
#341 = ADVANCED_FACE('',(#342),#348,.T.);
#342 = FACE_BOUND('',#343,.T.);
#343 = EDGE_LOOP('',(#344,#345,#346,#347));
#344 = ORIENTED_EDGE('',*,*,#292,.T.);
#345 = ORIENTED_EDGE('',*,*,#261,.T.);
#346 = ORIENTED_EDGE('',*,*,#221,.T.);
#347 = ORIENTED_EDGE('',*,*,#323,.T.);
#348 = PLANE('',#349);
#349 = AXIS2_PLACEMENT_3D('',#350,#351,#352);
#350 = CARTESIAN_POINT('',(-1.994,1.448,5.1E-02));
#351 = DIRECTION('',(0.,0.,-1.));
#352 = DIRECTION('',(0.,1.,0.));
#353 = ADVANCED_FACE('',(#354),#360,.T.);
#354 = FACE_BOUND('',#355,.T.);
#355 = EDGE_LOOP('',(#356,#357,#358,#359));
#356 = ORIENTED_EDGE('',*,*,#239,.T.);
#357 = ORIENTED_EDGE('',*,*,#277,.T.);
#358 = ORIENTED_EDGE('',*,*,#308,.T.);
#359 = ORIENTED_EDGE('',*,*,#330,.T.);
#360 = PLANE('',#361);
#361 = AXIS2_PLACEMENT_3D('',#362,#363,#364);
#362 = CARTESIAN_POINT('',(-1.994,-1.448,2.007));
#363 = DIRECTION('',(0.,0.,1.));
#364 = DIRECTION('',(0.,1.,0.));
#365 = ( GEOMETRIC_REPRESENTATION_CONTEXT(3) 
GLOBAL_UNCERTAINTY_ASSIGNED_CONTEXT((#369)) GLOBAL_UNIT_ASSIGNED_CONTEXT
((#366,#367,#368)) REPRESENTATION_CONTEXT('Context #1',
  '3D Context with UNIT and UNCERTAINTY') );
#366 = ( LENGTH_UNIT() NAMED_UNIT(*) SI_UNIT(.MILLI.,.METRE.) );
#367 = ( NAMED_UNIT(*) PLANE_ANGLE_UNIT() SI_UNIT($,.RADIAN.) );
#368 = ( NAMED_UNIT(*) SI_UNIT($,.STERADIAN.) SOLID_ANGLE_UNIT() );
#369 = UNCERTAINTY_MEASURE_WITH_UNIT(LENGTH_MEASURE(1.E-07),#366,
  'distance_accuracy_value','confusion accuracy');
#370 = CONTEXT_DEPENDENT_SHAPE_REPRESENTATION(#371,#373);
#371 = ( REPRESENTATION_RELATIONSHIP('','',#214,#108) 
REPRESENTATION_RELATIONSHIP_WITH_TRANSFORMATION(#372) 
SHAPE_REPRESENTATION_RELATIONSHIP() );
#372 = ITEM_DEFINED_TRANSFORMATION('','',#11,#113);
#373 = PRODUCT_DEFINITION_SHAPE('Placement','Placement of an item',#374
  );
#374 = NEXT_ASSEMBLY_USAGE_OCCURRENCE('3','part001','',#103,#209,$);
#375 = PRODUCT_RELATED_PRODUCT_CATEGORY('part',$,(#211));
#376 = SHAPE_DEFINITION_REPRESENTATION(#377,#383);
#377 = PRODUCT_DEFINITION_SHAPE('','',#378);
#378 = PRODUCT_DEFINITION('design','',#379,#382);
#379 = PRODUCT_DEFINITION_FORMATION('','',#380);
#380 = PRODUCT('part002','part002','',(#381));
#381 = PRODUCT_CONTEXT('',#2,'mechanical');
#382 = PRODUCT_DEFINITION_CONTEXT('part definition',#2,'design');
#383 = ADVANCED_BREP_SHAPE_REPRESENTATION('',(#11,#384),#600);
#384 = MANIFOLD_SOLID_BREP('',#385);
#385 = CLOSED_SHELL('',(#386,#442,#498,#520,#542,#559,#576,#588));
#386 = ADVANCED_FACE('',(#387),#437,.T.);
#387 = FACE_BOUND('',#388,.T.);
#388 = EDGE_LOOP('',(#389,#399,#407,#415,#423,#431));
#389 = ORIENTED_EDGE('',*,*,#390,.F.);
#390 = EDGE_CURVE('',#391,#393,#395,.T.);
#391 = VERTEX_POINT('',#392);
#392 = CARTESIAN_POINT('',(1.613,0.648,0.));
#393 = VERTEX_POINT('',#394);
#394 = CARTESIAN_POINT('',(2.553,0.648,0.));
#395 = LINE('',#396,#397);
#396 = CARTESIAN_POINT('',(1.613,0.648,0.));
#397 = VECTOR('',#398,1.);
#398 = DIRECTION('',(1.,0.,0.));
#399 = ORIENTED_EDGE('',*,*,#400,.F.);
#400 = EDGE_CURVE('',#401,#391,#403,.T.);
#401 = VERTEX_POINT('',#402);
#402 = CARTESIAN_POINT('',(1.613,0.648,5.1E-02));
#403 = LINE('',#404,#405);
#404 = CARTESIAN_POINT('',(1.613,0.648,5.1E-02));
#405 = VECTOR('',#406,1.);
#406 = DIRECTION('',(0.,0.,-1.));
#407 = ORIENTED_EDGE('',*,*,#408,.F.);
#408 = EDGE_CURVE('',#409,#401,#411,.T.);
#409 = VERTEX_POINT('',#410);
#410 = CARTESIAN_POINT('',(1.994,0.648,5.1E-02));
#411 = LINE('',#412,#413);
#412 = CARTESIAN_POINT('',(1.994,0.648,5.1E-02));
#413 = VECTOR('',#414,1.);
#414 = DIRECTION('',(-1.,0.,0.));
#415 = ORIENTED_EDGE('',*,*,#416,.F.);
#416 = EDGE_CURVE('',#417,#409,#419,.T.);
#417 = VERTEX_POINT('',#418);
#418 = CARTESIAN_POINT('',(1.994,0.648,1.003));
#419 = LINE('',#420,#421);
#420 = CARTESIAN_POINT('',(1.994,0.648,1.003));
#421 = VECTOR('',#422,1.);
#422 = DIRECTION('',(0.,0.,-1.));
#423 = ORIENTED_EDGE('',*,*,#424,.F.);
#424 = EDGE_CURVE('',#425,#417,#427,.T.);
#425 = VERTEX_POINT('',#426);
#426 = CARTESIAN_POINT('',(2.553,0.648,1.003));
#427 = LINE('',#428,#429);
#428 = CARTESIAN_POINT('',(2.553,0.648,1.003));
#429 = VECTOR('',#430,1.);
#430 = DIRECTION('',(-1.,0.,0.));
#431 = ORIENTED_EDGE('',*,*,#432,.F.);
#432 = EDGE_CURVE('',#393,#425,#433,.T.);
#433 = LINE('',#434,#435);
#434 = CARTESIAN_POINT('',(2.553,0.648,0.));
#435 = VECTOR('',#436,1.);
#436 = DIRECTION('',(0.,0.,1.));
#437 = PLANE('',#438);
#438 = AXIS2_PLACEMENT_3D('',#439,#440,#441);
#439 = CARTESIAN_POINT('',(2.553,0.648,0.));
#440 = DIRECTION('',(0.,1.,0.));
#441 = DIRECTION('',(0.,-0.,1.));
#442 = ADVANCED_FACE('',(#443),#493,.T.);
#443 = FACE_BOUND('',#444,.T.);
#444 = EDGE_LOOP('',(#445,#455,#463,#471,#479,#487));
#445 = ORIENTED_EDGE('',*,*,#446,.F.);
#446 = EDGE_CURVE('',#447,#449,#451,.T.);
#447 = VERTEX_POINT('',#448);
#448 = CARTESIAN_POINT('',(2.553,-0.648,0.));
#449 = VERTEX_POINT('',#450);
#450 = CARTESIAN_POINT('',(1.613,-0.648,0.));
#451 = LINE('',#452,#453);
#452 = CARTESIAN_POINT('',(2.553,-0.648,0.));
#453 = VECTOR('',#454,1.);
#454 = DIRECTION('',(-1.,0.,0.));
#455 = ORIENTED_EDGE('',*,*,#456,.F.);
#456 = EDGE_CURVE('',#457,#447,#459,.T.);
#457 = VERTEX_POINT('',#458);
#458 = CARTESIAN_POINT('',(2.553,-0.648,1.003));
#459 = LINE('',#460,#461);
#460 = CARTESIAN_POINT('',(2.553,-0.648,1.003));
#461 = VECTOR('',#462,1.);
#462 = DIRECTION('',(0.,0.,-1.));
#463 = ORIENTED_EDGE('',*,*,#464,.F.);
#464 = EDGE_CURVE('',#465,#457,#467,.T.);
#465 = VERTEX_POINT('',#466);
#466 = CARTESIAN_POINT('',(1.994,-0.648,1.003));
#467 = LINE('',#468,#469);
#468 = CARTESIAN_POINT('',(1.994,-0.648,1.003));
#469 = VECTOR('',#470,1.);
#470 = DIRECTION('',(1.,0.,0.));
#471 = ORIENTED_EDGE('',*,*,#472,.F.);
#472 = EDGE_CURVE('',#473,#465,#475,.T.);
#473 = VERTEX_POINT('',#474);
#474 = CARTESIAN_POINT('',(1.994,-0.648,5.1E-02));
#475 = LINE('',#476,#477);
#476 = CARTESIAN_POINT('',(1.994,-0.648,5.1E-02));
#477 = VECTOR('',#478,1.);
#478 = DIRECTION('',(0.,0.,1.));
#479 = ORIENTED_EDGE('',*,*,#480,.F.);
#480 = EDGE_CURVE('',#481,#473,#483,.T.);
#481 = VERTEX_POINT('',#482);
#482 = CARTESIAN_POINT('',(1.613,-0.648,5.1E-02));
#483 = LINE('',#484,#485);
#484 = CARTESIAN_POINT('',(1.613,-0.648,5.1E-02));
#485 = VECTOR('',#486,1.);
#486 = DIRECTION('',(1.,0.,0.));
#487 = ORIENTED_EDGE('',*,*,#488,.F.);
#488 = EDGE_CURVE('',#449,#481,#489,.T.);
#489 = LINE('',#490,#491);
#490 = CARTESIAN_POINT('',(1.613,-0.648,0.));
#491 = VECTOR('',#492,1.);
#492 = DIRECTION('',(0.,0.,1.));
#493 = PLANE('',#494);
#494 = AXIS2_PLACEMENT_3D('',#495,#496,#497);
#495 = CARTESIAN_POINT('',(1.613,-0.648,0.));
#496 = DIRECTION('',(0.,-1.,0.));
#497 = DIRECTION('',(0.,0.,1.));
#498 = ADVANCED_FACE('',(#499),#515,.T.);
#499 = FACE_BOUND('',#500,.T.);
#500 = EDGE_LOOP('',(#501,#502,#508,#509));
#501 = ORIENTED_EDGE('',*,*,#424,.T.);
#502 = ORIENTED_EDGE('',*,*,#503,.F.);
#503 = EDGE_CURVE('',#465,#417,#504,.T.);
#504 = LINE('',#505,#506);
#505 = CARTESIAN_POINT('',(1.994,-0.648,1.003));
#506 = VECTOR('',#507,1.);
#507 = DIRECTION('',(0.,1.,0.));
#508 = ORIENTED_EDGE('',*,*,#464,.T.);
#509 = ORIENTED_EDGE('',*,*,#510,.F.);
#510 = EDGE_CURVE('',#425,#457,#511,.T.);
#511 = LINE('',#512,#513);
#512 = CARTESIAN_POINT('',(2.553,0.648,1.003));
#513 = VECTOR('',#514,1.);
#514 = DIRECTION('',(0.,-1.,0.));
#515 = PLANE('',#516);
#516 = AXIS2_PLACEMENT_3D('',#517,#518,#519);
#517 = CARTESIAN_POINT('',(2.553,0.648,1.003));
#518 = DIRECTION('',(0.,0.,1.));
#519 = DIRECTION('',(0.,1.,0.));
#520 = ADVANCED_FACE('',(#521),#537,.T.);
#521 = FACE_BOUND('',#522,.T.);
#522 = EDGE_LOOP('',(#523,#524,#530,#531));
#523 = ORIENTED_EDGE('',*,*,#408,.T.);
#524 = ORIENTED_EDGE('',*,*,#525,.F.);
#525 = EDGE_CURVE('',#481,#401,#526,.T.);
#526 = LINE('',#527,#528);
#527 = CARTESIAN_POINT('',(1.613,-0.648,5.1E-02));
#528 = VECTOR('',#529,1.);
#529 = DIRECTION('',(0.,1.,0.));
#530 = ORIENTED_EDGE('',*,*,#480,.T.);
#531 = ORIENTED_EDGE('',*,*,#532,.F.);
#532 = EDGE_CURVE('',#409,#473,#533,.T.);
#533 = LINE('',#534,#535);
#534 = CARTESIAN_POINT('',(1.994,0.648,5.1E-02));
#535 = VECTOR('',#536,1.);
#536 = DIRECTION('',(0.,-1.,0.));
#537 = PLANE('',#538);
#538 = AXIS2_PLACEMENT_3D('',#539,#540,#541);
#539 = CARTESIAN_POINT('',(1.994,0.648,5.1E-02));
#540 = DIRECTION('',(0.,0.,1.));
#541 = DIRECTION('',(0.,1.,0.));
#542 = ADVANCED_FACE('',(#543),#554,.T.);
#543 = FACE_BOUND('',#544,.T.);
#544 = EDGE_LOOP('',(#545,#551,#552,#553));
#545 = ORIENTED_EDGE('',*,*,#546,.F.);
#546 = EDGE_CURVE('',#393,#447,#547,.T.);
#547 = LINE('',#548,#549);
#548 = CARTESIAN_POINT('',(2.553,0.648,0.));
#549 = VECTOR('',#550,1.);
#550 = DIRECTION('',(0.,-1.,0.));
#551 = ORIENTED_EDGE('',*,*,#432,.T.);
#552 = ORIENTED_EDGE('',*,*,#510,.T.);
#553 = ORIENTED_EDGE('',*,*,#456,.T.);
#554 = PLANE('',#555);
#555 = AXIS2_PLACEMENT_3D('',#556,#557,#558);
#556 = CARTESIAN_POINT('',(2.553,-0.648,0.));
#557 = DIRECTION('',(1.,0.,0.));
#558 = DIRECTION('',(0.,0.,1.));
#559 = ADVANCED_FACE('',(#560),#571,.T.);
#560 = FACE_BOUND('',#561,.T.);
#561 = EDGE_LOOP('',(#562,#568,#569,#570));
#562 = ORIENTED_EDGE('',*,*,#563,.F.);
#563 = EDGE_CURVE('',#449,#391,#564,.T.);
#564 = LINE('',#565,#566);
#565 = CARTESIAN_POINT('',(1.613,-0.648,0.));
#566 = VECTOR('',#567,1.);
#567 = DIRECTION('',(0.,1.,0.));
#568 = ORIENTED_EDGE('',*,*,#488,.T.);
#569 = ORIENTED_EDGE('',*,*,#525,.T.);
#570 = ORIENTED_EDGE('',*,*,#400,.T.);
#571 = PLANE('',#572);
#572 = AXIS2_PLACEMENT_3D('',#573,#574,#575);
#573 = CARTESIAN_POINT('',(1.613,0.648,0.));
#574 = DIRECTION('',(-1.,0.,0.));
#575 = DIRECTION('',(0.,0.,1.));
#576 = ADVANCED_FACE('',(#577),#583,.T.);
#577 = FACE_BOUND('',#578,.T.);
#578 = EDGE_LOOP('',(#579,#580,#581,#582));
#579 = ORIENTED_EDGE('',*,*,#532,.T.);
#580 = ORIENTED_EDGE('',*,*,#472,.T.);
#581 = ORIENTED_EDGE('',*,*,#503,.T.);
#582 = ORIENTED_EDGE('',*,*,#416,.T.);
#583 = PLANE('',#584);
#584 = AXIS2_PLACEMENT_3D('',#585,#586,#587);
#585 = CARTESIAN_POINT('',(1.994,0.648,5.1E-02));
#586 = DIRECTION('',(-1.,0.,0.));
#587 = DIRECTION('',(0.,0.,1.));
#588 = ADVANCED_FACE('',(#589),#595,.T.);
#589 = FACE_BOUND('',#590,.T.);
#590 = EDGE_LOOP('',(#591,#592,#593,#594));
#591 = ORIENTED_EDGE('',*,*,#446,.T.);
#592 = ORIENTED_EDGE('',*,*,#563,.T.);
#593 = ORIENTED_EDGE('',*,*,#390,.T.);
#594 = ORIENTED_EDGE('',*,*,#546,.T.);
#595 = PLANE('',#596);
#596 = AXIS2_PLACEMENT_3D('',#597,#598,#599);
#597 = CARTESIAN_POINT('',(2.553,-0.648,0.));
#598 = DIRECTION('',(0.,0.,-1.));
#599 = DIRECTION('',(0.,1.,0.));
#600 = ( GEOMETRIC_REPRESENTATION_CONTEXT(3) 
GLOBAL_UNCERTAINTY_ASSIGNED_CONTEXT((#604)) GLOBAL_UNIT_ASSIGNED_CONTEXT
((#601,#602,#603)) REPRESENTATION_CONTEXT('Context #1',
  '3D Context with UNIT and UNCERTAINTY') );
#601 = ( LENGTH_UNIT() NAMED_UNIT(*) SI_UNIT(.MILLI.,.METRE.) );
#602 = ( NAMED_UNIT(*) PLANE_ANGLE_UNIT() SI_UNIT($,.RADIAN.) );
#603 = ( NAMED_UNIT(*) SI_UNIT($,.STERADIAN.) SOLID_ANGLE_UNIT() );
#604 = UNCERTAINTY_MEASURE_WITH_UNIT(LENGTH_MEASURE(1.E-07),#601,
  'distance_accuracy_value','confusion accuracy');
#605 = CONTEXT_DEPENDENT_SHAPE_REPRESENTATION(#606,#608);
#606 = ( REPRESENTATION_RELATIONSHIP('','',#383,#108) 
REPRESENTATION_RELATIONSHIP_WITH_TRANSFORMATION(#607) 
SHAPE_REPRESENTATION_RELATIONSHIP() );
#607 = ITEM_DEFINED_TRANSFORMATION('','',#11,#117);
#608 = PRODUCT_DEFINITION_SHAPE('Placement','Placement of an item',#609
  );
#609 = NEXT_ASSEMBLY_USAGE_OCCURRENCE('4','part002','',#103,#378,$);
#610 = PRODUCT_RELATED_PRODUCT_CATEGORY('part',$,(#380));
#611 = SHAPE_DEFINITION_REPRESENTATION(#612,#618);
#612 = PRODUCT_DEFINITION_SHAPE('','',#613);
#613 = PRODUCT_DEFINITION('design','',#614,#617);
#614 = PRODUCT_DEFINITION_FORMATION('','',#615);
#615 = PRODUCT('part003','part003','',(#616));
#616 = PRODUCT_CONTEXT('',#2,'mechanical');
#617 = PRODUCT_DEFINITION_CONTEXT('part definition',#2,'design');
#618 = ADVANCED_BREP_SHAPE_REPRESENTATION('',(#11,#619),#835);
#619 = MANIFOLD_SOLID_BREP('',#620);
#620 = CLOSED_SHELL('',(#621,#677,#733,#755,#777,#794,#811,#823));
#621 = ADVANCED_FACE('',(#622),#672,.T.);
#622 = FACE_BOUND('',#623,.T.);
#623 = EDGE_LOOP('',(#624,#634,#642,#650,#658,#666));
#624 = ORIENTED_EDGE('',*,*,#625,.F.);
#625 = EDGE_CURVE('',#626,#628,#630,.T.);
#626 = VERTEX_POINT('',#627);
#627 = CARTESIAN_POINT('',(-1.613,-0.648,0.));
#628 = VERTEX_POINT('',#629);
#629 = CARTESIAN_POINT('',(-2.553,-0.648,0.));
#630 = LINE('',#631,#632);
#631 = CARTESIAN_POINT('',(-1.613,-0.648,0.));
#632 = VECTOR('',#633,1.);
#633 = DIRECTION('',(-1.,0.,0.));
#634 = ORIENTED_EDGE('',*,*,#635,.F.);
#635 = EDGE_CURVE('',#636,#626,#638,.T.);
#636 = VERTEX_POINT('',#637);
#637 = CARTESIAN_POINT('',(-1.613,-0.648,5.1E-02));
#638 = LINE('',#639,#640);
#639 = CARTESIAN_POINT('',(-1.613,-0.648,5.1E-02));
#640 = VECTOR('',#641,1.);
#641 = DIRECTION('',(0.,0.,-1.));
#642 = ORIENTED_EDGE('',*,*,#643,.F.);
#643 = EDGE_CURVE('',#644,#636,#646,.T.);
#644 = VERTEX_POINT('',#645);
#645 = CARTESIAN_POINT('',(-1.994,-0.648,5.1E-02));
#646 = LINE('',#647,#648);
#647 = CARTESIAN_POINT('',(-1.994,-0.648,5.1E-02));
#648 = VECTOR('',#649,1.);
#649 = DIRECTION('',(1.,0.,0.));
#650 = ORIENTED_EDGE('',*,*,#651,.F.);
#651 = EDGE_CURVE('',#652,#644,#654,.T.);
#652 = VERTEX_POINT('',#653);
#653 = CARTESIAN_POINT('',(-1.994,-0.648,1.003));
#654 = LINE('',#655,#656);
#655 = CARTESIAN_POINT('',(-1.994,-0.648,1.003));
#656 = VECTOR('',#657,1.);
#657 = DIRECTION('',(0.,0.,-1.));
#658 = ORIENTED_EDGE('',*,*,#659,.F.);
#659 = EDGE_CURVE('',#660,#652,#662,.T.);
#660 = VERTEX_POINT('',#661);
#661 = CARTESIAN_POINT('',(-2.553,-0.648,1.003));
#662 = LINE('',#663,#664);
#663 = CARTESIAN_POINT('',(-2.553,-0.648,1.003));
#664 = VECTOR('',#665,1.);
#665 = DIRECTION('',(1.,0.,0.));
#666 = ORIENTED_EDGE('',*,*,#667,.F.);
#667 = EDGE_CURVE('',#628,#660,#668,.T.);
#668 = LINE('',#669,#670);
#669 = CARTESIAN_POINT('',(-2.553,-0.648,0.));
#670 = VECTOR('',#671,1.);
#671 = DIRECTION('',(0.,0.,1.));
#672 = PLANE('',#673);
#673 = AXIS2_PLACEMENT_3D('',#674,#675,#676);
#674 = CARTESIAN_POINT('',(-2.553,-0.648,0.));
#675 = DIRECTION('',(0.,-1.,0.));
#676 = DIRECTION('',(0.,0.,1.));
#677 = ADVANCED_FACE('',(#678),#728,.T.);
#678 = FACE_BOUND('',#679,.T.);
#679 = EDGE_LOOP('',(#680,#690,#698,#706,#714,#722));
#680 = ORIENTED_EDGE('',*,*,#681,.F.);
#681 = EDGE_CURVE('',#682,#684,#686,.T.);
#682 = VERTEX_POINT('',#683);
#683 = CARTESIAN_POINT('',(-2.553,0.648,0.));
#684 = VERTEX_POINT('',#685);
#685 = CARTESIAN_POINT('',(-1.613,0.648,0.));
#686 = LINE('',#687,#688);
#687 = CARTESIAN_POINT('',(-2.553,0.648,0.));
#688 = VECTOR('',#689,1.);
#689 = DIRECTION('',(1.,0.,0.));
#690 = ORIENTED_EDGE('',*,*,#691,.F.);
#691 = EDGE_CURVE('',#692,#682,#694,.T.);
#692 = VERTEX_POINT('',#693);
#693 = CARTESIAN_POINT('',(-2.553,0.648,1.003));
#694 = LINE('',#695,#696);
#695 = CARTESIAN_POINT('',(-2.553,0.648,1.003));
#696 = VECTOR('',#697,1.);
#697 = DIRECTION('',(0.,0.,-1.));
#698 = ORIENTED_EDGE('',*,*,#699,.F.);
#699 = EDGE_CURVE('',#700,#692,#702,.T.);
#700 = VERTEX_POINT('',#701);
#701 = CARTESIAN_POINT('',(-1.994,0.648,1.003));
#702 = LINE('',#703,#704);
#703 = CARTESIAN_POINT('',(-1.994,0.648,1.003));
#704 = VECTOR('',#705,1.);
#705 = DIRECTION('',(-1.,0.,0.));
#706 = ORIENTED_EDGE('',*,*,#707,.F.);
#707 = EDGE_CURVE('',#708,#700,#710,.T.);
#708 = VERTEX_POINT('',#709);
#709 = CARTESIAN_POINT('',(-1.994,0.648,5.1E-02));
#710 = LINE('',#711,#712);
#711 = CARTESIAN_POINT('',(-1.994,0.648,5.1E-02));
#712 = VECTOR('',#713,1.);
#713 = DIRECTION('',(0.,0.,1.));
#714 = ORIENTED_EDGE('',*,*,#715,.F.);
#715 = EDGE_CURVE('',#716,#708,#718,.T.);
#716 = VERTEX_POINT('',#717);
#717 = CARTESIAN_POINT('',(-1.613,0.648,5.1E-02));
#718 = LINE('',#719,#720);
#719 = CARTESIAN_POINT('',(-1.613,0.648,5.1E-02));
#720 = VECTOR('',#721,1.);
#721 = DIRECTION('',(-1.,0.,0.));
#722 = ORIENTED_EDGE('',*,*,#723,.F.);
#723 = EDGE_CURVE('',#684,#716,#724,.T.);
#724 = LINE('',#725,#726);
#725 = CARTESIAN_POINT('',(-1.613,0.648,0.));
#726 = VECTOR('',#727,1.);
#727 = DIRECTION('',(0.,0.,1.));
#728 = PLANE('',#729);
#729 = AXIS2_PLACEMENT_3D('',#730,#731,#732);
#730 = CARTESIAN_POINT('',(-1.613,0.648,0.));
#731 = DIRECTION('',(0.,1.,0.));
#732 = DIRECTION('',(0.,-0.,1.));
#733 = ADVANCED_FACE('',(#734),#750,.T.);
#734 = FACE_BOUND('',#735,.T.);
#735 = EDGE_LOOP('',(#736,#737,#743,#744));
#736 = ORIENTED_EDGE('',*,*,#659,.T.);
#737 = ORIENTED_EDGE('',*,*,#738,.F.);
#738 = EDGE_CURVE('',#700,#652,#739,.T.);
#739 = LINE('',#740,#741);
#740 = CARTESIAN_POINT('',(-1.994,0.648,1.003));
#741 = VECTOR('',#742,1.);
#742 = DIRECTION('',(0.,-1.,0.));
#743 = ORIENTED_EDGE('',*,*,#699,.T.);
#744 = ORIENTED_EDGE('',*,*,#745,.F.);
#745 = EDGE_CURVE('',#660,#692,#746,.T.);
#746 = LINE('',#747,#748);
#747 = CARTESIAN_POINT('',(-2.553,-0.648,1.003));
#748 = VECTOR('',#749,1.);
#749 = DIRECTION('',(0.,1.,0.));
#750 = PLANE('',#751);
#751 = AXIS2_PLACEMENT_3D('',#752,#753,#754);
#752 = CARTESIAN_POINT('',(-2.553,-0.648,1.003));
#753 = DIRECTION('',(0.,0.,1.));
#754 = DIRECTION('',(0.,1.,0.));
#755 = ADVANCED_FACE('',(#756),#772,.T.);
#756 = FACE_BOUND('',#757,.T.);
#757 = EDGE_LOOP('',(#758,#759,#765,#766));
#758 = ORIENTED_EDGE('',*,*,#643,.T.);
#759 = ORIENTED_EDGE('',*,*,#760,.F.);
#760 = EDGE_CURVE('',#716,#636,#761,.T.);
#761 = LINE('',#762,#763);
#762 = CARTESIAN_POINT('',(-1.613,0.648,5.1E-02));
#763 = VECTOR('',#764,1.);
#764 = DIRECTION('',(0.,-1.,0.));
#765 = ORIENTED_EDGE('',*,*,#715,.T.);
#766 = ORIENTED_EDGE('',*,*,#767,.F.);
#767 = EDGE_CURVE('',#644,#708,#768,.T.);
#768 = LINE('',#769,#770);
#769 = CARTESIAN_POINT('',(-1.994,-0.648,5.1E-02));
#770 = VECTOR('',#771,1.);
#771 = DIRECTION('',(0.,1.,0.));
#772 = PLANE('',#773);
#773 = AXIS2_PLACEMENT_3D('',#774,#775,#776);
#774 = CARTESIAN_POINT('',(-1.994,-0.648,5.1E-02));
#775 = DIRECTION('',(0.,0.,1.));
#776 = DIRECTION('',(0.,1.,0.));
#777 = ADVANCED_FACE('',(#778),#789,.T.);
#778 = FACE_BOUND('',#779,.T.);
#779 = EDGE_LOOP('',(#780,#786,#787,#788));
#780 = ORIENTED_EDGE('',*,*,#781,.F.);
#781 = EDGE_CURVE('',#628,#682,#782,.T.);
#782 = LINE('',#783,#784);
#783 = CARTESIAN_POINT('',(-2.553,-0.648,0.));
#784 = VECTOR('',#785,1.);
#785 = DIRECTION('',(0.,1.,0.));
#786 = ORIENTED_EDGE('',*,*,#667,.T.);
#787 = ORIENTED_EDGE('',*,*,#745,.T.);
#788 = ORIENTED_EDGE('',*,*,#691,.T.);
#789 = PLANE('',#790);
#790 = AXIS2_PLACEMENT_3D('',#791,#792,#793);
#791 = CARTESIAN_POINT('',(-2.553,0.648,0.));
#792 = DIRECTION('',(-1.,0.,0.));
#793 = DIRECTION('',(0.,0.,1.));
#794 = ADVANCED_FACE('',(#795),#806,.T.);
#795 = FACE_BOUND('',#796,.T.);
#796 = EDGE_LOOP('',(#797,#803,#804,#805));
#797 = ORIENTED_EDGE('',*,*,#798,.F.);
#798 = EDGE_CURVE('',#684,#626,#799,.T.);
#799 = LINE('',#800,#801);
#800 = CARTESIAN_POINT('',(-1.613,0.648,0.));
#801 = VECTOR('',#802,1.);
#802 = DIRECTION('',(0.,-1.,0.));
#803 = ORIENTED_EDGE('',*,*,#723,.T.);
#804 = ORIENTED_EDGE('',*,*,#760,.T.);
#805 = ORIENTED_EDGE('',*,*,#635,.T.);
#806 = PLANE('',#807);
#807 = AXIS2_PLACEMENT_3D('',#808,#809,#810);
#808 = CARTESIAN_POINT('',(-1.613,-0.648,0.));
#809 = DIRECTION('',(1.,0.,0.));
#810 = DIRECTION('',(0.,0.,1.));
#811 = ADVANCED_FACE('',(#812),#818,.T.);
#812 = FACE_BOUND('',#813,.T.);
#813 = EDGE_LOOP('',(#814,#815,#816,#817));
#814 = ORIENTED_EDGE('',*,*,#767,.T.);
#815 = ORIENTED_EDGE('',*,*,#707,.T.);
#816 = ORIENTED_EDGE('',*,*,#738,.T.);
#817 = ORIENTED_EDGE('',*,*,#651,.T.);
#818 = PLANE('',#819);
#819 = AXIS2_PLACEMENT_3D('',#820,#821,#822);
#820 = CARTESIAN_POINT('',(-1.994,-0.648,5.1E-02));
#821 = DIRECTION('',(1.,0.,0.));
#822 = DIRECTION('',(0.,0.,1.));
#823 = ADVANCED_FACE('',(#824),#830,.T.);
#824 = FACE_BOUND('',#825,.T.);
#825 = EDGE_LOOP('',(#826,#827,#828,#829));
#826 = ORIENTED_EDGE('',*,*,#681,.T.);
#827 = ORIENTED_EDGE('',*,*,#798,.T.);
#828 = ORIENTED_EDGE('',*,*,#625,.T.);
#829 = ORIENTED_EDGE('',*,*,#781,.T.);
#830 = PLANE('',#831);
#831 = AXIS2_PLACEMENT_3D('',#832,#833,#834);
#832 = CARTESIAN_POINT('',(-2.553,0.648,0.));
#833 = DIRECTION('',(0.,0.,-1.));
#834 = DIRECTION('',(0.,1.,0.));
#835 = ( GEOMETRIC_REPRESENTATION_CONTEXT(3) 
GLOBAL_UNCERTAINTY_ASSIGNED_CONTEXT((#839)) GLOBAL_UNIT_ASSIGNED_CONTEXT
((#836,#837,#838)) REPRESENTATION_CONTEXT('Context #1',
  '3D Context with UNIT and UNCERTAINTY') );
#836 = ( LENGTH_UNIT() NAMED_UNIT(*) SI_UNIT(.MILLI.,.METRE.) );
#837 = ( NAMED_UNIT(*) PLANE_ANGLE_UNIT() SI_UNIT($,.RADIAN.) );
#838 = ( NAMED_UNIT(*) SI_UNIT($,.STERADIAN.) SOLID_ANGLE_UNIT() );
#839 = UNCERTAINTY_MEASURE_WITH_UNIT(LENGTH_MEASURE(1.E-07),#836,
  'distance_accuracy_value','confusion accuracy');
#840 = CONTEXT_DEPENDENT_SHAPE_REPRESENTATION(#841,#843);
#841 = ( REPRESENTATION_RELATIONSHIP('','',#618,#108) 
REPRESENTATION_RELATIONSHIP_WITH_TRANSFORMATION(#842) 
SHAPE_REPRESENTATION_RELATIONSHIP() );
#842 = ITEM_DEFINED_TRANSFORMATION('','',#11,#121);
#843 = PRODUCT_DEFINITION_SHAPE('Placement','Placement of an item',#844
  );
#844 = NEXT_ASSEMBLY_USAGE_OCCURRENCE('5','part003','',#103,#613,$);
#845 = PRODUCT_RELATED_PRODUCT_CATEGORY('part',$,(#615));
#846 = MECHANICAL_DESIGN_GEOMETRIC_PRESENTATION_REPRESENTATION('',(#847)
  ,#835);
#847 = STYLED_ITEM('color',(#848),#619);
#848 = PRESENTATION_STYLE_ASSIGNMENT((#849,#855));
#849 = SURFACE_STYLE_USAGE(.BOTH.,#850);
#850 = SURFACE_SIDE_STYLE('',(#851));
#851 = SURFACE_STYLE_FILL_AREA(#852);
#852 = FILL_AREA_STYLE('',(#853));
#853 = FILL_AREA_STYLE_COLOUR('',#854);
#854 = COLOUR_RGB('',0.724999971175,0.724999971175,0.724999971175);
#855 = CURVE_STYLE('',#856,POSITIVE_LENGTH_MEASURE(0.1),#857);
#856 = DRAUGHTING_PRE_DEFINED_CURVE_FONT('continuous');
#857 = COLOUR_RGB('',9.803921802644E-02,9.803921802644E-02,
  9.803921802644E-02);
#858 = MECHANICAL_DESIGN_GEOMETRIC_PRESENTATION_REPRESENTATION('',(#859)
  ,#196);
#859 = STYLED_ITEM('color',(#860),#144);
#860 = PRESENTATION_STYLE_ASSIGNMENT((#861,#867));
#861 = SURFACE_STYLE_USAGE(.BOTH.,#862);
#862 = SURFACE_SIDE_STYLE('',(#863));
#863 = SURFACE_STYLE_FILL_AREA(#864);
#864 = FILL_AREA_STYLE('',(#865));
#865 = FILL_AREA_STYLE_COLOUR('',#866);
#866 = COLOUR_RGB('',0.587999997538,0.587999997538,0.587999997538);
#867 = CURVE_STYLE('',#868,POSITIVE_LENGTH_MEASURE(0.1),#857);
#868 = DRAUGHTING_PRE_DEFINED_CURVE_FONT('continuous');
#869 = MECHANICAL_DESIGN_GEOMETRIC_PRESENTATION_REPRESENTATION('',(#870)
  ,#600);
#870 = STYLED_ITEM('color',(#871),#384);
#871 = PRESENTATION_STYLE_ASSIGNMENT((#872,#877));
#872 = SURFACE_STYLE_USAGE(.BOTH.,#873);
#873 = SURFACE_SIDE_STYLE('',(#874));
#874 = SURFACE_STYLE_FILL_AREA(#875);
#875 = FILL_AREA_STYLE('',(#876));
#876 = FILL_AREA_STYLE_COLOUR('',#854);
#877 = CURVE_STYLE('',#878,POSITIVE_LENGTH_MEASURE(0.1),#857);
#878 = DRAUGHTING_PRE_DEFINED_CURVE_FONT('continuous');
#879 = MECHANICAL_DESIGN_GEOMETRIC_PRESENTATION_REPRESENTATION('',(#880)
  ,#90);
#880 = STYLED_ITEM('color',(#881),#37);
#881 = PRESENTATION_STYLE_ASSIGNMENT((#882,#888));
#882 = SURFACE_STYLE_USAGE(.BOTH.,#883);
#883 = SURFACE_SIDE_STYLE('',(#884));
#884 = SURFACE_STYLE_FILL_AREA(#885);
#885 = FILL_AREA_STYLE('',(#886));
#886 = FILL_AREA_STYLE_COLOUR('',#887);
#887 = DRAUGHTING_PRE_DEFINED_COLOUR('black');
#888 = CURVE_STYLE('',#889,POSITIVE_LENGTH_MEASURE(0.1),#857);
#889 = DRAUGHTING_PRE_DEFINED_CURVE_FONT('continuous');
#890 = MECHANICAL_DESIGN_GEOMETRIC_PRESENTATION_REPRESENTATION('',(#891)
  ,#365);
#891 = STYLED_ITEM('color',(#892),#215);
#892 = PRESENTATION_STYLE_ASSIGNMENT((#893,#899));
#893 = SURFACE_STYLE_USAGE(.BOTH.,#894);
#894 = SURFACE_SIDE_STYLE('',(#895));
#895 = SURFACE_STYLE_FILL_AREA(#896);
#896 = FILL_AREA_STYLE('',(#897));
#897 = FILL_AREA_STYLE_COLOUR('',#898);
#898 = COLOUR_RGB('',0.300000011149,0.300000011149,0.300000011149);
#899 = CURVE_STYLE('',#900,POSITIVE_LENGTH_MEASURE(0.1),#857);
#900 = DRAUGHTING_PRE_DEFINED_CURVE_FONT('continuous');
ENDSEC;
END-ISO-10303-21;
