ISO-10303-21;
HEADER;
FILE_DESCRIPTION(('FreeCAD Model'),'2;1');
FILE_NAME('Open CASCADE Shape Model','2026-02-05T09:01:32',(''),(''),
  'Open CASCADE STEP processor 7.8','FreeCAD','Unknown');
FILE_SCHEMA(('AUTOMOTIVE_DESIGN { 1 0 10303 214 1 1 1 1 }'));
ENDSEC;
DATA;
#1 = APPLICATION_PROTOCOL_DEFINITION('international standard',
  'automotive_design',2000,#2);
#2 = APPLICATION_CONTEXT(
  'core data for automotive mechanical design processes');
#3 = SHAPE_DEFINITION_REPRESENTATION(#4,#10);
#4 = PRODUCT_DEFINITION_SHAPE('','',#5);
#5 = PRODUCT_DEFINITION('design','',#6,#9);
#6 = PRODUCT_DEFINITION_FORMATION('','',#7);
#7 = PRODUCT('part003','part003','',(#8));
#8 = PRODUCT_CONTEXT('',#2,'mechanical');
#9 = PRODUCT_DEFINITION_CONTEXT('part definition',#2,'design');
#10 = SHAPE_REPRESENTATION('',(#11,#15,#19,#23),#27);
#11 = AXIS2_PLACEMENT_3D('',#12,#13,#14);
#12 = CARTESIAN_POINT('',(0.,0.,0.));
#13 = DIRECTION('',(0.,0.,1.));
#14 = DIRECTION('',(1.,0.,-0.));
#15 = AXIS2_PLACEMENT_3D('',#16,#17,#18);
#16 = CARTESIAN_POINT('',(0.,0.,0.));
#17 = DIRECTION('',(0.,0.,1.));
#18 = DIRECTION('',(1.,0.,-0.));
#19 = AXIS2_PLACEMENT_3D('',#20,#21,#22);
#20 = CARTESIAN_POINT('',(0.,0.,0.));
#21 = DIRECTION('',(0.,0.,1.));
#22 = DIRECTION('',(1.,0.,-0.));
#23 = AXIS2_PLACEMENT_3D('',#24,#25,#26);
#24 = CARTESIAN_POINT('',(0.,0.,0.));
#25 = DIRECTION('',(0.,0.,1.));
#26 = DIRECTION('',(1.,0.,-0.));
#27 = ( GEOMETRIC_REPRESENTATION_CONTEXT(3) 
GLOBAL_UNCERTAINTY_ASSIGNED_CONTEXT((#31)) GLOBAL_UNIT_ASSIGNED_CONTEXT(
(#28,#29,#30)) REPRESENTATION_CONTEXT('Context #1',
  '3D Context with UNIT and UNCERTAINTY') );
#28 = ( LENGTH_UNIT() NAMED_UNIT(*) SI_UNIT(.MILLI.,.METRE.) );
#29 = ( NAMED_UNIT(*) PLANE_ANGLE_UNIT() SI_UNIT($,.RADIAN.) );
#30 = ( NAMED_UNIT(*) SI_UNIT($,.STERADIAN.) SOLID_ANGLE_UNIT() );
#31 = UNCERTAINTY_MEASURE_WITH_UNIT(LENGTH_MEASURE(1.E-04),#28,
  'distance_accuracy_value','confusion accuracy');
#32 = PRODUCT_RELATED_PRODUCT_CATEGORY('part',$,(#7));
#33 = SHAPE_DEFINITION_REPRESENTATION(#34,#40);
#34 = PRODUCT_DEFINITION_SHAPE('','',#35);
#35 = PRODUCT_DEFINITION('design','',#36,#39);
#36 = PRODUCT_DEFINITION_FORMATION('','',#37);
#37 = PRODUCT('part','part','',(#38));
#38 = PRODUCT_CONTEXT('',#2,'mechanical');
#39 = PRODUCT_DEFINITION_CONTEXT('part definition',#2,'design');
#40 = ADVANCED_BREP_SHAPE_REPRESENTATION('',(#11,#41),#449);
#41 = MANIFOLD_SOLID_BREP('',#42);
#42 = CLOSED_SHELL('',(#43,#83,#114,#138,#162,#179,#210,#250,#274,#307,
    #343,#379,#401,#413,#425,#437));
#43 = ADVANCED_FACE('',(#44),#78,.T.);
#44 = FACE_BOUND('',#45,.T.);
#45 = EDGE_LOOP('',(#46,#56,#64,#72));
#46 = ORIENTED_EDGE('',*,*,#47,.F.);
#47 = EDGE_CURVE('',#48,#50,#52,.T.);
#48 = VERTEX_POINT('',#49);
#49 = CARTESIAN_POINT('',(2.711,-2.705,2.997));
#50 = VERTEX_POINT('',#51);
#51 = CARTESIAN_POINT('',(-2.711,-2.705,2.997));
#52 = LINE('',#53,#54);
#53 = CARTESIAN_POINT('',(2.711,-2.705,2.997));
#54 = VECTOR('',#55,1.);
#55 = DIRECTION('',(-1.,0.,0.));
#56 = ORIENTED_EDGE('',*,*,#57,.F.);
#57 = EDGE_CURVE('',#58,#48,#60,.T.);
#58 = VERTEX_POINT('',#59);
#59 = CARTESIAN_POINT('',(2.711,2.705,2.997));
#60 = LINE('',#61,#62);
#61 = CARTESIAN_POINT('',(2.711,2.705,2.997));
#62 = VECTOR('',#63,1.);
#63 = DIRECTION('',(0.,-1.,0.));
#64 = ORIENTED_EDGE('',*,*,#65,.F.);
#65 = EDGE_CURVE('',#66,#58,#68,.T.);
#66 = VERTEX_POINT('',#67);
#67 = CARTESIAN_POINT('',(-2.711,2.705,2.997));
#68 = LINE('',#69,#70);
#69 = CARTESIAN_POINT('',(-2.711,2.705,2.997));
#70 = VECTOR('',#71,1.);
#71 = DIRECTION('',(1.,0.,0.));
#72 = ORIENTED_EDGE('',*,*,#73,.F.);
#73 = EDGE_CURVE('',#50,#66,#74,.T.);
#74 = LINE('',#75,#76);
#75 = CARTESIAN_POINT('',(-2.711,-2.705,2.997));
#76 = VECTOR('',#77,1.);
#77 = DIRECTION('',(0.,1.,0.));
#78 = PLANE('',#79);
#79 = AXIS2_PLACEMENT_3D('',#80,#81,#82);
#80 = CARTESIAN_POINT('',(-2.711,-2.705,2.997));
#81 = DIRECTION('',(0.,0.,1.));
#82 = DIRECTION('',(0.,1.,0.));
#83 = ADVANCED_FACE('',(#84),#109,.T.);
#84 = FACE_BOUND('',#85,.T.);
#85 = EDGE_LOOP('',(#86,#96,#102,#103));
#86 = ORIENTED_EDGE('',*,*,#87,.F.);
#87 = EDGE_CURVE('',#88,#90,#92,.T.);
#88 = VERTEX_POINT('',#89);
#89 = CARTESIAN_POINT('',(2.711,2.705,1.359));
#90 = VERTEX_POINT('',#91);
#91 = CARTESIAN_POINT('',(2.711,-2.705,1.359));
#92 = LINE('',#93,#94);
#93 = CARTESIAN_POINT('',(2.711,2.705,1.359));
#94 = VECTOR('',#95,1.);
#95 = DIRECTION('',(0.,-1.,0.));
#96 = ORIENTED_EDGE('',*,*,#97,.F.);
#97 = EDGE_CURVE('',#58,#88,#98,.T.);
#98 = LINE('',#99,#100);
#99 = CARTESIAN_POINT('',(2.711,2.705,2.997));
#100 = VECTOR('',#101,1.);
#101 = DIRECTION('',(0.,0.,-1.));
#102 = ORIENTED_EDGE('',*,*,#57,.T.);
#103 = ORIENTED_EDGE('',*,*,#104,.F.);
#104 = EDGE_CURVE('',#90,#48,#105,.T.);
#105 = LINE('',#106,#107);
#106 = CARTESIAN_POINT('',(2.711,-2.705,1.359));
#107 = VECTOR('',#108,1.);
#108 = DIRECTION('',(0.,0.,1.));
#109 = PLANE('',#110);
#110 = AXIS2_PLACEMENT_3D('',#111,#112,#113);
#111 = CARTESIAN_POINT('',(2.711,-2.705,1.359));
#112 = DIRECTION('',(1.,0.,0.));
#113 = DIRECTION('',(0.,0.,1.));
#114 = ADVANCED_FACE('',(#115),#133,.T.);
#115 = FACE_BOUND('',#116,.T.);
#116 = EDGE_LOOP('',(#117,#125,#131,#132));
#117 = ORIENTED_EDGE('',*,*,#118,.F.);
#118 = EDGE_CURVE('',#119,#88,#121,.T.);
#119 = VERTEX_POINT('',#120);
#120 = CARTESIAN_POINT('',(-2.711,2.705,1.359));
#121 = LINE('',#122,#123);
#122 = CARTESIAN_POINT('',(-2.711,2.705,1.359));
#123 = VECTOR('',#124,1.);
#124 = DIRECTION('',(1.,0.,0.));
#125 = ORIENTED_EDGE('',*,*,#126,.F.);
#126 = EDGE_CURVE('',#66,#119,#127,.T.);
#127 = LINE('',#128,#129);
#128 = CARTESIAN_POINT('',(-2.711,2.705,2.997));
#129 = VECTOR('',#130,1.);
#130 = DIRECTION('',(0.,0.,-1.));
#131 = ORIENTED_EDGE('',*,*,#65,.T.);
#132 = ORIENTED_EDGE('',*,*,#97,.T.);
#133 = PLANE('',#134);
#134 = AXIS2_PLACEMENT_3D('',#135,#136,#137);
#135 = CARTESIAN_POINT('',(2.711,2.705,1.359));
#136 = DIRECTION('',(0.,1.,0.));
#137 = DIRECTION('',(0.,-0.,1.));
#138 = ADVANCED_FACE('',(#139),#157,.T.);
#139 = FACE_BOUND('',#140,.T.);
#140 = EDGE_LOOP('',(#141,#149,#155,#156));
#141 = ORIENTED_EDGE('',*,*,#142,.F.);
#142 = EDGE_CURVE('',#143,#119,#145,.T.);
#143 = VERTEX_POINT('',#144);
#144 = CARTESIAN_POINT('',(-2.711,-2.705,1.359));
#145 = LINE('',#146,#147);
#146 = CARTESIAN_POINT('',(-2.711,-2.705,1.359));
#147 = VECTOR('',#148,1.);
#148 = DIRECTION('',(0.,1.,0.));
#149 = ORIENTED_EDGE('',*,*,#150,.F.);
#150 = EDGE_CURVE('',#50,#143,#151,.T.);
#151 = LINE('',#152,#153);
#152 = CARTESIAN_POINT('',(-2.711,-2.705,2.997));
#153 = VECTOR('',#154,1.);
#154 = DIRECTION('',(0.,0.,-1.));
#155 = ORIENTED_EDGE('',*,*,#73,.T.);
#156 = ORIENTED_EDGE('',*,*,#126,.T.);
#157 = PLANE('',#158);
#158 = AXIS2_PLACEMENT_3D('',#159,#160,#161);
#159 = CARTESIAN_POINT('',(-2.711,2.705,1.359));
#160 = DIRECTION('',(-1.,0.,0.));
#161 = DIRECTION('',(0.,0.,1.));
#162 = ADVANCED_FACE('',(#163),#174,.T.);
#163 = FACE_BOUND('',#164,.T.);
#164 = EDGE_LOOP('',(#165,#171,#172,#173));
#165 = ORIENTED_EDGE('',*,*,#166,.F.);
#166 = EDGE_CURVE('',#90,#143,#167,.T.);
#167 = LINE('',#168,#169);
#168 = CARTESIAN_POINT('',(2.711,-2.705,1.359));
#169 = VECTOR('',#170,1.);
#170 = DIRECTION('',(-1.,0.,0.));
#171 = ORIENTED_EDGE('',*,*,#104,.T.);
#172 = ORIENTED_EDGE('',*,*,#47,.T.);
#173 = ORIENTED_EDGE('',*,*,#150,.T.);
#174 = PLANE('',#175);
#175 = AXIS2_PLACEMENT_3D('',#176,#177,#178);
#176 = CARTESIAN_POINT('',(-2.711,-2.705,1.359));
#177 = DIRECTION('',(0.,-1.,0.));
#178 = DIRECTION('',(0.,0.,1.));
#179 = ADVANCED_FACE('',(#180),#205,.T.);
#180 = FACE_BOUND('',#181,.T.);
#181 = EDGE_LOOP('',(#182,#192,#198,#199));
#182 = ORIENTED_EDGE('',*,*,#183,.F.);
#183 = EDGE_CURVE('',#184,#186,#188,.T.);
#184 = VERTEX_POINT('',#185);
#185 = CARTESIAN_POINT('',(2.534,2.528,0.178));
#186 = VERTEX_POINT('',#187);
#187 = CARTESIAN_POINT('',(2.534,-2.528,0.178));
#188 = LINE('',#189,#190);
#189 = CARTESIAN_POINT('',(2.534,2.528,0.178));
#190 = VECTOR('',#191,1.);
#191 = DIRECTION('',(0.,-1.,0.));
#192 = ORIENTED_EDGE('',*,*,#193,.F.);
#193 = EDGE_CURVE('',#88,#184,#194,.T.);
#194 = LINE('',#195,#196);
#195 = CARTESIAN_POINT('',(2.711,2.705,1.359));
#196 = VECTOR('',#197,1.);
#197 = DIRECTION('',(-0.147021907897,-0.147021907897,-0.978145754577));
#198 = ORIENTED_EDGE('',*,*,#87,.T.);
#199 = ORIENTED_EDGE('',*,*,#200,.F.);
#200 = EDGE_CURVE('',#186,#90,#201,.T.);
#201 = LINE('',#202,#203);
#202 = CARTESIAN_POINT('',(2.534,-2.528,0.178));
#203 = VECTOR('',#204,1.);
#204 = DIRECTION('',(0.147021907897,-0.147021907897,0.978145754577));
#205 = PLANE('',#206);
#206 = AXIS2_PLACEMENT_3D('',#207,#208,#209);
#207 = CARTESIAN_POINT('',(2.534,-2.528,0.178));
#208 = DIRECTION('',(0.988840809443,0.,-0.148976016792));
#209 = DIRECTION('',(0.148976016792,0.,0.988840809443));
#210 = ADVANCED_FACE('',(#211),#245,.T.);
#211 = FACE_BOUND('',#212,.T.);
#212 = EDGE_LOOP('',(#213,#221,#229,#237,#243,#244));
#213 = ORIENTED_EDGE('',*,*,#214,.F.);
#214 = EDGE_CURVE('',#215,#184,#217,.T.);
#215 = VERTEX_POINT('',#216);
#216 = CARTESIAN_POINT('',(1.326,2.528,0.178));
#217 = LINE('',#218,#219);
#218 = CARTESIAN_POINT('',(1.326,2.528,0.178));
#219 = VECTOR('',#220,1.);
#220 = DIRECTION('',(1.,0.,0.));
#221 = ORIENTED_EDGE('',*,*,#222,.F.);
#222 = EDGE_CURVE('',#223,#215,#225,.T.);
#223 = VERTEX_POINT('',#224);
#224 = CARTESIAN_POINT('',(-1.326,2.528,0.178));
#225 = LINE('',#226,#227);
#226 = CARTESIAN_POINT('',(-1.326,2.528,0.178));
#227 = VECTOR('',#228,1.);
#228 = DIRECTION('',(1.,0.,0.));
#229 = ORIENTED_EDGE('',*,*,#230,.F.);
#230 = EDGE_CURVE('',#231,#223,#233,.T.);
#231 = VERTEX_POINT('',#232);
#232 = CARTESIAN_POINT('',(-2.534,2.528,0.178));
#233 = LINE('',#234,#235);
#234 = CARTESIAN_POINT('',(-2.534,2.528,0.178));
#235 = VECTOR('',#236,1.);
#236 = DIRECTION('',(1.,0.,0.));
#237 = ORIENTED_EDGE('',*,*,#238,.F.);
#238 = EDGE_CURVE('',#119,#231,#239,.T.);
#239 = LINE('',#240,#241);
#240 = CARTESIAN_POINT('',(-2.711,2.705,1.359));
#241 = VECTOR('',#242,1.);
#242 = DIRECTION('',(0.147021907897,-0.147021907897,-0.978145754577));
#243 = ORIENTED_EDGE('',*,*,#118,.T.);
#244 = ORIENTED_EDGE('',*,*,#193,.T.);
#245 = PLANE('',#246);
#246 = AXIS2_PLACEMENT_3D('',#247,#248,#249);
#247 = CARTESIAN_POINT('',(2.534,2.528,0.178));
#248 = DIRECTION('',(0.,0.988840809443,-0.148976016792));
#249 = DIRECTION('',(0.,0.148976016792,0.988840809443));
#250 = ADVANCED_FACE('',(#251),#269,.T.);
#251 = FACE_BOUND('',#252,.T.);
#252 = EDGE_LOOP('',(#253,#261,#267,#268));
#253 = ORIENTED_EDGE('',*,*,#254,.F.);
#254 = EDGE_CURVE('',#255,#231,#257,.T.);
#255 = VERTEX_POINT('',#256);
#256 = CARTESIAN_POINT('',(-2.534,-2.528,0.178));
#257 = LINE('',#258,#259);
#258 = CARTESIAN_POINT('',(-2.534,-2.528,0.178));
#259 = VECTOR('',#260,1.);
#260 = DIRECTION('',(0.,1.,0.));
#261 = ORIENTED_EDGE('',*,*,#262,.F.);
#262 = EDGE_CURVE('',#143,#255,#263,.T.);
#263 = LINE('',#264,#265);
#264 = CARTESIAN_POINT('',(-2.711,-2.705,1.359));
#265 = VECTOR('',#266,1.);
#266 = DIRECTION('',(0.147021907897,0.147021907897,-0.978145754577));
#267 = ORIENTED_EDGE('',*,*,#142,.T.);
#268 = ORIENTED_EDGE('',*,*,#238,.T.);
#269 = PLANE('',#270);
#270 = AXIS2_PLACEMENT_3D('',#271,#272,#273);
#271 = CARTESIAN_POINT('',(-2.534,2.528,0.178));
#272 = DIRECTION('',(-0.988840809443,0.,-0.148976016792));
#273 = DIRECTION('',(-0.148976016792,0.,0.988840809443));
#274 = ADVANCED_FACE('',(#275),#302,.T.);
#275 = FACE_BOUND('',#276,.T.);
#276 = EDGE_LOOP('',(#277,#285,#293,#299,#300,#301));
#277 = ORIENTED_EDGE('',*,*,#278,.F.);
#278 = EDGE_CURVE('',#279,#255,#281,.T.);
#279 = VERTEX_POINT('',#280);
#280 = CARTESIAN_POINT('',(-1.326,-2.528,0.178));
#281 = LINE('',#282,#283);
#282 = CARTESIAN_POINT('',(-1.326,-2.528,0.178));
#283 = VECTOR('',#284,1.);
#284 = DIRECTION('',(-1.,0.,0.));
#285 = ORIENTED_EDGE('',*,*,#286,.F.);
#286 = EDGE_CURVE('',#287,#279,#289,.T.);
#287 = VERTEX_POINT('',#288);
#288 = CARTESIAN_POINT('',(1.326,-2.528,0.178));
#289 = LINE('',#290,#291);
#290 = CARTESIAN_POINT('',(1.326,-2.528,0.178));
#291 = VECTOR('',#292,1.);
#292 = DIRECTION('',(-1.,0.,0.));
#293 = ORIENTED_EDGE('',*,*,#294,.F.);
#294 = EDGE_CURVE('',#186,#287,#295,.T.);
#295 = LINE('',#296,#297);
#296 = CARTESIAN_POINT('',(2.534,-2.528,0.178));
#297 = VECTOR('',#298,1.);
#298 = DIRECTION('',(-1.,0.,0.));
#299 = ORIENTED_EDGE('',*,*,#200,.T.);
#300 = ORIENTED_EDGE('',*,*,#166,.T.);
#301 = ORIENTED_EDGE('',*,*,#262,.T.);
#302 = PLANE('',#303);
#303 = AXIS2_PLACEMENT_3D('',#304,#305,#306);
#304 = CARTESIAN_POINT('',(-2.534,-2.528,0.178));
#305 = DIRECTION('',(0.,-0.988840809443,-0.148976016792));
#306 = DIRECTION('',(0.,-0.148976016792,0.988840809443));
#307 = ADVANCED_FACE('',(#308),#338,.T.);
#308 = FACE_BOUND('',#309,.T.);
#309 = EDGE_LOOP('',(#310,#320,#326,#332));
#310 = ORIENTED_EDGE('',*,*,#311,.F.);
#311 = EDGE_CURVE('',#312,#314,#316,.T.);
#312 = VERTEX_POINT('',#313);
#313 = CARTESIAN_POINT('',(1.326,2.528,0.));
#314 = VERTEX_POINT('',#315);
#315 = CARTESIAN_POINT('',(1.326,-2.528,0.));
#316 = LINE('',#317,#318);
#317 = CARTESIAN_POINT('',(1.326,2.528,0.));
#318 = VECTOR('',#319,1.);
#319 = DIRECTION('',(0.,-1.,0.));
#320 = ORIENTED_EDGE('',*,*,#321,.F.);
#321 = EDGE_CURVE('',#215,#312,#322,.T.);
#322 = LINE('',#323,#324);
#323 = CARTESIAN_POINT('',(1.326,2.528,0.178));
#324 = VECTOR('',#325,1.);
#325 = DIRECTION('',(0.,0.,-1.));
#326 = ORIENTED_EDGE('',*,*,#327,.F.);
#327 = EDGE_CURVE('',#287,#215,#328,.T.);
#328 = LINE('',#329,#330);
#329 = CARTESIAN_POINT('',(1.326,-2.528,0.178));
#330 = VECTOR('',#331,1.);
#331 = DIRECTION('',(0.,1.,0.));
#332 = ORIENTED_EDGE('',*,*,#333,.F.);
#333 = EDGE_CURVE('',#314,#287,#334,.T.);
#334 = LINE('',#335,#336);
#335 = CARTESIAN_POINT('',(1.326,-2.528,0.));
#336 = VECTOR('',#337,1.);
#337 = DIRECTION('',(0.,0.,1.));
#338 = PLANE('',#339);
#339 = AXIS2_PLACEMENT_3D('',#340,#341,#342);
#340 = CARTESIAN_POINT('',(1.326,-2.528,0.));
#341 = DIRECTION('',(1.,0.,0.));
#342 = DIRECTION('',(0.,0.,1.));
#343 = ADVANCED_FACE('',(#344),#374,.T.);
#344 = FACE_BOUND('',#345,.T.);
#345 = EDGE_LOOP('',(#346,#356,#362,#368));
#346 = ORIENTED_EDGE('',*,*,#347,.F.);
#347 = EDGE_CURVE('',#348,#350,#352,.T.);
#348 = VERTEX_POINT('',#349);
#349 = CARTESIAN_POINT('',(-1.326,-2.528,0.));
#350 = VERTEX_POINT('',#351);
#351 = CARTESIAN_POINT('',(-1.326,2.528,0.));
#352 = LINE('',#353,#354);
#353 = CARTESIAN_POINT('',(-1.326,-2.528,0.));
#354 = VECTOR('',#355,1.);
#355 = DIRECTION('',(0.,1.,0.));
#356 = ORIENTED_EDGE('',*,*,#357,.F.);
#357 = EDGE_CURVE('',#279,#348,#358,.T.);
#358 = LINE('',#359,#360);
#359 = CARTESIAN_POINT('',(-1.326,-2.528,0.178));
#360 = VECTOR('',#361,1.);
#361 = DIRECTION('',(0.,0.,-1.));
#362 = ORIENTED_EDGE('',*,*,#363,.F.);
#363 = EDGE_CURVE('',#223,#279,#364,.T.);
#364 = LINE('',#365,#366);
#365 = CARTESIAN_POINT('',(-1.326,2.528,0.178));
#366 = VECTOR('',#367,1.);
#367 = DIRECTION('',(0.,-1.,0.));
#368 = ORIENTED_EDGE('',*,*,#369,.F.);
#369 = EDGE_CURVE('',#350,#223,#370,.T.);
#370 = LINE('',#371,#372);
#371 = CARTESIAN_POINT('',(-1.326,2.528,0.));
#372 = VECTOR('',#373,1.);
#373 = DIRECTION('',(0.,0.,1.));
#374 = PLANE('',#375);
#375 = AXIS2_PLACEMENT_3D('',#376,#377,#378);
#376 = CARTESIAN_POINT('',(-1.326,2.528,0.));
#377 = DIRECTION('',(-1.,0.,0.));
#378 = DIRECTION('',(0.,0.,1.));
#379 = ADVANCED_FACE('',(#380),#396,.T.);
#380 = FACE_BOUND('',#381,.T.);
#381 = EDGE_LOOP('',(#382,#388,#389,#395));
#382 = ORIENTED_EDGE('',*,*,#383,.F.);
#383 = EDGE_CURVE('',#312,#350,#384,.T.);
#384 = LINE('',#385,#386);
#385 = CARTESIAN_POINT('',(1.326,2.528,0.));
#386 = VECTOR('',#387,1.);
#387 = DIRECTION('',(-1.,0.,0.));
#388 = ORIENTED_EDGE('',*,*,#311,.T.);
#389 = ORIENTED_EDGE('',*,*,#390,.F.);
#390 = EDGE_CURVE('',#348,#314,#391,.T.);
#391 = LINE('',#392,#393);
#392 = CARTESIAN_POINT('',(-1.326,-2.528,0.));
#393 = VECTOR('',#394,1.);
#394 = DIRECTION('',(1.,0.,0.));
#395 = ORIENTED_EDGE('',*,*,#347,.T.);
#396 = PLANE('',#397);
#397 = AXIS2_PLACEMENT_3D('',#398,#399,#400);
#398 = CARTESIAN_POINT('',(-1.326,2.528,0.));
#399 = DIRECTION('',(0.,0.,-1.));
#400 = DIRECTION('',(0.,1.,0.));
#401 = ADVANCED_FACE('',(#402),#408,.T.);
#402 = FACE_BOUND('',#403,.T.);
#403 = EDGE_LOOP('',(#404,#405,#406,#407));
#404 = ORIENTED_EDGE('',*,*,#230,.T.);
#405 = ORIENTED_EDGE('',*,*,#363,.T.);
#406 = ORIENTED_EDGE('',*,*,#278,.T.);
#407 = ORIENTED_EDGE('',*,*,#254,.T.);
#408 = PLANE('',#409);
#409 = AXIS2_PLACEMENT_3D('',#410,#411,#412);
#410 = CARTESIAN_POINT('',(-2.534,2.528,0.178));
#411 = DIRECTION('',(0.,0.,-1.));
#412 = DIRECTION('',(0.,1.,0.));
#413 = ADVANCED_FACE('',(#414),#420,.T.);
#414 = FACE_BOUND('',#415,.T.);
#415 = EDGE_LOOP('',(#416,#417,#418,#419));
#416 = ORIENTED_EDGE('',*,*,#214,.T.);
#417 = ORIENTED_EDGE('',*,*,#183,.T.);
#418 = ORIENTED_EDGE('',*,*,#294,.T.);
#419 = ORIENTED_EDGE('',*,*,#327,.T.);
#420 = PLANE('',#421);
#421 = AXIS2_PLACEMENT_3D('',#422,#423,#424);
#422 = CARTESIAN_POINT('',(1.326,2.528,0.178));
#423 = DIRECTION('',(0.,0.,-1.));
#424 = DIRECTION('',(0.,1.,0.));
#425 = ADVANCED_FACE('',(#426),#432,.T.);
#426 = FACE_BOUND('',#427,.T.);
#427 = EDGE_LOOP('',(#428,#429,#430,#431));
#428 = ORIENTED_EDGE('',*,*,#390,.T.);
#429 = ORIENTED_EDGE('',*,*,#333,.T.);
#430 = ORIENTED_EDGE('',*,*,#286,.T.);
#431 = ORIENTED_EDGE('',*,*,#357,.T.);
#432 = PLANE('',#433);
#433 = AXIS2_PLACEMENT_3D('',#434,#435,#436);
#434 = CARTESIAN_POINT('',(-1.326,-2.528,0.));
#435 = DIRECTION('',(0.,-1.,0.));
#436 = DIRECTION('',(0.,0.,1.));
#437 = ADVANCED_FACE('',(#438),#444,.T.);
#438 = FACE_BOUND('',#439,.T.);
#439 = EDGE_LOOP('',(#440,#441,#442,#443));
#440 = ORIENTED_EDGE('',*,*,#383,.T.);
#441 = ORIENTED_EDGE('',*,*,#369,.T.);
#442 = ORIENTED_EDGE('',*,*,#222,.T.);
#443 = ORIENTED_EDGE('',*,*,#321,.T.);
#444 = PLANE('',#445);
#445 = AXIS2_PLACEMENT_3D('',#446,#447,#448);
#446 = CARTESIAN_POINT('',(1.326,2.528,0.));
#447 = DIRECTION('',(0.,1.,0.));
#448 = DIRECTION('',(0.,-0.,1.));
#449 = ( GEOMETRIC_REPRESENTATION_CONTEXT(3) 
GLOBAL_UNCERTAINTY_ASSIGNED_CONTEXT((#453)) GLOBAL_UNIT_ASSIGNED_CONTEXT
((#450,#451,#452)) REPRESENTATION_CONTEXT('Context #1',
  '3D Context with UNIT and UNCERTAINTY') );
#450 = ( LENGTH_UNIT() NAMED_UNIT(*) SI_UNIT(.MILLI.,.METRE.) );
#451 = ( NAMED_UNIT(*) PLANE_ANGLE_UNIT() SI_UNIT($,.RADIAN.) );
#452 = ( NAMED_UNIT(*) SI_UNIT($,.STERADIAN.) SOLID_ANGLE_UNIT() );
#453 = UNCERTAINTY_MEASURE_WITH_UNIT(LENGTH_MEASURE(2.E-04),#450,
  'distance_accuracy_value','confusion accuracy');
#454 = CONTEXT_DEPENDENT_SHAPE_REPRESENTATION(#455,#457);
#455 = ( REPRESENTATION_RELATIONSHIP('','',#40,#10) 
REPRESENTATION_RELATIONSHIP_WITH_TRANSFORMATION(#456) 
SHAPE_REPRESENTATION_RELATIONSHIP() );
#456 = ITEM_DEFINED_TRANSFORMATION('','',#11,#15);
#457 = PRODUCT_DEFINITION_SHAPE('Placement','Placement of an item',#458
  );
#458 = NEXT_ASSEMBLY_USAGE_OCCURRENCE('1','part','',#5,#35,$);
#459 = PRODUCT_RELATED_PRODUCT_CATEGORY('part',$,(#37));
#460 = SHAPE_DEFINITION_REPRESENTATION(#461,#467);
#461 = PRODUCT_DEFINITION_SHAPE('','',#462);
#462 = PRODUCT_DEFINITION('design','',#463,#466);
#463 = PRODUCT_DEFINITION_FORMATION('','',#464);
#464 = PRODUCT('part001','part001','',(#465));
#465 = PRODUCT_CONTEXT('',#2,'mechanical');
#466 = PRODUCT_DEFINITION_CONTEXT('part definition',#2,'design');
#467 = ADVANCED_BREP_SHAPE_REPRESENTATION('',(#11,#468),#750);
#468 = MANIFOLD_SOLID_BREP('',#469);
#469 = CLOSED_SHELL('',(#470,#510,#550,#581,#612,#643,#674,#696,#718,
    #734));
#470 = ADVANCED_FACE('',(#471),#505,.T.);
#471 = FACE_BOUND('',#472,.T.);
#472 = EDGE_LOOP('',(#473,#483,#491,#499));
#473 = ORIENTED_EDGE('',*,*,#474,.F.);
#474 = EDGE_CURVE('',#475,#477,#479,.T.);
#475 = VERTEX_POINT('',#476);
#476 = CARTESIAN_POINT('',(2.711,1.245,1.499));
#477 = VERTEX_POINT('',#478);
#478 = CARTESIAN_POINT('',(2.87,1.245,1.499));
#479 = LINE('',#480,#481);
#480 = CARTESIAN_POINT('',(2.711,1.245,1.499));
#481 = VECTOR('',#482,1.);
#482 = DIRECTION('',(1.,0.,0.));
#483 = ORIENTED_EDGE('',*,*,#484,.F.);
#484 = EDGE_CURVE('',#485,#475,#487,.T.);
#485 = VERTEX_POINT('',#486);
#486 = CARTESIAN_POINT('',(2.711,-1.245,1.499));
#487 = LINE('',#488,#489);
#488 = CARTESIAN_POINT('',(2.711,-1.245,1.499));
#489 = VECTOR('',#490,1.);
#490 = DIRECTION('',(0.,1.,0.));
#491 = ORIENTED_EDGE('',*,*,#492,.F.);
#492 = EDGE_CURVE('',#493,#485,#495,.T.);
#493 = VERTEX_POINT('',#494);
#494 = CARTESIAN_POINT('',(2.87,-1.245,1.499));
#495 = LINE('',#496,#497);
#496 = CARTESIAN_POINT('',(2.87,-1.245,1.499));
#497 = VECTOR('',#498,1.);
#498 = DIRECTION('',(-1.,0.,0.));
#499 = ORIENTED_EDGE('',*,*,#500,.F.);
#500 = EDGE_CURVE('',#477,#493,#501,.T.);
#501 = LINE('',#502,#503);
#502 = CARTESIAN_POINT('',(2.87,1.245,1.499));
#503 = VECTOR('',#504,1.);
#504 = DIRECTION('',(0.,-1.,0.));
#505 = PLANE('',#506);
#506 = AXIS2_PLACEMENT_3D('',#507,#508,#509);
#507 = CARTESIAN_POINT('',(2.87,1.245,1.499));
#508 = DIRECTION('',(0.,0.,1.));
#509 = DIRECTION('',(0.,1.,0.));
#510 = ADVANCED_FACE('',(#511),#545,.T.);
#511 = FACE_BOUND('',#512,.T.);
#512 = EDGE_LOOP('',(#513,#523,#531,#539));
#513 = ORIENTED_EDGE('',*,*,#514,.F.);
#514 = EDGE_CURVE('',#515,#517,#519,.T.);
#515 = VERTEX_POINT('',#516);
#516 = CARTESIAN_POINT('',(1.473,1.245,0.127));
#517 = VERTEX_POINT('',#518);
#518 = CARTESIAN_POINT('',(2.743,1.245,0.127));
#519 = LINE('',#520,#521);
#520 = CARTESIAN_POINT('',(1.473,1.245,0.127));
#521 = VECTOR('',#522,1.);
#522 = DIRECTION('',(1.,0.,0.));
#523 = ORIENTED_EDGE('',*,*,#524,.F.);
#524 = EDGE_CURVE('',#525,#515,#527,.T.);
#525 = VERTEX_POINT('',#526);
#526 = CARTESIAN_POINT('',(1.473,-1.245,0.127));
#527 = LINE('',#528,#529);
#528 = CARTESIAN_POINT('',(1.473,-1.245,0.127));
#529 = VECTOR('',#530,1.);
#530 = DIRECTION('',(0.,1.,0.));
#531 = ORIENTED_EDGE('',*,*,#532,.F.);
#532 = EDGE_CURVE('',#533,#525,#535,.T.);
#533 = VERTEX_POINT('',#534);
#534 = CARTESIAN_POINT('',(2.743,-1.245,0.127));
#535 = LINE('',#536,#537);
#536 = CARTESIAN_POINT('',(2.743,-1.245,0.127));
#537 = VECTOR('',#538,1.);
#538 = DIRECTION('',(-1.,0.,0.));
#539 = ORIENTED_EDGE('',*,*,#540,.F.);
#540 = EDGE_CURVE('',#517,#533,#541,.T.);
#541 = LINE('',#542,#543);
#542 = CARTESIAN_POINT('',(2.743,1.245,0.127));
#543 = VECTOR('',#544,1.);
#544 = DIRECTION('',(0.,-1.,0.));
#545 = PLANE('',#546);
#546 = AXIS2_PLACEMENT_3D('',#547,#548,#549);
#547 = CARTESIAN_POINT('',(2.743,1.245,0.127));
#548 = DIRECTION('',(0.,0.,1.));
#549 = DIRECTION('',(0.,1.,0.));
#550 = ADVANCED_FACE('',(#551),#576,.T.);
#551 = FACE_BOUND('',#552,.T.);
#552 = EDGE_LOOP('',(#553,#563,#569,#570));
#553 = ORIENTED_EDGE('',*,*,#554,.F.);
#554 = EDGE_CURVE('',#555,#557,#559,.T.);
#555 = VERTEX_POINT('',#556);
#556 = CARTESIAN_POINT('',(2.87,1.245,0.));
#557 = VERTEX_POINT('',#558);
#558 = CARTESIAN_POINT('',(2.87,-1.245,0.));
#559 = LINE('',#560,#561);
#560 = CARTESIAN_POINT('',(2.87,1.245,0.));
#561 = VECTOR('',#562,1.);
#562 = DIRECTION('',(0.,-1.,0.));
#563 = ORIENTED_EDGE('',*,*,#564,.F.);
#564 = EDGE_CURVE('',#477,#555,#565,.T.);
#565 = LINE('',#566,#567);
#566 = CARTESIAN_POINT('',(2.87,1.245,1.499));
#567 = VECTOR('',#568,1.);
#568 = DIRECTION('',(0.,0.,-1.));
#569 = ORIENTED_EDGE('',*,*,#500,.T.);
#570 = ORIENTED_EDGE('',*,*,#571,.F.);
#571 = EDGE_CURVE('',#557,#493,#572,.T.);
#572 = LINE('',#573,#574);
#573 = CARTESIAN_POINT('',(2.87,-1.245,0.));
#574 = VECTOR('',#575,1.);
#575 = DIRECTION('',(0.,0.,1.));
#576 = PLANE('',#577);
#577 = AXIS2_PLACEMENT_3D('',#578,#579,#580);
#578 = CARTESIAN_POINT('',(2.87,-1.245,0.));
#579 = DIRECTION('',(1.,0.,0.));
#580 = DIRECTION('',(0.,0.,1.));
#581 = ADVANCED_FACE('',(#582),#607,.T.);
#582 = FACE_BOUND('',#583,.T.);
#583 = EDGE_LOOP('',(#584,#594,#600,#601));
#584 = ORIENTED_EDGE('',*,*,#585,.F.);
#585 = EDGE_CURVE('',#586,#588,#590,.T.);
#586 = VERTEX_POINT('',#587);
#587 = CARTESIAN_POINT('',(2.711,-1.245,1.372));
#588 = VERTEX_POINT('',#589);
#589 = CARTESIAN_POINT('',(2.711,1.245,1.372));
#590 = LINE('',#591,#592);
#591 = CARTESIAN_POINT('',(2.711,-1.245,1.372));
#592 = VECTOR('',#593,1.);
#593 = DIRECTION('',(0.,1.,0.));
#594 = ORIENTED_EDGE('',*,*,#595,.F.);
#595 = EDGE_CURVE('',#485,#586,#596,.T.);
#596 = LINE('',#597,#598);
#597 = CARTESIAN_POINT('',(2.711,-1.245,1.499));
#598 = VECTOR('',#599,1.);
#599 = DIRECTION('',(0.,0.,-1.));
#600 = ORIENTED_EDGE('',*,*,#484,.T.);
#601 = ORIENTED_EDGE('',*,*,#602,.F.);
#602 = EDGE_CURVE('',#588,#475,#603,.T.);
#603 = LINE('',#604,#605);
#604 = CARTESIAN_POINT('',(2.711,1.245,1.372));
#605 = VECTOR('',#606,1.);
#606 = DIRECTION('',(0.,0.,1.));
#607 = PLANE('',#608);
#608 = AXIS2_PLACEMENT_3D('',#609,#610,#611);
#609 = CARTESIAN_POINT('',(2.711,1.245,1.372));
#610 = DIRECTION('',(-1.,0.,0.));
#611 = DIRECTION('',(0.,0.,1.));
#612 = ADVANCED_FACE('',(#613),#638,.T.);
#613 = FACE_BOUND('',#614,.T.);
#614 = EDGE_LOOP('',(#615,#625,#631,#632));
#615 = ORIENTED_EDGE('',*,*,#616,.F.);
#616 = EDGE_CURVE('',#617,#619,#621,.T.);
#617 = VERTEX_POINT('',#618);
#618 = CARTESIAN_POINT('',(1.473,-1.245,0.));
#619 = VERTEX_POINT('',#620);
#620 = CARTESIAN_POINT('',(1.473,1.245,0.));
#621 = LINE('',#622,#623);
#622 = CARTESIAN_POINT('',(1.473,-1.245,0.));
#623 = VECTOR('',#624,1.);
#624 = DIRECTION('',(0.,1.,0.));
#625 = ORIENTED_EDGE('',*,*,#626,.F.);
#626 = EDGE_CURVE('',#525,#617,#627,.T.);
#627 = LINE('',#628,#629);
#628 = CARTESIAN_POINT('',(1.473,-1.245,0.127));
#629 = VECTOR('',#630,1.);
#630 = DIRECTION('',(0.,0.,-1.));
#631 = ORIENTED_EDGE('',*,*,#524,.T.);
#632 = ORIENTED_EDGE('',*,*,#633,.F.);
#633 = EDGE_CURVE('',#619,#515,#634,.T.);
#634 = LINE('',#635,#636);
#635 = CARTESIAN_POINT('',(1.473,1.245,0.));
#636 = VECTOR('',#637,1.);
#637 = DIRECTION('',(0.,0.,1.));
#638 = PLANE('',#639);
#639 = AXIS2_PLACEMENT_3D('',#640,#641,#642);
#640 = CARTESIAN_POINT('',(1.473,1.245,0.));
#641 = DIRECTION('',(-1.,0.,0.));
#642 = DIRECTION('',(0.,0.,1.));
#643 = ADVANCED_FACE('',(#644),#669,.T.);
#644 = FACE_BOUND('',#645,.T.);
#645 = EDGE_LOOP('',(#646,#647,#655,#663));
#646 = ORIENTED_EDGE('',*,*,#540,.T.);
#647 = ORIENTED_EDGE('',*,*,#648,.F.);
#648 = EDGE_CURVE('',#649,#533,#651,.T.);
#649 = VERTEX_POINT('',#650);
#650 = CARTESIAN_POINT('',(2.743,-1.245,1.372));
#651 = LINE('',#652,#653);
#652 = CARTESIAN_POINT('',(2.743,-1.245,1.372));
#653 = VECTOR('',#654,1.);
#654 = DIRECTION('',(0.,0.,-1.));
#655 = ORIENTED_EDGE('',*,*,#656,.F.);
#656 = EDGE_CURVE('',#657,#649,#659,.T.);
#657 = VERTEX_POINT('',#658);
#658 = CARTESIAN_POINT('',(2.743,1.245,1.372));
#659 = LINE('',#660,#661);
#660 = CARTESIAN_POINT('',(2.743,1.245,1.372));
#661 = VECTOR('',#662,1.);
#662 = DIRECTION('',(0.,-1.,0.));
#663 = ORIENTED_EDGE('',*,*,#664,.F.);
#664 = EDGE_CURVE('',#517,#657,#665,.T.);
#665 = LINE('',#666,#667);
#666 = CARTESIAN_POINT('',(2.743,1.245,0.127));
#667 = VECTOR('',#668,1.);
#668 = DIRECTION('',(0.,0.,1.));
#669 = PLANE('',#670);
#670 = AXIS2_PLACEMENT_3D('',#671,#672,#673);
#671 = CARTESIAN_POINT('',(2.743,1.245,0.127));
#672 = DIRECTION('',(-1.,0.,0.));
#673 = DIRECTION('',(0.,0.,1.));
#674 = ADVANCED_FACE('',(#675),#691,.T.);
#675 = FACE_BOUND('',#676,.T.);
#676 = EDGE_LOOP('',(#677,#683,#684,#690));
#677 = ORIENTED_EDGE('',*,*,#678,.F.);
#678 = EDGE_CURVE('',#586,#649,#679,.T.);
#679 = LINE('',#680,#681);
#680 = CARTESIAN_POINT('',(2.711,-1.245,1.372));
#681 = VECTOR('',#682,1.);
#682 = DIRECTION('',(1.,0.,0.));
#683 = ORIENTED_EDGE('',*,*,#585,.T.);
#684 = ORIENTED_EDGE('',*,*,#685,.F.);
#685 = EDGE_CURVE('',#657,#588,#686,.T.);
#686 = LINE('',#687,#688);
#687 = CARTESIAN_POINT('',(2.743,1.245,1.372));
#688 = VECTOR('',#689,1.);
#689 = DIRECTION('',(-1.,0.,0.));
#690 = ORIENTED_EDGE('',*,*,#656,.T.);
#691 = PLANE('',#692);
#692 = AXIS2_PLACEMENT_3D('',#693,#694,#695);
#693 = CARTESIAN_POINT('',(2.743,-1.245,1.372));
#694 = DIRECTION('',(0.,0.,-1.));
#695 = DIRECTION('',(0.,1.,0.));
#696 = ADVANCED_FACE('',(#697),#713,.T.);
#697 = FACE_BOUND('',#698,.T.);
#698 = EDGE_LOOP('',(#699,#705,#706,#712));
#699 = ORIENTED_EDGE('',*,*,#700,.F.);
#700 = EDGE_CURVE('',#617,#557,#701,.T.);
#701 = LINE('',#702,#703);
#702 = CARTESIAN_POINT('',(1.473,-1.245,0.));
#703 = VECTOR('',#704,1.);
#704 = DIRECTION('',(1.,0.,0.));
#705 = ORIENTED_EDGE('',*,*,#616,.T.);
#706 = ORIENTED_EDGE('',*,*,#707,.F.);
#707 = EDGE_CURVE('',#555,#619,#708,.T.);
#708 = LINE('',#709,#710);
#709 = CARTESIAN_POINT('',(2.87,1.245,0.));
#710 = VECTOR('',#711,1.);
#711 = DIRECTION('',(-1.,0.,0.));
#712 = ORIENTED_EDGE('',*,*,#554,.T.);
#713 = PLANE('',#714);
#714 = AXIS2_PLACEMENT_3D('',#715,#716,#717);
#715 = CARTESIAN_POINT('',(2.87,-1.245,0.));
#716 = DIRECTION('',(0.,0.,-1.));
#717 = DIRECTION('',(0.,1.,0.));
#718 = ADVANCED_FACE('',(#719),#729,.T.);
#719 = FACE_BOUND('',#720,.T.);
#720 = EDGE_LOOP('',(#721,#722,#723,#724,#725,#726,#727,#728));
#721 = ORIENTED_EDGE('',*,*,#707,.T.);
#722 = ORIENTED_EDGE('',*,*,#633,.T.);
#723 = ORIENTED_EDGE('',*,*,#514,.T.);
#724 = ORIENTED_EDGE('',*,*,#664,.T.);
#725 = ORIENTED_EDGE('',*,*,#685,.T.);
#726 = ORIENTED_EDGE('',*,*,#602,.T.);
#727 = ORIENTED_EDGE('',*,*,#474,.T.);
#728 = ORIENTED_EDGE('',*,*,#564,.T.);
#729 = PLANE('',#730);
#730 = AXIS2_PLACEMENT_3D('',#731,#732,#733);
#731 = CARTESIAN_POINT('',(2.87,1.245,0.));
#732 = DIRECTION('',(0.,1.,0.));
#733 = DIRECTION('',(0.,-0.,1.));
#734 = ADVANCED_FACE('',(#735),#745,.T.);
#735 = FACE_BOUND('',#736,.T.);
#736 = EDGE_LOOP('',(#737,#738,#739,#740,#741,#742,#743,#744));
#737 = ORIENTED_EDGE('',*,*,#700,.T.);
#738 = ORIENTED_EDGE('',*,*,#571,.T.);
#739 = ORIENTED_EDGE('',*,*,#492,.T.);
#740 = ORIENTED_EDGE('',*,*,#595,.T.);
#741 = ORIENTED_EDGE('',*,*,#678,.T.);
#742 = ORIENTED_EDGE('',*,*,#648,.T.);
#743 = ORIENTED_EDGE('',*,*,#532,.T.);
#744 = ORIENTED_EDGE('',*,*,#626,.T.);
#745 = PLANE('',#746);
#746 = AXIS2_PLACEMENT_3D('',#747,#748,#749);
#747 = CARTESIAN_POINT('',(1.473,-1.245,0.));
#748 = DIRECTION('',(0.,-1.,0.));
#749 = DIRECTION('',(0.,0.,1.));
#750 = ( GEOMETRIC_REPRESENTATION_CONTEXT(3) 
GLOBAL_UNCERTAINTY_ASSIGNED_CONTEXT((#754)) GLOBAL_UNIT_ASSIGNED_CONTEXT
((#751,#752,#753)) REPRESENTATION_CONTEXT('Context #1',
  '3D Context with UNIT and UNCERTAINTY') );
#751 = ( LENGTH_UNIT() NAMED_UNIT(*) SI_UNIT(.MILLI.,.METRE.) );
#752 = ( NAMED_UNIT(*) PLANE_ANGLE_UNIT() SI_UNIT($,.RADIAN.) );
#753 = ( NAMED_UNIT(*) SI_UNIT($,.STERADIAN.) SOLID_ANGLE_UNIT() );
#754 = UNCERTAINTY_MEASURE_WITH_UNIT(LENGTH_MEASURE(1.E-07),#751,
  'distance_accuracy_value','confusion accuracy');
#755 = CONTEXT_DEPENDENT_SHAPE_REPRESENTATION(#756,#758);
#756 = ( REPRESENTATION_RELATIONSHIP('','',#467,#10) 
REPRESENTATION_RELATIONSHIP_WITH_TRANSFORMATION(#757) 
SHAPE_REPRESENTATION_RELATIONSHIP() );
#757 = ITEM_DEFINED_TRANSFORMATION('','',#11,#19);
#758 = PRODUCT_DEFINITION_SHAPE('Placement','Placement of an item',#759
  );
#759 = NEXT_ASSEMBLY_USAGE_OCCURRENCE('2','part001','',#5,#462,$);
#760 = PRODUCT_RELATED_PRODUCT_CATEGORY('part',$,(#464));
#761 = SHAPE_DEFINITION_REPRESENTATION(#762,#768);
#762 = PRODUCT_DEFINITION_SHAPE('','',#763);
#763 = PRODUCT_DEFINITION('design','',#764,#767);
#764 = PRODUCT_DEFINITION_FORMATION('','',#765);
#765 = PRODUCT('part002','part002','',(#766));
#766 = PRODUCT_CONTEXT('',#2,'mechanical');
#767 = PRODUCT_DEFINITION_CONTEXT('part definition',#2,'design');
#768 = ADVANCED_BREP_SHAPE_REPRESENTATION('',(#11,#769),#1051);
#769 = MANIFOLD_SOLID_BREP('',#770);
#770 = CLOSED_SHELL('',(#771,#811,#851,#882,#913,#944,#975,#997,#1019,
    #1035));
#771 = ADVANCED_FACE('',(#772),#806,.T.);
#772 = FACE_BOUND('',#773,.T.);
#773 = EDGE_LOOP('',(#774,#784,#792,#800));
#774 = ORIENTED_EDGE('',*,*,#775,.F.);
#775 = EDGE_CURVE('',#776,#778,#780,.T.);
#776 = VERTEX_POINT('',#777);
#777 = CARTESIAN_POINT('',(-2.711,-1.245,1.499));
#778 = VERTEX_POINT('',#779);
#779 = CARTESIAN_POINT('',(-2.87,-1.245,1.499));
#780 = LINE('',#781,#782);
#781 = CARTESIAN_POINT('',(-2.711,-1.245,1.499));
#782 = VECTOR('',#783,1.);
#783 = DIRECTION('',(-1.,0.,0.));
#784 = ORIENTED_EDGE('',*,*,#785,.F.);
#785 = EDGE_CURVE('',#786,#776,#788,.T.);
#786 = VERTEX_POINT('',#787);
#787 = CARTESIAN_POINT('',(-2.711,1.245,1.499));
#788 = LINE('',#789,#790);
#789 = CARTESIAN_POINT('',(-2.711,1.245,1.499));
#790 = VECTOR('',#791,1.);
#791 = DIRECTION('',(0.,-1.,0.));
#792 = ORIENTED_EDGE('',*,*,#793,.F.);
#793 = EDGE_CURVE('',#794,#786,#796,.T.);
#794 = VERTEX_POINT('',#795);
#795 = CARTESIAN_POINT('',(-2.87,1.245,1.499));
#796 = LINE('',#797,#798);
#797 = CARTESIAN_POINT('',(-2.87,1.245,1.499));
#798 = VECTOR('',#799,1.);
#799 = DIRECTION('',(1.,0.,0.));
#800 = ORIENTED_EDGE('',*,*,#801,.F.);
#801 = EDGE_CURVE('',#778,#794,#802,.T.);
#802 = LINE('',#803,#804);
#803 = CARTESIAN_POINT('',(-2.87,-1.245,1.499));
#804 = VECTOR('',#805,1.);
#805 = DIRECTION('',(0.,1.,0.));
#806 = PLANE('',#807);
#807 = AXIS2_PLACEMENT_3D('',#808,#809,#810);
#808 = CARTESIAN_POINT('',(-2.87,-1.245,1.499));
#809 = DIRECTION('',(0.,0.,1.));
#810 = DIRECTION('',(0.,1.,0.));
#811 = ADVANCED_FACE('',(#812),#846,.T.);
#812 = FACE_BOUND('',#813,.T.);
#813 = EDGE_LOOP('',(#814,#824,#832,#840));
#814 = ORIENTED_EDGE('',*,*,#815,.F.);
#815 = EDGE_CURVE('',#816,#818,#820,.T.);
#816 = VERTEX_POINT('',#817);
#817 = CARTESIAN_POINT('',(-1.473,-1.245,0.127));
#818 = VERTEX_POINT('',#819);
#819 = CARTESIAN_POINT('',(-2.743,-1.245,0.127));
#820 = LINE('',#821,#822);
#821 = CARTESIAN_POINT('',(-1.473,-1.245,0.127));
#822 = VECTOR('',#823,1.);
#823 = DIRECTION('',(-1.,0.,0.));
#824 = ORIENTED_EDGE('',*,*,#825,.F.);
#825 = EDGE_CURVE('',#826,#816,#828,.T.);
#826 = VERTEX_POINT('',#827);
#827 = CARTESIAN_POINT('',(-1.473,1.245,0.127));
#828 = LINE('',#829,#830);
#829 = CARTESIAN_POINT('',(-1.473,1.245,0.127));
#830 = VECTOR('',#831,1.);
#831 = DIRECTION('',(0.,-1.,0.));
#832 = ORIENTED_EDGE('',*,*,#833,.F.);
#833 = EDGE_CURVE('',#834,#826,#836,.T.);
#834 = VERTEX_POINT('',#835);
#835 = CARTESIAN_POINT('',(-2.743,1.245,0.127));
#836 = LINE('',#837,#838);
#837 = CARTESIAN_POINT('',(-2.743,1.245,0.127));
#838 = VECTOR('',#839,1.);
#839 = DIRECTION('',(1.,0.,0.));
#840 = ORIENTED_EDGE('',*,*,#841,.F.);
#841 = EDGE_CURVE('',#818,#834,#842,.T.);
#842 = LINE('',#843,#844);
#843 = CARTESIAN_POINT('',(-2.743,-1.245,0.127));
#844 = VECTOR('',#845,1.);
#845 = DIRECTION('',(0.,1.,0.));
#846 = PLANE('',#847);
#847 = AXIS2_PLACEMENT_3D('',#848,#849,#850);
#848 = CARTESIAN_POINT('',(-2.743,-1.245,0.127));
#849 = DIRECTION('',(0.,0.,1.));
#850 = DIRECTION('',(0.,1.,0.));
#851 = ADVANCED_FACE('',(#852),#877,.T.);
#852 = FACE_BOUND('',#853,.T.);
#853 = EDGE_LOOP('',(#854,#864,#870,#871));
#854 = ORIENTED_EDGE('',*,*,#855,.F.);
#855 = EDGE_CURVE('',#856,#858,#860,.T.);
#856 = VERTEX_POINT('',#857);
#857 = CARTESIAN_POINT('',(-2.87,-1.245,0.));
#858 = VERTEX_POINT('',#859);
#859 = CARTESIAN_POINT('',(-2.87,1.245,0.));
#860 = LINE('',#861,#862);
#861 = CARTESIAN_POINT('',(-2.87,-1.245,0.));
#862 = VECTOR('',#863,1.);
#863 = DIRECTION('',(0.,1.,0.));
#864 = ORIENTED_EDGE('',*,*,#865,.F.);
#865 = EDGE_CURVE('',#778,#856,#866,.T.);
#866 = LINE('',#867,#868);
#867 = CARTESIAN_POINT('',(-2.87,-1.245,1.499));
#868 = VECTOR('',#869,1.);
#869 = DIRECTION('',(0.,0.,-1.));
#870 = ORIENTED_EDGE('',*,*,#801,.T.);
#871 = ORIENTED_EDGE('',*,*,#872,.F.);
#872 = EDGE_CURVE('',#858,#794,#873,.T.);
#873 = LINE('',#874,#875);
#874 = CARTESIAN_POINT('',(-2.87,1.245,0.));
#875 = VECTOR('',#876,1.);
#876 = DIRECTION('',(0.,0.,1.));
#877 = PLANE('',#878);
#878 = AXIS2_PLACEMENT_3D('',#879,#880,#881);
#879 = CARTESIAN_POINT('',(-2.87,1.245,0.));
#880 = DIRECTION('',(-1.,0.,0.));
#881 = DIRECTION('',(0.,0.,1.));
#882 = ADVANCED_FACE('',(#883),#908,.T.);
#883 = FACE_BOUND('',#884,.T.);
#884 = EDGE_LOOP('',(#885,#895,#901,#902));
#885 = ORIENTED_EDGE('',*,*,#886,.F.);
#886 = EDGE_CURVE('',#887,#889,#891,.T.);
#887 = VERTEX_POINT('',#888);
#888 = CARTESIAN_POINT('',(-2.711,1.245,1.372));
#889 = VERTEX_POINT('',#890);
#890 = CARTESIAN_POINT('',(-2.711,-1.245,1.372));
#891 = LINE('',#892,#893);
#892 = CARTESIAN_POINT('',(-2.711,1.245,1.372));
#893 = VECTOR('',#894,1.);
#894 = DIRECTION('',(0.,-1.,0.));
#895 = ORIENTED_EDGE('',*,*,#896,.F.);
#896 = EDGE_CURVE('',#786,#887,#897,.T.);
#897 = LINE('',#898,#899);
#898 = CARTESIAN_POINT('',(-2.711,1.245,1.499));
#899 = VECTOR('',#900,1.);
#900 = DIRECTION('',(0.,0.,-1.));
#901 = ORIENTED_EDGE('',*,*,#785,.T.);
#902 = ORIENTED_EDGE('',*,*,#903,.F.);
#903 = EDGE_CURVE('',#889,#776,#904,.T.);
#904 = LINE('',#905,#906);
#905 = CARTESIAN_POINT('',(-2.711,-1.245,1.372));
#906 = VECTOR('',#907,1.);
#907 = DIRECTION('',(0.,0.,1.));
#908 = PLANE('',#909);
#909 = AXIS2_PLACEMENT_3D('',#910,#911,#912);
#910 = CARTESIAN_POINT('',(-2.711,-1.245,1.372));
#911 = DIRECTION('',(1.,0.,0.));
#912 = DIRECTION('',(0.,0.,1.));
#913 = ADVANCED_FACE('',(#914),#939,.T.);
#914 = FACE_BOUND('',#915,.T.);
#915 = EDGE_LOOP('',(#916,#926,#932,#933));
#916 = ORIENTED_EDGE('',*,*,#917,.F.);
#917 = EDGE_CURVE('',#918,#920,#922,.T.);
#918 = VERTEX_POINT('',#919);
#919 = CARTESIAN_POINT('',(-1.473,1.245,0.));
#920 = VERTEX_POINT('',#921);
#921 = CARTESIAN_POINT('',(-1.473,-1.245,0.));
#922 = LINE('',#923,#924);
#923 = CARTESIAN_POINT('',(-1.473,1.245,0.));
#924 = VECTOR('',#925,1.);
#925 = DIRECTION('',(0.,-1.,0.));
#926 = ORIENTED_EDGE('',*,*,#927,.F.);
#927 = EDGE_CURVE('',#826,#918,#928,.T.);
#928 = LINE('',#929,#930);
#929 = CARTESIAN_POINT('',(-1.473,1.245,0.127));
#930 = VECTOR('',#931,1.);
#931 = DIRECTION('',(0.,0.,-1.));
#932 = ORIENTED_EDGE('',*,*,#825,.T.);
#933 = ORIENTED_EDGE('',*,*,#934,.F.);
#934 = EDGE_CURVE('',#920,#816,#935,.T.);
#935 = LINE('',#936,#937);
#936 = CARTESIAN_POINT('',(-1.473,-1.245,0.));
#937 = VECTOR('',#938,1.);
#938 = DIRECTION('',(0.,0.,1.));
#939 = PLANE('',#940);
#940 = AXIS2_PLACEMENT_3D('',#941,#942,#943);
#941 = CARTESIAN_POINT('',(-1.473,-1.245,0.));
#942 = DIRECTION('',(1.,0.,0.));
#943 = DIRECTION('',(0.,0.,1.));
#944 = ADVANCED_FACE('',(#945),#970,.T.);
#945 = FACE_BOUND('',#946,.T.);
#946 = EDGE_LOOP('',(#947,#948,#956,#964));
#947 = ORIENTED_EDGE('',*,*,#841,.T.);
#948 = ORIENTED_EDGE('',*,*,#949,.F.);
#949 = EDGE_CURVE('',#950,#834,#952,.T.);
#950 = VERTEX_POINT('',#951);
#951 = CARTESIAN_POINT('',(-2.743,1.245,1.372));
#952 = LINE('',#953,#954);
#953 = CARTESIAN_POINT('',(-2.743,1.245,1.372));
#954 = VECTOR('',#955,1.);
#955 = DIRECTION('',(0.,0.,-1.));
#956 = ORIENTED_EDGE('',*,*,#957,.F.);
#957 = EDGE_CURVE('',#958,#950,#960,.T.);
#958 = VERTEX_POINT('',#959);
#959 = CARTESIAN_POINT('',(-2.743,-1.245,1.372));
#960 = LINE('',#961,#962);
#961 = CARTESIAN_POINT('',(-2.743,-1.245,1.372));
#962 = VECTOR('',#963,1.);
#963 = DIRECTION('',(0.,1.,0.));
#964 = ORIENTED_EDGE('',*,*,#965,.F.);
#965 = EDGE_CURVE('',#818,#958,#966,.T.);
#966 = LINE('',#967,#968);
#967 = CARTESIAN_POINT('',(-2.743,-1.245,0.127));
#968 = VECTOR('',#969,1.);
#969 = DIRECTION('',(0.,0.,1.));
#970 = PLANE('',#971);
#971 = AXIS2_PLACEMENT_3D('',#972,#973,#974);
#972 = CARTESIAN_POINT('',(-2.743,-1.245,0.127));
#973 = DIRECTION('',(1.,0.,0.));
#974 = DIRECTION('',(0.,0.,1.));
#975 = ADVANCED_FACE('',(#976),#992,.T.);
#976 = FACE_BOUND('',#977,.T.);
#977 = EDGE_LOOP('',(#978,#984,#985,#991));
#978 = ORIENTED_EDGE('',*,*,#979,.F.);
#979 = EDGE_CURVE('',#887,#950,#980,.T.);
#980 = LINE('',#981,#982);
#981 = CARTESIAN_POINT('',(-2.711,1.245,1.372));
#982 = VECTOR('',#983,1.);
#983 = DIRECTION('',(-1.,0.,0.));
#984 = ORIENTED_EDGE('',*,*,#886,.T.);
#985 = ORIENTED_EDGE('',*,*,#986,.F.);
#986 = EDGE_CURVE('',#958,#889,#987,.T.);
#987 = LINE('',#988,#989);
#988 = CARTESIAN_POINT('',(-2.743,-1.245,1.372));
#989 = VECTOR('',#990,1.);
#990 = DIRECTION('',(1.,0.,0.));
#991 = ORIENTED_EDGE('',*,*,#957,.T.);
#992 = PLANE('',#993);
#993 = AXIS2_PLACEMENT_3D('',#994,#995,#996);
#994 = CARTESIAN_POINT('',(-2.743,1.245,1.372));
#995 = DIRECTION('',(0.,0.,-1.));
#996 = DIRECTION('',(0.,1.,0.));
#997 = ADVANCED_FACE('',(#998),#1014,.T.);
#998 = FACE_BOUND('',#999,.T.);
#999 = EDGE_LOOP('',(#1000,#1006,#1007,#1013));
#1000 = ORIENTED_EDGE('',*,*,#1001,.F.);
#1001 = EDGE_CURVE('',#918,#858,#1002,.T.);
#1002 = LINE('',#1003,#1004);
#1003 = CARTESIAN_POINT('',(-1.473,1.245,0.));
#1004 = VECTOR('',#1005,1.);
#1005 = DIRECTION('',(-1.,0.,0.));
#1006 = ORIENTED_EDGE('',*,*,#917,.T.);
#1007 = ORIENTED_EDGE('',*,*,#1008,.F.);
#1008 = EDGE_CURVE('',#856,#920,#1009,.T.);
#1009 = LINE('',#1010,#1011);
#1010 = CARTESIAN_POINT('',(-2.87,-1.245,0.));
#1011 = VECTOR('',#1012,1.);
#1012 = DIRECTION('',(1.,0.,0.));
#1013 = ORIENTED_EDGE('',*,*,#855,.T.);
#1014 = PLANE('',#1015);
#1015 = AXIS2_PLACEMENT_3D('',#1016,#1017,#1018);
#1016 = CARTESIAN_POINT('',(-2.87,1.245,0.));
#1017 = DIRECTION('',(0.,0.,-1.));
#1018 = DIRECTION('',(0.,1.,0.));
#1019 = ADVANCED_FACE('',(#1020),#1030,.T.);
#1020 = FACE_BOUND('',#1021,.T.);
#1021 = EDGE_LOOP('',(#1022,#1023,#1024,#1025,#1026,#1027,#1028,#1029));
#1022 = ORIENTED_EDGE('',*,*,#1008,.T.);
#1023 = ORIENTED_EDGE('',*,*,#934,.T.);
#1024 = ORIENTED_EDGE('',*,*,#815,.T.);
#1025 = ORIENTED_EDGE('',*,*,#965,.T.);
#1026 = ORIENTED_EDGE('',*,*,#986,.T.);
#1027 = ORIENTED_EDGE('',*,*,#903,.T.);
#1028 = ORIENTED_EDGE('',*,*,#775,.T.);
#1029 = ORIENTED_EDGE('',*,*,#865,.T.);
#1030 = PLANE('',#1031);
#1031 = AXIS2_PLACEMENT_3D('',#1032,#1033,#1034);
#1032 = CARTESIAN_POINT('',(-2.87,-1.245,0.));
#1033 = DIRECTION('',(0.,-1.,0.));
#1034 = DIRECTION('',(0.,0.,1.));
#1035 = ADVANCED_FACE('',(#1036),#1046,.T.);
#1036 = FACE_BOUND('',#1037,.T.);
#1037 = EDGE_LOOP('',(#1038,#1039,#1040,#1041,#1042,#1043,#1044,#1045));
#1038 = ORIENTED_EDGE('',*,*,#1001,.T.);
#1039 = ORIENTED_EDGE('',*,*,#872,.T.);
#1040 = ORIENTED_EDGE('',*,*,#793,.T.);
#1041 = ORIENTED_EDGE('',*,*,#896,.T.);
#1042 = ORIENTED_EDGE('',*,*,#979,.T.);
#1043 = ORIENTED_EDGE('',*,*,#949,.T.);
#1044 = ORIENTED_EDGE('',*,*,#833,.T.);
#1045 = ORIENTED_EDGE('',*,*,#927,.T.);
#1046 = PLANE('',#1047);
#1047 = AXIS2_PLACEMENT_3D('',#1048,#1049,#1050);
#1048 = CARTESIAN_POINT('',(-1.473,1.245,0.));
#1049 = DIRECTION('',(0.,1.,0.));
#1050 = DIRECTION('',(0.,-0.,1.));
#1051 = ( GEOMETRIC_REPRESENTATION_CONTEXT(3) 
GLOBAL_UNCERTAINTY_ASSIGNED_CONTEXT((#1055)) 
GLOBAL_UNIT_ASSIGNED_CONTEXT((#1052,#1053,#1054)) REPRESENTATION_CONTEXT
('Context #1','3D Context with UNIT and UNCERTAINTY') );
#1052 = ( LENGTH_UNIT() NAMED_UNIT(*) SI_UNIT(.MILLI.,.METRE.) );
#1053 = ( NAMED_UNIT(*) PLANE_ANGLE_UNIT() SI_UNIT($,.RADIAN.) );
#1054 = ( NAMED_UNIT(*) SI_UNIT($,.STERADIAN.) SOLID_ANGLE_UNIT() );
#1055 = UNCERTAINTY_MEASURE_WITH_UNIT(LENGTH_MEASURE(1.E-07),#1052,
  'distance_accuracy_value','confusion accuracy');
#1056 = CONTEXT_DEPENDENT_SHAPE_REPRESENTATION(#1057,#1059);
#1057 = ( REPRESENTATION_RELATIONSHIP('','',#768,#10) 
REPRESENTATION_RELATIONSHIP_WITH_TRANSFORMATION(#1058) 
SHAPE_REPRESENTATION_RELATIONSHIP() );
#1058 = ITEM_DEFINED_TRANSFORMATION('','',#11,#23);
#1059 = PRODUCT_DEFINITION_SHAPE('Placement','Placement of an item',
  #1060);
#1060 = NEXT_ASSEMBLY_USAGE_OCCURRENCE('3','part002','',#5,#763,$);
#1061 = PRODUCT_RELATED_PRODUCT_CATEGORY('part',$,(#765));
#1062 = MECHANICAL_DESIGN_GEOMETRIC_PRESENTATION_REPRESENTATION('',(
    #1063),#750);
#1063 = STYLED_ITEM('color',(#1064),#468);
#1064 = PRESENTATION_STYLE_ASSIGNMENT((#1065,#1071));
#1065 = SURFACE_STYLE_USAGE(.BOTH.,#1066);
#1066 = SURFACE_SIDE_STYLE('',(#1067));
#1067 = SURFACE_STYLE_FILL_AREA(#1068);
#1068 = FILL_AREA_STYLE('',(#1069));
#1069 = FILL_AREA_STYLE_COLOUR('',#1070);
#1070 = COLOUR_RGB('',0.725490202603,0.725490202603,0.725490202603);
#1071 = CURVE_STYLE('',#1072,POSITIVE_LENGTH_MEASURE(0.1),#1073);
#1072 = DRAUGHTING_PRE_DEFINED_CURVE_FONT('continuous');
#1073 = COLOUR_RGB('',9.803921802644E-02,9.803921802644E-02,
  9.803921802644E-02);
#1074 = MECHANICAL_DESIGN_GEOMETRIC_PRESENTATION_REPRESENTATION('',(
    #1075),#449);
#1075 = STYLED_ITEM('color',(#1076),#41);
#1076 = PRESENTATION_STYLE_ASSIGNMENT((#1077,#1083));
#1077 = SURFACE_STYLE_USAGE(.BOTH.,#1078);
#1078 = SURFACE_SIDE_STYLE('',(#1079));
#1079 = SURFACE_STYLE_FILL_AREA(#1080);
#1080 = FILL_AREA_STYLE('',(#1081));
#1081 = FILL_AREA_STYLE_COLOUR('',#1082);
#1082 = COLOUR_RGB('',0.576470603584,0.576470603584,0.576470603584);
#1083 = CURVE_STYLE('',#1084,POSITIVE_LENGTH_MEASURE(0.1),#1073);
#1084 = DRAUGHTING_PRE_DEFINED_CURVE_FONT('continuous');
#1085 = MECHANICAL_DESIGN_GEOMETRIC_PRESENTATION_REPRESENTATION('',(
    #1086),#1051);
#1086 = STYLED_ITEM('color',(#1087),#769);
#1087 = PRESENTATION_STYLE_ASSIGNMENT((#1088,#1093));
#1088 = SURFACE_STYLE_USAGE(.BOTH.,#1089);
#1089 = SURFACE_SIDE_STYLE('',(#1090));
#1090 = SURFACE_STYLE_FILL_AREA(#1091);
#1091 = FILL_AREA_STYLE('',(#1092));
#1092 = FILL_AREA_STYLE_COLOUR('',#1070);
#1093 = CURVE_STYLE('',#1094,POSITIVE_LENGTH_MEASURE(0.1),#1073);
#1094 = DRAUGHTING_PRE_DEFINED_CURVE_FONT('continuous');
ENDSEC;
END-ISO-10303-21;
