M48
; DRILL file {KiCad 9.0.4} date 2026-02-18T13:45:47-0500
; FORMAT={-:-/ absolute / metric / decimal}
; #@! TF.CreationDate,2026-02-18T13:45:47-05:00
; #@! TF.GenerationSoftware,Kicad,Pcbnew,9.0.4
; #@! TF.FileFunction,Plated,1,4,PTH
FMAT,2
METRIC
; #@! TA.AperFunction,Plated,PTH,ViaDrill
T1C0.300
; #@! TA.AperFunction,Plated,PTH,ComponentDrill
T2C0.300
; #@! TA.AperFunction,Plated,PTH,ComponentDrill
T3C0.500
; #@! TA.AperFunction,Plated,PTH,ComponentDrill
T4C0.800
; #@! TA.AperFunction,Plated,PTH,ComponentDrill
T5C1.000
; #@! TA.AperFunction,Plated,PTH,ComponentDrill
T6C3.200
%
G90
G05
T1
X60.0Y-45.0
X60.0Y-50.0
X60.0Y-55.0
X60.0Y-60.0
X60.0Y-65.0
X60.0Y-85.0
X60.0Y-90.0
X60.0Y-95.0
X60.0Y-100.0
X60.0Y-135.0
X60.0Y-140.0
X60.0Y-145.0
X61.0Y-93.2
X61.0Y-93.9
X61.0Y-94.6
X63.8Y-144.25
X63.8Y-145.15
X64.0Y-96.0
X64.4Y-97.6
X64.4Y-98.9
X64.7Y-144.25
X64.7Y-145.15
X65.0Y-45.0
X65.0Y-50.0
X65.0Y-55.0
X65.0Y-60.0
X65.0Y-65.0
X65.0Y-105.0
X65.0Y-110.0
X65.0Y-115.0
X65.0Y-120.0
X65.0Y-125.0
X65.0Y-130.0
X65.9Y-97.6
X65.9Y-98.9
X66.0Y-93.0
X67.5Y-98.9
X68.8Y-89.7
X69.6Y-98.9
X69.9Y-89.7
X70.0Y-45.0
X70.0Y-50.0
X70.0Y-55.0
X70.0Y-65.0
X70.0Y-105.0
X70.0Y-110.0
X70.0Y-115.0
X70.2Y-96.9
X71.1Y-97.7
X71.1Y-98.9
X71.8Y-96.4
X72.6Y-97.7
X72.6Y-98.9
X75.0Y-45.0
X75.0Y-50.0
X75.0Y-55.0
X75.0Y-60.0
X75.0Y-65.0
X75.0Y-105.0
X75.0Y-110.0
X75.0Y-115.0
X75.0Y-120.0
X75.0Y-125.0
X76.9Y-138.25
X78.5Y-97.662
X78.5Y-98.762
X80.0Y-45.0
X80.0Y-50.0
X80.0Y-55.0
X80.0Y-60.0
X80.0Y-65.0
X80.0Y-105.0
X80.0Y-110.0
X80.0Y-115.0
X80.0Y-120.0
X80.0Y-125.0
X80.0Y-145.0
X80.8Y-98.962
X85.0Y-45.0
X85.0Y-50.0
X85.0Y-55.0
X85.0Y-60.0
X85.0Y-65.0
X85.0Y-85.0
X85.0Y-90.0
X85.0Y-105.0
X85.0Y-110.0
X85.0Y-115.0
X85.0Y-120.0
X85.0Y-125.0
X85.0Y-130.0
X85.0Y-145.0
X86.9Y-144.0
X90.0Y-45.0
X90.0Y-50.0
X90.0Y-55.0
X90.0Y-60.0
X90.0Y-65.0
X90.0Y-85.0
X90.0Y-90.0
X90.0Y-95.0
X90.0Y-100.0
X90.0Y-105.0
X90.0Y-125.0
X90.0Y-130.0
X90.0Y-135.0
X90.0Y-140.0
X90.0Y-145.0
X95.0Y-45.0
X95.0Y-50.0
X95.0Y-55.0
X95.0Y-60.0
X95.0Y-65.0
X95.0Y-85.0
X95.0Y-90.0
X95.0Y-95.0
X95.0Y-100.0
X95.0Y-105.0
X95.0Y-110.0
X95.0Y-115.0
X95.0Y-120.0
X95.0Y-125.0
X95.0Y-130.0
X95.0Y-135.0
X95.0Y-140.0
X95.0Y-145.0
X100.0Y-55.0
X100.0Y-60.0
X100.0Y-65.0
X100.0Y-70.0
X100.0Y-75.0
X100.0Y-80.0
X100.0Y-85.0
X100.0Y-90.0
X100.0Y-95.0
X100.0Y-100.0
X100.0Y-105.0
X100.0Y-110.0
X100.0Y-115.0
X100.0Y-120.0
X100.0Y-125.0
X100.0Y-130.0
X105.0Y-45.0
X105.0Y-50.0
X105.0Y-55.0
X105.0Y-105.0
X105.0Y-110.0
X105.0Y-115.0
X105.0Y-120.0
X105.0Y-125.0
X105.0Y-130.0
X105.0Y-135.0
X105.0Y-140.0
X110.0Y-45.0
X110.0Y-50.0
X110.0Y-55.0
X110.0Y-90.0
X110.0Y-95.0
X110.0Y-100.0
X110.0Y-115.0
X110.0Y-120.0
X110.0Y-125.0
X110.0Y-130.0
X110.0Y-135.0
X110.0Y-140.0
X110.8Y-88.06
X112.6Y-115.8
X112.6Y-116.7
X112.9Y-79.66
X112.9Y-80.36
X112.9Y-81.06
X113.5Y-115.8
X113.5Y-116.7
X115.0Y-45.0
X115.0Y-50.0
X115.0Y-55.0
X115.0Y-90.0
X115.0Y-95.0
X115.0Y-100.0
X115.0Y-125.0
X115.7Y-139.3
X116.6Y-138.5
X116.6Y-139.2
X118.3Y-88.66
X118.4Y-79.66
X118.4Y-80.46
X118.4Y-81.26
X119.3Y-79.66
X119.3Y-80.46
X119.3Y-81.26
X119.3Y-140.2
X119.4Y-136.2
X120.0Y-45.0
X120.0Y-50.0
X120.0Y-55.0
X120.0Y-90.0
X120.0Y-95.0
X120.0Y-100.0
X120.0Y-125.0
X120.5Y-136.2
X120.7Y-140.2
X120.96Y-133.885
X120.96Y-134.9
X121.9Y-51.8
X121.96Y-136.285
X122.4Y-85.26
X122.76Y-136.285
X122.9Y-57.0
X123.3Y-119.2
X123.3Y-120.1
X123.4Y-52.2
X123.56Y-136.285
X123.56Y-137.085
X123.6Y-139.1
X123.8Y-61.2
X123.8Y-62.7
X123.8Y-64.2
X123.8Y-65.7
X123.8Y-67.2
X123.8Y-140.1
X124.2Y-119.2
X124.2Y-120.1
X124.75Y-117.75
X124.8Y-54.4
X124.9Y-52.1
X125.0Y-45.0
X125.0Y-50.0
X125.0Y-90.0
X125.0Y-95.0
X125.0Y-100.0
X125.0Y-125.0
X125.3Y-58.7
X125.3Y-59.7
X125.3Y-61.2
X125.3Y-62.7
X125.3Y-64.2
X125.3Y-65.7
X125.3Y-67.2
X125.5Y-121.5
X125.5Y-124.5
X125.7Y-54.4
X125.9Y-140.1
X126.5Y-52.1
X126.6Y-54.4
X126.8Y-59.7
X126.8Y-65.7
X126.8Y-67.2
X127.0Y-79.66
X127.0Y-80.46
X127.0Y-81.26
X127.7Y-56.5
X127.9Y-79.66
X127.9Y-80.46
X127.9Y-81.26
X128.4Y-120.8
X128.5Y-123.0
X128.5Y-124.5
X128.5Y-125.5
X128.6Y-121.6
X130.0Y-45.0
X130.0Y-50.0
X130.0Y-90.0
X130.0Y-95.0
X130.0Y-100.0
X130.0Y-125.0
X133.0Y-68.4
X135.0Y-45.0
X135.0Y-50.0
X135.0Y-90.0
X135.0Y-95.0
X135.0Y-100.0
X135.0Y-105.0
X135.0Y-125.0
X136.5Y-59.6
X138.1Y-61.7
X138.1Y-64.2
X138.1Y-66.8
X140.0Y-45.0
X140.0Y-50.0
X140.0Y-90.0
X140.0Y-95.0
X140.0Y-100.0
X140.0Y-105.0
X140.0Y-110.0
X140.0Y-115.0
X140.0Y-125.0
X145.0Y-45.0
X145.0Y-50.0
X145.0Y-55.0
X145.0Y-60.0
X145.0Y-65.0
X145.0Y-70.0
X145.0Y-75.0
X145.0Y-80.0
X145.0Y-90.0
X145.0Y-95.0
X145.0Y-105.0
X145.0Y-110.0
X145.0Y-115.0
X145.0Y-120.0
X145.0Y-125.0
X145.0Y-130.0
X145.0Y-135.0
X145.0Y-140.0
X147.6Y-95.7
X150.0Y-55.0
X150.0Y-65.0
X150.0Y-70.0
X150.0Y-75.0
X150.0Y-80.0
X150.0Y-90.0
X150.0Y-95.0
X150.0Y-105.0
X150.0Y-110.0
X150.0Y-115.0
X150.0Y-120.0
X150.0Y-130.0
X150.0Y-135.0
X150.0Y-140.0
X152.938Y-51.05
X153.737Y-51.05
X155.0Y-60.0
X155.0Y-65.0
X155.0Y-70.0
X155.0Y-75.0
X155.0Y-80.0
X155.0Y-85.0
X155.0Y-90.0
X155.0Y-95.0
X155.0Y-100.0
X155.0Y-105.0
X155.0Y-110.0
X155.0Y-115.0
X155.0Y-120.0
X155.0Y-125.0
X155.0Y-130.0
X155.0Y-135.0
X155.0Y-140.0
X156.3Y-72.0
X160.0Y-55.0
X160.0Y-60.0
X160.0Y-65.0
X160.0Y-70.0
X160.0Y-80.0
X160.0Y-85.0
X160.0Y-90.0
X160.0Y-95.0
X160.0Y-100.0
X160.0Y-105.0
X160.0Y-115.0
X160.0Y-120.0
X160.0Y-125.0
X160.0Y-130.0
X161.5Y-138.2
X163.6Y-139.2
X164.7Y-137.7
X165.0Y-90.0
X165.0Y-95.0
X165.0Y-125.0
X165.0Y-130.0
X168.3Y-139.6
X168.4Y-95.025
X169.393Y-95.772
X169.4Y-137.7
X170.0Y-105.0
X170.0Y-125.0
X170.5Y-139.2
X171.163Y-88.452
X171.663Y-90.522
X172.6Y-140.5
X172.9Y-114.5
X172.97Y-93.55
X174.8Y-117.6
X175.0Y-114.9
X175.0Y-140.0
X176.0Y-122.981
X176.023Y-88.222
X176.6Y-93.325
X177.15Y-56.411
X177.6Y-88.225
X178.4Y-96.225
X179.85Y-57.311
X179.9Y-114.8
X180.1Y-116.4
X180.1Y-117.6
X180.1Y-118.7
X180.1Y-119.8
X180.1Y-120.9
X180.1Y-122.5
X181.1Y-116.4
X181.1Y-117.6
X181.1Y-118.7
X181.1Y-119.8
X181.1Y-120.9
X181.1Y-122.5
X181.5Y-113.5
X182.5Y-52.9
X183.8Y-107.7
X183.8Y-108.4
X183.8Y-109.2
X184.8Y-118.9
X185.0Y-130.0
X185.0Y-140.0
X185.5Y-69.0
X185.9Y-72.5
X186.0Y-56.0
X186.0Y-58.5
X188.5Y-58.5
X190.0Y-100.0
X190.0Y-105.0
X190.0Y-130.0
X190.0Y-135.0
X190.0Y-140.0
X191.5Y-125.5
X191.5Y-128.1
X192.0Y-60.9
X193.5Y-95.0
X194.0Y-110.9
X195.0Y-115.0
X195.0Y-120.0
X195.0Y-125.0
X195.1Y-109.4
X196.2Y-107.7
X198.7Y-71.7
X199.3Y-76.4
X200.0Y-85.0
X200.0Y-90.0
X200.0Y-95.0
X200.0Y-100.0
X200.0Y-105.0
X200.0Y-110.0
X200.0Y-120.0
X200.0Y-125.0
X200.0Y-130.0
X202.8Y-60.0
X202.8Y-69.5
X202.8Y-78.7
X204.1Y-133.4
X204.1Y-134.3
X204.4Y-136.8
X205.0Y-45.0
X205.0Y-50.0
X205.0Y-55.0
X205.0Y-85.0
X205.0Y-90.0
X205.0Y-95.0
X205.0Y-100.0
X205.0Y-105.0
X205.0Y-110.0
X205.0Y-115.0
X205.0Y-125.0
X205.2Y-130.1
X205.7Y-67.5
X206.2Y-134.3
X208.0Y-130.3
X208.0Y-131.5
X208.1Y-136.5
X208.4Y-134.2
X209.1Y-136.5
X209.5Y-42.0
X210.0Y-45.0
X210.0Y-50.0
X210.0Y-75.0
X210.0Y-80.0
X210.0Y-85.0
X210.0Y-90.0
X210.0Y-95.0
X210.0Y-105.0
X210.0Y-110.0
X210.0Y-115.0
X210.0Y-120.0
X210.0Y-140.0
X210.1Y-136.5
X210.4Y-99.45
X210.6Y-65.5
X210.6Y-67.2
X211.2Y-136.5
X212.0Y-140.4
X212.52Y-53.72
X212.7Y-120.8
X212.7Y-134.3
X213.0Y-96.1
X213.05Y-105.45
X213.2Y-127.5
X213.34Y-70.78
X213.5Y-130.3
X213.5Y-131.6
X213.5Y-133.1
X213.89Y-68.8
X214.246Y-102.76
X214.46Y-71.8
X214.5Y-54.95
X214.9Y-51.8
X214.9Y-99.8
X215.0Y-75.0
X215.0Y-80.0
X215.0Y-85.0
X215.0Y-95.0
X215.0Y-110.0
X215.0Y-115.0
X215.46Y-72.77
X215.5Y-139.9
X215.65Y-95.3
X216.25Y-67.5
X216.25Y-69.5
X216.25Y-99.05
X216.48Y-61.86
X216.5Y-124.9
X216.64Y-64.389
X216.7Y-136.1
X216.75Y-105.3
X216.94Y-64.973
X217.02Y-63.61
X217.2Y-128.9
X217.2Y-130.3
X217.2Y-131.6
X217.2Y-133.0
X217.25Y-68.5
X217.3Y-104.0
X217.4Y-125.0
X217.41Y-83.83
X217.46Y-79.28
X217.59Y-64.973
X217.6Y-111.6
X217.982Y-64.454
X218.08Y-75.09
X218.25Y-67.5
X218.25Y-69.5
X218.6Y-137.9
X218.64Y-59.56
X218.75Y-97.85
X218.83Y-83.05
X218.86Y-73.26
X218.9Y-124.3
X219.45Y-63.195
X219.5Y-103.0
X219.5Y-104.0
X219.5Y-123.6
X219.52Y-61.891
X219.8Y-125.0
X220.0Y-90.0
X220.0Y-95.0
X220.0Y-96.25
X220.0Y-97.5
X220.298Y-65.042
X220.3Y-120.1
X220.6Y-69.0
X220.6Y-82.6
X220.7Y-123.6
X220.8Y-63.35
X220.8Y-120.9
X220.8Y-122.5
X220.89Y-75.25
X220.9Y-68.35
X221.0Y-97.5
X221.0Y-101.75
X221.07Y-78.31
X221.46Y-80.99
X221.5Y-57.25
X221.51Y-73.45
X221.6Y-123.2
X221.614Y-66.358
X221.7Y-129.0
X221.7Y-130.2
X221.7Y-131.6
X221.7Y-133.0
X221.9Y-114.5
X221.9Y-139.5
X221.911Y-94.768
X222.0Y-97.5
X222.0Y-127.7
X222.1Y-137.85
X222.5Y-103.0
X222.5Y-104.0
X222.514Y-95.394
X222.56Y-77.12
X222.6Y-94.75
X222.7Y-94.103
X222.75Y-55.5
X222.75Y-59.25
X222.824Y-83.05
X222.933Y-82.05
X223.0Y-96.25
X223.0Y-98.75
X223.2Y-80.2
X223.384Y-94.341
X223.4Y-82.55
X223.45Y-83.225
X223.5Y-81.908
X223.5Y-105.75
X223.5Y-109.75
X223.545Y-73.495
X223.6Y-62.2
X223.75Y-55.5
X223.75Y-59.25
X223.808Y-66.329
X224.0Y-81.325
X224.013Y-95.12
X224.03Y-75.9
X224.05Y-94.45
X224.31Y-142.4
X224.311Y-93.854
X224.436Y-65.708
X224.458Y-66.358
X224.637Y-81.2
X224.747Y-67.462
X224.85Y-60.9
X224.93Y-64.31
X224.942Y-66.842
X225.0Y-57.25
X225.0Y-100.0
X225.0Y-125.0
X225.0Y-130.0
X225.0Y-135.0
X225.1Y-59.5
X225.354Y-67.345
X225.36Y-104.52
X225.37Y-62.62
X225.392Y-94.349
X225.5Y-52.5
X225.5Y-105.75
X225.5Y-109.75
X225.592Y-66.864
X225.6Y-131.0
X225.61Y-75.43
X225.73Y-55.01
X225.9Y-87.1
X225.91Y-53.8
X225.93Y-70.3
X225.946Y-95.042
X225.98Y-68.63
X226.0Y-93.2
X226.01Y-80.57
X226.05Y-94.4
X226.058Y-54.442
X226.1Y-84.3
X226.13Y-77.9
X226.25Y-52.5
X226.274Y-93.79
X226.3Y-115.957
X226.3Y-116.642
X226.4Y-130.5
X226.542Y-53.958
X227.0Y-52.5
X227.03Y-55.027
X227.03Y-63.31
X227.156Y-53.742
X227.3Y-131.2
X227.31Y-65.62
X227.438Y-94.445
X227.5Y-105.75
X227.5Y-109.75
X227.55Y-82.26
X227.7Y-80.9
X227.9Y-60.2
X227.9Y-73.84
X227.914Y-72.555
X227.97Y-66.96
X228.008Y-95.043
X228.1Y-94.4
X228.1Y-129.5
X228.15Y-57.25
X228.151Y-93.744
X228.2Y-62.7
X228.3Y-141.0
X228.4Y-131.3
X228.48Y-72.875
X228.48Y-73.525
X228.5Y-83.84
X228.69Y-69.55
X228.745Y-94.319
X229.063Y-73.825
X229.1Y-83.5
X229.1Y-132.3
X229.3Y-82.6
X229.3Y-88.46
X229.4Y-129.5
X229.45Y-55.5
X229.5Y-105.75
X229.5Y-109.75
X229.699Y-70.72
X230.0Y-125.0
X230.0Y-135.0
X230.55Y-63.8
X230.55Y-76.85
X230.64Y-65.59
X230.82Y-93.8
X231.0Y-52.5
X231.26Y-91.13
X231.3Y-61.3
X231.3Y-75.55
X231.321Y-139.279
X231.5Y-105.75
X231.5Y-109.75
X231.55Y-59.55
X231.6Y-77.25
X231.7Y-81.0
X231.7Y-86.5
X231.85Y-75.0
X231.88Y-68.45
X231.9Y-71.6
X232.04Y-84.04
X232.1Y-149.45
X232.35Y-67.3
X232.52Y-87.21
X232.7Y-65.65
X232.84Y-68.18
X232.85Y-76.2
X232.95Y-62.6
X233.38Y-78.25
X233.45Y-80.25
X233.5Y-52.5
X233.5Y-105.75
X233.5Y-109.75
X233.6Y-89.2
X233.65Y-59.6
X233.65Y-68.85
X233.7Y-74.15
X233.71Y-90.59
X233.8Y-56.6
X234.2Y-146.0
X234.45Y-76.3
X234.6Y-78.35
X234.8Y-136.3
X234.91Y-85.37
X235.0Y-95.0
X235.0Y-125.0
X235.0Y-130.0
X235.05Y-74.15
X235.43Y-59.68
X235.719Y-55.855
X235.75Y-66.0
X235.75Y-69.5
X235.8Y-56.5
X236.0Y-52.5
X236.189Y-98.407
X236.189Y-99.093
X236.2Y-62.3
X236.35Y-72.15
X236.35Y-74.1
X236.37Y-56.06
X236.547Y-59.946
X236.6Y-139.2
X236.7Y-77.6
X236.9Y-59.4
X237.0Y-147.8
X237.18Y-87.01
X237.25Y-95.85
X237.25Y-101.7
X237.3Y-113.1
X237.5Y-60.0
X237.542Y-55.77
X237.65Y-62.3
X237.7Y-103.3
X238.0Y-52.5
X238.0Y-118.7
X238.0Y-141.8
X238.24Y-99.093
X238.25Y-66.0
X238.3Y-97.09
X238.31Y-100.51
X238.35Y-95.75
X238.35Y-99.77
X238.35Y-101.75
X238.4Y-105.8
X238.5Y-136.2
X238.6Y-55.2
X238.9Y-107.4
X238.94Y-91.99
X239.45Y-83.49
X239.49Y-80.95
X239.615Y-75.915
X239.9Y-118.75
X240.0Y-52.5
X240.0Y-54.5
X240.0Y-56.6
X240.0Y-110.0
X240.0Y-125.0
X240.0Y-130.0
X240.0Y-135.0
X240.0Y-140.0
X240.0Y-145.0
X240.25Y-59.7
X240.8Y-76.05
X241.25Y-73.25
X241.3Y-95.7
X241.3Y-98.5
X241.3Y-101.8
X241.5Y-60.0
X241.5Y-99.9
X242.5Y-61.0
X242.5Y-66.0
X242.55Y-54.6
X242.55Y-56.15
X243.0Y-101.8
X243.6Y-52.45
X243.65Y-58.3
X243.8Y-77.45
X244.16Y-86.7
X244.45Y-83.49
X244.5Y-88.87
X244.66Y-90.61
X245.0Y-70.0
X245.0Y-100.0
X245.05Y-54.15
X245.3Y-95.8
X245.3Y-101.8
X245.8Y-78.5
X246.02Y-80.9
X246.25Y-76.25
X246.5Y-57.0
X246.5Y-61.0
X246.5Y-65.9
T2
X231.99Y-126.8
X231.99Y-128.2
X232.69Y-126.1
X232.69Y-127.5
X232.69Y-128.9
X233.39Y-126.8
X233.39Y-128.2
X234.09Y-126.1
X234.09Y-127.5
X234.09Y-128.9
X234.79Y-126.8
X234.79Y-128.2
T3
X169.633Y-91.922
X215.0Y-47.0
X217.25Y-94.25
T4
X168.2Y-64.836
X168.2Y-77.536
X175.0Y-71.186
X186.5Y-71.186
T5
X79.8Y-137.01
X79.8Y-139.55
X79.8Y-142.09
X80.8Y-91.56
X80.8Y-94.1
X80.8Y-96.64
X120.9Y-63.46
X120.9Y-66.0
X120.9Y-68.54
X130.96Y-134.005
X130.96Y-136.545
X130.96Y-139.085
X131.1Y-81.72
X131.1Y-84.26
X131.1Y-86.8
X131.1Y-114.12
X131.1Y-116.66
X131.1Y-119.2
X175.9Y-107.52
X175.9Y-110.06
X175.9Y-112.6
X181.3Y-133.56
X181.3Y-136.1
X181.3Y-138.64
X183.9Y-90.945
X183.9Y-93.485
X183.9Y-96.025
X184.2Y-57.146
X184.2Y-59.686
X184.2Y-62.226
T6
X70.0Y-60.5
X70.0Y-124.5
X99.0Y-47.0
X99.0Y-138.0
X150.0Y-60.5
X150.0Y-124.5
X199.0Y-47.0
X199.0Y-138.0
M30
